<svg width="544" height="322" viewBox="0 0 544 322" fill="none" xmlns="http://www.w3.org/2000/svg">
<path d="M525.935 319.564C525.935 319.564 571.522 188.48 517.862 125.92C487.921 91.0134 447.041 152.992 416.682 59.2982C399.014 4.77414 337.186 -11.7756 306.268 62.6637C275.351 137.103 248.773 136.728 227.44 122.958C202.976 107.166 192.228 59.636 153.933 69.6871C109.673 81.3039 115.599 151.73 82.985 139.467C20.091 115.818 -26.5066 250.927 16.9686 320.494L525.935 319.564Z" fill="#E9F3FE"/>
<path d="M134.767 240.411C134.767 240.411 121.12 250.564 118.459 249.948C115.798 249.332 128.433 238.988 128.433 238.988C123.678 236.701 108.899 238.135 108.899 238.135C108.899 238.135 103.976 254.018 101.549 252.766C99.1212 251.514 106.625 238.924 106.625 238.924C101.329 238.605 94.8349 242.539 94.8349 242.539C85.9438 249.564 95.4191 260.625 95.4191 260.625C95.4191 260.625 93.5944 266.093 87.9796 271.072C87.9796 271.072 79.9606 277.006 79.4033 287.608L80.8589 287.738C80.8589 287.738 83.1663 277.864 87.3592 273.193C87.5223 273.024 87.7594 272.781 88.0514 272.486C88.7347 271.853 89.2134 271.378 89.5349 271.025C91.6216 269.019 94.5055 266.464 95.8951 266.216C95.8448 265.986 95.8247 265.751 95.8355 265.516C95.8544 265.74 95.8741 265.97 95.8951 266.216C96.3707 271.806 107.21 276.688 113.878 277.692C120.547 278.696 118.485 275.953 116.188 271.887C113.89 267.82 106.619 266 104.96 264.128C103.301 262.255 106.731 262.251 110.749 264.087C114.766 265.923 115.316 270.818 121.761 273.907C128.207 276.995 137.905 266.294 137.905 266.294C132.768 266.033 125.433 260.452 125.698 258.744C125.964 257.036 138.15 261.69 140.233 261.913C142.316 262.137 147.055 259.544 147.789 251.148C148.522 242.753 134.767 240.411 134.767 240.411Z" fill="#82B378"/>
<path d="M62.2894 246.715C62.2894 246.715 77.3625 238.27 70.3283 226.807C70.3283 226.807 64.701 219.769 58.6718 217.96C58.6718 217.96 61.8875 235.052 58.6718 235.454C55.4562 235.856 56.4613 216.15 56.4613 216.15C56.4613 216.15 40.5842 208.509 34.3537 209.112C34.3537 209.112 44.2016 225.802 40.9863 225.4C37.7706 224.998 26.7171 208.107 26.7171 208.107C26.7171 208.107 10.438 205.09 7.82544 214.743C5.21241 224.394 9.43305 229.221 11.845 229.824C14.2565 230.427 29.7315 230.226 29.3297 232.237C28.9276 234.248 18.4771 237.465 12.6488 235.655C12.6488 235.655 19.0798 251.541 27.5208 250.737C35.9618 249.932 38.5744 244.704 43.7998 244.302C49.025 243.9 52.8436 245.307 50.2308 246.715C47.6185 248.123 38.7753 247.176 34.5549 250.766C30.3344 254.356 26.918 256.568 34.7558 258.177C42.594 259.786 56.6623 258.78 59.4758 252.747L62.2894 246.715Z" fill="#A8D29F"/>
<path d="M66.3089 261.395C62.0883 253.552 62.2896 246.715 62.2896 246.715C57.4662 231.433 15.2612 217.759 15.2612 217.759C68.9215 239.476 59.4757 252.748 59.4757 252.748C60.9218 253.592 63.0899 257.616 64.5946 260.704C64.809 261.23 65.1484 261.957 65.6524 262.944H65.6525C65.857 263.39 66.0204 263.756 66.1331 264.01C68.8961 270.927 67.4326 282.872 67.4326 282.872L69.107 283.322C72.8174 271.284 66.3089 261.395 66.3089 261.395Z" fill="#82B378"/>
<path d="M86.2697 235.068C86.2697 235.068 66.4006 223.934 75.6729 208.826C75.6729 208.826 83.0906 199.548 91.0383 197.162C91.0383 197.162 86.7994 219.693 91.0383 220.224C95.2769 220.754 93.9524 194.777 93.9524 194.777C93.9524 194.777 114.881 184.704 123.094 185.499C123.094 185.499 110.113 207.5 114.351 206.97C118.59 206.44 133.161 184.174 133.161 184.174C133.161 184.174 154.619 180.198 158.063 192.921C161.507 205.645 155.944 212.006 152.765 212.802C149.586 213.597 129.187 213.332 129.717 215.983C130.247 218.633 144.022 222.874 151.705 220.489C151.705 220.489 143.228 241.429 132.101 240.369C120.974 239.309 117.53 232.417 110.642 231.887C103.755 231.357 98.7211 233.212 102.165 235.068C105.609 236.923 117.266 235.675 122.829 240.408C128.392 245.14 132.896 248.056 122.564 250.177C112.232 252.297 93.6875 250.971 89.9786 243.019L86.2697 235.068Z" fill="#A8D29F"/>
<path d="M148.261 196.898C148.261 196.898 92.6274 214.922 86.2693 235.068C86.2693 235.068 86.5343 244.08 80.9708 254.418C80.9708 254.418 72.3914 267.453 77.2825 283.322L79.4897 282.728C79.4897 282.728 77.5603 266.984 81.2023 257.866C81.3512 257.53 81.5667 257.048 81.8359 256.46C82.5005 255.158 82.9482 254.2 83.2304 253.507C85.2139 249.437 88.072 244.132 89.9783 243.019C89.9783 243.019 77.5268 225.525 148.261 196.898Z" fill="#82B378"/>
<path d="M46.6797 278.791C46.6797 289.119 50.7802 299.024 58.0792 306.327C65.3782 313.63 75.2778 317.733 85.6001 317.733C95.9224 317.733 105.822 313.63 113.121 306.327C120.42 299.024 124.521 289.119 124.521 278.791H46.6797Z" fill="#F1A34F"/>
<path d="M120.256 315.339H50.944C49.6705 315.339 48.4491 315.845 47.5486 316.746C46.6481 317.647 46.1421 318.869 46.1421 320.143H125.058C125.058 318.869 124.552 317.647 123.652 316.746C122.751 315.845 121.53 315.339 120.256 315.339Z" fill="#F1A34F"/>
<path d="M124.809 279.985H45.997C45.8386 279.985 45.6867 279.922 45.5748 279.81C45.4628 279.698 45.3999 279.546 45.3999 279.388C45.3999 279.229 45.4628 279.077 45.5748 278.965C45.6868 278.853 45.8386 278.79 45.997 278.79H124.809C124.967 278.79 125.119 278.853 125.231 278.965C125.343 279.077 125.406 279.229 125.406 279.388C125.406 279.546 125.343 279.698 125.231 279.81C125.119 279.922 124.967 279.985 124.809 279.985Z" fill="#D86713"/>
<path d="M360.683 320.143H209.313C207.024 320.143 204.83 319.234 203.211 317.615C201.593 315.996 200.684 313.8 200.684 311.51L200.684 8.6337C200.684 6.34387 201.593 4.14786 203.211 2.52875C204.83 0.909607 207.024 0 209.313 0H360.684C362.972 0 365.167 0.909607 366.785 2.52875C368.403 4.14786 369.312 6.34387 369.312 8.6337L369.312 311.509C369.312 313.799 368.403 315.995 366.785 317.615C365.167 319.234 362.972 320.143 360.683 320.143Z" fill="#D1DCF1"/>
<path d="M344.338 320.143H192.967C191.834 320.143 190.712 319.92 189.665 319.486C188.618 319.052 187.667 318.416 186.865 317.615C186.064 316.813 185.429 315.861 184.995 314.814C184.561 313.766 184.338 312.643 184.338 311.51L184.338 8.6337C184.338 6.34387 185.247 4.14786 186.865 2.52875C188.484 0.909607 190.678 0 192.967 0H344.338C346.626 0 348.821 0.909607 350.439 2.52875C352.058 4.14786 352.967 6.34387 352.967 8.6337L352.967 311.509C352.967 313.799 352.058 315.995 350.439 317.615C348.821 319.234 346.626 320.143 344.338 320.143Z" fill="#98B4DF"/>
<path d="M266.564 313.46C272.639 313.46 277.564 308.533 277.564 302.454C277.564 296.376 272.639 291.448 266.564 291.448C260.489 291.448 255.564 296.376 255.564 302.454C255.564 308.533 260.489 313.46 266.564 313.46Z" fill="#4A75CB"/>
<path d="M338.93 25.3858H198.73V284.331H338.93V25.3858Z" fill="white"/>
<path d="M413.358 32.1932C416.134 30.4936 420.568 32.5249 420.568 32.5249C419.035 30.369 413.441 31.0739 413.441 31.0739C424.583 28.7022 426.909 35.8291 427.101 36.4965C435.182 29.1991 448.121 44.7544 448.121 44.7544L429.554 69.3798C429.554 69.3798 427.86 65.462 425.623 66.6849C422.134 68.5918 415.387 60.8756 417.543 50.7242C417.759 49.7026 418.034 48.6945 418.367 47.7049C417.642 48.049 416.854 48.244 416.052 48.2782C414.021 48.2782 410.955 43.0963 410.541 41.3552C410.126 39.6141 410.582 33.8928 413.358 32.1932Z" fill="#233862"/>
<path d="M466.467 139.394C478.227 135.059 489.553 114.923 489.553 114.923L485.844 112.326C482.756 116.847 468.858 125.528 468.858 125.528C468.541 121.718 468.08 118.261 467.512 115.13C463.654 93.8502 454.828 87.5463 452.459 86.2082C452.266 86.0948 452.067 85.9938 451.861 85.9058C451.861 85.9058 451.869 86.0623 451.888 86.3591C451.922 86.9997 451.997 88.2898 452.12 90.0585C453.039 103.233 456.641 143.019 466.467 139.394Z" fill="#FFB27D"/>
<path d="M409.631 161.122C415.44 148.085 418.219 144.399 418.317 140.298C418.394 137.054 416.795 133.554 413.69 124.973C412.969 122.962 412.451 120.884 412.144 118.769C409.688 102.225 419.25 84.3413 425.192 83.1229C426.846 82.6856 429.649 76.7102 429.614 67.0818L430.359 67.2283L442.872 69.7074C442.872 69.7074 442.587 73.6477 442.579 77.3598C442.571 80.4531 442.757 83.3849 443.457 83.754C444.358 83.8356 444.89 83.8892 444.89 83.8892C444.89 83.8892 455.324 98.3877 456.201 111.872C457.079 125.356 447.845 131.214 456.271 158.159C464.872 185.68 406.421 168.325 409.631 161.122Z" fill="#FFB27D"/>
<path d="M442.872 69.7073C442.872 69.7073 442.587 73.6476 442.578 77.3598C435.576 77.1621 431.875 70.7708 430.358 67.2282L442.872 69.7073Z" fill="#E8945B"/>
<path d="M429.066 65.8654C429.066 65.8654 425.396 60.064 424.515 55.1033C423.887 51.5619 425.689 38.4342 438.874 40.3248C441.529 40.6935 444.068 41.6538 446.303 43.1349C449.166 45.0694 453.297 49.2454 448.677 60.7011L447.478 64.5706L429.066 65.8654Z" fill="#233862"/>
<path d="M445.21 73.2225C445.21 73.2225 428.643 73.496 428.631 63.1702C428.62 52.8448 426.474 45.9259 437.051 45.3146C447.629 44.7036 449.688 48.6413 450.53 52.087C451.371 55.5324 449.519 72.8853 445.21 73.2225Z" fill="#FFB27D"/>
<path d="M424.3 286.215C426.843 296.295 430.34 306.108 434.742 315.524L440.206 315.145C440.206 315.145 437.527 302.393 437.681 285.162C437.789 273.115 439.278 258.878 444.035 245.285C460.382 198.572 457.74 164.574 457.74 164.574L426.999 168.172L425.567 168.34C425.439 182.466 425.074 201.645 424.755 216.643C424.473 230.131 424.226 240.234 424.226 240.234C418.316 252.97 420.462 270.948 424.3 286.215Z" fill="#166019"/>
<path d="M406.663 283.567C408.431 302.441 416.214 314.646 416.214 314.646L418.823 316.545C418.823 316.545 421.294 303.247 423.041 287.426C424.707 272.389 426.99 256.477 429.573 251.62C439.824 232.358 442.91 159.643 442.91 159.643L411.742 158.097C408.608 163.369 407.241 172.018 406.916 181.85C406.096 206.667 411.927 239.027 412.798 243.707C412.798 243.711 412.799 243.715 412.801 243.718C412.852 244.08 412.779 244.448 412.596 244.764C406.395 257.047 405.499 271.099 406.663 283.567Z" fill="#1C8A5C"/>
<path d="M433.099 58.9668C426.138 60.7582 423.118 58.8916 423.118 58.8916C423.118 58.8916 428.458 54.6474 429.566 47.2386C429.566 47.2386 432.624 37.5815 444.462 44.8502C445.547 43.9189 447.481 43.2453 450.037 46.3457C453.878 51.0034 450.46 59.2373 450.46 59.2373C448.884 59.4216 448.512 54.0086 447.686 51.3792C447.078 49.4445 445.085 47.4702 444.073 46.5615C443.741 47.7852 440.402 59.3569 432.086 63.2028C434.661 60.8102 436.897 58.0775 438.734 55.0803C437.122 56.9121 435.224 58.4201 433.099 58.9668Z" fill="#233862"/>
<path d="M385.35 178.7C386.612 177.903 387.833 175.456 388.268 174.515C392.121 164.918 396.56 146.309 398.028 142.883C398.564 141.635 399.588 135.747 400.932 128.162C403.344 114.551 406.774 95.4716 410.21 87.9115C410.623 87.0057 411.805 86.2339 413.353 85.5872C418.031 83.6302 426.028 82.8127 426.028 82.8127L421.852 100.909L420.627 106.216C420.627 106.216 416.909 119.325 414.028 130.039C412.636 135.211 411.443 139.829 410.956 142.137C409.464 149.224 393.058 176.461 393.058 176.461L393.053 176.46L393.056 176.462C393.056 176.462 392.559 176.793 391.979 178.452C391.399 180.11 386.759 188.899 384.77 188.899C382.781 188.899 382.367 185.914 381.952 184.007C381.538 182.1 383.775 179.695 385.35 178.7Z" fill="#FFB27D"/>
<path d="M485.844 112.325C485.843 111.813 485.415 104.409 486.733 102.854C488.05 101.298 490.739 99.0862 491.585 99.1543C492.432 99.2222 495.74 103.621 494.745 106.992C493.751 110.362 489.553 114.923 489.553 114.923L485.844 112.325Z" fill="#FFB27D"/>
<path d="M479.803 103.268L487.472 105.568C487.594 105.604 487.726 105.591 487.838 105.53C487.951 105.47 488.034 105.367 488.071 105.245L492.454 90.6137C492.472 90.5531 492.478 90.4896 492.471 90.4267C492.465 90.3639 492.446 90.3029 492.416 90.2472C492.386 90.1916 492.346 90.1424 492.297 90.1025C492.248 90.0626 492.191 90.0328 492.131 90.0147L484.462 87.7149C484.402 87.6967 484.338 87.6906 484.275 87.697C484.213 87.7034 484.152 87.7221 484.096 87.7521C484.04 87.7821 483.991 87.8227 483.951 87.8718C483.911 87.9208 483.881 87.9772 483.863 88.0378L479.481 102.669C479.463 102.729 479.457 102.793 479.463 102.856C479.469 102.919 479.488 102.98 479.518 103.035C479.548 103.091 479.588 103.14 479.637 103.18C479.686 103.22 479.743 103.25 479.803 103.268Z" fill="#575B9F"/>
<path d="M481.796 103.866L488.753 105.952C488.86 105.984 488.973 105.995 489.084 105.983C489.196 105.972 489.304 105.939 489.402 105.886C489.501 105.832 489.588 105.76 489.659 105.673C489.73 105.586 489.783 105.486 489.815 105.379L493.984 91.4611C494.016 91.3537 494.027 91.2411 494.015 91.1296C494.004 91.018 493.971 90.9098 493.918 90.8112C493.865 90.7125 493.793 90.6253 493.706 90.5544C493.619 90.4836 493.519 90.4306 493.412 90.3985L486.455 88.3125C486.348 88.2803 486.236 88.2696 486.124 88.2809C486.013 88.2923 485.905 88.3255 485.806 88.3786C485.707 88.4318 485.62 88.5038 485.549 88.5907C485.479 88.6776 485.426 88.7775 485.393 88.8849L481.224 102.803C481.159 103.02 481.183 103.254 481.291 103.453C481.398 103.652 481.58 103.801 481.796 103.866Z" fill="#373480"/>
<path d="M406.663 283.567C408.431 302.441 416.214 314.646 416.214 314.646L418.871 317.068C418.871 317.068 421.294 303.247 423.041 287.426C421.199 287.56 413.08 287.857 406.663 283.567Z" fill="#FFB27D"/>
<path d="M413.963 130.605C412.118 131.101 406.173 132.218 399.369 128.466C402.176 114.759 406.167 95.5428 410.165 87.9284C410.41 87.512 410.747 87.1574 411.15 86.8918C411.124 86.8605 411.11 86.8432 411.11 86.8432C414.856 84.1173 422.515 83.2797 422.515 83.2797C422.515 83.2797 424.875 93.7566 426.367 95.124C427.859 96.4913 449.487 98.73 449.985 96.2433C450.46 93.8678 444.362 84.6277 443.906 83.8131C444.235 83.8209 444.563 83.8463 444.889 83.8892C447.355 84.2141 449.094 84.4619 450.349 84.6754C452.806 85.0972 454.308 86.148 454.449 86.3112C457.36 88.5174 464.203 95.2925 466.879 111.619C466.879 111.619 463.496 116.261 458.728 117.63C458.603 117.666 458.476 117.697 458.35 117.728C459.178 131.565 464.268 154.59 462.435 167.91C460.673 180.717 433.746 177.441 428.408 176.254C424.75 175.442 421.913 171.587 419.898 164.689C419.23 169.503 417.729 175.146 414.364 175.496C408.858 176.066 406.58 175.114 405.917 173.026C405.712 172.212 405.646 171.37 405.724 170.534C406.082 163.341 411.551 146.392 413.963 130.605Z" fill="#97C89C"/>
<path d="M424.3 286.215C426.843 296.295 430.34 306.108 434.742 315.524L440.206 315.145C440.206 315.145 437.527 302.393 437.68 285.162C435.827 286.096 432.001 287.045 424.3 286.215Z" fill="#D9935C"/>
<path d="M431.596 320.108H435.085C436.253 319.924 437.115 319.586 438.314 319.429C440.134 319.19 440.971 319.936 441.138 320.108C441.149 320.119 441.16 320.131 441.17 320.143H455.987C456.36 319.611 456.002 318.377 455.651 317.469C455.534 317.165 455.347 316.892 455.107 316.672C454.866 316.451 454.577 316.29 454.264 316.201C452.693 315.745 449.595 315.34 446.759 312.77C445.163 311.328 439.052 307.465 439.052 307.465L439.02 307.457C438.886 307.46 438.247 307.656 435.467 310.004C434.03 311.216 431.582 308.293 431.582 308.293C431.245 308.6 430.973 308.97 430.779 309.383C430.433 310.088 430.321 310.885 430.46 311.659C430.681 312.994 429.968 315.476 429.399 317.155C429.054 318.173 428.762 318.894 428.762 318.894C428.762 318.894 428.596 319.733 431.596 320.108Z" fill="#233862"/>
<path d="M430.778 309.383C431.611 309.97 433.369 311.126 434.535 311.278C436.108 311.485 439.052 307.465 439.052 307.465L439.02 307.457C438.885 307.46 438.246 307.656 435.467 310.004C434.03 311.216 431.581 308.293 431.581 308.293C431.245 308.6 430.972 308.97 430.778 309.383Z" fill="#466AA5"/>
<path d="M431.596 320.108H435.085C436.253 319.924 437.115 319.586 438.314 319.429C440.134 319.19 440.971 319.937 441.138 320.108C441.149 320.119 441.16 320.131 441.17 320.143H455.987C456.36 319.611 456.002 318.377 455.651 317.469C455.201 317.069 455.075 319.208 454.826 319.549C454.577 319.889 442.739 319.673 442.055 319.176C441.372 318.678 439.321 317.807 436.461 318.491C433.973 319.086 430.306 317.561 429.399 317.156C429.054 318.173 428.762 318.894 428.762 318.894C428.762 318.894 428.596 319.733 431.596 320.108Z" fill="#466AA5"/>
<path d="M412.984 320.108H416.472C417.64 319.924 418.503 319.586 419.701 319.429C421.52 319.19 422.358 319.936 422.525 320.108C422.536 320.119 422.547 320.131 422.557 320.143H437.374C437.747 319.611 437.389 318.377 437.038 317.469C436.921 317.165 436.734 316.892 436.493 316.672C436.253 316.451 435.964 316.29 435.651 316.201C434.08 315.745 430.982 315.34 428.146 312.77C426.55 311.328 420.439 307.465 420.439 307.465L420.407 307.457C420.272 307.46 419.634 307.656 416.854 310.004C415.417 311.216 412.969 308.293 412.969 308.293C412.633 308.6 412.36 308.97 412.166 309.383C411.82 310.088 411.708 310.885 411.848 311.659C412.069 312.994 411.355 315.476 410.786 317.155C410.44 318.173 410.15 318.894 410.15 318.894C410.15 318.894 409.983 319.733 412.984 320.108Z" fill="#233862"/>
<path d="M412.166 309.383C412.998 309.97 414.756 311.126 415.922 311.278C417.496 311.485 420.439 307.465 420.439 307.465L420.407 307.457C420.272 307.46 419.634 307.656 416.854 310.004C415.417 311.216 412.969 308.293 412.969 308.293C412.633 308.6 412.36 308.97 412.166 309.383Z" fill="#466AA5"/>
<path d="M412.984 320.108H416.472C417.64 319.924 418.503 319.586 419.701 319.429C421.52 319.19 422.358 319.937 422.525 320.108C422.536 320.119 422.547 320.131 422.557 320.143H437.374C437.747 319.611 437.389 318.377 437.038 317.469C436.588 317.069 436.461 319.208 436.213 319.549C435.964 319.889 424.126 319.673 423.442 319.176C422.758 318.678 420.707 317.807 417.849 318.491C415.36 319.086 411.693 317.561 410.786 317.156C410.44 318.173 410.15 318.894 410.15 318.894C410.15 318.894 409.983 319.733 412.984 320.108Z" fill="#466AA5"/>
<path d="M405.724 170.533C409.422 169.297 414.168 166.01 419.867 158.641C434.956 139.128 421.148 116.197 419.298 115.77C417.447 115.343 413.963 130.605 413.963 130.605C411.551 146.392 406.082 163.341 405.724 170.533Z" fill="#348045"/>
<path d="M492.248 99.6552C492.248 99.6552 489.827 97.4581 487.851 99.5358C485.874 101.613 488.599 105.326 490.593 106.21C492.587 107.095 493.249 107.595 493.249 107.595L492.248 99.6552Z" fill="#FFB27D"/>
<path d="M441.974 67.093C441.974 67.093 442.26 68.3098 445.285 68.1223C445.285 68.1223 447.826 67.9652 447.748 66.6279C447.748 66.6279 445.285 65.6762 441.974 67.093Z" fill="white"/>
<path d="M15.4956 321.494H526.504C526.636 321.493 526.761 321.388 526.854 321.2C526.947 321.013 527 320.759 527 320.494C527 320.229 526.947 319.975 526.854 319.788C526.761 319.6 526.636 319.495 526.504 319.494H15.4956C15.3643 319.495 15.2385 319.6 15.1456 319.788C15.0527 319.975 15.0004 320.229 15 320.494C15.0004 320.759 15.0527 321.013 15.1456 321.2C15.2384 321.388 15.3643 321.493 15.4956 321.494Z" fill="#2E3552"/>
</svg>
