<svg width="353" height="276" viewBox="0 0 353 276" fill="none" xmlns="http://www.w3.org/2000/svg">
<rect width="353" height="276" fill="#B4A1DB" fill-opacity="0.19"/>
<path d="M242.052 61H111.948C105.349 61 100 66.3494 100 72.9483V203.052C100 209.651 105.349 215 111.948 215H242.052C248.651 215 254 209.651 254 203.052V72.9483C254 66.3494 248.651 61 242.052 61Z" fill="#AEAEAE"/>
<path d="M243.38 204.379H110.621V151.276H113.276V140.655H110.621V98.1723H243.38V140.655H240.725V151.276H243.38V204.379Z" fill="#015078"/>
<path d="M110.621 103.483H238.069V140.655H110.621V103.483Z" fill="#026CA2"/>
<path d="M153.103 119.414C155.92 119.414 158.621 120.533 160.613 122.524C162.605 124.516 163.724 127.218 163.724 130.034V140.655H142.482V130.034C142.482 127.218 143.601 124.516 145.593 122.524C147.585 120.533 150.286 119.414 153.103 119.414Z" fill="#CBCBCB"/>
<path d="M110.621 156.586H238.069V204.379H110.621V156.586Z" fill="#026CA2"/>
<path d="M142.484 204.379C154.215 204.379 163.725 194.869 163.725 183.138C163.725 171.407 154.215 161.896 142.484 161.896C130.752 161.896 121.242 171.407 121.242 183.138C121.242 194.869 130.752 204.379 142.484 204.379Z" fill="#EAEAE8"/>
<path d="M155.759 204.379C167.49 204.379 177 194.869 177 183.138C177 171.407 167.49 161.896 155.759 161.896C144.028 161.896 134.518 171.407 134.518 183.138C134.518 194.869 144.028 204.379 155.759 204.379Z" fill="#CBCBCB"/>
<path d="M171.69 204.379C183.421 204.379 192.931 194.869 192.931 183.138C192.931 171.407 183.421 161.896 171.69 161.896C159.958 161.896 150.448 171.407 150.448 183.138C150.448 194.869 159.958 204.379 171.69 204.379Z" fill="#EAEAE8"/>
<path d="M111.948 61H242.052C245.221 61 248.26 62.2588 250.5 64.4996C252.741 66.7403 254 69.7794 254 72.9483V87.5517H100V72.9483C100 69.7794 101.259 66.7403 103.5 64.4996C105.74 62.2588 108.779 61 111.948 61Z" fill="#CBCBCB"/>
<path d="M187.62 204.379C199.352 204.379 208.862 194.869 208.862 183.138C208.862 171.407 199.352 161.896 187.62 161.896C175.889 161.896 166.379 171.407 166.379 183.138C166.379 194.869 175.889 204.379 187.62 204.379Z" fill="#CBCBCB"/>
<path d="M203.552 204.379C215.283 204.379 224.793 194.869 224.793 183.138C224.793 171.407 215.283 161.896 203.552 161.896C191.821 161.896 182.311 171.407 182.311 183.138C182.311 194.869 191.821 204.379 203.552 204.379Z" fill="#EAEAE8"/>
<path d="M203.551 191.103C207.951 191.103 211.517 187.537 211.517 183.138C211.517 178.739 207.951 175.172 203.551 175.172C199.152 175.172 195.586 178.739 195.586 183.138C195.586 187.537 199.152 191.103 203.551 191.103Z" fill="#CBCBCB"/>
<path d="M131.863 119.414C134.68 119.414 137.381 120.533 139.373 122.524C141.365 124.516 142.484 127.218 142.484 130.034V140.655H121.242V130.034C121.242 127.218 122.361 124.516 124.353 122.524C126.345 120.533 129.046 119.414 131.863 119.414Z" fill="#EAEAE8"/>
<path d="M147.793 143.31H142.482C141.778 143.31 141.103 143.03 140.605 142.533C140.107 142.035 139.827 141.359 139.827 140.655C139.827 139.951 140.107 139.275 140.605 138.778C141.103 138.28 141.778 138 142.482 138H147.793C148.497 138 149.172 137.72 149.67 137.222C150.168 136.724 150.448 136.049 150.448 135.345C150.448 134.64 150.168 133.965 149.67 133.467C149.172 132.969 148.497 132.689 147.793 132.689H142.482C141.778 132.689 141.103 132.41 140.605 131.912C140.107 131.414 139.827 130.739 139.827 130.034C139.827 129.33 140.107 128.655 140.605 128.157C141.103 127.659 141.778 127.379 142.482 127.379H147.793C149.905 127.379 151.931 128.218 153.425 129.712C154.919 131.206 155.758 133.232 155.758 135.345C155.758 137.457 154.919 139.483 153.425 140.977C151.931 142.471 149.905 143.31 147.793 143.31Z" fill="#EAEAE8"/>
<path d="M169.035 143.31H163.725C163.02 143.31 162.345 143.03 161.847 142.533C161.349 142.035 161.069 141.359 161.069 140.655C161.069 139.951 161.349 139.275 161.847 138.778C162.345 138.28 163.02 138 163.725 138H169.035C169.739 138 170.414 137.72 170.912 137.222C171.41 136.724 171.69 136.049 171.69 135.345C171.69 134.64 171.41 133.965 170.912 133.467C170.414 132.969 169.739 132.689 169.035 132.689H163.725C163.02 132.689 162.345 132.41 161.847 131.912C161.349 131.414 161.069 130.739 161.069 130.034C161.069 129.33 161.349 128.655 161.847 128.157C162.345 127.659 163.02 127.379 163.725 127.379H169.035C171.147 127.379 173.174 128.218 174.667 129.712C176.161 131.206 177 133.232 177 135.345C177 137.457 176.161 139.483 174.667 140.977C173.174 142.471 171.147 143.31 169.035 143.31Z" fill="#CBCBCB"/>
<path d="M206.207 140.655H184.966L187.621 114.104H203.552L206.207 140.655Z" fill="#EAEAE8"/>
<path d="M232.759 140.655H211.518L214.173 114.104H230.104L232.759 140.655Z" fill="#CBCBCB"/>
<path d="M230.103 204.379V185.793H206.207V204.379H200.896V185.793C200.898 184.385 201.458 183.035 202.454 182.04C203.449 181.044 204.799 180.484 206.207 180.483H230.103C231.511 180.484 232.861 181.044 233.857 182.04C234.852 183.035 235.412 184.385 235.414 185.793V204.379H230.103Z" fill="#A8A8A8"/>
<path d="M110.621 140.655H243.38V151.276H110.621V140.655Z" fill="#CBCBCB"/>
</svg>
