<svg width="353" height="276" viewBox="0 0 353 276" fill="none" xmlns="http://www.w3.org/2000/svg">
<rect width="353" height="276" fill="#D8EFBA" fill-opacity="0.19"/>
<path d="M181.742 86.6667V117.467C181.742 120.3 179.443 122.6 176.609 122.6C173.775 122.6 171.476 120.3 171.476 117.467V86.6667C171.476 83.8331 173.775 81.5333 176.609 81.5333C179.443 81.5333 181.742 83.8331 181.742 86.6667Z" fill="#DDDFEF"/>
<path d="M181.742 86.6667V117.467C181.742 120.3 179.442 122.6 176.608 122.6V81.5333C179.442 81.5333 181.742 83.8331 181.742 86.6667Z" fill="#CED1E1"/>
<path d="M202.276 66.1334C202.276 80.2843 190.76 91.8 176.609 91.8C162.458 91.8 150.942 80.2843 150.942 66.1334H202.276Z" fill="#F5F6FF"/>
<path d="M202.275 66.1334C202.275 80.2843 190.759 91.8 176.608 91.8V66.1334H202.275Z" fill="#DDDFEF"/>
<path d="M222.809 66.1333C222.809 68.9669 220.509 71.2667 217.676 71.2667H135.543C132.709 71.2667 130.409 68.9669 130.409 66.1333C130.409 63.2997 132.709 61 135.543 61H217.676C220.509 61 222.809 63.2997 222.809 66.1333Z" fill="#DDDFEF"/>
<path d="M222.808 66.1333C222.808 68.9669 220.509 71.2667 217.675 71.2667H176.608V61H217.675C220.509 61 222.808 63.2997 222.808 66.1333Z" fill="#CED1E1"/>
<path d="M243.684 168.8V179.067C243.684 198.881 227.412 215 207.409 215C194.353 215 182.902 207.998 176.609 197.557C170.315 207.998 158.865 215 145.809 215C125.806 215 109.533 198.881 109.533 179.067V168.8C109.533 165.966 111.833 163.667 114.667 163.667C117.5 163.667 119.8 165.966 119.8 168.8V179.067C119.8 193.218 131.466 204.733 145.809 204.733C159.96 204.733 171.475 193.218 171.475 179.067V168.8C171.475 165.966 173.775 163.667 176.609 163.667C179.442 163.667 181.742 165.966 181.742 168.8V179.067C181.742 193.218 193.258 204.733 207.409 204.733C221.751 204.733 233.418 193.218 233.418 179.067V168.8C233.418 165.966 235.717 163.667 238.551 163.667C241.385 163.667 243.684 165.966 243.684 168.8Z" fill="#D5D5D5"/>
<path d="M243.684 168.8V179.067C243.684 198.881 227.411 215 207.408 215C194.353 215 182.902 207.998 176.608 197.557V163.667C179.442 163.667 181.742 165.966 181.742 168.8V179.067C181.742 193.218 193.258 204.733 207.408 204.733C221.751 204.733 233.417 193.218 233.417 179.067V168.8C233.417 165.966 235.717 163.667 238.551 163.667C241.384 163.667 243.684 165.966 243.684 168.8Z" fill="#CED1E1"/>
<path d="M114.667 173.933C100.514 173.933 89 162.419 89 148.267C89 142.726 90.7587 137.453 94.0854 133.018C97.4751 128.499 99.2667 123.134 99.2667 117.504V117.467C99.2667 114.632 101.565 112.333 104.4 112.333H124.933C127.768 112.333 130.067 114.632 130.067 117.467C130.067 123.037 131.91 128.562 135.257 133.03C138.578 137.464 140.333 142.732 140.333 148.267C140.333 162.419 128.819 173.933 114.667 173.933Z" fill="#FFEEA9"/>
<path d="M200.982 140.228C200.127 137.661 198.853 135.235 197.19 133.017C193.85 128.565 192.009 123.055 192.009 117.504V117.467C192.009 114.633 189.709 112.333 186.876 112.333H166.342C163.509 112.333 161.209 114.633 161.209 117.467V117.504C161.209 123.134 159.416 128.5 156.028 133.017C152.701 137.452 150.942 142.726 150.942 148.267C150.942 162.418 162.458 173.933 176.609 173.933C190.76 173.933 202.276 162.418 202.276 148.267C202.276 145.495 201.838 142.791 200.982 140.228Z" fill="#FFEEA9"/>
<path d="M202.275 148.267C202.275 162.418 190.759 173.933 176.608 173.933V112.333H186.875C189.709 112.333 192.008 114.633 192.008 117.467V117.504C192.008 123.055 193.85 128.565 197.19 133.017C198.853 135.235 200.126 137.661 200.981 140.228C201.837 142.791 202.275 145.495 202.275 148.267Z" fill="#FFDA81"/>
<path d="M238.551 173.933C224.399 173.933 212.885 162.419 212.885 148.267C212.885 142.726 214.643 137.453 217.97 133.018C221.36 128.499 223.151 123.134 223.151 117.504V117.467C223.151 114.632 225.45 112.333 228.285 112.333H248.818C251.653 112.333 253.951 114.632 253.951 117.467V117.504C253.951 123.054 255.792 128.563 259.133 133.018C262.459 137.453 264.218 142.726 264.218 148.267C264.218 162.419 252.704 173.933 238.551 173.933Z" fill="#FFDA81"/>
</svg>
