<svg width="353" height="276" viewBox="0 0 353 276" fill="none" xmlns="http://www.w3.org/2000/svg">
<rect width="353" height="276" fill="#DBA1A1" fill-opacity="0.19"/>
<path d="M239.938 215H242.344C243.673 215 244.75 213.923 244.75 212.594V205.375H237.531V212.594C237.531 213.923 238.609 215 239.938 215Z" fill="#827189"/>
<path d="M112.406 215H114.812C116.141 215 117.219 213.923 117.219 212.594V205.375H110V212.594C110 213.923 111.077 215 112.406 215Z" fill="#827189"/>
<path d="M242.344 61H112.406C111.077 61 110 62.0774 110 63.4062V205.375C110 206.704 111.077 207.781 112.406 207.781H242.344C243.673 207.781 244.75 206.704 244.75 205.375V63.4062C244.75 62.0774 243.673 61 242.344 61Z" fill="#D0CAD3"/>
<path d="M235.125 68.2188H177.375C176.046 68.2188 174.969 69.2962 174.969 70.625V198.156C174.969 199.485 176.046 200.562 177.375 200.562H235.125C236.454 200.562 237.531 199.485 237.531 198.156V70.625C237.531 69.2962 236.454 68.2188 235.125 68.2188Z" fill="#827189"/>
<path d="M235.125 176.5H177.375C176.046 176.5 174.969 177.577 174.969 178.906V198.156C174.969 199.485 176.046 200.562 177.375 200.562H235.125C236.454 200.562 237.531 199.485 237.531 198.156V178.906C237.531 177.577 236.454 176.5 235.125 176.5Z" fill="#D9D0FF"/>
<path d="M189.406 195.75C188.077 195.75 187 194.673 187 193.344V176.5H177.375C176.046 176.5 174.969 177.577 174.969 178.906V198.156C174.969 199.485 176.046 200.562 177.375 200.562H235.125C236.454 200.562 237.531 199.485 237.531 198.156V195.75H189.406Z" fill="#BCADFF"/>
<path d="M211.062 186.125H201.438C200.109 186.125 199.031 185.048 199.031 183.719C199.031 182.39 200.109 181.312 201.438 181.312H211.062C212.391 181.312 213.469 182.39 213.469 183.719C213.469 185.048 212.391 186.125 211.062 186.125Z" fill="#CBC4E8"/>
<path d="M235.125 152.438H177.375C176.046 152.438 174.969 153.515 174.969 154.844V174.094C174.969 175.423 176.046 176.5 177.375 176.5H235.125C236.454 176.5 237.531 175.423 237.531 174.094V154.844C237.531 153.515 236.454 152.438 235.125 152.438Z" fill="#D9D0FF"/>
<path d="M187 169.281V152.438H177.375C176.046 152.438 174.969 153.515 174.969 154.844V174.094C174.969 175.423 176.046 176.5 177.375 176.5H235.125C236.454 176.5 237.531 175.423 237.531 174.094V171.688H189.406C188.077 171.688 187 170.61 187 169.281Z" fill="#BCADFF"/>
<path d="M211.062 162.062H201.438C200.109 162.062 199.031 160.985 199.031 159.656C199.031 158.327 200.109 157.25 201.438 157.25H211.062C212.391 157.25 213.469 158.327 213.469 159.656C213.469 160.985 212.391 162.062 211.062 162.062Z" fill="#CBC4E8"/>
<path d="M203.844 85.0625H194.219V80.25H201.438V68.2188H206.25V82.6562C206.25 83.9851 205.173 85.0625 203.844 85.0625Z" fill="#FDE8B7"/>
<path d="M201.438 80.25H213.469V85.0625H201.438V80.25Z" fill="#FDE8B7"/>
<path d="M211.062 80.25C211.062 84.2365 207.83 87.4688 203.844 87.4688C199.857 87.4688 196.625 84.2365 196.625 80.25H184.594V135.594H220.688C222.016 135.594 223.094 134.516 223.094 133.188V80.25H211.062Z" fill="#EFEDF0"/>
<path d="M223.094 80.25L233.6 97.0597C234.394 98.3309 233.846 100.012 232.453 100.569L223.094 104.312V80.25Z" fill="#D0CAD3"/>
<path d="M189.406 85.0625H179.781V80.25H187V68.2188H191.812V82.6562C191.812 83.9851 190.735 85.0625 189.406 85.0625Z" fill="#FBE5B5"/>
<path d="M196.625 85.0625H189.406C188.077 85.0625 187 83.9851 187 82.6562C187 81.3274 188.077 80.25 189.406 80.25H196.625C197.954 80.25 199.031 81.3274 199.031 82.6562C199.031 83.9851 197.954 85.0625 196.625 85.0625Z" fill="#FBE5B5"/>
<path d="M196.625 80.25C196.625 84.2365 193.393 87.4688 189.406 87.4688C185.42 87.4688 182.188 84.2365 182.188 80.25H170.156V135.594H206.25C207.579 135.594 208.656 134.516 208.656 133.188V80.25H196.625Z" fill="#F2C9DC"/>
<path d="M182.188 80.25H170.156V135.594H184.594V85.6288C183.117 84.307 182.188 82.3872 182.188 80.25Z" fill="#F9DCE9"/>
<path d="M208.656 80.25L219.162 97.0597C219.957 98.3309 219.408 100.012 218.016 100.569L208.656 104.312V80.25Z" fill="#FFBFDD"/>
<path d="M177.375 61H112.406C111.077 61 110 62.0774 110 63.4062V205.375C110 206.704 111.077 207.781 112.406 207.781H177.375C178.704 207.781 179.781 206.704 179.781 205.375V63.4062C179.781 62.0774 178.704 61 177.375 61Z" fill="#EFEDF0"/>
<path d="M119.625 70.625H162.938V198.156H119.625V70.625Z" fill="#BADDE2"/>
<path d="M129.25 190.938V70.625H119.625V198.156H162.938V190.938H129.25Z" fill="#C9E3E7"/>
<path d="M162.938 200.562H119.625C118.296 200.562 117.219 199.485 117.219 198.156V70.625C117.219 69.2962 118.296 68.2188 119.625 68.2188H162.938C164.266 68.2188 165.344 69.2962 165.344 70.625V198.156C165.344 199.485 164.266 200.562 162.938 200.562ZM122.031 195.75H160.531V73.0312H122.031V195.75Z" fill="#C1B8C4"/>
<path d="M172.562 145.219C171.234 145.219 170.156 144.141 170.156 142.812V128.375C170.156 127.046 171.234 125.969 172.562 125.969C173.891 125.969 174.969 127.046 174.969 128.375V142.812C174.969 144.141 173.891 145.219 172.562 145.219Z" fill="#928398"/>
</svg>
