<svg width="353" height="276" viewBox="0 0 353 276" fill="none" xmlns="http://www.w3.org/2000/svg">
<rect width="353" height="276" fill="#DFDFDF" fill-opacity="0.19"/>
<path d="M250.75 154.75H245.25C244.521 154.75 243.821 154.46 243.305 153.945C242.79 153.429 242.5 152.729 242.5 152C242.5 151.271 242.79 150.571 243.305 150.055C243.821 149.54 244.521 149.25 245.25 149.25H250.75C251.479 149.25 252.179 149.54 252.695 150.055C253.21 150.571 253.5 151.271 253.5 152C253.5 152.729 253.21 153.429 252.695 153.945C252.179 154.46 251.479 154.75 250.75 154.75Z" fill="#B9B9B9"/>
<path d="M183.502 190.735L184.75 179.5H96.75L97.9985 190.735C99.157 201.241 104.152 210.95 112.027 218H169.478C177.35 210.949 182.344 201.241 183.502 190.735Z" fill="#EAEAE8"/>
<path d="M195.75 185H250.75V218H195.75V185Z" fill="#715329"/>
<path d="M206.75 196H239.75V218H206.75V196Z" fill="#5F4623"/>
<path d="M149 179.5H171V201.5H149V179.5Z" fill="#DEF3FF"/>
<path d="M149 187.75H171V193.25H149V187.75Z" fill="#F7BA61"/>
<path d="M94 75H105V207H94V75Z" fill="#A8A6FA"/>
<path d="M105 75H116V204.25H105V75Z" fill="#8F9FD8"/>
<path d="M116 75H127V207H116V75Z" fill="#A8A6FA"/>
<path d="M146.25 75V83.25H127V94.25H146.938C149.673 94.25 152.296 93.1635 154.23 91.2295C156.164 89.2956 157.25 86.6725 157.25 83.9375V75H146.25Z" fill="#CBCBCB"/>
<path d="M94 218H253.5V229H94V218Z" fill="#C9E3F2"/>
<path d="M94 218H253.5V222.125H94V218Z" fill="#DEF3FF"/>
<path d="M248 108C248 94.331 236.919 83.25 223.25 83.25C209.581 83.25 198.5 94.331 198.5 108V124.5C198.5 138.169 209.581 149.25 223.25 149.25C236.919 149.25 248 138.169 248 124.5V108Z" fill="#DEF3FF"/>
<path d="M246.821 100.434L198.782 128.243C198.594 127.005 198.5 125.753 198.5 124.5V117.408L242.215 92.0981C244.277 94.5513 245.841 97.3827 246.821 100.434Z" fill="#DEF3FF"/>
<path d="M248 110.324V116.676L205.217 141.447C203.945 140.099 202.83 138.611 201.893 137.013L248 110.324Z" fill="#DEF3FF"/>
<path d="M246.821 100.434L198.782 128.243C198.594 127.005 198.5 125.753 198.5 124.5V117.408L242.215 92.0981C244.277 94.5513 245.841 97.3827 246.821 100.434Z" fill="#C9E3F2"/>
<path d="M248 110.324V116.676L205.217 141.447C203.945 140.099 202.83 138.611 201.893 137.013L248 110.324Z" fill="#C9E3F2"/>
<path d="M127 132.75H173.75V143.75H127V132.75Z" fill="#715329"/>
<path d="M127 139.672H173.75V143.75H127V139.672Z" fill="#5F4623"/>
<path d="M138 110.75H149V132.75H138V110.75Z" fill="#FBB540"/>
<path d="M157.25 116.25C159.438 116.25 161.536 117.119 163.084 118.666C164.631 120.214 165.5 122.312 165.5 124.5V132.75H149V124.5C149 122.312 149.869 120.214 151.416 118.666C152.964 117.119 155.062 116.25 157.25 116.25Z" fill="#EA9D2D"/>
<path d="M245.25 165.75C244.521 165.75 243.821 165.46 243.305 164.945C242.79 164.429 242.5 163.729 242.5 163V149.25C242.5 148.521 242.21 147.821 241.695 147.305C241.179 146.79 240.479 146.5 239.75 146.5C239.021 146.5 238.321 146.79 237.805 147.305C237.29 147.821 237 148.521 237 149.25V152C237 152.729 236.71 153.429 236.195 153.945C235.679 154.46 234.979 154.75 234.25 154.75C233.521 154.75 232.821 154.46 232.305 153.945C231.79 153.429 231.5 152.729 231.5 152V149.25C231.5 147.062 232.369 144.964 233.916 143.416C235.464 141.869 237.562 141 239.75 141C241.938 141 244.036 141.869 245.584 143.416C247.131 144.964 248 147.062 248 149.25V163C248 163.729 247.71 164.429 247.195 164.945C246.679 165.46 245.979 165.75 245.25 165.75Z" fill="#CBCBCB"/>
<path d="M206.75 185C204.151 182.681 202.073 179.838 200.651 176.659C199.229 173.48 198.496 170.035 198.5 166.552V163H248V166.552C248.004 170.035 247.271 173.48 245.849 176.659C244.427 179.838 242.349 182.681 239.75 185H206.75Z" fill="#EAEAE8"/>
</svg>
