<svg width="353" height="276" viewBox="0 0 353 276" fill="none" xmlns="http://www.w3.org/2000/svg">
<rect width="353" height="276" fill="#A1D4DB" fill-opacity="0.19"/>
<path d="M124.491 147.136H129.712V160.186H124.491V147.136Z" fill="#B3B3B3"/>
<path d="M142.762 162.797H111.44C109.999 162.797 108.83 161.628 108.83 160.186V149.746C108.83 148.304 109.999 147.136 111.44 147.136H119.271V152.356H114.05V157.576H140.152V152.356H134.932V147.136H142.762C144.204 147.136 145.372 148.304 145.372 149.746V160.186C145.372 161.628 144.204 162.797 142.762 162.797Z" fill="#808080"/>
<path d="M116.661 63.6102H137.542V92.322H116.661V63.6102Z" fill="#B3B3B3"/>
<path d="M101 157.576H153.203V215H101V157.576Z" fill="#B3B3B3"/>
<path d="M205.407 131.475H252.39V215H205.407V131.475Z" fill="#A1D4DB"/>
<path d="M205.407 104.932C205.407 99.4094 209.884 94.9322 215.407 94.9322H242.39C247.913 94.9322 252.39 99.4094 252.39 104.932V131.475H205.407V104.932Z" fill="#6CBBC7"/>
<path d="M213.237 107.983H218.458V118.424H213.237V107.983Z" fill="#E6E6E6"/>
<path d="M213.237 144.525H218.458V154.966H213.237V144.525Z" fill="#E6E6E6"/>
<path d="M101 157.576H153.203V173.237H101V157.576Z" fill="#E6E6E6"/>
<path d="M111.44 162.797C112.882 162.797 114.05 163.965 114.05 165.407C114.05 166.848 112.882 168.017 111.44 168.017C109.999 168.017 108.83 166.848 108.83 165.407C108.83 163.965 109.999 162.797 111.44 162.797Z" fill="#B3B3B3"/>
<path d="M121.882 162.797C123.323 162.797 124.492 163.965 124.492 165.407C124.492 166.848 123.323 168.017 121.882 168.017C120.44 168.017 119.271 166.848 119.271 165.407C119.271 163.965 120.44 162.797 121.882 162.797Z" fill="#B3B3B3"/>
<path d="M132.322 162.797C133.764 162.797 134.932 163.965 134.932 165.407C134.932 166.848 133.764 168.017 132.322 168.017C130.881 168.017 129.712 166.848 129.712 165.407C129.712 163.965 130.881 162.797 132.322 162.797Z" fill="#B3B3B3"/>
<path d="M142.763 162.797C144.204 162.797 145.373 163.965 145.373 165.407C145.373 166.848 144.204 168.017 142.763 168.017C141.321 168.017 140.152 166.848 140.152 165.407C140.152 163.965 141.321 162.797 142.763 162.797Z" fill="#B3B3B3"/>
<path d="M101 107.983H153.203V100.153L142.763 89.7119H111.441L101 100.153V107.983Z" fill="#ABA5A5"/>
<path d="M111.44 183.678H142.762V204.559H111.44V183.678Z" fill="#FFE9CC"/>
<path d="M153.203 167.576C153.203 162.053 157.68 157.576 163.203 157.576H195.407C200.929 157.576 205.407 162.053 205.407 167.576V175.847H153.203V167.576Z" fill="#FFDAAA"/>
<path d="M153.203 173.237H179.305V215H153.203V173.237Z" fill="#E6E6E6"/>
<path d="M179.305 173.237H205.406V215H179.305V173.237Z" fill="#B3B3B3"/>
<path d="M174.085 162.797H184.526V168.017H174.085V162.797Z" fill="#808080"/>
<path d="M166.254 188.898H171.474V199.339H166.254V188.898Z" fill="#808080"/>
<path d="M187.136 188.898H192.356V199.339H187.136V188.898Z" fill="#808080"/>
<path d="M166.254 61H171.474V115.814H166.254V61Z" fill="#808080"/>
<path d="M184.525 61H189.746V94.9322H184.525V61Z" fill="#808080"/>
<path d="M161.034 123.644V121.034C161.034 116.71 164.54 113.203 168.865 113.203C173.189 113.203 176.695 116.71 176.695 121.034V123.644H161.034Z" fill="#FF421D"/>
<path d="M179.305 102.763V100.153C179.305 95.8282 182.811 92.322 187.135 92.322C191.46 92.322 194.966 95.8282 194.966 100.153V102.763H179.305Z" fill="#FF421D"/>
</svg>
