<svg width="353" height="276" viewBox="0 0 353 276" fill="none" xmlns="http://www.w3.org/2000/svg">
<rect width="353" height="276" fill="#B7B7B7" fill-opacity="0.19"/>
<path d="M130.689 188.353V61H221.013V188.353H130.689Z" fill="#C7CACF"/>
<path d="M148.686 160.667V88.6854C153.846 88.6854 158.029 84.5021 158.029 79.3416H193.328C193.328 84.5021 197.512 88.6854 202.672 88.6854H203.018V160.667H202.672C197.512 160.667 193.328 164.851 193.328 170.011H158.029C158.029 164.851 153.846 160.667 148.686 160.667Z" fill="#D08C8C"/>
<path d="M203.364 161.013H202.956C197.796 161.013 193.612 165.197 193.612 170.357H175.851V79.6876H193.612C193.612 84.8481 197.796 89.0314 202.956 89.0314H203.364V161.013Z" fill="#EC9F9F"/>
<path d="M121 205.656V188.353H230.011V205.656H216.169V215H199.211V205.656H152.492V215H134.843V205.656H121Z" fill="#8A483D"/>
<path d="M199.211 215V205.656H175.506V188.353H230.011V205.656H216.169V215H199.211Z" fill="#834439"/>
<path d="M169.449 100.452L175.678 94.2225L181.908 100.452L175.678 106.681L169.449 100.452Z" fill="#FBE691"/>
<path d="M169.449 121.908L175.678 115.679L181.908 121.908L175.678 128.137L169.449 121.908Z" fill="#FBE691"/>
<path d="M169.449 143.364L175.678 137.135L181.908 143.364L175.678 149.593L169.449 143.364Z" fill="#FBE691"/>
</svg>
