<svg width="409" height="409" viewBox="0 0 409 409" fill="none" xmlns="http://www.w3.org/2000/svg">
<path d="M0 313.006H409V312.802H0V313.006Z" fill="#ECECEC"/>
<path d="M340.926 326.173H368.02V325.969H340.926V326.173Z" fill="#ECECEC"/>
<path d="M263.827 328.393H270.938V328.188H263.827V328.393Z" fill="#ECECEC"/>
<path d="M324.407 318.577H340.106V318.372H324.407V318.577Z" fill="#ECECEC"/>
<path d="M42.9111 319.952H78.243V319.747H42.9111V319.952Z" fill="#ECECEC"/>
<path d="M85.5264 319.952H90.7068V319.747H85.5264V319.952Z" fill="#ECECEC"/>
<path d="M107.543 323.405H184.17V323.201H107.543V323.405Z" fill="#ECECEC"/>
<path d="M35.9221 45.1557C33.4599 45.1557 31.4574 47.1582 31.4574 49.6204V271.651C31.4574 274.113 33.4599 276.116 35.9221 276.116H193.877C196.338 276.116 198.341 274.113 198.341 271.651V49.6204C198.341 47.1582 196.338 45.1557 193.877 45.1557H35.9221ZM193.877 276.32H35.9221C33.3478 276.32 31.2529 274.226 31.2529 271.651V49.6204C31.2529 47.0461 33.3478 44.9512 35.9221 44.9512H193.877C196.45 44.9512 198.545 47.0461 198.545 49.6204V271.651C198.545 274.226 196.45 276.32 193.877 276.32Z" fill="#ECECEC"/>
<path d="M212.853 45.1557C210.392 45.1557 208.389 47.1582 208.389 49.6204V271.651C208.389 274.113 210.392 276.116 212.853 276.116H370.808C373.269 276.116 375.273 274.113 375.273 271.651V49.6204C375.273 47.1582 373.269 45.1557 370.808 45.1557H212.853ZM370.808 276.32H212.853C210.279 276.32 208.185 274.226 208.185 271.651V49.6204C208.185 47.0461 210.279 44.9512 212.853 44.9512H370.808C373.382 44.9512 375.477 47.0461 375.477 49.6204V271.651C375.477 274.226 373.382 276.32 370.808 276.32Z" fill="#ECECEC"/>
<path d="M41.6348 312.802H56.8676V208.204H41.6348V312.802Z" fill="#E7E7E7"/>
<path d="M46.9968 312.801H41.6348V292.923H52.6189L46.9968 312.801Z" fill="#F0F0F0"/>
<path d="M202.717 312.802H217.95V208.204H202.717V312.802Z" fill="#E7E7E7"/>
<path d="M41.6348 307.376H207.397V208.203H41.6348V307.376Z" fill="#F0F0F0"/>
<path d="M202.035 312.801H207.397V292.923H196.413L202.035 312.801Z" fill="#F0F0F0"/>
<path d="M154.446 216.824C153.734 216.824 153.156 217.403 153.156 218.114V296.754C153.156 297.465 153.734 298.044 154.446 298.044H200.185C200.897 298.044 201.475 297.465 201.475 296.754V218.114C201.475 217.403 200.897 216.824 200.185 216.824H154.446ZM200.185 298.862H154.446C153.283 298.862 152.338 297.917 152.338 296.754V218.114C152.338 216.952 153.283 216.006 154.446 216.006H200.185C201.348 216.006 202.293 216.952 202.293 218.114V296.754C202.293 297.917 201.348 298.862 200.185 298.862Z" fill="white"/>
<path d="M101.646 216.824C100.934 216.824 100.356 217.403 100.356 218.114V296.754C100.356 297.465 100.934 298.044 101.646 298.044H147.385C148.097 298.044 148.675 297.465 148.675 296.754V218.114C148.675 217.403 148.097 216.824 147.385 216.824H101.646ZM147.385 298.862H101.646C100.484 298.862 99.5381 297.917 99.5381 296.754V218.114C99.5381 216.952 100.484 216.006 101.646 216.006H147.385C148.548 216.006 149.493 216.952 149.493 218.114V296.754C149.493 297.917 148.548 298.862 147.385 298.862Z" fill="white"/>
<path d="M48.8453 216.824C48.1336 216.824 47.5553 217.403 47.5553 218.114V296.754C47.5553 297.465 48.1336 298.044 48.8453 298.044H94.5846C95.2962 298.044 95.8746 297.465 95.8746 296.754V218.114C95.8746 217.403 95.2962 216.824 94.5846 216.824H48.8453ZM94.5846 298.862H48.8453C47.6829 298.862 46.7373 297.917 46.7373 296.754V218.114C46.7373 216.952 47.6829 216.006 48.8453 216.006H94.5846C95.747 216.006 96.6926 216.952 96.6926 218.114V296.754C96.6926 297.917 95.747 298.862 94.5846 298.862Z" fill="white"/>
<path d="M255.205 290.311H339.533V66.1656H255.205V290.311Z" fill="#E7E7E7"/>
<path d="M251.05 290.311H338.943V66.1656H251.05V290.311Z" fill="#F0F0F0"/>
<path d="M255.205 290.311H339.533V294.171H255.205V290.311Z" fill="#E7E7E7"/>
<path d="M244.129 290.311H332.022V294.171H244.129V290.311Z" fill="#F0F0F0"/>
<path d="M333.127 71.9823H256.867V284.495H333.127V71.9823Z" fill="#FAFAFA"/>
<path d="M274.243 284.494L283.558 71.9819H299.673L290.359 284.494H274.243Z" fill="white"/>
<path d="M330.433 135.915C330.679 135.915 330.878 135.716 330.878 135.47V75.7668C330.878 75.5206 330.679 75.3218 330.433 75.3218C330.187 75.3218 329.988 75.5206 329.988 75.7668V135.47C329.988 135.716 330.187 135.915 330.433 135.915Z" fill="#F0F0F0"/>
<path d="M293.821 284.494L303.136 71.9819H309.419L300.104 284.494H293.821Z" fill="white"/>
<path d="M257.606 71.9823H256.867V284.495H257.606V71.9823Z" fill="#E7E7E7"/>
<g opacity="0.5">
<g opacity="0.5">
<path opacity="0.5" d="M249.676 79.5745H335.355L335.89 74.2444H250.211L249.676 79.5745Z" fill="#E1E1E1"/>
</g>
</g>
<g opacity="0.5">
<g opacity="0.5">
<path opacity="0.5" d="M249.676 88.337H335.355L335.89 83.0069H250.211L249.676 88.337Z" fill="#E1E1E1"/>
</g>
</g>
<g opacity="0.5">
<g opacity="0.5">
<path opacity="0.5" d="M249.676 97.0996H335.355L335.89 91.7695H250.211L249.676 97.0996Z" fill="#E1E1E1"/>
</g>
</g>
<g opacity="0.5">
<g opacity="0.5">
<path opacity="0.5" d="M249.676 105.862H335.355L335.89 100.532H250.211L249.676 105.862Z" fill="#E1E1E1"/>
</g>
</g>
<g opacity="0.5">
<g opacity="0.5">
<path opacity="0.5" d="M249.676 114.625H335.355L335.89 109.295H250.211L249.676 114.625Z" fill="#E1E1E1"/>
</g>
</g>
<g opacity="0.5">
<g opacity="0.5">
<path opacity="0.5" d="M249.676 123.387H335.355L335.89 118.057H250.211L249.676 123.387Z" fill="#E1E1E1"/>
</g>
</g>
<path d="M183.156 132.357H69.1816V68.7063H183.156V132.357Z" fill="#E7E7E7"/>
<path d="M182.066 132.357H68.0918V68.7063H182.066V132.357Z" fill="#F5F5F5"/>
<path d="M76.2715 76.8863H173.886V124.177H76.2715V76.8863Z" fill="white"/>
<path d="M93.4814 124.177L99.5085 76.8862H116.522L110.495 124.177H93.4814Z" fill="#FAFAFA"/>
<path d="M114.932 124.177L120.959 76.8862H130.64L124.613 124.177H114.932Z" fill="#FAFAFA"/>
<path d="M149.909 124.177L155.936 76.8862H165.617L159.59 124.177H149.909Z" fill="#FAFAFA"/>
<path d="M76.2715 76.8863H77.3463V124.177H76.2715V76.8863Z" fill="#E7E7E7"/>
<path d="M184.54 204.409H181.078V163.377H184.54V204.409Z" fill="#F5F5F5"/>
<path d="M184.094 204.365H183.116V163.333H184.094V204.365Z" fill="#FAFAFA"/>
<path d="M191.617 208.302H174V206.402C174 204.499 175.542 202.958 177.444 202.958H188.173C190.075 202.958 191.617 204.499 191.617 206.402V208.302Z" fill="#F0F0F0"/>
<path d="M187.857 205.272V202.477C187.857 202.171 187.606 201.921 187.3 201.921H185.97C185.664 201.921 185.414 202.171 185.414 202.477V205.272C185.414 205.579 185.664 205.829 185.97 205.829H187.3C187.606 205.829 187.857 205.579 187.857 205.272Z" fill="#F0F0F0"/>
<path d="M202.717 168.472H162.9L163.181 167.512C165.729 158.793 173.724 152.8 182.809 152.8C191.894 152.8 199.889 158.793 202.437 167.512L202.717 168.472Z" fill="#E1E1E1"/>
<path d="M67.6122 204.409H64.1504V163.377H67.6122V204.409Z" fill="#F5F5F5"/>
<path d="M67.166 204.365H66.1885V163.333H67.166V204.365Z" fill="#FAFAFA"/>
<path d="M74.6905 208.302H57.0732V206.402C57.0732 204.499 58.6152 202.958 60.517 202.958H71.2459C73.1486 202.958 74.6905 204.499 74.6905 206.402V208.302Z" fill="#F0F0F0"/>
<path d="M70.9299 205.272V202.477C70.9299 202.171 70.6795 201.921 70.3728 201.921H69.0435C68.7376 201.921 68.4873 202.171 68.4873 202.477V205.272C68.4873 205.579 68.7376 205.829 69.0435 205.829H70.3728C70.6795 205.829 70.9299 205.579 70.9299 205.272Z" fill="#F0F0F0"/>
<path d="M85.7906 168.472H45.9736L46.2542 167.512C48.8023 158.793 56.7974 152.8 65.8821 152.8C74.9668 152.8 82.9619 158.793 85.51 167.512L85.7906 168.472Z" fill="#E1E1E1"/>
<path d="M211.14 236.657C170.185 266.452 84.4577 338.962 61.103 214.818C54.6465 180.495 71.957 140.696 103.889 123.721C120.611 114.833 140.333 117.239 157.592 110.317C172.931 104.165 182.3 89.9133 198.248 84.6528C251.284 67.1598 344.167 118.571 347.312 172.157C349.015 201.176 327.368 230.725 300.02 225.333C270.05 219.425 256.317 203.79 211.14 236.657Z" fill="#007CFF"/>
<g opacity="0.899994">
<g opacity="0.899994">
<path opacity="0.899994" d="M211.14 236.657C170.185 266.452 84.4577 338.962 61.103 214.818C54.6465 180.495 71.957 140.696 103.889 123.721C120.611 114.833 140.333 117.239 157.592 110.317C172.931 104.165 182.3 89.9133 198.248 84.6528C251.284 67.1598 344.167 118.571 347.312 172.157C349.015 201.176 327.368 230.725 300.02 225.333C270.05 219.425 256.317 203.79 211.14 236.657Z" fill="white"/>
</g>
</g>
<path d="M363.102 340.483C363.102 345.598 292.094 349.745 204.501 349.745C116.908 349.745 45.8994 345.598 45.8994 340.483C45.8994 335.368 116.908 331.22 204.501 331.22C292.094 331.22 363.102 335.368 363.102 340.483Z" fill="#F5F5F5"/>
<path d="M258.732 132.89C256.117 130.275 256.117 125.997 258.732 123.382L261.927 120.187C264.542 117.573 268.82 117.573 271.435 120.187C274.05 122.802 274.05 127.08 271.435 129.695L268.24 132.89C265.625 135.506 261.347 135.506 258.732 132.89Z" fill="#007CFF"/>
<g opacity="0.399994">
<g opacity="0.399994">
<path opacity="0.399994" d="M258.732 132.89C256.117 130.275 256.117 125.997 258.732 123.382L261.927 120.187C264.542 117.573 268.82 117.573 271.435 120.187C274.05 122.802 274.05 127.08 271.435 129.695L268.24 132.89C265.625 135.506 261.347 135.506 258.732 132.89Z" fill="white"/>
</g>
</g>
<path d="M263.224 128.398C259.855 125.028 259.855 119.515 263.224 116.146L269.475 109.894C272.844 106.525 278.358 106.525 281.727 109.894C285.097 113.265 285.097 118.778 281.727 122.147L275.476 128.398C272.107 131.767 266.594 131.767 263.224 128.398Z" fill="#007CFF"/>
<path d="M271.938 119.684C266.187 113.933 256.776 113.933 251.024 119.684L271.938 140.597C277.69 134.846 277.69 125.435 271.938 119.684Z" fill="#007CFF"/>
<path d="M280.417 160.238C279.717 160.238 279.149 159.67 279.149 158.97C279.149 158.27 279.717 157.703 280.417 157.703C293.046 157.703 303.32 147.428 303.32 134.8C303.32 122.172 293.046 111.898 280.417 111.898C279.717 111.898 279.149 111.33 279.149 110.631C279.149 109.931 279.717 109.363 280.417 109.363C294.444 109.363 305.855 120.774 305.855 134.8C305.855 148.826 294.444 160.238 280.417 160.238Z" fill="#007CFF"/>
<path d="M294.047 270.119L307.165 332.395H272.552L294.047 270.119ZM311.258 332.395L282.319 195.012L278.449 196.067L293.474 267.393L271.037 332.395H251.069L251.129 331.503H246.668L246.344 336.338H247.752H250.803H312.419L312.684 332.395H311.258Z" fill="#007CFF"/>
<path d="M149.943 270.119L163.061 332.395H128.448L149.943 270.119ZM167.153 332.395L138.215 195.012L134.345 196.067L149.369 267.393L126.932 332.395H106.964L107.025 331.503H102.564L102.239 336.338H103.648H106.699H168.315L168.58 332.395H167.153Z" fill="#007CFF"/>
<path d="M295.517 263.215L291.799 273.989H148.05L151.768 263.215H295.517Z" fill="#007CFF"/>
<path d="M289.859 271.341L291.799 273.989H148.051L146.11 271.341H289.859Z" fill="#007CFF"/>
<g opacity="0.199997">
<g opacity="0.199997">
<path opacity="0.199997" d="M289.859 271.341L291.799 273.989H148.051L146.11 271.341H289.859Z" fill="black"/>
</g>
</g>
<path d="M266.732 246.606H91.1545L88.6162 244.068L314.635 147.917L317.173 150.456L266.732 246.606Z" fill="#007CFF"/>
<g opacity="0.399994">
<g opacity="0.399994">
<path opacity="0.399994" d="M266.732 246.606H91.1545L88.6162 244.068L314.635 147.917L317.173 150.456L266.732 246.606Z" fill="black"/>
</g>
</g>
<path d="M114.219 190.862L113.494 190.482L118.37 181.187L119.095 181.567L114.219 190.862Z" fill="#007CFF"/>
<path d="M110.298 198.336L109.573 197.956L111.892 193.536L112.617 193.916L110.298 198.336Z" fill="#007CFF"/>
<path d="M264.193 244.067H88.6162L139.057 147.917H314.635L264.193 244.067Z" fill="#007CFF"/>
<g opacity="0.300003">
<g opacity="0.300003">
<path opacity="0.300003" d="M246.535 228.644L122.272 229.093L159.036 160.29C188.483 162.4 232.592 162.594 280.838 161.637L246.535 228.644Z" fill="black"/>
</g>
</g>
<path d="M244.745 229.093H121.567L156.955 161.637C194.895 163.042 235.525 162.148 279.288 160.93C272.507 177.929 260.206 202.598 244.745 229.093Z" fill="white"/>
<g opacity="0.600006">
<g opacity="0.600006">
<path opacity="0.600006" d="M143.267 221.136C154.842 221.076 166.418 221.024 177.993 220.972C190.415 220.916 202.838 220.862 215.26 220.805C221.494 220.776 227.729 220.746 233.963 220.714C234.37 220.712 234.371 220.079 233.963 220.08C222.387 220.14 210.811 220.192 199.236 220.244C186.814 220.3 174.392 220.354 161.97 220.411C155.736 220.44 149.501 220.47 143.267 220.502C142.859 220.504 142.859 221.137 143.267 221.136Z" fill="#007CFF"/>
</g>
<g opacity="0.600006">
<path opacity="0.600006" d="M232.432 221.754C239.852 207.623 247.342 193.529 254.907 179.476C257.088 175.426 259.274 171.379 261.466 167.335C261.66 166.975 261.114 166.656 260.919 167.015C253.302 181.067 245.755 195.158 238.284 209.289C236.144 213.334 234.012 217.382 231.885 221.434C231.695 221.795 232.243 222.115 232.432 221.754Z" fill="#007CFF"/>
</g>
<g opacity="0.600006">
<path opacity="0.600006" d="M261.827 167.635C250.196 167.695 238.567 167.747 226.937 167.8C214.371 167.855 201.804 167.91 189.237 167.968C183.021 167.998 176.804 168.027 170.587 168.059C170.18 168.062 170.179 168.695 170.587 168.693C182.217 168.633 193.847 168.581 205.477 168.529C218.043 168.473 230.61 168.418 243.176 168.359C249.393 168.331 255.61 168.301 261.827 168.269C262.234 168.267 262.235 167.634 261.827 167.635Z" fill="#007CFF"/>
</g>
<g opacity="0.600006">
<path opacity="0.600006" d="M172.791 166.489C165.291 180.774 157.718 195.02 150.071 209.226C147.879 213.299 145.68 217.367 143.477 221.434C143.282 221.793 143.829 222.112 144.024 221.753C151.723 207.548 159.351 193.304 166.904 179.02C169.055 174.953 171.199 170.883 173.338 166.809C173.528 166.448 172.98 166.128 172.791 166.489Z" fill="#007CFF"/>
</g>
<g opacity="0.600006">
<path opacity="0.600006" d="M185.174 214.278C189.445 205.887 193.716 197.495 197.988 189.103C199.136 186.846 200.285 184.589 201.433 182.333C201.618 181.97 201.072 181.649 200.886 182.012C196.487 190.656 192.087 199.299 187.689 207.942C186.668 209.948 185.647 211.953 184.627 213.959C184.442 214.321 184.988 214.642 185.174 214.278Z" fill="#007CFF"/>
</g>
<g opacity="0.600006">
<path opacity="0.600006" d="M154.827 214.425C157.284 209.596 159.742 204.769 162.2 199.94C162.384 199.577 161.837 199.256 161.652 199.62C159.194 204.448 156.737 209.277 154.28 214.105C154.095 214.468 154.641 214.789 154.827 214.425Z" fill="#007CFF"/>
</g>
<g opacity="0.600006">
<path opacity="0.600006" d="M227.418 214.323C233.547 203.275 238.958 191.835 244.761 180.615C246.185 177.863 247.624 175.117 249.128 172.407C249.326 172.05 248.779 171.729 248.581 172.087C242.452 183.135 237.041 194.575 231.238 205.795C229.814 208.547 228.374 211.293 226.871 214.003C226.673 214.36 227.22 214.681 227.418 214.323Z" fill="#007CFF"/>
</g>
<g opacity="0.600006">
<path opacity="0.600006" d="M193.792 214.237C199.357 203.296 204.973 192.381 210.523 181.433C211.151 180.194 211.778 178.956 212.404 177.716C212.741 177.048 213.078 176.38 213.415 175.712C213.582 175.379 213.749 175.047 213.916 174.715C214.052 174.444 214.268 173.696 214.545 173.55C214.774 173.428 215.52 173.539 215.781 173.536C216.302 173.531 216.823 173.525 217.344 173.519C218.459 173.507 219.575 173.496 220.691 173.484C225.668 173.433 230.644 173.386 235.621 173.362C240.647 173.338 245.674 173.321 250.699 173.41C251.106 173.417 251.107 172.784 250.699 172.777C238.571 172.561 226.433 172.79 214.306 172.918C214.199 172.919 214.082 172.976 214.032 173.075C207.178 186.727 200.17 200.301 193.245 213.917C193.06 214.279 193.607 214.601 193.792 214.237Z" fill="#007CFF"/>
</g>
<g opacity="0.600006">
<path opacity="0.600006" d="M227.451 214.079C224.466 203.325 220.922 192.728 217.489 182.112C216.524 179.127 215.561 176.141 214.612 173.15C214.489 172.763 213.877 172.929 214.001 173.319C217.456 184.209 221.093 195.042 224.419 205.973C225.256 208.722 226.071 211.478 226.839 214.248C226.948 214.64 227.56 214.473 227.451 214.079Z" fill="#007CFF"/>
</g>
<g opacity="0.600006">
<path opacity="0.600006" d="M248.943 172.867C242.184 178.561 234.935 183.666 227.715 188.751C219.899 194.256 212.014 199.668 204.326 205.353C200.532 208.158 196.783 211.03 193.179 214.078C192.868 214.342 193.318 214.788 193.628 214.527C200.517 208.699 207.896 203.46 215.264 198.261C223.031 192.781 230.877 187.407 238.533 181.771C242.228 179.052 245.882 176.271 249.391 173.315C249.703 173.052 249.253 172.605 248.943 172.867Z" fill="#007CFF"/>
</g>
<g opacity="0.600006">
<path opacity="0.600006" d="M192.609 214.148C201.961 214.412 211.323 214.524 220.678 214.529C222.94 214.531 225.202 214.524 227.463 214.48C227.87 214.472 227.871 213.839 227.463 213.846C218.076 214.028 208.674 213.843 199.288 213.666C197.062 213.624 194.835 213.577 192.609 213.514C192.2 213.503 192.201 214.137 192.609 214.148Z" fill="#007CFF"/>
</g>
<g opacity="0.600006">
<path opacity="0.600006" d="M179.636 214.53C185.598 203.432 191.113 192.095 196.872 180.892C198.295 178.122 199.728 175.357 201.201 172.614C201.395 172.255 200.848 171.934 200.654 172.294C194.693 183.392 189.177 194.728 183.419 205.932C181.996 208.702 180.563 211.466 179.088 214.21C178.895 214.569 179.443 214.89 179.636 214.53Z" fill="#007CFF"/>
</g>
<g opacity="0.600006">
<path opacity="0.600006" d="M162.021 214.39C165.751 207.061 169.494 199.738 173.23 192.412C175.098 188.748 176.964 185.083 178.826 181.416C179.737 179.622 180.646 177.827 181.554 176.031C181.852 175.443 182.302 173.955 182.938 173.7C183.336 173.54 184.122 173.681 184.552 173.673C185.155 173.664 185.76 173.653 186.363 173.643C191.112 173.56 195.863 173.47 200.611 173.618C201.02 173.63 201.019 172.997 200.611 172.984C194.588 172.796 188.56 172.985 182.535 173.071C182.429 173.073 182.312 173.13 182.262 173.229C175.378 186.865 168.401 200.455 161.474 214.07C161.289 214.433 161.836 214.754 162.021 214.39Z" fill="#007CFF"/>
</g>
<g opacity="0.600006">
<path opacity="0.600006" d="M179.678 214.37C180.903 200.722 181.589 187.032 182.851 173.388C182.889 172.982 182.255 172.985 182.218 173.388C180.955 187.032 180.269 200.722 179.044 214.37C179.008 214.776 179.642 214.773 179.678 214.37Z" fill="#007CFF"/>
</g>
<g opacity="0.600006">
<path opacity="0.600006" d="M200.731 173.075C190.591 184.017 180.054 194.584 169.75 205.371C166.948 208.305 164.162 211.252 161.409 214.231C161.133 214.531 161.579 214.98 161.858 214.679C172.063 203.634 182.674 192.972 193.072 182.11C195.795 179.267 198.504 176.41 201.18 173.523C201.456 173.225 201.009 172.776 200.731 173.075Z" fill="#007CFF"/>
</g>
<g opacity="0.600006">
<path opacity="0.600006" d="M161.235 214.3C167.264 214.597 173.325 214.853 179.362 214.687C179.768 214.676 179.77 214.042 179.362 214.053C173.325 214.22 167.264 213.963 161.235 213.666C160.828 213.646 160.828 214.28 161.235 214.3Z" fill="#007CFF"/>
</g>
<g opacity="0.600006">
<path opacity="0.600006" d="M170.929 176.745C170.661 177.253 170.493 177.865 170.675 178.432C170.834 178.926 171.225 179.273 171.721 179.41C172.874 179.725 174.201 179.141 175.094 178.44C175.976 177.747 176.679 176.575 176.53 175.417C176.399 174.402 175.527 173.703 174.506 173.757C173.784 173.794 173.191 174.208 172.679 174.685C172.417 174.93 172.16 175.188 171.927 175.459C171.717 175.703 171.508 175.974 171.448 176.298C171.374 176.696 171.984 176.867 172.059 176.467C172.142 176.026 172.587 175.667 172.889 175.365C173.225 175.028 173.593 174.676 174.042 174.496C174.748 174.213 175.638 174.502 175.858 175.271C176.094 176.093 175.63 177.024 175.073 177.608C174.415 178.297 173.411 178.817 172.449 178.852C172.058 178.867 171.598 178.8 171.371 178.442C171.103 178.022 171.263 177.469 171.476 177.065C171.666 176.704 171.118 176.383 170.929 176.745Z" fill="#007CFF"/>
</g>
</g>
<g opacity="0.199997">
<g opacity="0.199997">
<path opacity="0.199997" d="M314.636 147.919L264.19 244.067H88.6143L139.06 147.919H189.392L163.739 159.674C163.723 159.682 163.698 159.69 163.682 159.698C150.594 164.467 140.132 171.772 134.782 180.893C122.537 201.784 141.792 224.279 177.809 231.134C213.817 237.989 252.942 226.602 265.188 205.711C267.887 201.097 269.057 196.41 268.852 191.829L271.495 147.919H314.636Z" fill="black"/>
</g>
</g>
<path d="M155.391 131.767C153.267 135.514 151.118 139.389 149.064 143.222C147.013 147.062 144.996 150.932 143.292 154.792C142.845 155.758 142.473 156.712 142.078 157.671C142.041 157.763 142.065 157.7 142.059 157.706C142.059 157.7 142.053 157.685 142.053 157.685C142.052 157.679 142.04 157.669 142.036 157.68C142.018 157.685 142.009 157.74 141.993 157.808C141.977 157.961 141.978 158.226 142.029 158.545C142.128 159.188 142.405 160.016 142.777 160.853C143.147 161.696 143.589 162.579 144.094 163.454C146.122 166.961 148.766 170.524 151.401 173.898L148.211 177.296C144.458 174.472 141.082 171.404 138.038 167.584C136.547 165.629 135.087 163.598 134.122 160.614C133.892 159.856 133.703 159.018 133.646 158.057C133.626 157.569 133.624 157.066 133.691 156.52C133.717 156.254 133.771 155.972 133.827 155.694C133.853 155.557 133.897 155.411 133.933 155.27L134.04 154.909C134.411 153.777 134.773 152.627 135.186 151.539C136.8 147.13 138.718 142.996 140.73 138.912C142.78 134.839 144.919 130.904 147.299 126.966L155.391 131.767Z" fill="#FFC4BE"/>
<path d="M150.253 172.809L154.612 174.239L150.951 180.407C150.951 180.407 147.75 178.964 147.109 176.026L150.253 172.809Z" fill="#FFC4BE"/>
<path d="M160.558 176.624L156.314 181.377L150.95 180.407L154.612 174.239L160.558 176.624Z" fill="#FFC4BE"/>
<path d="M180.845 103.065C180.721 103.55 180.877 104.009 181.194 104.091C181.511 104.172 181.869 103.845 181.993 103.36C182.118 102.876 181.962 102.416 181.645 102.335C181.328 102.253 180.97 102.58 180.845 103.065Z" fill="#1A2E35"/>
<path d="M180.833 103.998C180.833 103.998 181.217 107.079 182.085 108.741C181.021 109.322 179.656 108.581 179.656 108.581L180.833 103.998Z" fill="#FF857F"/>
<path d="M179.76 99.9164C179.697 99.8853 179.643 99.8305 179.615 99.7593C179.556 99.608 179.63 99.437 179.782 99.3781C181.297 98.7851 182.409 99.5614 182.457 99.5949C182.589 99.689 182.62 99.873 182.525 100.005C182.431 100.137 182.246 100.166 182.116 100.074C182.08 100.049 181.204 99.4526 179.996 99.9254C179.917 99.9565 179.832 99.9507 179.76 99.9164Z" fill="#1A2E35"/>
<path d="M164.165 104.962C165.055 109.503 165.945 117.825 162.767 120.855C162.767 120.855 164.008 125.462 172.447 125.462C181.726 125.462 176.881 120.856 176.881 120.856C171.817 119.646 171.948 115.889 172.83 112.36L164.165 104.962Z" fill="#FFC4BE"/>
<path d="M161.216 123.194C160.775 120.749 160.299 117.954 161.9 117.245C163.66 116.463 172.9 116.374 175.887 118.436C178.874 120.499 177.521 125.245 177.521 125.245L161.216 123.194Z" fill="#1A2E35"/>
<g opacity="0.600006">
<g opacity="0.600006">
<path opacity="0.600006" d="M161.216 123.194C160.775 120.749 160.299 117.954 161.9 117.245C163.66 116.463 172.9 116.374 175.887 118.436C178.874 120.499 177.521 125.245 177.521 125.245L161.216 123.194Z" fill="#007CFF"/>
</g>
</g>
<path d="M132.606 330.43C132.669 330.444 132.727 330.463 132.778 330.487C132.895 330.543 132.968 330.625 133.002 330.738C133.08 331.002 132.983 331.086 132.95 331.113C132.617 331.397 131.377 331.136 130.504 330.786C131.096 330.577 132.055 330.31 132.606 330.43ZM131.596 331.422C132.218 331.557 132.841 331.592 133.141 331.337C133.267 331.23 133.394 331.025 133.283 330.654C133.226 330.459 133.098 330.314 132.905 330.221C132.067 329.821 130.14 330.607 130.059 330.64C130.005 330.662 129.969 330.714 129.968 330.772C129.966 330.83 129.999 330.883 130.05 330.908C130.346 331.051 130.97 331.286 131.596 331.422Z" fill="#007CFF"/>
<path d="M131.841 328.725C131.862 328.73 131.883 328.736 131.905 328.743C132.087 328.807 132.084 328.895 132.084 328.934C132.073 329.35 131.082 330.187 130.355 330.526C130.537 330.03 130.952 329.051 131.483 328.78C131.605 328.718 131.723 328.7 131.841 328.725ZM130.084 330.92C130.107 330.925 130.132 330.924 130.156 330.917C130.858 330.712 132.359 329.645 132.377 328.941C132.381 328.814 132.336 328.582 132.002 328.466C131.784 328.39 131.566 328.408 131.35 328.518C130.52 328.941 129.996 330.661 129.974 330.734C129.958 330.786 129.972 330.841 130.011 330.88C130.031 330.9 130.057 330.914 130.084 330.92Z" fill="#007CFF"/>
<path d="M178.35 333.259C178.454 333.259 178.55 333.269 178.635 333.292C178.77 333.329 178.865 333.396 178.923 333.498C179.026 333.681 178.988 333.771 178.95 333.823C178.662 334.225 177.093 334.234 175.939 334.07C176.514 333.775 177.624 333.259 178.35 333.259ZM177.365 334.463C178.162 334.463 178.932 334.353 179.189 333.995C179.28 333.87 179.351 333.656 179.177 333.353C179.08 333.182 178.923 333.066 178.712 333.008C177.678 332.728 175.509 333.964 175.417 334.017C175.364 334.047 175.335 334.108 175.345 334.168C175.354 334.229 175.401 334.276 175.462 334.289C175.858 334.367 176.623 334.463 177.365 334.463Z" fill="#007CFF"/>
<path d="M177.005 331.775C177.033 331.775 177.064 331.776 177.093 331.779C177.357 331.806 177.375 331.91 177.38 331.945C177.448 332.365 176.44 333.42 175.675 333.88C175.755 333.392 175.976 332.391 176.494 331.966C176.651 331.838 176.818 331.775 177.005 331.775ZM175.49 334.292C175.511 334.292 175.531 334.287 175.55 334.279C176.3 333.942 177.784 332.599 177.671 331.897C177.644 331.733 177.527 331.528 177.123 331.487C176.822 331.456 176.548 331.541 176.308 331.739C175.518 332.387 175.351 334.059 175.343 334.13C175.339 334.182 175.361 334.234 175.404 334.264C175.43 334.282 175.46 334.292 175.49 334.292Z" fill="#007CFF"/>
<path d="M168.664 334.144H174.872L175.49 319.768H169.282L168.664 334.144Z" fill="#FFC4BE"/>
<path d="M123.163 329.271L129.23 330.585L135.322 317.194L129.255 315.881L123.163 329.271Z" fill="#FFC4BE"/>
<path d="M129.814 329.976L122.998 328.5C122.75 328.446 122.498 328.572 122.391 328.803L120.025 333.935C119.78 334.468 120.105 335.093 120.68 335.207C123.069 335.681 124.255 335.792 127.252 336.441C129.097 336.84 133.259 337.855 135.807 338.406C138.297 338.945 139.231 336.511 138.238 336.057C133.785 334.023 131.924 332.232 130.718 330.562C130.501 330.261 130.177 330.054 129.814 329.976Z" fill="#1A2E35"/>
<path d="M174.831 333.425H168.051C167.798 333.425 167.578 333.602 167.523 333.849L166.297 339.367C166.17 339.939 166.604 340.481 167.19 340.472C169.635 340.43 173.169 340.287 176.243 340.287C179.837 340.287 182.94 340.483 187.156 340.483C189.704 340.483 190.411 337.906 189.344 337.673C184.488 336.611 180.523 336.497 176.326 333.909C175.87 333.628 175.367 333.425 174.831 333.425Z" fill="#1A2E35"/>
<path d="M187.207 128.353C189.23 132.91 191.433 137.588 193.722 142.061C194.874 144.304 196.071 146.51 197.318 148.64C198.574 150.761 199.897 152.812 201.291 154.612L201.82 155.261C201.946 155.384 201.842 155.332 202.018 155.478C202.219 155.68 202.656 155.975 203.073 156.246C203.955 156.814 205.02 157.376 206.107 157.906C208.3 158.961 210.628 159.98 212.989 160.929C217.711 162.852 222.573 164.699 227.392 166.538L226.218 171.049C220.973 170.204 215.838 169.106 210.691 167.697C208.125 166.966 205.552 166.208 202.959 165.207C201.656 164.706 200.352 164.175 198.97 163.456C198.267 163.066 197.579 162.695 196.767 162.076C196.416 161.84 195.859 161.315 195.527 160.977L194.765 160.159C192.806 157.971 191.177 155.716 189.672 153.423C188.157 151.138 186.789 148.808 185.485 146.459C182.884 141.736 180.604 137.001 178.525 131.984L187.207 128.353Z" fill="#FFC4BE"/>
<path d="M149.738 122.258C143.92 123.593 134.151 152.482 134.151 152.482L143.658 155.643C143.658 155.643 153.36 141.272 156.651 134.343C160.1 127.082 155.688 120.895 149.738 122.258Z" fill="#007CFF"/>
<g opacity="0.5">
<g opacity="0.5">
<path opacity="0.5" d="M149.738 122.258C143.92 123.593 134.151 152.482 134.151 152.482L143.658 155.643C143.658 155.643 153.36 141.272 156.651 134.343C160.1 127.082 155.688 120.895 149.738 122.258Z" fill="black"/>
</g>
</g>
<path d="M145.308 154.224C145.308 154.224 135.994 152.448 133.878 151.127C133.131 152.205 132.214 156.115 132.846 157.267C133.478 158.42 142.125 160.085 143.304 159.406C144.483 158.727 145.308 154.224 145.308 154.224Z" fill="#1A2E35"/>
<g opacity="0.600006">
<g opacity="0.600006">
<path opacity="0.600006" d="M145.308 154.224C145.308 154.224 135.994 152.448 133.878 151.127C133.131 152.205 132.214 156.115 132.846 157.267C133.478 158.42 142.125 160.085 143.304 159.406C144.483 158.727 145.308 154.224 145.308 154.224Z" fill="#007CFF"/>
</g>
</g>
<g opacity="0.300003">
<g opacity="0.300003">
<path opacity="0.300003" d="M153.508 132.548C151.734 134.322 150.119 139.358 150.068 145.764C152.122 142.502 154.243 138.987 155.722 136.181C155.021 133.621 154.234 131.812 153.508 132.548Z" fill="black"/>
</g>
</g>
<path d="M184.517 122.578C184.517 122.578 191.125 130.042 184.884 176.236H151.681C151.452 171.139 154.654 146.274 149.738 122.258C149.738 122.258 155.43 121.117 160.854 120.855C165.096 120.65 171.239 120.515 174.969 120.856C179.886 121.304 184.517 122.578 184.517 122.578Z" fill="#007CFF"/>
<g opacity="0.5">
<g opacity="0.5">
<path opacity="0.5" d="M184.517 122.578C184.517 122.578 191.125 130.042 184.884 176.236H151.681C151.452 171.139 154.654 146.274 149.738 122.258C149.738 122.258 155.43 121.117 160.854 120.855C165.096 120.65 171.239 120.515 174.969 120.856C179.886 121.304 184.517 122.578 184.517 122.578Z" fill="black"/>
</g>
</g>
<g opacity="0.300003">
<g opacity="0.300003">
<path opacity="0.300003" d="M179.594 137.331C180.22 144.074 184.537 152.634 187.005 156.505C187.334 152.06 187.504 148.181 187.555 144.793L179.594 137.331Z" fill="black"/>
</g>
</g>
<path d="M176.297 127.389C172.298 134.953 193.181 159.56 193.181 159.56L200.474 152.154C200.474 152.154 191.007 135.594 188.782 128.245C186.033 119.168 179.342 121.631 176.297 127.389Z" fill="#007CFF"/>
<g opacity="0.5">
<g opacity="0.5">
<path opacity="0.5" d="M176.297 127.389C172.298 134.953 193.181 159.56 193.181 159.56L200.474 152.154C200.474 152.154 191.007 135.594 188.782 128.245C186.033 119.168 179.342 121.631 176.297 127.389Z" fill="black"/>
</g>
</g>
<path d="M200.183 150.693C200.183 150.693 193.851 157.75 191.627 158.88C192.164 160.076 195.037 162.88 196.351 162.934C197.665 162.989 203.557 156.445 203.584 155.085C203.612 153.725 200.183 150.693 200.183 150.693Z" fill="#1A2E35"/>
<g opacity="0.600006">
<g opacity="0.600006">
<path opacity="0.600006" d="M200.183 150.693C200.183 150.693 193.851 157.75 191.627 158.88C192.164 160.076 195.037 162.88 196.351 162.934C197.665 162.989 203.557 156.445 203.584 155.085C203.612 153.725 200.183 150.693 200.183 150.693Z" fill="#007CFF"/>
</g>
</g>
<path d="M225.999 166.559L232.012 163.965L233.883 170.49C233.883 170.49 229.297 173.489 225.618 170.862L225.999 166.559Z" fill="#FFC4BE"/>
<path d="M238.718 167.07C238.522 167.202 238.252 167.15 238.119 166.954L231.443 157.054C231.31 156.857 231.362 156.588 231.559 156.455C231.756 156.322 232.025 156.375 232.158 156.572L238.834 166.471C238.968 166.667 238.915 166.937 238.718 167.07Z" fill="#1A2E35"/>
<path d="M238.351 164.45L240.992 168.359L233.883 170.489L232.013 163.964L238.351 164.45Z" fill="#FFC4BE"/>
<g opacity="0.199997">
<g opacity="0.199997">
<path opacity="0.199997" d="M175.489 319.772L175.171 327.182H168.961L169.278 319.772H175.489Z" fill="black"/>
</g>
</g>
<g opacity="0.199997">
<g opacity="0.199997">
<path opacity="0.199997" d="M129.252 315.884L135.322 317.199L132.179 324.099L126.109 322.785L129.252 315.884Z" fill="black"/>
</g>
</g>
<path d="M164.933 97.8845C163.77 103.934 162.782 107.417 165.005 111.247C168.349 117.007 176.402 116.167 179.349 110.586C182.002 105.562 183.459 96.5119 178.238 92.6453C173.093 88.835 166.096 91.8346 164.933 97.8845Z" fill="#FFC4BE"/>
<path d="M162.541 94.9153C166.92 93.4813 175.212 90.3991 178.145 97.4413C181.079 104.483 169.17 111.833 166.112 111.841C163.676 111.849 157.733 96.4899 162.541 94.9153Z" fill="#1A2E35"/>
<path d="M171.661 97.8533C180.232 102.56 187.979 95.8001 184.541 88.1501C181.102 80.5002 173.467 81.5677 175.832 85.3379C178.198 89.1072 171.656 83.4156 167.146 85.153C163.977 86.3734 168.087 88.3645 168.471 89.796C168.855 91.2275 160.184 91.2782 159.029 93.4426C157.873 95.607 162.041 100.099 164.17 99.3952C166.3 98.6901 170.128 97.0115 171.661 97.8533Z" fill="#1A2E35"/>
<path d="M174.137 101.481C173.82 103.063 174.156 104.719 174.774 105.907C175.702 107.693 177.304 107.156 177.999 105.461C178.625 103.936 178.896 101.167 177.505 99.9511C176.135 98.7519 174.5 99.6721 174.137 101.481Z" fill="#FFC4BE"/>
<path d="M173.106 176.236C173.106 176.236 166.061 223.677 162.194 241.451C157.958 260.914 135.311 323.31 135.311 323.31L124.198 320.903C124.198 320.903 141.153 262.486 143.57 243.215C146.193 222.3 151.681 176.236 151.681 176.236H173.106Z" fill="#1A2E35"/>
<path d="M137.972 319.6C138.019 319.61 135.901 323.618 135.901 323.618L123.397 320.912L124.452 317.153L137.972 319.6Z" fill="#007CFF"/>
<g opacity="0.300003">
<g opacity="0.300003">
<path opacity="0.300003" d="M168.654 193.139C160.507 194.736 161.369 225.115 162.35 240.739C164.699 229.695 168.138 208.442 170.488 193.359C169.947 193.088 169.338 193.004 168.654 193.139Z" fill="black"/>
</g>
</g>
<path d="M184.884 176.236C184.884 176.236 185.739 222.651 185.064 241.582C184.362 261.272 177.484 325.747 177.484 325.747H166.968C166.968 325.747 166.582 262.423 166.114 243.084C165.603 222.002 163.059 176.236 163.059 176.236H184.884Z" fill="#1A2E35"/>
<path d="M179.508 321.558C179.556 321.558 178.915 325.924 178.915 325.924H166.122L165.776 322.028L179.508 321.558Z" fill="#007CFF"/>
</svg>
