<svg width="60" height="40" viewBox="0 0 60 40" fill="none" xmlns="http://www.w3.org/2000/svg">
<path d="M14.3267 0C16.2908 0 18.178 0.363461 19.988 1.09039C21.7596 1.85557 23.3194 2.92683 24.6673 4.30416C25.9768 5.68149 27.0359 7.32664 27.8446 9.2396C28.6149 11.1908 29 13.3525 29 15.7245C29 18.8235 28.5764 21.6165 27.7291 24.1033C26.8818 26.6284 25.7264 28.8857 24.2629 30.8752C22.761 32.9029 20.9894 34.6628 18.9482 36.1549C16.907 37.6471 14.6926 38.9287 12.3048 40L8.43426 36.3845C11.0146 34.8924 13.0173 33.2664 14.4422 31.5065C15.8287 29.7465 16.7915 27.6614 17.3307 25.2511C16.7915 25.4041 16.2138 25.538 15.5976 25.6528C14.9814 25.7676 14.2304 25.825 13.3446 25.825C11.342 25.825 9.53187 25.538 7.91434 24.9641C6.2583 24.3902 4.85259 23.5485 3.69721 22.439C2.50332 21.3678 1.59827 20.0287 0.982071 18.4218C0.327356 16.8149 -1.90735e-06 14.9785 -1.90735e-06 12.9125C-1.90735e-06 11.1143 0.327356 9.43089 0.982071 7.86226C1.59827 6.29364 2.52258 4.91631 3.75498 3.73027C4.94887 2.58249 6.45086 1.66428 8.26096 0.975609C10.0325 0.325203 12.0544 0 14.3267 0Z" fill="#F3EA99"/>
<path d="M45.3267 0C47.2908 0 49.178 0.363461 50.988 1.09039C52.7596 1.85557 54.3194 2.92683 55.6673 4.30416C56.9768 5.68149 58.0359 7.32664 58.8446 9.2396C59.6149 11.1908 60 13.3525 60 15.7245C60 18.8235 59.5764 21.6165 58.7291 24.1033C57.8818 26.6284 56.7264 28.8857 55.2629 30.8752C53.761 32.9029 51.9894 34.6628 49.9482 36.1549C47.907 37.6471 45.6926 38.9287 43.3048 40L39.4343 36.3845C42.0146 34.8924 44.0173 33.2664 45.4422 31.5065C46.8287 29.7465 47.7915 27.6614 48.3307 25.2511C47.7915 25.4041 47.2138 25.538 46.5976 25.6528C45.9814 25.7676 45.2304 25.825 44.3446 25.825C42.342 25.825 40.5319 25.538 38.9143 24.9641C37.2583 24.3902 35.8526 23.5485 34.6972 22.439C33.5033 21.3678 32.5983 20.0287 31.9821 18.4218C31.3274 16.8149 31 14.9785 31 12.9125C31 11.1143 31.3274 9.43089 31.9821 7.86226C32.5983 6.29364 33.5226 4.91631 34.755 3.73027C35.9489 2.58249 37.4509 1.66428 39.261 0.975609C41.0325 0.325203 43.0544 0 45.3267 0Z" fill="#F3EA99"/>
</svg>
