<svg width="81" height="80" viewBox="0 0 81 80" fill="none" xmlns="http://www.w3.org/2000/svg">
<path d="M48.6821 72.0929L47.5719 72.3917V73.5414V77.8022C47.5719 78.1877 47.2597 78.5 46.8741 78.5H33.1319C32.7468 78.5 32.4341 78.1873 32.4341 77.8022V73.5414V72.3918L31.324 72.093C28.5609 71.349 25.9187 70.2538 23.434 68.8229L22.4376 68.2491L21.6246 69.0623L18.6174 72.0704C18.6173 72.0704 18.6173 72.0704 18.6172 72.0705C18.4862 72.2015 18.3087 72.2749 18.1241 72.2749H18.1233C17.9403 72.2749 17.7625 72.2018 17.6304 72.0699L17.63 72.0695L7.91715 62.3497L7.91678 62.3494C7.64443 62.077 7.64452 61.6351 7.91678 61.3629L10.9216 58.3581L11.7346 57.545L11.1607 56.5486C9.72992 54.0649 8.63471 51.4228 7.89076 48.6589L7.59195 47.5488H6.44231H2.1978C2.01199 47.5488 1.83458 47.4751 1.70369 47.3442C1.57296 47.2135 1.49973 47.036 1.5 46.8523L1.5 46.8509L1.50773 33.1087V33.1078C1.50773 32.7236 1.81963 32.4109 2.20553 32.4109H6.44231H7.59195L7.89076 31.3008C8.63468 28.5369 9.72986 25.8957 11.1607 23.4119L11.7346 22.4155L10.9216 21.6025L7.93309 18.614C7.80241 18.4833 7.72854 18.3051 7.72854 18.1198C7.72854 17.9354 7.80181 17.7585 7.93284 17.6277L7.93362 17.6269L17.6535 7.91301C17.9259 7.6409 18.3682 7.641 18.6406 7.91334L21.6256 10.8984L22.4387 11.7115L23.435 11.1375C25.9188 9.70673 28.5608 8.61157 31.3236 7.86851L32.4341 7.56987V6.41999V2.1978C32.4341 1.81267 32.7468 1.5 33.1319 1.5H46.8741C47.2597 1.5 47.5719 1.81229 47.5719 2.1978V6.41913V7.56877L48.6821 7.86758C51.446 8.61152 54.0881 9.70674 56.5718 11.1375L57.5683 11.7115L58.3814 10.8982L61.3654 7.91334C61.3655 7.91331 61.3655 7.91328 61.3655 7.91324C61.3656 7.91323 61.3656 7.91321 61.3656 7.91319C61.6387 7.64023 62.0805 7.64104 62.3519 7.91248L62.3524 7.9129L72.0729 17.6257L72.0733 17.6262C72.2035 17.7566 72.2779 17.9349 72.2783 18.1213C72.2779 18.306 72.2041 18.4836 72.0738 18.614L69.0853 21.6025L68.2722 22.4155L68.8462 23.4119C70.2768 25.8954 71.3713 28.5375 72.1153 31.3009L72.4142 32.4109H73.5637H77.8091C78.1946 32.4109 78.5069 32.7232 78.5069 33.1087V46.851C78.5069 47.2365 78.1946 47.5488 77.8091 47.5488H73.5646H72.4149L72.1161 48.6589C71.3722 51.4228 70.277 54.0649 68.8462 56.5486L68.2722 57.545L69.0853 58.3581L72.0901 61.3629C72.3616 61.6344 72.3624 62.0766 72.0897 62.3497C72.0897 62.3498 72.0896 62.3498 72.0896 62.3499L62.3765 72.0699L62.3757 72.0706C62.2452 72.2014 62.0675 72.2749 61.8836 72.2749C61.6978 72.2749 61.5204 72.2012 61.3895 72.0704L58.3812 69.0621L57.5682 68.2491L56.5718 68.823C54.0881 70.2538 51.446 71.349 48.6821 72.0929Z" stroke="#00B47E" stroke-width="3"/>
<path d="M40.0035 23.3398C49.1888 23.3398 56.6637 30.8147 56.6637 40C56.6637 49.1853 49.1888 56.6602 40.0035 56.6602C30.8182 56.6602 23.3433 49.1853 23.3433 40C23.3433 30.8147 30.8182 23.3398 40.0035 23.3398Z" stroke="#00B47E" stroke-width="3"/>
</svg>
