<svg width="68" height="80" viewBox="0 0 68 80" fill="none" xmlns="http://www.w3.org/2000/svg">
<path d="M67.2079 69.5377L56.0665 51.5822C61.1236 46.0916 64.1578 38.795 64.1578 30.7759C64.1578 22.2511 60.6901 14.5933 55.1273 9.03049C49.5646 3.46771 41.9069 0 33.3821 0C24.8573 0 17.1994 3.46771 11.6366 9.03049C6.07379 14.5933 2.60609 22.2511 2.60609 30.7759C2.60609 38.795 5.64032 46.0916 10.6974 51.5822L0.219659 69.5377C0.0029271 69.8989 -0.0693167 70.4046 0.0751712 70.9103C0.364147 71.705 1.23107 72.0662 2.02576 71.7773L12.3566 67.6594L13.946 78.7127C14.0182 79.1461 14.235 79.5796 14.6684 79.7963C15.3909 80.2298 16.3301 79.9408 16.7635 79.2184L27.3858 61.0461C29.2642 61.4073 31.287 61.6241 33.2376 61.6241C35.2604 61.6241 37.211 61.4073 39.0893 61.0461L50.375 79.2184C50.8085 79.9408 51.7477 80.1576 52.4701 79.7963C52.9036 79.5796 53.1203 79.1461 53.1925 78.7127L54.7819 67.6594L65.1128 71.7773C65.9075 72.0662 66.7744 71.705 67.0634 70.9103C67.4968 70.4046 67.4246 69.8989 67.2079 69.5377ZM16.4745 73.8723L15.1742 65.2753C15.0297 64.4806 14.3072 63.9027 13.4403 63.9749C13.2958 63.9749 13.1513 64.0472 13.0068 64.1194L4.98776 67.2981L12.937 53.7495C16.1879 56.6392 20.0892 58.8788 24.4238 60.1792L16.4745 73.8723ZM33.3821 58.5176C25.7242 58.5176 18.7887 55.4111 13.8039 50.4263C8.81905 45.4414 5.71257 38.506 5.71257 30.8482C5.71257 23.1903 8.81905 16.2549 13.8039 11.2701C18.7887 6.14073 25.7242 3.03424 33.3821 3.03424C41.0399 3.03424 47.9752 6.14073 52.96 11.1256C57.9448 16.1104 61.0513 23.0458 61.0513 30.7037C61.0513 38.3615 57.9448 45.2969 52.96 50.2818C47.9752 55.4111 41.0399 58.5176 33.3821 58.5176ZM54.4207 64.1194C54.2762 64.0472 54.1317 63.9749 53.9872 63.9749C53.1925 63.8304 52.3979 64.4084 52.2534 65.2753L50.953 73.8723L42.3403 60.1792C46.675 58.8788 50.576 56.6392 53.8269 53.7495L62.4398 67.2981L54.4207 64.1194Z" fill="#00B47E"/>
<path d="M47.5418 25.4299C47.1806 24.9242 46.7471 24.563 46.2414 24.3462C45.7357 24.1295 45.1577 23.985 44.5798 24.0573H38.5836L36.7052 18.1333C36.4162 17.2663 35.766 16.5439 35.0436 16.1104C34.5379 15.8937 34.0322 15.7492 33.4542 15.7492C32.8763 15.7492 32.3706 15.8937 31.8649 16.1104C31.0702 16.5439 30.4922 17.1941 30.2033 18.1333L28.3249 24.0573H22.3287C21.7507 23.985 21.1728 24.1295 20.6671 24.3462C20.1614 24.563 19.7279 24.9242 19.3667 25.4299C18.7887 26.2246 18.6442 27.0915 18.7887 27.9584C18.9332 28.8254 19.3667 29.62 20.1614 30.198L25.2184 33.8102L23.2678 39.7342C23.2678 39.8064 23.2678 39.8787 23.1956 39.8787C23.0511 40.3121 23.0511 40.8178 23.1234 41.3236C23.1956 41.8293 23.4123 42.335 23.7735 42.7684C24.3515 43.5631 25.1462 43.9966 26.0131 44.1411C26.88 44.2856 27.8192 44.0688 28.5416 43.4909L33.5987 39.8064L38.6558 43.4909C39.4505 44.0688 40.3174 44.2133 41.1843 44.1411C42.0513 43.9966 42.8459 43.5631 43.4239 42.7684C43.7851 42.335 43.9296 41.8293 44.0741 41.3236C44.1463 40.8178 44.1463 40.3844 44.0018 39.8787C44.0018 39.8064 44.0018 39.7342 43.9296 39.7342L41.979 33.8102L47.0361 30.198C47.8308 29.62 48.2642 28.8254 48.4087 27.9584C48.3365 27.1637 48.1198 26.2246 47.5418 25.4299ZM45.0133 27.7417L44.941 27.8139L39.0893 32.0763C38.5835 32.4376 38.2946 33.16 38.5113 33.7379L40.7509 40.6011V40.6734C40.7509 40.7456 40.7509 40.8178 40.7509 40.8901C40.7509 40.9623 40.7509 41.0346 40.6786 41.0346C40.6064 41.1068 40.5341 41.1791 40.3897 41.1791C40.3174 41.1791 40.1729 41.1791 40.1007 41.1068L34.1767 36.7722C33.8877 36.5555 33.5987 36.4832 33.2375 36.4832C32.9485 36.4832 32.5873 36.5555 32.2983 36.7722L26.3743 41.1068C26.3021 41.1791 26.1576 41.1791 26.0854 41.1791C26.0131 41.1791 25.8686 41.1068 25.7964 41.0346C25.7241 40.9623 25.7241 40.8901 25.7241 40.8901C25.7241 40.8178 25.7241 40.7456 25.7241 40.6734V40.6011L27.9637 33.7379C28.1804 33.0877 27.9637 32.4376 27.3857 32.0763L21.823 27.8139L21.7507 27.7417C21.6785 27.6695 21.6062 27.5972 21.6062 27.525C21.6062 27.4527 21.6062 27.3082 21.6785 27.236C21.6785 27.236 21.6785 27.1637 21.7507 27.1637C21.823 27.0915 21.823 27.0915 21.8952 27.0915C21.9674 27.0915 22.0397 27.0193 22.1119 27.0193C22.1842 27.0193 22.2564 27.0193 22.3287 27.0193H29.4086C30.0588 27.0193 30.6367 26.5858 30.8535 25.9356L33.093 19.0002C33.093 18.9279 33.1653 18.7835 33.3097 18.7835C33.382 18.7835 33.4542 18.7112 33.4542 18.7112C33.5265 18.7112 33.5987 18.7112 33.5987 18.7835C33.671 18.8557 33.7432 18.9279 33.8155 19.0002L36.055 25.9356C36.2717 26.5136 36.8497 27.0193 37.4999 27.0193H44.5798C44.652 27.0193 44.7243 27.0193 44.7965 27.0193C44.8688 27.0193 44.941 27.0193 45.0133 27.0915C45.0855 27.0915 45.0855 27.1637 45.1577 27.1637C45.1577 27.1637 45.1577 27.236 45.23 27.236C45.3022 27.3082 45.3022 27.3805 45.3022 27.525C45.1577 27.5972 45.0855 27.6695 45.0133 27.7417Z" fill="#00B47E"/>
</svg>
