<svg width="84" height="84" viewBox="0 0 84 84" fill="none" xmlns="http://www.w3.org/2000/svg">
<path d="M7.51023 63.4963C6.58762 63.4963 5.69296 63.0105 5.21418 62.1473C1.80679 55.9965 0 49.007 0 41.9371C0 18.8123 18.8123 0 41.9371 0C48.6785 0 55.364 1.64254 61.2736 4.74588C62.5562 5.42037 63.0489 7.00349 62.3744 8.28607C61.7069 9.56865 60.1238 10.0649 58.8342 9.38692C53.6725 6.67499 47.8328 5.24214 41.9371 5.24214C21.7024 5.24214 5.24214 21.7024 5.24214 41.9371C5.24214 48.1193 6.81827 54.2282 9.8028 59.6066C10.5017 60.8717 10.0439 62.4688 8.78233 63.1712C8.37694 63.3914 7.94009 63.4963 7.51023 63.4963Z" fill="#F8E32E"/>
<path d="M41.9371 83.8742C34.1682 83.8742 26.5881 81.7284 20.018 77.671C18.7843 76.9126 18.4034 75.2946 19.1617 74.0644C19.9236 72.8377 21.5417 72.4498 22.7683 73.2117C28.5137 76.7554 35.1433 78.6321 41.9371 78.6321C62.1717 78.6321 78.632 62.1717 78.632 41.9371C78.632 35.1328 76.7588 28.5172 73.2117 22.8068C72.4498 21.5766 72.8307 19.9621 74.0574 19.1967C75.2876 18.4279 76.9021 18.8123 77.664 20.0424C81.7284 26.5811 83.8742 34.1543 83.8742 41.9371C83.8742 65.0619 65.0619 83.8742 41.9371 83.8742Z" fill="#F8E32E"/>
<path d="M32.3265 39.316C30.8797 39.316 29.7055 38.1418 29.7055 36.695C29.7055 34.7693 28.1398 33.2002 26.2107 33.2002C24.2816 33.2002 22.716 34.7693 22.716 36.695C22.716 38.1418 21.5417 39.316 20.0949 39.316C18.6481 39.316 17.4738 38.1418 17.4738 36.695C17.4738 31.8792 21.3914 27.9581 26.2107 27.9581C31.03 27.9581 34.9476 31.8792 34.9476 36.695C34.9476 38.1418 33.7734 39.316 32.3265 39.316Z" fill="#F8E32E"/>
<path d="M63.7794 39.316C62.3325 39.316 61.1583 38.1418 61.1583 36.695C61.1583 34.7693 59.5926 33.2002 57.6635 33.2002C55.7344 33.2002 54.1688 34.7693 54.1688 36.695C54.1688 38.1418 52.9945 39.316 51.5477 39.316C50.1009 39.316 48.9266 38.1418 48.9266 36.695C48.9266 31.8792 52.8443 27.9581 57.6635 27.9581C62.4828 27.9581 66.4004 31.8792 66.4004 36.695C66.4004 38.1418 65.2262 39.316 63.7794 39.316Z" fill="#F8E32E"/>
<path d="M41.9371 62.9056C34.3045 62.9056 27.1333 59.9351 21.7374 54.5357C20.7134 53.5117 20.7134 51.8517 21.7374 50.8278C22.7614 49.8038 24.4214 49.8038 25.4453 50.8278C29.8487 55.2381 35.7059 57.6635 41.9371 57.6635C48.1682 57.6635 54.0255 55.2381 58.4323 50.8313C59.4563 49.8073 61.1163 49.8073 62.1403 50.8313C63.1643 51.8552 63.1643 53.5152 62.1403 54.5392C56.7409 59.9351 49.5696 62.9056 41.9371 62.9056Z" fill="#F8E32E"/>
<path d="M69.8952 28.0839C69.371 28.0839 68.8467 27.9266 68.3924 27.6121C66.313 26.1548 55.9161 18.5467 55.9161 11.5327C55.9161 7.03145 59.7499 3.37244 64.4608 3.37244C66.4843 3.37244 68.3924 4.05392 69.8952 5.22816C71.3979 4.05392 73.3061 3.37244 75.3295 3.37244C80.0405 3.36894 83.8742 7.03145 83.8742 11.5327C83.8742 18.5467 73.4773 26.1583 71.3979 27.6121C70.9436 27.9266 70.4194 28.0839 69.8952 28.0839ZM64.4608 8.61108C62.6401 8.61108 61.1583 9.92162 61.1583 11.5292C61.1583 14.325 65.9356 19.1373 69.8952 22.2057C73.9246 19.0954 78.6321 14.3565 78.6321 11.5292C78.6321 9.92162 77.1503 8.61108 75.3295 8.61108C73.9805 8.61108 72.7818 9.32052 72.2751 10.4179C71.4154 12.2701 68.3784 12.2701 67.5187 10.4179C67.0085 9.32052 65.8098 8.61108 64.4608 8.61108Z" fill="#F8E32E"/>
<path d="M13.979 84C13.4548 84 12.9306 83.8427 12.4763 83.5282C10.3969 82.0709 0 74.4628 0 67.4488C0 62.9476 3.83375 59.2886 8.54468 59.2886C10.5681 59.2886 12.4763 59.9701 13.979 61.1443C15.4818 59.9701 17.3899 59.2886 19.4134 59.2886C24.1243 59.2851 27.9581 62.9476 27.9581 67.4488C27.9581 74.4628 17.5612 82.0744 15.4818 83.5282C15.0275 83.8427 14.5032 84 13.979 84ZM8.54468 64.5272C6.72391 64.5272 5.24214 65.8377 5.24214 67.4453C5.24214 70.2411 10.0195 75.0534 13.979 78.1218C18.0085 75.0115 22.7159 70.2726 22.7159 67.4453C22.7159 65.8377 21.2341 64.5272 19.4134 64.5272C18.0644 64.5272 16.8657 65.2367 16.359 66.334C15.4993 68.1862 12.4623 68.1862 11.6026 66.334C11.0924 65.2367 9.89366 64.5272 8.54468 64.5272Z" fill="#F8E32E"/>
</svg>
