<svg width="68" height="80" viewBox="0 0 68 80" fill="none" xmlns="http://www.w3.org/2000/svg">
<path d="M65.6356 20.627V20.6271C65.8284 30.7241 66.0334 42.3445 62.137 52.8829C58.2851 63.301 50.3779 72.7636 34.0349 78.4281L34.0342 78.4284C33.8969 78.4761 33.753 78.5 33.6092 78.5C33.4656 78.5 33.3219 78.4762 33.1836 78.4282L33.1834 78.4282C16.8417 72.7638 8.93543 63.3015 5.08398 52.8837C1.18804 42.3456 1.39324 30.7254 1.58604 20.6287C1.62743 18.4712 1.66658 16.4155 1.66658 14.4242C1.66658 13.7062 2.24875 13.124 2.96678 13.124C15.2771 13.124 24.7865 9.56615 32.7029 1.86828L32.703 1.86821C33.2078 1.37732 34.0108 1.37721 34.5157 1.8682L34.5158 1.86833C42.433 9.56619 51.9439 13.124 64.2549 13.124C64.9732 13.124 65.5551 13.7061 65.5551 14.4242C65.5551 16.3917 65.5937 18.422 65.6342 20.551L65.6356 20.627Z" stroke="#00B47E" stroke-width="3"/>
<path d="M43.2523 30.2726L29.737 43.7871L23.9697 38.0198C22.8762 36.9266 21.1031 36.9266 20.0099 38.0198C18.9163 39.1138 18.9163 40.8865 20.0099 41.9801L27.7571 49.7273C28.3037 50.2739 29.0205 50.5472 29.737 50.5472C30.4535 50.5472 31.1703 50.2739 31.7169 49.7273L47.2117 34.2329C48.3057 33.1393 48.3057 31.3662 47.2121 30.273C46.1189 29.1794 44.3458 29.1791 43.2523 30.2726Z" fill="#00B47E"/>
</svg>
