<svg width="312" height="282" viewBox="0 0 312 282" fill="none" xmlns="http://www.w3.org/2000/svg">
<rect width="312" height="282" fill="#F8FFF9"/>
<path d="M258.532 203.937C258.532 203.937 286.256 174.17 263.221 141.944C242.782 113.35 218.953 115.305 201.469 126.908C194.023 131.851 172.555 127.517 154.281 98.4221C129.364 58.7437 42.9854 82.8087 58.7349 143.855C66.3568 173.396 35.5399 174.47 51.2419 204L258.532 203.937Z" fill="#EBF3FA"/>
<path d="M35.2736 203.963H276.7C276.851 203.963 276.975 203.84 276.975 203.689V203.595C276.975 203.445 276.851 203.321 276.7 203.321H35.2736C35.1233 203.321 34.9997 203.445 34.9997 203.595V203.689C34.9997 203.84 35.1233 203.963 35.2736 203.963Z" fill="#2E3552"/>
<path d="M152.755 199.653C110.763 199.653 76.7227 193.791 76.7227 193.791C76.7227 193.791 110.763 187.929 152.755 187.929C194.745 187.929 228.786 193.791 228.786 193.791C228.786 193.791 194.745 199.653 152.755 199.653Z" fill="#AAC5CD"/>
<path d="M144.678 132.147H134.857L129.851 140.813H139.671L144.678 132.147Z" fill="#5D6267"/>
<path d="M146.3 132.147H136.479L131.472 140.813H141.293L146.3 132.147Z" fill="#848A8D"/>
<path d="M161.494 134.008H119.349C118.762 134.008 118.3 133.622 118.215 133.057L117.497 128.239L113.936 103.634C113.815 102.774 114.581 101.915 115.462 101.915H156.958C157.539 101.915 157.997 102.301 158.089 102.866L162.306 128.239L162.995 132.289C163.142 133.145 162.391 134.008 161.494 134.008Z" fill="#AFB4B4"/>
<path d="M162.749 134.008H120.604C120.018 134.008 119.554 133.622 119.469 133.057L118.748 128.239L115.173 103.634C115.052 102.774 115.817 101.915 116.698 101.915H158.194C158.774 101.915 159.233 102.301 159.325 102.866L163.558 128.239L164.25 132.289C164.397 133.145 163.646 134.008 162.749 134.008Z" fill="#E1E3E1"/>
<path d="M144.315 129.995C144.305 130.924 143.581 131.67 142.698 131.661C141.816 131.651 141.108 130.89 141.118 129.96C141.129 129.03 141.852 128.285 142.735 128.294L142.717 129.978L144.315 129.995Z" fill="#848A8D"/>
<path d="M160.984 126.965H120.978L117.533 103.624H157.09L160.984 126.965Z" fill="#5D6267"/>
<path d="M124.735 125.857H122.242L119.422 106.788H121.916L124.735 125.857Z" fill="#343438"/>
<path d="M152.607 125.857H125.58L122.761 106.788H149.788L152.607 125.857Z" fill="white"/>
<path d="M151.972 143.092C156.068 143.092 159.532 141.714 161.621 139.037L159.492 137.186C157.552 139.509 154.907 140.493 151.726 140.493C145.007 140.493 139.271 135.611 138.352 129.075C137.434 122.538 141.797 117.656 148.517 117.656C151.698 117.656 154.62 118.64 157.207 120.924L158.816 119.073C155.974 116.396 152.128 115.057 148.072 115.057C139.682 115.057 134.315 121.003 135.45 129.075C136.584 137.147 143.622 143.092 151.972 143.092Z" fill="#F14255"/>
<path d="M156.18 106.302H119.245L118.914 104.064H155.849L156.18 106.302Z" fill="#343438"/>
<path d="M159.172 125.857H153.568L150.748 106.788H156.352L159.172 125.857Z" fill="#343438"/>
<path d="M132.559 121.766H144.606L142.827 109.734H130.78L132.559 121.766ZM144.733 121.875H132.464L132.458 121.829L130.652 109.625H142.922L142.928 109.671L144.733 121.875Z" fill="#1A181A"/>
<path d="M131.054 109.679C131.054 109.864 130.904 110.014 130.719 110.014C130.535 110.014 130.385 109.864 130.385 109.679C130.385 109.495 130.535 109.345 130.719 109.345C130.904 109.345 131.054 109.495 131.054 109.679Z" fill="#040606"/>
<path d="M143.155 109.679C143.155 109.864 143.005 110.014 142.82 110.014C142.635 110.014 142.486 109.864 142.486 109.679C142.486 109.495 142.635 109.345 142.82 109.345C143.005 109.345 143.155 109.495 143.155 109.679Z" fill="#040606"/>
<path d="M132.883 121.82C132.883 122.005 132.733 122.154 132.549 122.154C132.364 122.154 132.214 122.005 132.214 121.82C132.214 121.635 132.364 121.486 132.549 121.486C132.733 121.486 132.883 121.635 132.883 121.82Z" fill="#040606"/>
<path d="M144.984 121.82C144.984 122.005 144.835 122.154 144.65 122.154C144.465 122.154 144.315 122.005 144.315 121.82C144.315 121.635 144.465 121.486 144.65 121.486C144.835 121.486 144.984 121.635 144.984 121.82Z" fill="#040606"/>
<path d="M197.41 185.943H194.813L194.072 163.721H198.152L197.41 185.943Z" fill="#848A8D"/>
<path d="M198.831 168.428H193.392L188.342 164.074H203.881L198.831 168.428Z" fill="#5D6267"/>
<path d="M182.51 192.204L196.112 185.97V182.69L182.51 190.738V192.204Z" fill="#848A8D"/>
<path d="M185.791 192.331C185.791 193.634 184.735 194.69 183.432 194.69C182.129 194.69 181.073 193.634 181.073 192.331C181.073 191.028 182.129 189.972 183.432 189.972C184.735 189.972 185.791 191.028 185.791 192.331Z" fill="#5D6267"/>
<path d="M209.714 192.204L196.111 185.97V182.69L209.714 190.296V192.204Z" fill="#848A8D"/>
<path d="M206.432 192.331C206.432 193.634 207.488 194.69 208.79 194.69C210.093 194.69 211.15 193.634 211.15 192.331C211.15 191.028 210.093 189.972 208.79 189.972C207.488 189.972 206.432 191.028 206.432 192.331Z" fill="#5D6267"/>
<path d="M213.654 132.727L213.078 121.204C213.078 121.204 205.49 119.294 203.173 126.16C200.855 133.027 200.256 159.295 187.777 160.123C187.777 160.123 194.495 162.364 201.31 161.255C208.125 160.145 214.23 144.251 213.654 132.727Z" fill="#D83846"/>
<path d="M164.845 138.795C164.74 138.899 161.161 139.393 161.093 139.4C160.847 139.436 159.886 139.102 159.092 138.793L159.089 138.788C158.461 138.553 157.934 138.333 157.934 138.333L156.116 139.425C156.027 139.386 155.934 139.295 155.841 139.162C155.753 139.055 155.666 138.905 155.579 138.742L155.533 138.641C155.362 138.306 155.192 137.912 155.05 137.528C155.021 137.457 154.988 137.37 154.96 137.295C154.729 136.649 154.565 136.118 154.565 136.118L155.353 135.365L156.557 134.21L158.36 133.766L157.754 132.624C157.754 132.624 153.382 133.275 153.363 132.6C153.331 131.924 155.677 131.53 157.227 131.286C157.334 131.271 157.453 131.27 157.584 131.274C157.711 131.29 157.843 131.304 157.988 131.335L158.002 131.345C158.673 131.49 159.47 131.869 160.173 132.277C160.371 132.385 160.57 132.503 160.746 132.611L160.745 132.616C161.116 132.841 161.438 133.052 161.684 133.216L162.995 134.334L162.998 134.335L163.246 134.545L163.412 134.683L163.931 135.128L164.131 135.297L164.845 138.795Z" fill="#F36368"/>
<path d="M164.845 138.795C165.273 138.37 165.051 137.529 164.708 137.273C164.561 137.328 162.1 137.789 161.95 137.842C161.385 138.04 160.805 138.204 160.208 138.184C159.866 138.175 159.529 138.102 159.199 138.018C158.512 137.829 157.879 137.555 157.253 137.209C156.838 137.366 156.354 137.19 156.034 136.864C155.716 136.533 155.538 136.085 155.417 135.64C155.394 135.548 155.372 135.456 155.354 135.365L154.565 136.118C154.565 136.118 154.729 136.649 154.96 137.295C154.989 137.37 155.021 137.457 155.05 137.528C155.193 137.912 155.362 138.306 155.533 138.641L155.579 138.742C155.666 138.905 155.753 139.054 155.841 139.162C155.934 139.295 156.027 139.386 156.116 139.425L157.934 138.333C157.934 138.333 158.461 138.553 159.09 138.788L159.092 138.793C159.886 139.102 160.847 139.436 161.093 139.4C161.161 139.393 162.377 139.223 162.377 139.223C162.377 139.223 164.911 138.844 164.845 138.795Z" fill="#F36368"/>
<path d="M155.529 138.645L155.577 138.742C155.647 138.686 155.738 138.612 155.847 138.524C156.096 138.325 156.437 138.062 156.811 137.785C157.187 137.512 157.542 137.29 157.827 137.155C157.899 137.121 157.965 137.092 158.023 137.064C158.083 137.043 158.135 137.024 158.178 137.009C158.264 136.977 158.314 136.958 158.314 136.958C158.314 136.958 158.262 136.951 158.164 136.942C158.116 136.938 158.056 136.933 157.987 136.93C157.918 136.934 157.842 136.938 157.754 136.947C157.411 136.982 156.944 137.133 156.531 137.433C156.122 137.736 155.843 138.099 155.674 138.377C155.612 138.48 155.565 138.57 155.529 138.645Z" fill="#CE3B58"/>
<path d="M154.96 137.292C154.989 137.371 155.02 137.452 155.051 137.534L155.095 137.5C155.344 137.301 155.685 137.038 156.058 136.763C156.435 136.488 156.79 136.266 157.075 136.131C157.147 136.098 157.212 136.067 157.269 136.041C157.33 136.02 157.383 136.002 157.425 135.985C157.512 135.953 157.561 135.935 157.561 135.935C157.561 135.935 157.509 135.928 157.412 135.919C157.364 135.915 157.304 135.909 157.235 135.907C157.167 135.91 157.088 135.916 157.002 135.923C156.657 135.959 156.19 136.11 155.779 136.411C155.398 136.69 155.13 137.024 154.96 137.292Z" fill="#CE3B58"/>
<path d="M161.222 134.88C161.222 134.88 159.381 135.03 158.401 135.689C157.42 136.349 157.189 136.987 158.212 137.17C159.236 137.352 161.082 137 161.082 137L161.222 134.88Z" fill="#F36368"/>
<path d="M160.865 137.052C160.085 137.273 159.276 137.386 158.466 137.387C158.188 137.387 157.899 137.371 157.65 137.237C157.454 137.131 157.284 136.927 157.289 136.695C157.294 136.504 157.413 136.34 157.539 136.204C158.022 135.68 158.687 135.347 159.38 135.282C158.898 135.561 158.396 135.873 157.968 136.235C157.82 136.36 157.66 136.552 157.737 136.736C157.775 136.825 157.859 136.882 157.943 136.921C158.193 137.038 158.473 137.047 158.745 137.05C159.428 137.06 160.182 137.065 160.865 137.052Z" fill="#CE3B58"/>
<path d="M164.102 135.278L164.731 138.255L164.845 138.795L175.987 136.905L173.873 132.304L164.745 135.08L164.102 135.278Z" fill="#F36368"/>
<path d="M184.514 111.164C184.514 111.164 181.499 114.887 180.727 117.573C179.954 120.259 177.806 131.021 177.806 131.021L165.878 133.8L167.082 139.339L183.654 137.678V122.606L184.514 111.164Z" fill="#246B5A"/>
<path d="M164.268 181.685C163.953 183.848 162.815 187.824 162.574 188.656L162.412 189.061L161.885 190.393L159.555 189.487L157.479 188.675L145.52 184.018L146.205 182.276C146.248 182.197 146.303 182.114 146.363 182.035C146.524 181.838 146.749 181.669 147.06 181.641C148.318 181.519 152.821 181.366 154.216 180.854C155.296 180.455 156.577 179.202 157.096 178.662L164.268 181.685Z" fill="#323E5B"/>
<path d="M156.711 181.692L156.721 181.766C156.74 181.949 156.7 182.204 156.474 182.222C156.358 182.231 156.251 182.173 156.155 182.111C155.825 181.896 155.557 181.603 155.315 181.289C155.055 180.952 154.779 180.588 154.696 180.148C154.61 179.692 155.061 179.473 155.417 179.71C156.032 180.12 156.599 180.914 156.711 181.692Z" fill="white"/>
<path d="M155.114 182.146L155.124 182.22C155.144 182.403 155.102 182.658 154.877 182.675C154.761 182.685 154.654 182.627 154.558 182.565C154.227 182.35 153.959 182.057 153.717 181.743C153.458 181.405 153.182 181.042 153.099 180.602C153.013 180.145 153.463 179.927 153.819 180.163C154.435 180.573 155.001 181.368 155.114 182.146Z" fill="white"/>
<path d="M153.356 182.17L153.366 182.244C153.386 182.427 153.345 182.682 153.119 182.7C153.003 182.708 152.896 182.652 152.8 182.589C152.469 182.374 152.202 182.081 151.96 181.767C151.699 181.43 151.424 181.066 151.341 180.626C151.255 180.17 151.705 179.95 152.061 180.188C152.677 180.598 153.243 181.392 153.356 182.17Z" fill="white"/>
<path d="M146.363 182.035L159.858 187.968L159.806 189.581L145.52 184.018L146.205 182.276C146.248 182.197 146.303 182.114 146.363 182.035Z" fill="white"/>
<path d="M185.271 143.551C185.271 143.551 170.311 146.83 168.517 147.79C166.724 148.751 155.705 178.101 155.705 178.101L166.272 183.224L178.575 153.429L195.961 154.442L198.456 144.697L185.271 143.551Z" fill="#1D1F20"/>
<path d="M169.233 185.938C168.918 188.101 167.778 192.077 167.538 192.908L167.376 193.314L166.848 194.646L164.519 193.74L162.443 192.928L150.483 188.27L151.169 186.528C151.212 186.45 151.267 186.367 151.327 186.289C151.489 186.092 151.713 185.922 152.024 185.894C153.281 185.772 157.785 185.619 159.18 185.106C160.26 184.708 161.541 183.455 162.061 182.915L169.233 185.938Z" fill="#323E5B"/>
<path d="M161.675 185.946L161.685 186.019C161.704 186.203 161.663 186.457 161.437 186.475C161.322 186.484 161.214 186.427 161.119 186.365C160.788 186.15 160.52 185.857 160.278 185.543C160.018 185.205 159.742 184.842 159.659 184.401C159.574 183.945 160.024 183.726 160.38 183.963C160.995 184.373 161.562 185.168 161.675 185.946Z" fill="white"/>
<path d="M160.077 186.399L160.086 186.473C160.105 186.656 160.065 186.911 159.839 186.929C159.724 186.937 159.616 186.88 159.52 186.818C159.19 186.603 158.922 186.31 158.68 185.996C158.42 185.658 158.144 185.295 158.061 184.854C157.976 184.399 158.426 184.18 158.782 184.417C159.397 184.827 159.964 185.621 160.077 186.399Z" fill="white"/>
<path d="M158.319 186.424L158.329 186.497C158.349 186.681 158.308 186.935 158.082 186.953C157.966 186.962 157.859 186.904 157.763 186.842C157.433 186.628 157.165 186.334 156.923 186.021C156.663 185.683 156.387 185.319 156.305 184.878C156.218 184.423 156.669 184.204 157.025 184.441C157.64 184.851 158.207 185.645 158.319 186.424Z" fill="white"/>
<path d="M164.802 192.186L164.734 192.157L164.642 192.116L151.327 186.288C151.267 186.367 151.212 186.45 151.169 186.528L150.483 188.27L164.52 193.737L164.519 193.74L166.848 194.646L167.376 193.314L164.802 192.186Z" fill="white"/>
<path d="M159.857 182.304L166.272 185.523L170.672 187.362L181.831 161.024C181.831 161.024 196.91 162.232 199.848 160.828C202.786 159.426 206.468 148.334 206.468 148.334L195.414 145.629L190.789 149.92C190.789 149.92 179.31 149.875 177.309 150.776C174.19 152.179 159.857 182.304 159.857 182.304Z" fill="#353638"/>
<path d="M166.271 185.523L170.671 187.362L181.831 161.024C181.831 161.024 196.91 162.232 199.848 160.828C202.786 159.426 206.467 148.334 206.467 148.334H202.847C203.745 151.556 202.367 155.189 199.862 157.434C197.261 159.767 193.663 160.746 190.169 160.756C186.677 160.765 183.246 159.885 179.901 158.888C175.668 165.789 170.503 178.624 166.271 185.523Z" fill="#1D1F20"/>
<path d="M206.003 150.421C204.386 148.692 184.492 143.724 184.492 143.724L180.728 144.574V143.021C180.728 142.345 180.958 141.675 181.424 141.186C182.189 140.383 183.053 140.497 183.053 140.497L183.094 138.175C182.916 136.547 182.083 124.308 182.656 118.473C182.525 115.995 183.713 112.213 183.713 112.213C183.713 112.213 184.445 111.253 184.515 111.164L184.525 111.149L184.53 111.146C184.786 110.894 185.049 110.655 185.32 110.429C188.573 107.689 192.829 108.982 192.829 108.982C193.17 108.908 196.996 108.672 197 108.672C200.691 110.23 203.425 117.054 205.338 125.274C205.591 126.354 205.829 127.6 206.055 128.95C206.876 133.867 207.349 138.833 207.502 143.811C207.572 146.106 207.06 148.382 206.003 150.421Z" fill="#32927D"/>
<path d="M191.765 124.534H182.407V123.09H192.205L191.765 124.534Z" fill="white"/>
<path d="M190.952 127.413H182.478V125.969H191.392L190.952 127.413Z" fill="white"/>
<path d="M172.512 140.292H167.082L168.692 136.051L172.512 135.593V140.292Z" fill="#F68971"/>
<path d="M188.63 164.758C183.591 164.758 180.197 165.426 181.165 161.98C181.843 158.986 188.774 161.642 195.57 158.763C202.366 155.883 208.067 147.59 209.967 127.549C209.967 127.549 210.313 121.675 213.078 121.204C215.15 120.898 215.956 129.968 215.956 129.968C215.956 129.968 221.167 164.758 206.468 164.758C191.769 164.758 188.63 164.758 188.63 164.758Z" fill="#F14255"/>
<path d="M185.878 110.031C185.899 110.243 186.136 114.673 188.188 115.256C190.288 115.851 197 108.672 197 108.672C196.619 108.444 193.947 108.047 193.596 108.047C193.596 108.047 189.574 107.621 185.878 110.031Z" fill="#F68971"/>
<path d="M193.598 109.759C193.468 109.888 187.787 114.092 187.787 114.092C187.787 114.092 187.917 111.502 187.979 110.152C187.997 109.735 188.01 109.436 188.01 109.37C188.01 108.831 187.55 106.494 187.55 106.494L193.283 103.872C193.283 103.872 193.374 105.055 193.462 106.36C193.568 107.934 193.668 109.687 193.598 109.759Z" fill="#F68971"/>
<path d="M193.462 106.36C191.869 107.517 188.361 110.047 188.01 110.147L187.979 110.153C187.997 109.735 188.01 109.436 188.01 109.37C188.01 108.831 187.55 106.494 187.55 106.494L193.283 103.872C193.283 103.872 193.374 105.055 193.462 106.36Z" fill="#F36368"/>
<path d="M181.78 95.8574C181.78 95.8574 182.638 102.508 182.948 104.656C182.996 104.991 183.836 108.053 184.757 108.433L184.883 108.471C185.804 108.593 191.547 106.158 192.685 105.506C192.745 105.472 192.79 105.442 192.823 105.42C192.999 105.293 193.151 105.17 193.282 105.054H193.286C193.923 104.488 194.069 104.073 194.069 104.073C194.069 104.073 194.651 93.7879 193.681 93.0756C192.712 92.3666 184.171 88.6149 181.78 95.8574Z" fill="#F68971"/>
<path d="M186.138 104.124L190.506 102.886C190.506 102.886 190.566 105.519 188.624 106.003C186.683 106.486 186.138 104.124 186.138 104.124Z" fill="white"/>
<path d="M190.097 99.4441C190.097 100.097 189.768 100.627 189.361 100.627C188.954 100.627 188.624 100.097 188.624 99.4441C188.624 98.7909 188.954 98.2615 189.361 98.2615C189.768 98.2615 190.097 98.7909 190.097 99.4441Z" fill="#121414"/>
<path d="M190.801 98.7839C190.801 98.7839 190.542 99.1902 190.093 99.3719C189.644 99.5537 189.175 99.4419 189.175 99.4419C189.175 99.4419 189.434 99.0356 189.883 98.8539C190.332 98.6722 190.801 98.7839 190.801 98.7839Z" fill="white"/>
<path d="M183.133 99.888C183.133 100.381 183.381 100.78 183.688 100.78C183.995 100.78 184.243 100.381 184.243 99.888C184.243 99.3954 183.995 98.9961 183.688 98.9961C183.381 98.9961 183.133 99.3954 183.133 99.888Z" fill="#121414"/>
<path d="M182.655 99.4554C182.655 99.4554 182.85 99.718 183.17 99.8471C183.489 99.9767 183.812 99.923 183.812 99.923C183.812 99.923 183.617 99.6605 183.298 99.5308C182.978 99.4017 182.655 99.4554 182.655 99.4554Z" fill="white"/>
<path d="M185.554 103.046C185.616 102.85 185.677 102.654 185.739 102.459C186.208 102.356 186.661 102.081 186.97 101.714C187.034 101.859 187.096 102.008 187.118 102.165C187.141 102.322 187.12 102.491 187.031 102.624C186.949 102.746 186.816 102.824 186.682 102.886C186.307 103.058 185.964 103.087 185.554 103.046Z" fill="#F36368"/>
<path d="M187.107 102.589C187.107 102.589 187.06 102.647 186.957 102.738C186.854 102.827 186.69 102.947 186.458 103.041C186.343 103.088 186.21 103.129 186.063 103.154C185.905 103.178 185.802 103.194 185.466 103.157L185.412 103.151L185.387 103.146L185.395 103.123L185.43 103.029C185.455 102.964 185.479 102.898 185.504 102.832L185.53 102.755L185.549 102.696L185.586 102.578C185.629 102.417 185.67 102.249 185.698 102.074C185.817 101.375 185.758 100.72 185.651 100.259C185.602 100.027 185.54 99.8438 185.496 99.7163C185.449 99.5915 185.423 99.5205 185.423 99.5205C185.423 99.5205 185.464 99.5845 185.537 99.6973C185.606 99.8139 185.703 99.987 185.79 100.217C185.972 100.67 186.113 101.367 185.984 102.122C185.955 102.31 185.905 102.489 185.851 102.661C185.822 102.738 185.794 102.813 185.765 102.887L185.74 102.941C185.713 102.949 185.917 102.965 186.041 102.957C186.175 102.95 186.3 102.93 186.413 102.903C186.639 102.849 186.814 102.766 186.931 102.701C187.047 102.634 187.107 102.589 187.107 102.589Z" fill="#F14568"/>
<path d="M193.282 105.053C193.151 105.169 192.999 105.293 192.823 105.419C192.15 105.902 185.853 108.6 184.882 108.471C183.912 108.342 182.998 105.007 182.947 104.657C183.552 106.121 184.235 108.146 184.921 108.081C185.956 107.984 192.518 105.455 193.282 105.053Z" fill="#F9AC7C"/>
<path d="M182.523 98.3988C182.523 98.3988 183.166 96.5707 183.967 96.964C184.767 97.3573 184.509 97.5054 184.509 97.5054L182.523 98.3988Z" fill="#353638"/>
<path d="M191.492 97.4673C191.492 97.4673 188.965 95.4005 188.25 96.4112C187.833 97.0019 188.242 97.2845 188.242 97.2845L191.492 97.4673Z" fill="#353638"/>
<path d="M183.882 102.665C183.783 102.931 183.21 102.961 182.603 102.734C181.995 102.506 181.583 102.107 181.683 101.842C181.782 101.577 182.355 101.546 182.962 101.773C183.57 102.001 183.981 102.4 183.882 102.665Z" fill="#F36368"/>
<path d="M192.163 101.103C192.267 101.502 191.609 102.019 190.693 102.256C189.777 102.493 188.95 102.362 188.847 101.962C188.743 101.562 189.401 101.044 190.317 100.807C191.233 100.57 192.06 100.702 192.163 101.103Z" fill="#F36368"/>
<path d="M197.199 95.8877C197.102 96.8728 196.716 97.7956 196.247 98.6684C196.146 98.8572 196.04 99.0427 195.935 99.2244L195.782 99.3514C195.16 99.264 194.506 99.6644 194.299 100.253C193.012 98.734 192.409 96.0477 192.318 94.4192C192.082 94.9281 191.842 95.4374 191.606 95.9457C191.475 94.9172 191.024 93.9028 190.254 93.209C189.596 94.6156 188.149 95.6219 186.6 95.7461C187.063 95.1787 187.276 94.4225 187.182 93.6994C185.325 96.3602 181.854 97.7956 178.659 97.2249C178.953 97.0329 179.157 96.7562 179.302 96.4437C179.524 95.9495 179.604 95.3534 179.676 94.8082C179.843 93.5285 180.134 92.2277 180.88 91.1769C181.624 90.1299 182.919 89.3851 184.187 89.6102C183.758 89.1123 183.373 88.4293 183.293 87.7751C184.478 88.4038 185.895 88.3962 187.222 88.1966C188.549 87.9931 189.85 87.615 191.188 87.5532C192.529 87.4913 193.964 87.8 194.899 88.7634C195.847 89.7448 196.099 91.2279 195.949 92.5841C196.887 93.3327 197.323 94.6954 197.199 95.8877Z" fill="#121414"/>
<path d="M193.141 104.329C194.437 104.227 195.382 103.457 195.887 102.813C196.001 102.668 196.092 102.529 196.161 102.405C196.531 101.734 196.637 99.404 195.684 98.8626C195.015 98.484 194.529 99.0335 194.298 99.3969V99.3986C194.199 99.5532 194.146 99.6741 194.146 99.6741L193.141 104.329Z" fill="#F9AC7C"/>
<path d="M193.141 104.329C194.437 104.227 195.382 103.457 195.887 102.813C195.931 102.747 195.969 102.685 196.002 102.625C196.372 101.953 196.478 99.6237 195.525 99.0828C194.983 98.7758 194.561 99.078 194.298 99.3969V99.3986C194.199 99.5532 194.146 99.6741 194.146 99.6741L193.141 104.329Z" fill="#F68971"/>
<path d="M195.985 100.713C196.033 100.899 196.003 101.093 195.941 101.277C195.68 102.059 194.9 102.655 194.152 103.21C194.377 102.83 194.46 102.402 194.414 101.986C194.399 101.84 194.368 101.696 194.366 101.55C194.36 100.964 195.702 99.6117 195.985 100.713Z" fill="#F36368"/>
<path d="M193.777 103.432L193.82 103.408C193.847 103.392 193.89 103.37 193.94 103.336C194.04 103.269 194.178 103.162 194.308 103.003C194.438 102.845 194.556 102.633 194.612 102.382C194.662 102.133 194.652 101.841 194.518 101.561L194.463 101.458L194.448 101.433L194.447 101.43V101.431L194.446 101.431H194.446L194.448 101.427L194.46 101.405L194.485 101.36L194.537 101.273C194.608 101.158 194.685 101.05 194.763 100.951C194.842 100.851 194.922 100.759 195.003 100.675C195.084 100.591 195.162 100.513 195.239 100.455C195.317 100.396 195.402 100.358 195.481 100.348C195.562 100.339 195.636 100.357 195.687 100.382C195.739 100.408 195.768 100.441 195.779 100.465L195.793 100.504L195.79 100.462C195.785 100.435 195.764 100.394 195.713 100.357C195.662 100.32 195.582 100.284 195.476 100.282C195.371 100.281 195.258 100.316 195.156 100.373C195.054 100.431 194.962 100.503 194.866 100.582C194.769 100.662 194.671 100.752 194.578 100.852C194.484 100.952 194.394 101.062 194.312 101.181L194.253 101.272L194.223 101.319L194.186 101.385L194.159 101.432L194.185 101.478L194.223 101.544L194.269 101.634C194.387 101.877 194.412 102.132 194.39 102.36C194.363 102.588 194.286 102.792 194.192 102.953C194.098 103.115 193.991 103.234 193.911 103.313L193.812 103.401L193.777 103.432Z" fill="#CE3B58"/>
<path d="M197.2 95.8878C197.174 96.146 197.127 96.4004 197.066 96.651C196.895 97.3562 196.593 98.0251 196.248 98.6685C195.604 98.145 195.052 97.4219 194.725 96.8251C193.936 95.3751 194.038 93.6338 194.129 92.0422C193.514 92.493 192.897 92.9476 192.279 93.3978C191.846 92.4637 191.188 91.6315 190.374 90.999C190.058 91.8274 189.476 92.5548 188.731 93.0419C188.739 92.3622 188.553 91.6858 188.197 91.108C185.566 93.3761 182.541 95.1896 179.303 96.4438C179.525 95.9496 179.604 95.3534 179.677 94.8082L179.681 94.7827C179.848 93.5106 180.139 92.2201 180.88 91.1769C181.625 90.13 182.919 89.3852 184.188 89.6103C183.759 89.1123 183.374 88.4293 183.294 87.7751C184.478 88.4038 185.896 88.3962 187.223 88.1966C188.55 87.9932 189.851 87.6151 191.188 87.5532C192.53 87.4914 193.965 87.8001 194.899 88.7635C195.848 89.7448 196.099 91.2279 195.95 92.5841C196.887 93.3327 197.324 94.6954 197.2 95.8878Z" fill="#353638"/>
<path d="M197.2 95.8877C197.174 96.1459 197.127 96.4003 197.066 96.6509C196.251 95.8806 195.79 94.659 195.433 93.5431C194.946 92.009 194.289 90.2758 192.773 89.7415C192.817 90.381 192.708 91.0315 192.453 91.62C191.654 90.6865 190.854 89.7485 190.054 88.8144C189.949 89.3346 189.709 89.8212 189.356 90.2172C189.327 89.6943 189.062 89.1887 188.655 88.8616C187.946 90.0246 186.797 90.9083 185.496 91.2935C185.729 90.7407 185.882 90.1554 185.94 89.5597C184.511 91.9293 182.265 93.7937 179.681 94.7826C179.848 93.5106 180.139 92.22 180.88 91.1769C181.625 90.1299 182.919 89.3851 184.188 89.6102C183.759 89.1122 183.374 88.4292 183.294 87.775C184.478 88.4037 185.896 88.3962 187.223 88.1965C188.55 87.9931 189.85 87.615 191.188 87.5531C192.53 87.4913 193.965 87.8 194.899 88.7634C195.848 89.7447 196.099 91.2278 195.95 92.584C196.887 93.3326 197.324 94.6953 197.2 95.8877Z" fill="#4A4C4F"/>
<path d="M197.73 116.323C197.73 116.323 194.116 116.323 192.981 120.427C192.488 122.716 189.33 132.613 189.33 132.613L171.731 135.139L172.51 140.699C172.51 140.699 193.192 141.345 195.363 139.867C197.532 138.39 201.113 128.72 201.5 125.511C202.034 120.312 201.088 116.3 197.73 116.323Z" fill="#32927D"/>
<path d="M201.64 122.098C200.767 125.49 199.859 128.873 198.889 132.24C198.357 133.91 197.842 135.583 197.263 137.245C197.116 137.66 196.97 138.073 196.798 138.489C196.717 138.686 196.589 138.94 196.48 139.106C196.366 139.291 196.263 139.484 196.116 139.683C195.973 139.882 195.77 140.074 195.543 140.194C195.317 140.308 195.087 140.389 194.864 140.44C194.414 140.55 193.974 140.608 193.534 140.658C190.035 141.058 186.511 141.06 183.013 141.078C179.51 141.08 176.008 141.039 172.505 140.97L172.274 140.965L172.242 140.736L171.463 135.176L171.426 134.909L171.694 134.87L189.292 132.345L189.071 132.536L190.095 129.086C190.443 127.938 190.842 126.805 191.217 125.665C191.989 123.393 192.737 121.11 193.621 118.878C193.242 120.016 192.917 121.171 192.578 122.321L191.596 125.782C191.268 126.935 190.969 128.098 190.625 129.246L189.591 132.69L189.54 132.858L189.369 132.882L171.77 135.407L172 135.101L172.78 140.661L172.517 140.428C176.015 140.497 179.515 140.537 183.013 140.535C186.513 140.518 190.006 140.515 193.471 140.12C193.9 140.071 194.33 140.012 194.731 139.914C194.934 139.868 195.118 139.8 195.284 139.718C195.443 139.63 195.566 139.516 195.68 139.361C195.794 139.209 195.9 139.016 196.015 138.827C196.144 138.626 196.208 138.486 196.297 138.28C196.461 137.886 196.606 137.474 196.751 137.065C197.32 135.418 197.851 133.749 198.36 132.077L201.64 122.098Z" fill="#246B5A"/>
<path d="M192.981 143.929H87.4297V140.813H192.981V143.929Z" fill="#9A6D44"/>
<path d="M187.511 147.224H92.4834V143.929H187.511V147.224Z" fill="#1D1F20"/>
<path d="M96.2187 143.929V194.646H92.3428V143.929H96.2187Z" fill="#1D1F20"/>
<path d="M187.518 143.929V194.646H183.642V143.929H187.518Z" fill="#1D1F20"/>
<path d="M110.954 179.042C110.468 178.092 110.39 177.172 110.678 176.127C111.017 174.891 111.554 173.526 110.949 172.396C110.546 171.644 109.714 171.193 109.317 170.438C108.623 169.114 109.513 167.561 109.834 166.101C110.403 163.515 108.865 160.627 106.4 159.657C105.772 159.41 105.07 159.278 104.42 159.459C103.769 159.64 103.193 160.194 103.14 160.867C102.992 162.721 106.315 163.242 106.375 165.1C106.414 166.313 104.985 167.104 104.767 168.297C104.594 169.249 105.239 170.149 105.927 170.828C106.616 171.507 107.42 172.152 107.711 173.074C107.97 173.893 107.773 174.775 107.756 175.634C107.712 177.942 109.13 180.215 111.222 181.192C111.492 181.317 111.796 181.424 112.083 181.343C113.304 180.997 111.176 179.477 110.954 179.042Z" fill="#267362"/>
<path d="M114.839 181.748C115.029 180.698 115.524 179.919 116.387 179.263C117.406 178.485 118.661 177.726 118.865 176.46C119.001 175.618 118.612 174.755 118.755 173.914C119.006 172.44 120.655 171.745 121.795 170.778C123.817 169.067 124.344 165.839 122.972 163.573C122.623 162.995 122.145 162.464 121.518 162.214C120.89 161.963 120.097 162.054 119.646 162.557C118.405 163.942 120.731 166.371 119.651 167.885C118.947 168.874 117.332 168.635 116.435 169.453C115.721 170.104 115.687 171.211 115.823 172.168C115.958 173.126 116.207 174.126 115.879 175.036C115.588 175.844 114.896 176.426 114.362 177.099C112.928 178.909 112.677 181.575 113.749 183.62C113.887 183.883 114.063 184.154 114.341 184.263C115.522 184.728 114.752 182.229 114.839 181.748Z" fill="#267362"/>
<path d="M128.69 168.681C127.871 167.908 126.515 167.779 125.565 168.383C124.013 169.371 123.725 171.854 121.985 172.449C121.182 172.725 120.271 172.497 119.471 172.782C118.048 173.287 117.641 175.056 117.335 176.535C117.029 178.013 116.569 179.636 115.06 179.702C114.25 179.104 114.533 177.815 115.074 176.966C115.614 176.116 116.365 175.258 116.252 174.257C116.114 173.042 114.716 172.111 114.94 170.909C115.158 169.743 116.738 169.323 117.167 168.217C117.622 167.043 116.592 165.867 116.253 164.655C115.678 162.602 117.146 160.457 116.834 158.349C116.544 156.392 114.509 154.869 112.549 155.144C110.59 155.418 109.052 157.441 109.311 159.403C109.557 161.268 111.167 162.931 110.78 164.773C110.503 166.088 109.238 167.119 109.265 168.463C109.294 169.885 110.734 170.848 111.259 172.17C111.811 173.558 111.291 175.107 110.985 176.569C110.678 178.031 110.725 179.833 111.962 180.669C112.372 180.945 112.544 181.907 112.875 182.274C115.547 182.358 118.159 180.478 118.928 177.918C119.23 176.915 119.319 175.753 120.098 175.052C120.643 174.561 121.407 174.417 122.13 174.292C123.167 174.114 124.205 173.934 125.242 173.756C126.737 173.498 128.427 173.108 129.166 171.784C129.716 170.8 129.509 169.455 128.69 168.681Z" fill="#32927D"/>
<path d="M110.054 179.633C109.361 178.9 109.044 178.087 109.028 177.063C109.007 175.852 109.131 174.471 108.282 173.608C107.716 173.033 106.842 172.846 106.282 172.266C105.3 171.25 105.694 169.606 105.598 168.196C105.426 165.7 103.263 163.491 100.771 163.267C100.135 163.209 99.4638 163.276 98.9219 163.613C98.38 163.951 98.0051 164.605 98.1353 165.23C98.495 166.95 101.646 166.539 102.195 168.209C102.553 169.298 101.467 170.394 101.587 171.534C101.683 172.444 102.507 173.089 103.312 173.522C104.116 173.954 105.017 174.325 105.526 175.084C105.978 175.757 106.035 176.61 106.248 177.393C106.822 179.498 108.711 181.182 110.868 181.51C111.146 181.553 111.45 181.569 111.688 181.419C112.704 180.781 110.371 179.968 110.054 179.633Z" fill="#32927D"/>
<path d="M120.24 179.461L119.882 182.277L119.53 185.059L119.28 187.007L118.927 189.79L118.32 194.552H106.597L105.99 189.79L105.637 187.007L105.387 185.059L105.035 182.277L104.677 179.461H120.24Z" fill="#9A6D44"/>
<path d="M105.035 182.277H119.883L119.53 185.059H105.387L105.035 182.277Z" fill="#7C4F35"/>
<path d="M119.28 187.007L118.927 189.79H105.989L105.637 187.007H119.28Z" fill="#7C4F35"/>
<path d="M158.36 138.959H133.929V140.813H158.36V138.959Z" fill="#AFB4B4"/>
<path d="M164.268 138.984H141.781V140.813H164.268V138.984Z" fill="#C7CBCA"/>
<path d="M100.003 137.394L89.2832 110.592L110.719 90.9421L112.588 92.9796L92.5592 111.339L102.57 136.368L100.003 137.394Z" fill="#999EA0"/>
<path d="M104.973 138.781H96.2188V135.211H104.973V138.781Z" fill="#1D1F20"/>
<path d="M108.888 141.2H92.418V138.781H108.888V141.2Z" fill="#1D1F20"/>
<path d="M94.2033 111.124C94.2033 112.627 92.985 113.845 91.4818 113.845C89.9791 113.845 88.7607 112.627 88.7607 111.124C88.7607 109.621 89.9791 108.403 91.4818 108.403C92.985 108.403 94.2033 109.621 94.2033 111.124Z" fill="#1D1F20"/>
<path d="M117.55 98.1341C117.383 98.4601 117.155 98.7633 116.867 99.0297C115.489 100.304 113.319 100.223 112.045 98.8393L107.439 93.8594C106.164 92.4767 106.245 90.3068 107.628 89.0314C107.759 88.9121 107.894 88.8036 108.041 88.7114C108.616 88.3208 109.278 88.1315 109.939 88.1315C110.862 88.1315 111.778 88.4949 112.452 89.2218L117.057 94.2066C118.066 95.297 118.223 96.8864 117.55 98.1341Z" fill="#E6741C"/>
<path d="M117.549 98.134C116.177 99.0562 114.295 98.8669 113.145 97.6187L108.539 92.6388C107.53 91.5436 107.373 89.959 108.04 88.7113C108.615 88.3208 109.277 88.1314 109.939 88.1314C110.861 88.1314 111.777 88.4949 112.451 89.2218L117.056 94.2066C118.065 95.2969 118.222 96.8864 117.549 98.134Z" fill="#F68722"/>
<path d="M125.573 94.6786L114.176 105.213L112.456 106.803C109.11 103.179 109.332 97.5265 112.955 94.1795C114.686 92.5792 116.877 91.7986 119.063 91.8089C121.451 91.8203 123.826 92.7853 125.573 94.6786Z" fill="#F68722"/>
<path d="M114.176 105.213L112.456 106.803C109.11 103.179 109.332 97.5265 112.955 94.1795C114.686 92.5792 116.877 91.7986 119.063 91.8089C119.063 91.8089 108.876 96.6808 114.176 105.213Z" fill="#E6741C"/>
<path d="M131.024 140.839H127.242C126.594 140.839 126.069 140.314 126.069 139.667V132.782H132.196V139.667C132.196 140.314 131.671 140.839 131.024 140.839Z" fill="#6E3865"/>
<path d="M131.342 138.984H132.821C133.199 138.984 133.507 138.676 133.507 138.298V135.324C133.507 134.946 133.199 134.638 132.821 134.638H131.342V138.984ZM132.821 139.898H130.428V133.723H132.821C133.703 133.723 134.421 134.441 134.421 135.324V138.298C134.421 139.18 133.703 139.898 132.821 139.898Z" fill="#6E3865"/>
<path d="M158.768 134.633C158.787 135.313 163.44 134.648 163.44 134.648L164.069 135.792L162.151 136.252L160.013 138.175C160.013 138.175 160.18 138.709 160.422 139.351C160.452 139.431 160.484 139.512 160.516 139.594C160.665 139.976 160.837 140.375 161.014 140.71L161.063 140.807C161.156 140.972 161.247 141.118 161.336 141.233C161.436 141.363 161.533 141.452 161.625 141.489L163.577 140.387C163.577 140.387 166.452 141.517 166.917 141.454C167.102 141.428 167.729 140.907 168.419 140.288C168.749 139.99 170.025 138.823 170.342 138.524L169.812 136.565L167.605 135.234C167.349 135.067 167.007 134.853 166.618 134.628L166.618 134.626C166.427 134.515 166.225 134.402 166.015 134.29C165.257 133.884 164.414 133.501 163.701 133.352C163.4 133.287 163.122 133.266 162.885 133.303C161.247 133.555 158.747 133.954 158.768 134.633Z" fill="#F68971"/>
<path d="M161.014 140.71L161.064 140.807C161.138 140.751 161.235 140.676 161.352 140.587C161.619 140.386 161.984 140.121 162.385 139.842C162.788 139.565 163.167 139.34 163.471 139.204C163.548 139.17 163.618 139.14 163.68 139.112C163.744 139.091 163.799 139.071 163.845 139.057C163.937 139.024 163.991 139.004 163.991 139.004C163.991 139.004 163.935 138.997 163.832 138.989C163.781 138.985 163.717 138.98 163.643 138.977C163.57 138.981 163.489 138.986 163.395 138.994C163.031 139.031 162.532 139.184 162.09 139.488C161.652 139.793 161.352 140.16 161.17 140.44C161.104 140.544 161.052 140.635 161.014 140.71Z" fill="#CE3B58"/>
<path d="M160.422 139.351C160.451 139.431 160.484 139.512 160.515 139.594L160.563 139.559C160.83 139.359 161.195 139.093 161.595 138.815C161.998 138.538 162.377 138.313 162.681 138.177C162.759 138.142 162.827 138.112 162.888 138.086C162.953 138.064 163.009 138.045 163.054 138.029C163.148 137.997 163.199 137.978 163.199 137.978C163.199 137.978 163.145 137.971 163.041 137.962C162.991 137.959 162.927 137.953 162.853 137.952C162.781 137.954 162.698 137.96 162.606 137.968C162.239 138.005 161.741 138.158 161.3 138.461C160.893 138.745 160.605 139.08 160.422 139.351Z" fill="#CE3B58"/>
</svg>
