<svg width="312" height="282" viewBox="0 0 312 282" fill="none" xmlns="http://www.w3.org/2000/svg">
<rect width="312" height="282" fill="#F8F8FF"/>
<path d="M73.0288 202.698L143.844 202.716L159.344 202.72L164.47 202.722L179.941 202.726L237.981 203C238.019 202.879 238.056 202.759 238.091 202.639C244.374 181.751 225.304 182.011 220.036 175.52C218.161 173.209 218.034 170.042 221.422 164.762C221.438 164.737 221.455 164.713 221.471 164.687C223.492 161.525 224.962 158.419 225.935 155.386C227.974 149.033 227.832 142.996 225.997 137.417C224.607 133.188 222.244 129.222 219.121 125.581C217.905 124.164 216.573 122.795 215.138 121.478C186.317 95.0431 103.127 106.663 93.4015 152.852C87.8872 179.039 93.8363 160.043 75.8977 178.647C69.9759 184.789 67.2112 183.212 67.1458 188.781C67.0194 199.481 73.0288 202.698 73.0288 202.698Z" fill="#EBF3FA"/>
<path d="M159.015 131.277C159.212 132.709 159.557 134.223 160.064 135.826C161.002 138.799 162.491 142.071 164.617 145.662C165.063 146.418 165.443 147.131 165.758 147.808L225.935 155.386C227.974 149.033 227.832 142.996 225.998 137.417L161.194 119.971C160.108 121.64 159.357 123.538 159.016 125.686C158.745 127.39 158.733 129.25 159.015 131.277Z" fill="#F1F7FD"/>
<path d="M73.0288 202.698L143.844 202.716L159.344 202.72L164.47 202.722L179.941 202.726L237.981 203C238.019 202.879 238.056 202.759 238.091 202.639C244.374 181.751 225.304 182.011 220.036 175.52C218.161 173.209 218.034 170.042 221.422 164.762C221.438 164.737 221.455 164.713 221.471 164.687C202.975 157.069 203.043 157.886 183.322 161.184C158.986 165.254 138.955 169.981 129.035 164.849C119.116 159.716 97.7316 163.422 91.8522 170.815C85.9721 178.208 87.2785 185.533 81.1805 184.919C76.8299 184.481 71.3714 182.356 66.1486 183.825C66.0221 194.525 73.0288 202.698 73.0288 202.698Z" fill="#DFEBFD"/>
<path d="M63.2286 202.889H248.981C249.106 202.889 249.209 202.786 249.209 202.661V202.539C249.209 202.414 249.106 202.31 248.981 202.31H63.2286C63.1037 202.31 63.0004 202.414 63.0004 202.539V202.661C63.0004 202.786 63.1037 202.889 63.2286 202.889Z" fill="#2E3552"/>
<path d="M195.46 117.776L219.121 125.582C217.905 124.164 216.573 122.795 215.138 121.479L195.46 117.776Z" fill="#F1F7FD"/>
<path d="M197 123.351C197 122.5 196.31 121.811 195.46 121.811C194.609 121.811 193.919 122.5 193.919 123.351C193.919 124.202 194.609 124.892 195.46 124.892C196.31 124.892 197 124.202 197 123.351Z" fill="#F8FBFF"/>
<path d="M260 185.659H75.8975V185.567H260V185.659Z" fill="#E7E8E5"/>
<path d="M229.357 191.494H241.553V191.586H229.357V191.494Z" fill="#E7E8E5"/>
<path d="M198.65 191.494H224.722V191.586H198.65V191.494Z" fill="#E7E8E5"/>
<path d="M177.206 188.074H184.273V188.166H177.206V188.074Z" fill="#E7E8E5"/>
<path d="M95.2129 188.693H107.839V188.785H95.2129V188.693Z" fill="#E7E8E5"/>
<path d="M111.117 188.785H134.074V188.693H111.117V188.785Z" fill="#E7E8E5"/>
<path d="M145.242 190.248H158.797V190.34H145.242V190.248Z" fill="#E7E8E5"/>
<path d="M92.0676 65.0921C90.9593 65.0921 90.0579 65.9935 90.0579 67.1014V167.044C90.0579 168.152 90.9593 169.054 92.0676 169.054H163.168C164.275 169.054 165.177 168.152 165.177 167.044V67.1014C165.177 65.9935 164.275 65.0921 163.168 65.0921H92.0676ZM163.168 169.146H92.0676C90.9086 169.146 89.9658 168.203 89.9658 167.044V67.1014C89.9658 65.943 90.9086 65 92.0676 65H163.168C164.326 65 165.269 65.943 165.269 67.1014V167.044C165.269 168.203 164.326 169.146 163.168 169.146Z" fill="#E7E8E5"/>
<path d="M171.709 65.0921C170.601 65.0921 169.699 65.9935 169.699 67.1014V167.044C169.699 168.152 170.601 169.054 171.709 169.054H242.809C243.917 169.054 244.818 168.152 244.818 167.044V67.1014C244.818 65.9935 243.917 65.0921 242.809 65.0921H171.709ZM242.809 169.146H171.709C170.55 169.146 169.607 168.203 169.607 167.044V67.1014C169.607 65.943 170.55 65 171.709 65H242.809C243.968 65 244.911 65.943 244.911 67.1014V167.044C244.911 168.203 243.968 169.146 242.809 169.146Z" fill="#E7E8E5"/>
<path d="M199.982 183.5H206.797V133.952H199.982V183.5Z" fill="#EDEDEB"/>
<path d="M130.408 183.501H205.487V185.568H130.408V183.501Z" fill="#EDEDEB"/>
<path d="M129.101 183.5H199.982V133.952H129.101V183.5Z" fill="#F3F2F1"/>
<path d="M199.982 133.952H206.797V132.149H199.982V133.952Z" fill="#E2E2E0"/>
<path d="M129.101 133.952H199.982V132.149H129.101V133.952Z" fill="#EDEDEB"/>
<path d="M132.009 148.436H197.074V138.196H132.009V148.436ZM197.532 148.894H131.551V137.738H197.532V148.894Z" fill="#DADBD8"/>
<path d="M132.009 179.256H197.074V152.088H132.009V179.256ZM197.532 179.714H131.551V151.63H197.532V179.714Z" fill="#DADBD8"/>
<path d="M140.44 139.434H188.642V137.967H140.44V139.434Z" fill="#DADBD8"/>
<path d="M140.44 153.326H188.642V151.859H140.44V153.326Z" fill="#DADBD8"/>
<path d="M230.876 184.253C230.576 184.253 230.33 184.007 230.33 183.707V98.6199C230.33 98.3198 230.576 98.0742 230.876 98.0742C231.176 98.0742 231.421 98.3198 231.421 98.6199V183.707C231.421 184.007 231.176 184.253 230.876 184.253Z" fill="#F3F2F1"/>
<path d="M233.468 185.568H228.283V184.433C228.283 183.607 228.953 182.937 229.779 182.937H231.971C232.798 182.937 233.468 183.607 233.468 184.433V185.568Z" fill="#EDEDEB"/>
<path d="M220.285 109.92C220.285 109.92 220.555 99.5084 230.877 99.5084C241.198 99.5084 241.468 109.92 241.468 109.92H220.285Z" fill="#DADBD8"/>
<path d="M105.021 184.253C104.721 184.253 104.476 184.007 104.476 183.707V98.6199C104.476 98.3198 104.721 98.0742 105.021 98.0742C105.321 98.0742 105.567 98.3198 105.567 98.6199V183.707C105.567 184.007 105.321 184.253 105.021 184.253Z" fill="#F3F2F1"/>
<path d="M107.613 185.568H102.429V184.433C102.429 183.607 103.099 182.937 103.925 182.937H106.117C106.943 182.937 107.613 183.607 107.613 184.433V185.568Z" fill="#EDEDEB"/>
<path d="M94.4297 109.92C94.4297 109.92 94.699 99.5084 105.021 99.5084C115.343 99.5084 115.612 109.92 115.612 109.92H94.4297Z" fill="#DADBD8"/>
<path d="M155.026 132.149H181.221V131.368H155.026V132.149Z" fill="#DADBD8"/>
<path d="M181.22 131.368H155.026L157.547 116.372H183.742L181.22 131.368Z" fill="#DADBD8"/>
<path d="M180.735 131.368H154.54L157.062 116.372H183.256L180.735 131.368Z" fill="#E7E8E5"/>
<path d="M155.535 130.189L157.679 117.439C157.706 117.276 157.846 117.157 158.011 117.157H181.929C182.137 117.157 182.295 117.345 182.261 117.55L180.117 130.301C180.09 130.463 179.95 130.582 179.785 130.582H155.867C155.659 130.582 155.5 130.395 155.535 130.189Z" fill="#FAFAF9"/>
<path d="M149.101 132.149H175.295V131.368H149.101V132.149Z" fill="#EDEDEB"/>
<path d="M132.753 99.5087H202.151V77.0786H132.753V99.5087Z" fill="#E7E8E5"/>
<path d="M202.15 99.5087H203.145V77.0786H202.15V99.5087Z" fill="#DADBD8"/>
<path d="M135.791 96.4697H199.112V80.1171H135.791V96.4697Z" fill="white"/>
<path d="M167.452 92.1047L163.641 88.2938L167.452 84.4825L171.263 88.2938L167.452 92.1047Z" fill="#F3F2F1"/>
<path d="M157.22 92.1047L153.409 88.2938L157.22 84.4825L161.031 88.2938L157.22 92.1047Z" fill="#F3F2F1"/>
<path d="M146.989 92.1047L143.178 88.2938L146.989 84.4825L150.8 88.2938L146.989 92.1047Z" fill="#F3F2F1"/>
<path d="M177.682 92.1047L173.871 88.2938L177.682 84.4825L181.494 88.2938L177.682 92.1047Z" fill="#F3F2F1"/>
<path d="M187.915 92.1047L184.104 88.2938L187.915 84.4825L191.726 88.2938L187.915 92.1047Z" fill="#F3F2F1"/>
<path d="M239.339 198.027C239.339 200.33 207.377 202.197 167.949 202.197C128.52 202.197 96.5576 200.33 96.5576 198.027C96.5576 195.725 128.52 193.858 167.949 193.858C207.377 193.858 239.339 195.725 239.339 198.027Z" fill="#F3F2F1"/>
<path d="M209.533 90.0725C209.655 88.2396 208.267 86.7535 206.435 86.7535H155.462C153.629 86.7535 152.045 88.2396 151.923 90.0725L150.753 107.715L143.414 162.007C143.167 163.839 144.452 165.325 146.285 165.325H197.257C199.09 165.325 200.777 163.839 201.025 162.007L208.364 107.715L209.533 90.0725Z" fill="#406FBF"/>
<path d="M197.257 165.325H195.489C197.304 165.3 198.964 163.824 199.21 162.007L206.549 107.715L207.719 90.0725C207.84 88.2396 206.453 86.7535 204.62 86.7535H155.462H206.434C208.192 86.7535 209.54 88.1203 209.541 89.849C209.541 89.923 209.538 89.9974 209.533 90.0725L208.364 107.715L205.061 132.149L204.817 133.952L201.025 162.007C200.777 163.839 199.09 165.325 197.257 165.325Z" fill="#3563B7"/>
<path d="M195.444 165.325H144.471C142.638 165.325 141.353 163.839 141.601 162.006L148.94 107.715H206.55L199.211 162.006C198.963 163.839 197.276 165.325 195.444 165.325Z" fill="#406FBF"/>
<path d="M163.039 85.8331H155.447V85.4649H163.039V85.8331Z" fill="#406FBF"/>
<path d="M151.858 86.2249L151.705 85.8898C152.326 85.6081 152.98 85.4649 153.648 85.4649V85.8331C153.032 85.8331 152.43 85.9649 151.858 86.2249Z" fill="#406FBF"/>
<path d="M204.621 86.7535H153.648C151.815 86.7535 150.231 88.2396 150.109 90.0725L148.939 107.715H206.55L207.719 90.0725C207.841 88.2396 206.454 86.7535 204.621 86.7535Z" fill="#406FBF"/>
<path d="M202.411 105.154H153.417C152.452 105.154 151.721 104.372 151.785 103.407L152.603 91.0618C152.667 90.0967 153.502 89.3147 154.467 89.3147H203.461C204.426 89.3147 205.157 90.0967 205.093 91.0618L204.274 103.407C204.21 104.372 203.376 105.154 202.411 105.154ZM194.093 102.046C193.811 102.046 193.565 102.276 193.546 102.557C193.525 102.869 193.764 103.125 194.077 103.125H200.329C200.611 103.125 200.857 102.894 200.875 102.613V102.613C200.896 102.301 200.657 102.046 200.345 102.046H194.093ZM186.265 102.046C185.983 102.046 185.737 102.276 185.718 102.557C185.698 102.869 185.936 103.125 186.249 103.125H192.501C192.783 103.125 193.029 102.894 193.048 102.613V102.613C193.068 102.301 192.829 102.046 192.517 102.046H186.265ZM178.437 102.046C178.155 102.046 177.909 102.276 177.89 102.557C177.87 102.869 178.108 103.125 178.421 103.125H184.673C184.955 103.125 185.201 102.894 185.22 102.613V102.613C185.24 102.301 185.002 102.046 184.689 102.046H178.437ZM170.609 102.046C170.326 102.046 170.081 102.276 170.062 102.557C170.042 102.869 170.28 103.125 170.593 103.125H176.845C177.127 103.125 177.373 102.894 177.392 102.613V102.613C177.412 102.301 177.174 102.046 176.861 102.046H170.609ZM198.67 100.087L195.716 100.088C195.679 100.088 195.641 100.102 195.614 100.128L195.059 100.647C194.959 100.74 195.026 100.907 195.162 100.907L199.15 100.906C199.282 100.906 199.35 100.75 199.261 100.653L198.78 100.135C198.752 100.105 198.712 100.087 198.67 100.087ZM199.858 96.2148C199.823 96.2148 199.787 96.2273 199.756 96.2557L199.204 96.7723C199.176 96.7984 199.159 96.8334 199.156 96.8717L198.94 99.835C198.937 99.8766 198.951 99.9171 198.98 99.9481L199.457 100.466C199.488 100.5 199.527 100.515 199.566 100.515C199.64 100.515 199.711 100.461 199.718 100.375L200.009 96.3768C200.016 96.2815 199.939 96.2148 199.858 96.2148ZM199.203 95.5823L195.732 95.5834C195.653 95.5834 195.588 95.6441 195.582 95.7229L195.544 96.241C195.538 96.3282 195.607 96.4026 195.694 96.4026L199.15 96.4019C199.188 96.4019 199.224 96.3875 199.252 96.3614L199.538 96.0955C199.599 96.0392 199.603 95.9438 199.547 95.8831L199.313 95.6309C199.285 95.5999 199.245 95.5823 199.203 95.5823ZM200.203 91.4856C200.167 91.4856 200.132 91.4981 200.101 91.5265L199.548 92.0431C199.521 92.0688 199.504 92.1042 199.501 92.1421L199.285 95.1058C199.282 95.147 199.296 95.1879 199.324 95.2185L199.802 95.7365C199.833 95.7704 199.872 95.7855 199.911 95.7855C199.985 95.7855 200.056 95.7314 200.063 95.6456L200.354 91.6476C200.361 91.5523 200.284 91.4856 200.203 91.4856ZM199.829 91.078L195.841 91.0787C195.709 91.0787 195.641 91.2352 195.73 91.3317L196.209 91.8498C196.238 91.8807 196.278 91.898 196.32 91.898L199.273 91.8973C199.311 91.8973 199.348 91.8829 199.376 91.8568L199.932 91.3387C200.032 91.2455 199.966 91.078 199.829 91.078Z" fill="#E6EFFA"/>
<path d="M196.32 91.8976C196.278 91.8976 196.238 91.8803 196.209 91.8494L195.731 91.3313C195.642 91.2348 195.71 91.0783 195.841 91.0783L199.83 91.0776C199.966 91.0776 200.032 91.2451 199.932 91.3383L199.376 91.8563C199.348 91.8825 199.312 91.8968 199.274 91.8968L196.32 91.8976Z" fill="#97BAE6"/>
<path d="M195.162 100.907C195.026 100.907 194.96 100.739 195.06 100.646L195.614 100.128C195.642 100.102 195.679 100.087 195.717 100.087L198.67 100.086C198.712 100.086 198.752 100.104 198.781 100.135L199.261 100.653C199.351 100.749 199.282 100.906 199.151 100.906L195.162 100.907Z" fill="#97BAE6"/>
<path d="M195.695 96.4025C195.607 96.4025 195.538 96.3281 195.544 96.2408L195.582 95.7228C195.588 95.644 195.653 95.5832 195.732 95.5832L199.203 95.5821C199.245 95.5821 199.285 95.5998 199.314 95.6307L199.547 95.8829C199.603 95.9437 199.599 96.039 199.539 96.0954L199.253 96.3612C199.225 96.3874 199.188 96.4017 199.15 96.4017L195.695 96.4025Z" fill="#97BAE6"/>
<path d="M199.566 100.515C199.527 100.515 199.487 100.499 199.456 100.466L198.979 99.9479C198.951 99.9169 198.937 99.8764 198.94 99.8348L199.156 96.8715C199.159 96.8332 199.175 96.7982 199.203 96.7721L199.756 96.2555C199.786 96.2271 199.822 96.2146 199.857 96.2146C199.939 96.2146 200.016 96.2813 200.009 96.3766L199.717 100.375C199.711 100.461 199.639 100.515 199.566 100.515Z" fill="#97BAE6"/>
<path d="M199.911 95.7854C199.872 95.7854 199.832 95.7703 199.801 95.7364L199.324 95.2184C199.296 95.1878 199.282 95.1469 199.285 95.1057L199.5 92.142C199.503 92.1041 199.52 92.0687 199.548 92.043L200.1 91.5264C200.131 91.498 200.167 91.4855 200.202 91.4855C200.283 91.4855 200.36 91.5522 200.353 91.6475L200.062 95.6455C200.056 95.7313 199.985 95.7854 199.911 95.7854Z" fill="#97BAE6"/>
<path d="M200.33 103.125H194.077C193.765 103.125 193.526 102.869 193.546 102.557C193.565 102.276 193.811 102.046 194.093 102.046H200.345C200.658 102.046 200.896 102.301 200.876 102.613V102.613C200.857 102.894 200.611 103.125 200.33 103.125Z" fill="#97BAE6"/>
<path d="M192.502 103.125H186.25C185.937 103.125 185.698 102.869 185.719 102.557C185.738 102.276 185.983 102.046 186.265 102.046H192.518C192.83 102.046 193.069 102.301 193.048 102.613V102.613C193.03 102.894 192.784 103.125 192.502 103.125Z" fill="#97BAE6"/>
<path d="M184.673 103.125H178.42C178.108 103.125 177.869 102.869 177.89 102.557C177.908 102.276 178.154 102.046 178.436 102.046H184.689C185.001 102.046 185.24 102.301 185.219 102.613V102.613C185.201 102.894 184.955 103.125 184.673 103.125Z" fill="#97BAE6"/>
<path d="M176.845 103.125H170.593C170.28 103.125 170.041 102.869 170.062 102.557C170.081 102.276 170.326 102.046 170.609 102.046H176.861C177.173 102.046 177.412 102.301 177.391 102.613V102.613C177.373 102.894 177.127 103.125 176.845 103.125Z" fill="#97BAE6"/>
<path d="M171.582 134.947H170.448C171.576 134.947 172.614 134.033 172.767 132.905L175.07 115.866C175.083 115.771 175.089 115.678 175.089 115.587C175.087 114.591 174.337 113.824 173.304 113.824H157.398H174.438C175.566 113.824 176.357 114.738 176.204 115.866L173.901 132.905C173.748 134.033 172.71 134.947 171.582 134.947Z" fill="#3D6CBE"/>
<path d="M195.851 134.947H194.717C195.845 134.947 196.883 134.033 197.035 132.905L199.338 115.866C199.351 115.771 199.357 115.678 199.357 115.587C199.356 114.591 198.606 113.824 197.572 113.824H181.667H198.706C199.834 113.824 200.625 114.738 200.472 115.866L198.169 132.905C198.017 134.033 196.979 134.947 195.851 134.947Z" fill="#3D6CBE"/>
<path d="M168.302 159.216H167.168C168.296 159.216 169.334 158.302 169.486 157.174L171.79 140.135C171.803 140.04 171.809 139.947 171.809 139.856C171.807 138.86 171.057 138.093 170.024 138.093H154.118H171.158C172.285 138.093 173.076 139.007 172.924 140.135L170.62 157.174C170.468 158.302 169.43 159.216 168.302 159.216Z" fill="#3D6CBE"/>
<path d="M192.571 159.216H191.437C192.564 159.216 193.602 158.302 193.755 157.174L196.058 140.135C196.071 140.04 196.077 139.947 196.077 139.856C196.075 138.86 195.325 138.093 194.292 138.093H178.387H195.426C196.554 138.093 197.344 139.007 197.192 140.135L194.889 157.174C194.736 158.302 193.699 159.216 192.571 159.216Z" fill="#3D6CBE"/>
<path d="M151.643 132.905L153.946 115.866C154.099 114.738 155.137 113.824 156.265 113.824H173.304C174.432 113.824 175.223 114.738 175.07 115.866L172.767 132.905C172.614 134.033 171.576 134.947 170.449 134.947H153.409C152.281 134.947 151.49 134.033 151.643 132.905Z" fill="#406FBF"/>
<path d="M170.449 134.947H153.409C152.376 134.947 151.626 134.18 151.624 133.185C151.624 133.093 151.63 133 151.643 132.905L153.318 120.515C153.351 120.48 153.397 120.426 153.446 120.353C154.048 120.772 154.743 120.858 155.212 120.858C155.538 120.858 155.754 120.816 155.754 120.816L155.449 117.611L154.058 117.906C153.951 117.844 153.825 117.799 153.688 117.777L153.946 115.866C154.099 114.738 155.137 113.824 156.265 113.824H173.304C174.337 113.824 175.088 114.591 175.089 115.587C175.089 115.678 175.083 115.771 175.07 115.866L172.767 132.905C172.614 134.033 171.576 134.947 170.449 134.947Z" fill="#5D87CD"/>
<path d="M175.911 132.905L178.215 115.866C178.367 114.738 179.405 113.824 180.533 113.824H197.573C198.7 113.824 199.491 114.738 199.338 115.866L197.035 132.905C196.883 134.033 195.845 134.947 194.717 134.947H177.677C176.549 134.947 175.759 134.033 175.911 132.905Z" fill="#406FBF"/>
<path d="M194.717 134.947H177.677C176.644 134.947 175.894 134.18 175.893 133.185C175.893 133.093 175.898 133 175.911 132.905L178.215 115.866C178.367 114.738 179.405 113.824 180.533 113.824H197.572C198.606 113.824 199.356 114.591 199.358 115.587C199.358 115.678 199.351 115.771 199.338 115.866L197.035 132.905C196.883 134.033 195.845 134.947 194.717 134.947Z" fill="#5D87CD"/>
<path d="M148.363 157.174L150.666 140.135C150.818 139.007 151.856 138.093 152.984 138.093H170.023C171.152 138.093 171.942 139.007 171.79 140.135L169.486 157.174C169.334 158.302 168.296 159.216 167.168 159.216H150.128C149.001 159.216 148.21 158.302 148.363 157.174Z" fill="#406FBF"/>
<path d="M167.168 159.216H150.128C149.095 159.216 148.345 158.45 148.344 157.454C148.343 157.362 148.35 157.269 148.363 157.174L150.666 140.135C150.818 139.007 151.856 138.093 152.984 138.093H170.023C171.056 138.093 171.807 138.86 171.808 139.856C171.809 139.947 171.802 140.04 171.79 140.135L169.486 157.174C169.334 158.302 168.296 159.216 167.168 159.216Z" fill="#5D87CD"/>
<path d="M172.632 157.174L174.936 140.135C175.088 139.007 176.126 138.093 177.254 138.093H194.293C195.421 138.093 196.212 139.007 196.059 140.135L193.756 157.174C193.604 158.302 192.566 159.216 191.438 159.216H174.398C173.271 159.216 172.48 158.302 172.632 157.174Z" fill="#406FBF"/>
<path d="M191.438 159.216H174.398C173.365 159.216 172.615 158.45 172.613 157.454C172.613 157.362 172.62 157.269 172.632 157.174L174.936 140.135C175.088 139.007 176.126 138.093 177.254 138.093H194.293C195.326 138.093 196.076 138.86 196.078 139.856C196.078 139.947 196.072 140.04 196.059 140.135L193.756 157.174C193.604 158.302 192.566 159.216 191.438 159.216Z" fill="#5D87CD"/>
<path d="M162.397 131.475C161.273 131.475 160.477 130.555 160.629 129.43L161.993 119.341C162.145 118.216 163.189 117.296 164.314 117.296C165.439 117.296 166.235 118.216 166.083 119.341L164.719 129.43C164.567 130.555 163.522 131.475 162.397 131.475Z" fill="white"/>
<path d="M156.267 124.386C156.419 123.261 157.463 122.341 158.588 122.341H168.677C169.802 122.341 170.598 123.261 170.446 124.386C170.294 125.51 169.249 126.431 168.124 126.431H158.035C156.91 126.431 156.115 125.51 156.267 124.386Z" fill="white"/>
<path d="M154.385 153.667C153.697 152.872 153.873 151.571 154.776 150.775L162.874 143.641C163.777 142.846 165.079 142.846 165.766 143.641C166.454 144.436 166.278 145.738 165.375 146.533L157.277 153.667C156.374 154.463 155.073 154.463 154.385 153.667Z" fill="white"/>
<path d="M155.74 143.641C156.642 142.846 157.944 142.846 158.632 143.641L164.801 150.775C165.489 151.571 165.313 152.872 164.41 153.667C163.508 154.463 162.206 154.463 161.518 153.667L155.349 146.533C154.661 145.738 154.837 144.436 155.74 143.641Z" fill="white"/>
<path d="M180.536 124.386C180.688 123.261 181.733 122.341 182.858 122.341H192.947C194.072 122.341 194.867 123.261 194.715 124.386C194.563 125.51 193.519 126.431 192.394 126.431H182.305C181.18 126.431 180.384 125.51 180.536 124.386Z" fill="white"/>
<path d="M177.685 145.475C177.837 144.351 178.881 143.43 180.007 143.43H190.095C191.22 143.43 192.016 144.351 191.864 145.475C191.712 146.6 190.667 147.52 189.543 147.52H179.453C178.329 147.52 177.533 146.6 177.685 145.475Z" fill="white"/>
<path d="M176.825 151.834C176.977 150.709 178.022 149.789 179.147 149.789H189.236C190.361 149.789 191.157 150.709 191.004 151.834C190.852 152.959 189.808 153.879 188.683 153.879H178.594C177.469 153.879 176.673 152.959 176.825 151.834Z" fill="white"/>
<path d="M125 110.934C124.339 112.161 123.657 113.487 123.035 114.783C122.399 116.085 121.813 117.403 121.297 118.725C121.163 119.056 121.052 119.387 120.927 119.718C120.86 119.874 120.82 120.047 120.801 120.255C120.765 120.668 120.871 121.213 121.083 121.781C121.515 122.914 122.326 124.145 123.163 125.217L121.909 126.704C121.531 126.464 121.223 126.235 120.899 125.976C120.581 125.722 120.268 125.455 119.975 125.164C119.382 124.586 118.83 123.936 118.36 123.168C117.896 122.4 117.5 121.491 117.397 120.4C117.343 119.858 117.385 119.276 117.529 118.71C117.635 118.326 117.731 117.935 117.847 117.558C118.302 116.038 118.855 114.571 119.479 113.147C119.795 112.437 120.119 111.731 120.475 111.041C120.834 110.344 121.178 109.675 121.602 108.97L125 110.934Z" fill="#F46B74"/>
<path d="M122.652 124.788L124.504 125.273L123.136 127.934C123.136 127.934 121.766 127.415 121.425 126.208L122.652 124.788Z" fill="#F46B74"/>
<path d="M127.04 126.114L125.394 128.202L123.136 127.934L124.504 125.272L127.04 126.114Z" fill="#F46B74"/>
<path d="M133.682 96.8911C133.724 97.0959 133.867 97.2398 134 97.2126C134.134 97.1853 134.209 96.9972 134.167 96.7925C134.125 96.5881 133.983 96.4438 133.85 96.471C133.716 96.4983 133.641 96.6864 133.682 96.8911Z" fill="#17282F"/>
<path d="M133.848 97.2433C133.848 97.2433 134.553 98.3299 135.182 98.7953C134.888 99.2069 134.241 99.1775 134.241 99.1775L133.848 97.2433Z" fill="#F14358"/>
<path d="M133.728 95.1395C133.679 95.1395 133.63 95.1442 133.582 95.1542C133.296 95.2124 133.06 95.4403 132.918 95.7963C132.774 96.1586 132.745 96.6086 132.837 97.063C133.026 97.993 133.665 98.654 134.268 98.5295C134.555 98.4713 134.791 98.2431 134.933 97.8874C135.077 97.5247 135.105 97.0747 135.013 96.6207C134.921 96.1664 134.719 95.7636 134.445 95.4859C134.22 95.2591 133.97 95.1395 133.728 95.1395ZM134.125 98.6359C133.527 98.6359 132.93 97.9805 132.747 97.0814C132.652 96.6097 132.682 96.1413 132.832 95.7621C132.986 95.3762 133.245 95.1284 133.564 95.0636C133.883 94.9995 134.219 95.1262 134.51 95.4211C134.797 95.7113 135.007 96.1307 135.103 96.6023C135.199 97.074 135.169 97.5424 135.018 97.9212C134.864 98.3071 134.605 98.5549 134.286 98.6197C134.233 98.6304 134.179 98.6359 134.125 98.6359Z" fill="#17282F"/>
<path d="M153.087 118.112L155.448 117.612L155.754 120.817C155.754 120.817 153.715 121.206 152.737 119.593L153.087 118.112Z" fill="#F46B74"/>
<path d="M157.679 118.33L157.528 120.667L155.753 120.816L155.447 117.611L157.679 118.33Z" fill="#F46B74"/>
<path d="M132.702 95.9064L132.619 95.874C132.569 95.8279 132.566 95.7502 132.612 95.7005C133.073 95.202 133.631 95.2907 133.655 95.2944C133.722 95.3058 133.767 95.3692 133.756 95.4362C133.744 95.5028 133.68 95.5474 133.615 95.5367C133.597 95.5337 133.159 95.4697 132.792 95.8673L132.702 95.9064Z" fill="#17282F"/>
<path d="M127.998 100.616C128.369 102.511 128.593 105.136 127.268 106.4C127.268 106.4 127.786 108.323 131.306 108.323C135.177 108.323 133.168 106.636 133.168 106.636C131.559 106.136 131.573 104.304 131.941 102.831L127.998 100.616Z" fill="#F46B74"/>
<path d="M131.973 105.94C132.842 105.315 134.13 104.579 134.397 105.346C134.558 105.809 134.624 108.057 133.73 107.889C132.408 107.641 131.973 105.94 131.973 105.94Z" fill="#17282F"/>
<path d="M126.542 107.668C126.197 107.18 126.211 105.637 126.579 105.365C127.173 104.925 129.715 104.825 133.139 105.612C132.77 107.106 133.56 107.889 133.56 107.889L126.542 107.668Z" fill="#406FBF"/>
<path d="M115.456 194.667L115.528 194.691C115.577 194.715 115.607 194.748 115.621 194.795C115.654 194.906 115.613 194.941 115.6 194.952C115.46 195.07 114.943 194.961 114.579 194.816C114.826 194.729 115.226 194.617 115.456 194.667ZM115.034 195.081C115.294 195.137 115.554 195.152 115.679 195.045C115.732 195.001 115.785 194.915 115.739 194.761C115.715 194.68 115.661 194.619 115.581 194.58C115.231 194.413 114.428 194.741 114.393 194.755L114.355 194.809L114.39 194.867C114.513 194.926 114.774 195.024 115.034 195.081Z" fill="#406FBF"/>
<path d="M115.138 193.956L115.165 193.964C115.24 193.99 115.239 194.027 115.239 194.043C115.235 194.217 114.821 194.566 114.518 194.707C114.594 194.5 114.767 194.092 114.989 193.979C115.039 193.953 115.088 193.945 115.138 193.956ZM114.405 194.871L114.435 194.87C114.728 194.785 115.354 194.34 115.362 194.046C115.363 193.993 115.345 193.896 115.205 193.848C115.114 193.816 115.023 193.824 114.933 193.87C114.587 194.046 114.368 194.764 114.359 194.794L114.374 194.855L114.405 194.871Z" fill="#406FBF"/>
<path d="M134.566 195.013C134.61 195.013 134.649 195.018 134.685 195.027C134.742 195.043 134.781 195.071 134.805 195.113C134.848 195.19 134.832 195.227 134.817 195.249C134.696 195.417 134.042 195.421 133.56 195.352C133.8 195.229 134.264 195.013 134.566 195.013ZM134.156 195.516C134.488 195.516 134.809 195.47 134.917 195.321C134.954 195.269 134.984 195.179 134.911 195.053C134.871 194.981 134.805 194.933 134.717 194.909C134.286 194.792 133.381 195.307 133.343 195.33L133.312 195.393L133.361 195.443C133.526 195.476 133.846 195.516 134.156 195.516Z" fill="#406FBF"/>
<path d="M134.005 194.394L134.042 194.396C134.153 194.407 134.16 194.451 134.162 194.465C134.19 194.64 133.769 195.081 133.451 195.272C133.484 195.069 133.576 194.652 133.793 194.474C133.858 194.42 133.928 194.394 134.005 194.394ZM133.374 195.444L133.399 195.438C133.711 195.299 134.331 194.738 134.283 194.445C134.272 194.377 134.223 194.291 134.055 194.274C133.929 194.261 133.815 194.297 133.715 194.379C133.385 194.65 133.315 195.347 133.312 195.377L133.338 195.433L133.374 195.444Z" fill="#406FBF"/>
<path d="M130.525 195.383H133.115L133.373 189.385H130.784L130.525 195.383Z" fill="#F46B74"/>
<path d="M111.518 194.184L114.049 194.732L116.59 189.146L114.059 188.597L111.518 194.184Z" fill="#F46B74"/>
<path d="M114.292 194.477L111.448 193.862C111.345 193.84 111.24 193.892 111.196 193.988L110.208 196.13C110.106 196.352 110.241 196.613 110.481 196.66C111.478 196.858 111.973 196.904 113.223 197.175C113.993 197.341 115.729 197.765 116.792 197.995C117.831 198.219 118.221 197.204 117.806 197.015C115.948 196.166 115.172 195.419 114.669 194.722C114.578 194.596 114.444 194.511 114.292 194.477Z" fill="#17282F"/>
<path d="M133.099 195.083H130.271C130.165 195.083 130.073 195.156 130.05 195.259L129.539 197.562C129.486 197.8 129.667 198.026 129.911 198.022C130.931 198.005 132.406 197.945 133.688 197.945C135.187 197.945 136.483 198.027 138.241 198.027C139.304 198.027 139.599 196.952 139.154 196.855C137.128 196.412 135.474 196.364 133.723 195.284C133.532 195.167 133.323 195.083 133.099 195.083Z" fill="#17282F"/>
<path d="M122.631 106.986C120.203 107.543 118.202 113.739 118.202 113.739L123.076 117.454C123.076 117.454 124.866 115.768 125.662 112.668C126.496 109.421 125.113 106.417 122.631 106.986Z" fill="#406FBF"/>
<path d="M123.076 117.454H123.076C123.094 117.438 123.36 117.182 123.727 116.701C123.727 116.702 123.727 116.701 123.727 116.701C123.348 117.198 123.076 117.454 123.076 117.454ZM122.898 117.318L122.128 116.732L118.98 114.332L118.202 113.739C118.202 113.739 120.203 107.543 122.631 106.986C122.701 106.97 122.769 106.957 122.837 106.947C122.704 106.972 122.631 106.986 122.631 106.986C123.077 109.165 123.363 111.36 123.538 113.484C123.106 114.66 122.923 116.032 122.86 117.29L122.898 117.318Z" fill="#7DA6DD"/>
<path d="M137.186 109.942L141.276 113.705C141.956 114.332 142.639 114.952 143.323 115.563C144.001 116.174 144.694 116.787 145.351 117.318L144.782 117.013C145.098 117.128 145.43 117.243 145.778 117.336C146.128 117.426 146.491 117.506 146.861 117.58C147.605 117.715 148.382 117.813 149.174 117.877C149.966 117.944 150.774 117.986 151.591 118.009C152.401 118.038 153.247 118.05 154.044 118.056L154.431 119.961C153.563 120.284 152.728 120.517 151.853 120.712C150.984 120.901 150.099 121.036 149.197 121.119C148.295 121.194 147.377 121.218 146.438 121.157C145.498 121.1 144.537 120.95 143.556 120.662L143.278 120.58L142.987 120.356C142.179 119.734 141.461 119.126 140.738 118.506C140.022 117.885 139.316 117.261 138.616 116.633C137.227 115.365 135.846 114.106 134.492 112.798L137.186 109.942Z" fill="#F46B74"/>
<path d="M123.075 117.455L122.897 117.318L123.076 117.455C123.076 117.455 123.075 117.455 123.075 117.455Z" fill="#C3C5C2"/>
<path d="M123.077 117.454L122.899 117.318L122.861 117.29C122.924 116.032 123.107 114.66 123.539 113.484C123.629 114.579 123.69 115.657 123.728 116.701C123.361 117.182 123.095 117.438 123.077 117.454Z" fill="#6189CE"/>
<path d="M137.97 109.583C138.499 112.381 138.83 118.127 137.294 129.505H123.441C123.346 127.379 124.682 117.006 122.631 106.986C122.631 106.986 125.005 106.51 127.268 106.401C129.038 106.316 131.601 106.259 133.157 106.401C133.806 106.46 134.444 106.554 135.012 106.654C136.51 106.919 137.687 108.088 137.97 109.583Z" fill="#406FBF"/>
<path d="M137.294 129.505H123.441C123.438 129.429 123.436 129.343 123.436 129.247C123.436 127.833 123.782 124.247 123.782 119.721C123.782 118.753 123.766 117.743 123.728 116.701C123.689 115.657 123.628 114.579 123.538 113.484C123.363 111.36 123.077 109.165 122.631 106.986C122.631 106.986 125.005 106.51 127.268 106.401C128.258 106.353 129.496 106.314 130.667 106.314C131.59 106.314 132.471 106.338 133.157 106.401C133.806 106.46 134.444 106.554 135.012 106.654C135.053 106.662 135.094 106.67 135.135 106.679C135.092 106.675 135.05 106.673 135.009 106.673C133.618 106.673 133.229 108.579 132.541 110.433C132.444 110.696 132.399 110.963 132.399 111.231C132.4 113.191 134.809 115.23 136.622 116.487C137.112 117.368 137.757 118.191 138.325 118.837C138.345 118.409 138.362 117.996 138.375 117.598C138.376 117.598 138.377 117.599 138.378 117.599C138.28 120.643 137.965 124.537 137.294 129.505Z" fill="#7DA6DD"/>
<path d="M138.325 118.837C137.757 118.191 137.113 117.368 136.622 116.487C137.388 117.019 138.048 117.41 138.375 117.598C138.363 117.996 138.346 118.409 138.325 118.837Z" fill="#6189CE"/>
<path d="M133.24 192.478L133.252 192.208L133.24 192.478ZM130.651 192.478H130.649L130.782 189.387H130.783L130.651 192.478Z" fill="#C3C5C2"/>
<path d="M133.24 192.478H130.65L130.783 189.387H133.373L133.252 192.208L133.24 192.478Z" fill="#EA5B5B"/>
<path d="M112.748 191.479L112.746 191.478L113 190.921L113.002 190.921L112.748 191.479Z" fill="#C3C5C2"/>
<path d="M115.279 192.026L112.748 191.479L113.002 190.921L115.532 191.469L115.279 192.026Z" fill="#EA5B5B"/>
<path d="M126.766 97.8453C127.431 100.328 127.694 101.815 129.227 102.847C131.531 104.4 134.401 102.618 134.49 99.9865C134.571 97.6178 133.469 93.9556 130.805 93.4552C128.18 92.9622 126.1 95.3622 126.766 97.8453Z" fill="#F46B74"/>
<path d="M132.399 98.0331C133.561 97.8696 133.229 96.5238 132.792 95.8673C132.792 95.8673 135.388 92.7556 132.399 91.4975C129.41 90.2393 130.146 92.2033 130.146 92.2033C130.146 92.2033 127.815 90.4543 125.79 91.8657C123.764 93.277 125.513 93.8908 125.513 93.8908C125.513 93.8908 121.825 94.9751 123.301 96.8416C124.777 98.708 126.294 98.5173 126.294 98.5173C126.294 98.5173 123.243 99.7206 125.575 101.071C127.907 102.421 128.761 102.483 128.761 102.483C130.04 102.642 131.247 101.856 131.619 100.622L132.399 98.0331Z" fill="#17282F"/>
<path d="M131.399 98.0418C131.439 98.7138 131.751 99.3464 132.127 99.7599C132.691 100.382 133.281 99.9944 133.38 99.237C133.471 98.5551 133.285 97.4096 132.595 97.0664C131.915 96.7284 131.353 97.2734 131.399 98.0418Z" fill="#F46B74"/>
<path d="M132.379 129.505C132.379 129.505 129.44 149.297 127.827 156.712C126.06 164.832 116.585 191.697 116.585 191.697L111.949 190.693C111.949 190.693 118.574 168.801 120.057 157.448C121.196 148.729 123.441 129.505 123.441 129.505H132.379Z" fill="#17282F"/>
<path d="M117.694 190.149L116.83 191.826L111.614 190.696L112.054 189.128L117.694 190.149Z" fill="#406FBF"/>
<path d="M127.893 156.416C127.893 156.414 127.893 156.412 127.893 156.41C128.25 154.73 128.668 152.486 129.102 150.008V150.009C128.668 152.49 128.25 154.736 127.893 156.416Z" fill="#A7A9A8"/>
<path d="M129.101 150.009V150.008C129.182 149.542 129.264 149.068 129.347 148.588C129.264 149.068 129.182 149.543 129.101 150.009Z" fill="#9FA1A1"/>
<path d="M127.892 156.41C127.482 149.89 127.124 137.223 130.522 136.557C130.611 136.539 130.698 136.53 130.782 136.53C130.964 136.53 131.132 136.571 131.286 136.648C130.731 140.216 130.029 144.611 129.347 148.588C129.265 149.068 129.182 149.542 129.101 150.008C128.667 152.486 128.249 154.73 127.892 156.41Z" fill="#0F191D"/>
<path d="M137.293 129.505C137.293 129.505 137.65 148.869 137.368 156.767C137.075 164.982 134.206 191.879 134.206 191.879H129.819C129.819 191.879 129.657 165.461 129.463 157.394C129.249 148.598 128.188 129.505 128.188 129.505H137.293Z" fill="#17282F"/>
<path d="M135.05 190.132L134.802 191.954H129.465L129.321 190.328L135.05 190.132Z" fill="#406FBF"/>
<path d="M132.541 110.433C131.299 113.78 138.595 117.722 138.595 117.722L141.753 113.661C141.753 113.661 139.646 109.467 137.06 107.576C133.866 105.241 133.486 107.885 132.541 110.433Z" fill="#406FBF"/>
<path d="M138.595 117.722C138.595 117.722 138.515 117.678 138.375 117.598C138.047 117.41 137.388 117.019 136.621 116.487C134.808 115.23 132.4 113.191 132.398 111.231C132.398 110.963 132.443 110.696 132.541 110.433C133.229 108.579 133.617 106.674 135.009 106.674C135.529 106.674 136.191 106.94 137.06 107.576C139.646 109.467 141.753 113.661 141.753 113.661L141.534 113.943L139.103 117.068L138.595 117.722Z" fill="#7DA6DD"/>
<path d="M154.407 118.443C154.407 118.819 154.002 119.123 153.502 119.123C153.002 119.123 152.597 118.819 152.597 118.443C152.597 118.068 153.002 117.763 153.502 117.763C154.002 117.763 154.407 118.068 154.407 118.443Z" fill="#17282F"/>
<path d="M153.149 120.606C153.096 120.606 153.045 120.584 153.008 120.541C152.943 120.463 152.953 120.348 153.029 120.282C153.053 120.262 153.524 119.831 153.321 118.832C153.301 118.733 153.366 118.636 153.465 118.615C153.566 118.597 153.662 118.659 153.682 118.759C153.931 119.987 153.295 120.54 153.268 120.563C153.233 120.592 153.191 120.606 153.149 120.606Z" fill="#17282F"/>
<path d="M153.332 118.885C153.007 118.832 152.767 118.632 152.767 118.394C152.767 118.116 153.096 117.89 153.502 117.89C153.909 117.89 154.238 118.116 154.238 118.394C154.238 118.625 154.013 118.819 153.704 118.879C153.698 118.84 153.691 118.8 153.683 118.759C153.665 118.671 153.588 118.612 153.5 118.612C153.489 118.612 153.477 118.613 153.465 118.615C153.366 118.636 153.302 118.733 153.321 118.832C153.325 118.85 153.328 118.867 153.332 118.885Z" fill="#6C7A7F"/>
<path d="M153.503 118.898C153.444 118.898 153.387 118.893 153.332 118.885C153.329 118.867 153.326 118.85 153.322 118.832C153.302 118.733 153.367 118.636 153.466 118.615C153.478 118.613 153.489 118.612 153.501 118.612C153.588 118.612 153.665 118.671 153.683 118.759C153.691 118.8 153.699 118.84 153.705 118.879C153.641 118.892 153.573 118.898 153.503 118.898Z" fill="#6C7A7F"/>
<path d="M133.684 106.43C131.989 107.641 129.054 112.322 128.512 115.086C128.496 115.168 128.389 115.188 128.344 115.117C125.891 111.206 125.608 107.201 125.578 106.55C125.576 106.498 125.532 106.461 125.481 106.465C125.23 106.486 124.546 106.547 124.249 106.617C124.207 106.627 124.179 106.668 124.181 106.711C124.401 111.933 127.03 115.927 128.054 117.154L128.073 117.214C127.846 121.358 128.147 128.761 128.184 129.643C128.186 129.692 128.226 129.729 128.275 129.729H129.375C129.427 129.729 129.469 129.688 129.466 129.635C129.417 128.786 129.071 122.353 129.471 117.078L129.472 117.068C130.092 113.142 133.816 107.837 135.122 106.785C135.182 106.738 135.159 106.644 135.085 106.628C134.532 106.506 133.896 106.431 133.746 106.414L133.684 106.43Z" fill="#406FBF"/>
</svg>
