<svg width="312" height="282" viewBox="0 0 312 282" fill="none" xmlns="http://www.w3.org/2000/svg">
<rect y="-0.000610352" width="312" height="282" fill="#F8F8FF"/>
<path d="M66.1145 205.945C66.1145 205.945 41.8903 179.935 62.0178 151.777C79.8764 126.793 100.698 128.501 115.974 138.64C122.48 142.958 141.238 139.172 157.205 113.75C178.977 79.0801 254.451 100.107 240.69 153.447C234.03 179.259 260.957 180.197 247.237 205.999L66.1145 205.945Z" fill="#EBF3FA"/>
<path d="M261.189 205.967H50.2395C50.1078 205.967 50 205.859 50 205.728V205.646C50 205.514 50.1078 205.407 50.2395 205.407H261.189C261.32 205.407 261.428 205.514 261.428 205.646V205.728C261.428 205.859 261.32 205.967 261.189 205.967Z" fill="#2E3552"/>
<path d="M105.216 81.9516C104.998 81.2776 105.784 80.7236 106.351 81.1475C112.119 85.4484 126.304 98.6789 126.095 124.642C125.833 157.216 133.858 168.179 143.002 174.383C143.002 174.383 131.179 172.321 122.628 161.243C101.635 134.044 109.099 93.9351 105.216 81.9516Z" fill="#BDD0FB"/>
<path d="M115.433 112.293C114.798 108.881 114.062 105.485 113.228 102.113C112.37 98.5607 111.381 95.039 110.323 91.5363C110.293 91.4398 110.345 91.336 110.441 91.3024C110.462 91.2947 110.483 91.2915 110.504 91.2915C110.582 91.2915 110.656 91.34 110.683 91.4185C111.899 94.8776 112.982 98.3848 113.971 101.919C114.509 103.877 115.013 105.844 115.483 107.82L115.433 112.293Z" fill="#DCE6FD"/>
<path d="M123.187 182.422C122.879 183.691 121.375 184.232 120.318 183.466C114.49 179.234 99.0916 165.779 97.738 140.95C96.5949 119.983 93.9826 108.723 92.4425 103.693C92.1169 102.629 93.3383 101.769 94.2319 102.431C104.091 109.738 134.352 136.457 123.187 182.422Z" fill="#91B3FA"/>
<path d="M114.795 170.089C110.12 159.15 104.079 142.307 102.359 125.096C102.331 124.816 102.535 124.566 102.815 124.538C102.833 124.536 102.85 124.535 102.867 124.535C103.125 124.535 103.347 124.732 103.373 124.995C104.972 140.992 110.334 156.677 114.824 167.53L114.795 170.089Z" fill="#C0D6FC"/>
<path d="M119.823 202.388C116.888 202.388 114.497 200.007 114.497 197.06L114.529 194.128L114.7 178.703L114.795 170.088L114.823 167.53L115.285 125.666L115.433 112.293L115.482 107.82L115.503 105.947C115.503 102.542 117.472 99.5974 120.334 98.1899C120.832 97.9451 121.357 97.7465 121.903 97.6006C121.66 97.9886 121.519 98.4496 121.522 98.9469L121.177 195.236C121.184 196.315 121.998 197.218 123.07 197.33C127.372 197.781 133.562 197.958 140.645 197.958C146.486 197.958 152.932 197.837 159.415 197.65L159.201 201.516C159.199 201.568 159.198 201.621 159.199 201.673L131.733 202.172L119.922 202.387C119.889 202.388 119.856 202.388 119.823 202.388ZM207.449 187.695C206.548 187.689 205.561 187.686 204.505 187.686C204.09 187.686 203.665 187.686 203.229 187.687C203.437 184.526 203.022 181.304 201.922 178.202L199.927 102.012C199.861 100.77 198.832 99.8159 197.609 99.8159C197.549 99.8159 197.489 99.8181 197.428 99.8231C191.721 100.261 185.777 100.443 179.835 100.443C160.973 100.443 142.157 98.6083 131.187 97.3073H197.33H197.613C201.667 97.3073 205.009 100.484 205.215 104.532L205.31 106.483L207.449 187.695Z" fill="#B3B4E4"/>
<path d="M132.23 200.563H132.227L122.805 200.442C119.661 200.401 117.104 197.81 117.104 194.666V180.44C117.104 180.336 117.188 180.251 117.292 180.251C117.396 180.251 117.481 180.336 117.481 180.44V194.666C117.481 197.605 119.871 200.026 122.81 200.064L132.232 200.186C132.336 200.188 132.42 200.273 132.418 200.377C132.417 200.481 132.333 200.563 132.23 200.563Z" fill="#91B3FA"/>
<path d="M117.292 176.222C117.188 176.222 117.104 176.138 117.104 176.033V173.73C117.104 173.626 117.188 173.541 117.292 173.541C117.396 173.541 117.481 173.626 117.481 173.73V176.033C117.481 176.138 117.396 176.222 117.292 176.222Z" fill="url(#paint0_linear)"/>
<path d="M124.369 96.4437C134.402 97.8046 168.903 102.013 197.428 99.8231C198.729 99.7229 199.859 100.708 199.928 102.012L204.608 192.913C204.686 194.38 203.566 195.635 202.1 195.722C190.102 196.432 140.694 199.176 123.071 197.33C121.998 197.218 121.184 196.315 121.178 195.236L121.522 98.9469C121.514 97.4202 122.856 96.2389 124.369 96.4437Z" fill="#7D97F4"/>
<path d="M125.444 99.2193C135.099 100.529 168.302 104.578 195.753 102.471C197.005 102.375 198.091 103.323 198.157 104.577L202.624 191.45C202.699 192.862 201.621 194.069 200.21 194.153C188.664 194.836 141.117 197.477 124.157 195.701C123.125 195.593 122.341 194.724 122.335 193.686L122.705 101.628C122.696 100.159 123.988 99.0221 125.444 99.2193Z" fill="#BDD0FB"/>
<path d="M138.356 127.487C138.349 127.487 138.342 127.487 138.335 127.487C137.17 127.502 135.081 127.68 133.402 127.823C132.602 127.891 131.846 127.955 131.306 127.993C131.038 128.011 130.793 128.13 130.633 128.319C130.5 128.478 130.438 128.673 130.458 128.869L131.018 134.213C131.081 134.816 131.649 135.275 132.339 135.282L138.709 135.343C138.713 135.343 138.717 135.343 138.721 135.343C139.369 135.343 139.905 134.884 139.92 134.313C139.982 131.873 140.012 129.586 139.695 128.415C139.547 127.867 138.998 127.487 138.356 127.487ZM138.721 135.72C138.716 135.72 138.71 135.72 138.705 135.72L132.335 135.659C131.454 135.65 130.726 135.046 130.643 134.253L130.083 128.909C130.052 128.61 130.145 128.315 130.345 128.077C130.57 127.809 130.911 127.641 131.28 127.616C131.817 127.579 132.571 127.515 133.37 127.447C135.055 127.304 137.152 127.125 138.33 127.11C138.339 127.11 138.347 127.11 138.356 127.11C139.168 127.11 139.866 127.603 140.059 128.316C140.389 129.536 140.36 131.854 140.297 134.323C140.277 135.097 139.572 135.72 138.721 135.72Z" fill="white"/>
<path d="M137.931 134.775C137.927 134.775 137.923 134.775 137.919 134.775L132.829 134.726C132.203 134.72 131.684 134.293 131.626 133.737L131.178 129.467C131.132 129.025 131.499 128.634 131.995 128.6C133.333 128.508 136.241 128.213 137.621 128.196C137.626 128.196 137.632 128.196 137.638 128.196C138.215 128.196 138.719 128.547 138.854 129.048C139.121 130.033 139.086 131.995 139.039 133.805C139.026 134.344 138.534 134.775 137.931 134.775Z" fill="#E5ECFD"/>
<path d="M160.335 133.416H145.23C145.071 133.416 144.896 133.294 144.842 133.144L143.888 130.505C143.835 130.357 143.918 130.238 144.074 130.238C144.076 130.238 144.077 130.238 144.079 130.238L163.251 130.571C162.191 131.447 161.218 132.4 160.335 133.416Z" fill="#E5ECFD"/>
<path d="M132.266 129.438C132.739 129.16 133.348 129.326 133.615 129.805L134.871 132.057C134.997 132.282 135.326 132.268 135.432 132.032L138.548 125.095C138.703 124.749 139.218 124.866 139.213 125.246C139.181 127.367 138.618 131.401 135.227 134.777C135.227 134.777 133.359 134.051 131.854 130.747C131.637 130.269 131.814 129.703 132.266 129.438Z" fill="url(#paint1_linear)"/>
<path d="M131.306 141.644C131.038 141.662 130.793 141.781 130.633 141.971C130.5 142.13 130.438 142.325 130.458 142.52L131.018 147.865C131.081 148.467 131.649 148.927 132.339 148.933L138.709 148.994C138.713 148.994 138.717 148.994 138.722 148.994C139.369 148.995 139.905 148.535 139.92 147.965C139.982 145.525 140.012 143.237 139.695 142.066C139.545 141.512 138.991 141.122 138.335 141.138C137.171 141.153 135.084 141.331 133.408 141.474C132.605 141.542 131.846 141.607 131.306 141.644ZM138.722 149.371C138.716 149.371 138.71 149.371 138.705 149.371L132.335 149.31C131.454 149.302 130.726 148.697 130.643 147.904L130.083 142.56C130.052 142.262 130.145 141.966 130.345 141.728C130.569 141.461 130.911 141.292 131.28 141.267C131.818 141.231 132.574 141.166 133.375 141.098C135.059 140.955 137.153 140.776 138.33 140.762C138.339 140.762 138.347 140.761 138.355 140.761C139.168 140.761 139.866 141.254 140.059 141.968C140.389 143.188 140.36 145.505 140.297 147.975C140.277 148.748 139.572 149.371 138.722 149.371Z" fill="white"/>
<path d="M137.931 148.426C137.927 148.426 137.923 148.426 137.919 148.426L132.829 148.377C132.203 148.371 131.684 147.944 131.626 147.388L131.178 143.118C131.132 142.676 131.499 142.285 131.995 142.251C133.333 142.16 136.241 141.864 137.621 141.847C137.626 141.847 137.632 141.847 137.638 141.847C138.215 141.847 138.719 142.198 138.854 142.699C139.121 143.684 139.086 145.646 139.039 147.457C139.026 147.995 138.534 148.426 137.931 148.426Z" fill="#E5ECFD"/>
<path d="M154.434 147.067H145.23C145.071 147.067 144.896 146.945 144.842 146.795L143.888 144.156C143.835 144.009 143.918 143.889 144.074 143.889C144.076 143.889 144.078 143.889 144.079 143.889L154.921 144.077C154.696 145.063 154.534 146.061 154.434 147.067Z" fill="#E5ECFD"/>
<path d="M132.266 143.089C132.739 142.811 133.348 142.977 133.615 143.456L134.871 145.708C134.997 145.933 135.326 145.919 135.432 145.683L138.548 138.747C138.703 138.4 139.218 138.517 139.213 138.897C139.181 141.019 138.618 145.052 135.227 148.428C135.227 148.428 133.359 147.702 131.854 144.398C131.637 143.921 131.814 143.354 132.266 143.089Z" fill="url(#paint2_linear)"/>
<path d="M131.306 155.295C131.038 155.313 130.793 155.432 130.633 155.622C130.5 155.781 130.438 155.976 130.458 156.172L131.018 161.516C131.081 162.118 131.649 162.578 132.339 162.584L138.709 162.645C138.713 162.645 138.717 162.645 138.722 162.645C139.369 162.646 139.905 162.186 139.92 161.616C139.982 159.176 140.012 156.888 139.695 155.717C139.545 155.163 138.991 154.777 138.335 154.789C137.171 154.804 135.084 154.982 133.408 155.125C132.605 155.193 131.846 155.258 131.306 155.295ZM138.722 163.022C138.716 163.022 138.71 163.022 138.705 163.022L132.335 162.961C131.454 162.953 130.726 162.348 130.643 161.555L130.083 156.211C130.052 155.913 130.145 155.617 130.345 155.38C130.569 155.112 130.911 154.944 131.28 154.918C131.818 154.882 132.574 154.817 133.375 154.749C135.059 154.606 137.153 154.427 138.33 154.413C138.339 154.413 138.347 154.412 138.355 154.412C139.168 154.412 139.866 154.906 140.059 155.619C140.389 156.839 140.36 159.156 140.297 161.626C140.277 162.399 139.572 163.022 138.722 163.022Z" fill="white"/>
<path d="M137.931 162.077C137.927 162.077 137.923 162.077 137.919 162.077L132.829 162.028C132.203 162.022 131.684 161.596 131.626 161.04L131.178 156.769C131.132 156.328 131.499 155.936 131.995 155.902C133.333 155.811 136.241 155.516 137.621 155.499C137.626 155.499 137.632 155.499 137.638 155.499C138.215 155.499 138.719 155.849 138.854 156.351C139.121 157.335 139.086 159.297 139.039 161.108C139.026 161.647 138.534 162.077 137.931 162.077Z" fill="#E5ECFD"/>
<path d="M157.174 160.719H145.248C145.089 160.719 144.913 160.596 144.858 160.447L143.89 157.808C143.835 157.66 143.918 157.541 144.074 157.541C144.076 157.541 144.078 157.541 144.079 157.541L155.82 157.741C156.152 158.63 156.542 159.508 156.99 160.371C157.05 160.488 157.112 160.603 157.174 160.719Z" fill="#E5ECFD"/>
<path d="M132.266 156.741C132.739 156.463 133.348 156.629 133.615 157.107L134.871 159.359C134.997 159.585 135.326 159.57 135.432 159.335L138.548 152.398C138.703 152.052 139.218 152.169 139.213 152.548C139.181 154.67 138.618 158.703 135.227 162.08C135.227 162.08 133.359 161.353 131.854 158.049C131.637 157.572 131.814 157.006 132.266 156.741Z" fill="url(#paint3_linear)"/>
<path d="M138.356 168.441C138.349 168.441 138.342 168.441 138.335 168.441C137.17 168.456 135.081 168.633 133.402 168.777C132.601 168.845 131.846 168.909 131.306 168.946C131.038 168.964 130.793 169.084 130.633 169.273C130.5 169.432 130.438 169.627 130.458 169.823L131.018 175.167C131.081 175.77 131.649 176.229 132.339 176.236L138.709 176.296C138.713 176.296 138.717 176.296 138.722 176.296C139.369 176.297 139.905 175.837 139.92 175.267C139.982 172.827 140.012 170.54 139.695 169.369C139.547 168.82 138.998 168.441 138.356 168.441ZM138.722 176.674C138.716 176.674 138.71 176.674 138.705 176.674L132.335 176.612C131.454 176.604 130.726 176 130.643 175.207L130.083 169.862C130.052 169.564 130.145 169.268 130.345 169.031C130.57 168.763 130.911 168.595 131.28 168.57C131.817 168.533 132.571 168.469 133.37 168.401C135.055 168.258 137.152 168.079 138.33 168.064C138.339 168.064 138.347 168.064 138.356 168.064C139.168 168.064 139.866 168.557 140.059 169.27C140.389 170.49 140.36 172.807 140.297 175.277C140.277 176.05 139.572 176.674 138.722 176.674Z" fill="white"/>
<path d="M137.931 175.728C137.927 175.728 137.923 175.728 137.919 175.728L132.829 175.679C132.203 175.674 131.684 175.247 131.626 174.691L131.178 170.42C131.132 169.979 131.499 169.588 131.995 169.554C133.333 169.462 136.241 169.167 137.621 169.15C137.626 169.15 137.632 169.15 137.638 169.15C138.215 169.15 138.719 169.5 138.854 170.002C139.121 170.986 139.086 172.948 139.039 174.759C139.026 175.298 138.534 175.728 137.931 175.728Z" fill="#E5ECFD"/>
<path d="M168.968 174.37H145.282C145.123 174.37 144.946 174.248 144.89 174.099L143.893 171.458C143.837 171.311 143.918 171.192 144.074 171.192C144.076 171.192 144.078 171.192 144.079 171.192L169.551 171.615C172.368 172.709 175.389 173.281 178.456 173.281C180.036 173.281 181.628 173.129 183.209 172.818L192.392 172.993L192.396 173.141C185.05 173.29 177.032 173.602 169.794 174.213C169.509 174.237 169.233 174.29 168.968 174.37Z" fill="#E5ECFD"/>
<path d="M132.266 170.392C132.739 170.114 133.348 170.28 133.615 170.758L134.871 173.01C134.997 173.236 135.326 173.222 135.432 172.986L138.548 166.049C138.703 165.703 139.218 165.82 139.213 166.199C139.181 168.321 138.618 172.354 135.227 175.731C135.227 175.731 133.359 175.004 131.854 171.701C131.637 171.223 131.814 170.657 132.266 170.392Z" fill="url(#paint4_linear)"/>
<path d="M139.118 182.057C139.111 182.057 139.104 182.057 139.098 182.058C137.933 182.072 135.843 182.25 134.164 182.393C133.364 182.461 132.608 182.526 132.069 182.563C131.8 182.581 131.556 182.7 131.396 182.89C131.262 183.049 131.2 183.244 131.221 183.44L131.781 188.784C131.844 189.386 132.412 189.845 133.101 189.852L139.471 189.913C139.475 189.913 139.48 189.913 139.484 189.913C140.132 189.913 140.668 189.454 140.682 188.884C140.745 186.444 140.774 184.156 140.458 182.985C140.309 182.437 139.76 182.057 139.118 182.057ZM139.484 190.29C139.478 190.29 139.473 190.29 139.467 190.29L133.098 190.229C132.217 190.22 131.489 189.616 131.406 188.823L130.846 183.479C130.815 183.181 130.907 182.885 131.107 182.647C131.333 182.38 131.674 182.212 132.043 182.186C132.579 182.15 133.334 182.086 134.132 182.018C135.818 181.874 137.915 181.695 139.093 181.681C139.101 181.681 139.11 181.68 139.118 181.68C139.93 181.68 140.629 182.173 140.822 182.887C141.152 184.107 141.123 186.424 141.059 188.893C141.04 189.667 140.335 190.29 139.484 190.29Z" fill="white"/>
<path d="M138.694 189.345C138.69 189.345 138.686 189.345 138.682 189.345L133.592 189.296C132.966 189.29 132.446 188.863 132.388 188.307L131.94 184.037C131.894 183.595 132.261 183.204 132.758 183.17C134.095 183.079 137.004 182.783 138.383 182.766C138.389 182.766 138.395 182.766 138.401 182.766C138.978 182.766 139.482 183.117 139.617 183.619C139.883 184.603 139.848 186.565 139.802 188.375C139.788 188.914 139.297 189.345 138.694 189.345Z" fill="#E5ECFD"/>
<path d="M159.954 187.986H146.342C146.183 187.986 146.006 187.865 145.95 187.715L144.954 185.074C144.899 184.927 144.98 184.808 145.136 184.808C145.138 184.808 145.14 184.808 145.142 184.808L160.337 185.061C160.164 185.433 160.061 185.854 160.047 186.301L159.954 187.986Z" fill="#E5ECFD"/>
<path d="M133.029 184.008C133.502 183.731 134.11 183.896 134.378 184.375L135.634 186.627C135.76 186.852 136.088 186.838 136.194 186.603L139.31 179.665C139.466 179.319 139.981 179.436 139.975 179.816C139.944 181.938 139.381 185.971 135.99 189.347C135.99 189.347 134.122 188.621 132.617 185.317C132.399 184.84 132.577 184.274 133.029 184.008Z" fill="url(#paint5_linear)"/>
<path d="M129.822 116.707L132.499 116.646L131.413 113.877C131.364 113.754 131.309 113.609 131.249 113.442C131.189 113.275 131.13 113.093 131.071 112.897C131.022 113.096 130.973 113.281 130.924 113.452C130.876 113.624 130.828 113.774 130.78 113.903L129.822 116.707ZM135.329 119.753L134.122 119.781C133.986 119.784 133.874 119.752 133.785 119.687C133.697 119.621 133.632 119.538 133.591 119.439L132.924 117.74L129.447 117.82L128.859 119.547C128.83 119.636 128.771 119.719 128.682 119.795C128.592 119.87 128.482 119.91 128.35 119.912L127.137 119.941L130.243 111.47L131.839 111.433L135.329 119.753Z" fill="url(#paint6_linear)"/>
<path d="M137.713 115.522L138.886 115.495C139.172 115.489 139.421 115.447 139.632 115.37C139.843 115.294 140.017 115.188 140.153 115.051C140.29 114.914 140.391 114.749 140.456 114.556C140.521 114.363 140.551 114.148 140.546 113.912C140.541 113.688 140.501 113.485 140.427 113.305C140.353 113.124 140.245 112.972 140.103 112.847C139.961 112.723 139.783 112.629 139.568 112.566C139.354 112.504 139.103 112.475 138.817 112.482L137.644 112.509L137.713 115.522ZM137.741 116.741L137.808 119.697L136.246 119.732L136.055 111.337L138.789 111.274C139.351 111.261 139.837 111.316 140.251 111.438C140.664 111.56 141.007 111.737 141.28 111.967C141.552 112.197 141.756 112.475 141.891 112.801C142.026 113.127 142.099 113.486 142.108 113.876C142.117 114.283 142.058 114.657 141.93 114.999C141.802 115.34 141.605 115.636 141.34 115.886C141.075 116.136 140.74 116.334 140.337 116.479C139.934 116.623 139.459 116.702 138.914 116.714L137.741 116.741Z" fill="url(#paint7_linear)"/>
<path d="M144.971 115.356L146.144 115.329C146.43 115.323 146.679 115.281 146.89 115.204C147.101 115.128 147.275 115.022 147.411 114.885C147.548 114.748 147.649 114.583 147.714 114.39C147.779 114.197 147.809 113.982 147.804 113.746C147.798 113.522 147.759 113.319 147.685 113.139C147.612 112.958 147.503 112.806 147.361 112.681C147.219 112.557 147.04 112.463 146.826 112.4C146.612 112.338 146.361 112.309 146.075 112.316L144.902 112.343L144.971 115.356ZM144.999 116.575L145.066 119.531L143.505 119.566L143.312 111.171L146.047 111.108C146.608 111.095 147.096 111.15 147.509 111.273C147.922 111.394 148.265 111.571 148.538 111.801C148.81 112.031 149.014 112.309 149.149 112.635C149.284 112.961 149.357 113.32 149.365 113.71C149.375 114.117 149.316 114.491 149.188 114.833C149.06 115.175 148.864 115.471 148.598 115.72C148.333 115.971 147.998 116.168 147.595 116.313C147.192 116.457 146.717 116.536 146.171 116.549L144.999 116.575Z" fill="url(#paint8_linear)"/>
<path d="M152.223 114.964L153.198 114.941C153.492 114.935 153.748 114.892 153.965 114.814C154.182 114.735 154.359 114.629 154.498 114.496C154.636 114.364 154.738 114.207 154.804 114.028C154.869 113.848 154.9 113.651 154.895 113.439C154.885 113.013 154.737 112.689 154.451 112.467C154.165 112.245 153.734 112.141 153.158 112.154L152.159 112.177L152.223 114.964ZM152.248 116.084L152.323 119.365L150.762 119.4L150.569 111.005L153.13 110.946C153.703 110.933 154.195 110.981 154.606 111.09C155.017 111.199 155.356 111.356 155.622 111.563C155.888 111.77 156.085 112.02 156.214 112.314C156.343 112.607 156.411 112.932 156.419 113.287C156.426 113.57 156.39 113.838 156.313 114.092C156.235 114.345 156.12 114.577 155.968 114.785C155.816 114.994 155.627 115.178 155.4 115.338C155.174 115.499 154.914 115.628 154.622 115.728C154.822 115.836 154.996 115.992 155.144 116.198L157.316 119.251L155.911 119.283C155.776 119.285 155.66 119.261 155.564 119.209C155.468 119.157 155.386 119.081 155.318 118.982L153.491 116.334C153.423 116.236 153.349 116.165 153.269 116.125C153.189 116.084 153.071 116.065 152.916 116.069L152.248 116.084Z" fill="url(#paint9_linear)"/>
<path d="M164.39 114.889C164.38 114.428 164.309 114.016 164.179 113.653C164.049 113.291 163.866 112.984 163.632 112.734C163.398 112.483 163.116 112.294 162.785 112.166C162.455 112.038 162.085 111.979 161.675 111.988C161.265 111.998 160.897 112.074 160.571 112.217C160.245 112.36 159.97 112.562 159.745 112.822C159.521 113.083 159.351 113.398 159.235 113.767C159.12 114.135 159.067 114.55 159.078 115.01C159.088 115.471 159.159 115.883 159.292 116.246C159.424 116.608 159.608 116.914 159.844 117.162C160.081 117.411 160.364 117.599 160.697 117.727C161.029 117.855 161.4 117.914 161.81 117.905C162.221 117.895 162.587 117.819 162.911 117.676C163.236 117.533 163.509 117.332 163.731 117.073C163.954 116.815 164.122 116.501 164.236 116.133C164.349 115.764 164.401 115.35 164.39 114.889ZM165.993 114.852C166.007 115.468 165.917 116.04 165.724 116.569C165.531 117.098 165.253 117.559 164.89 117.951C164.527 118.342 164.087 118.651 163.569 118.878C163.052 119.105 162.475 119.226 161.841 119.24C161.206 119.255 160.624 119.16 160.094 118.958C159.565 118.755 159.109 118.466 158.727 118.091C158.344 117.717 158.045 117.269 157.828 116.75C157.611 116.23 157.495 115.662 157.481 115.047C157.467 114.432 157.557 113.859 157.75 113.33C157.943 112.801 158.222 112.34 158.587 111.948C158.951 111.557 159.393 111.248 159.913 111.021C160.432 110.794 161.01 110.673 161.644 110.659C162.279 110.644 162.861 110.739 163.388 110.944C163.916 111.149 164.369 111.438 164.75 111.811C165.13 112.183 165.429 112.63 165.646 113.149C165.863 113.669 165.979 114.237 165.993 114.852Z" fill="url(#paint10_linear)"/>
<path d="M165.979 110.653L167.238 110.624C167.374 110.621 167.485 110.651 167.571 110.715C167.658 110.779 167.724 110.863 167.769 110.966L169.86 116.042C169.929 116.207 169.997 116.388 170.061 116.586C170.126 116.784 170.188 116.993 170.247 117.212C170.326 116.765 170.427 116.37 170.551 116.026L172.402 110.86C172.435 110.77 172.495 110.688 172.582 110.612C172.67 110.536 172.779 110.497 172.911 110.494L174.171 110.465L170.972 118.938L169.561 118.97L165.979 110.653Z" fill="url(#paint11_linear)"/>
<path d="M180.343 110.324L180.371 111.567L176.65 111.652L176.703 113.98L179.635 113.913L179.662 115.115L176.731 115.182L176.785 117.557L180.507 117.471L180.535 118.72L175.24 118.841L175.048 110.445L180.343 110.324Z" fill="url(#paint12_linear)"/>
<path d="M187.649 114.357C187.639 113.897 187.567 113.485 187.435 113.122C187.303 112.759 187.12 112.453 186.886 112.205C186.651 111.957 186.369 111.768 186.039 111.641C185.709 111.512 185.339 111.453 184.928 111.462L183.297 111.5L183.432 117.41L185.063 117.373C185.474 117.364 185.841 117.287 186.165 117.145C186.489 117.002 186.762 116.801 186.985 116.542C187.207 116.283 187.376 115.97 187.492 115.601C187.607 115.233 187.66 114.818 187.649 114.357ZM189.246 114.321C189.26 114.936 189.17 115.504 188.977 116.023C188.784 116.543 188.505 116.992 188.142 117.372C187.779 117.752 187.339 118.051 186.821 118.268C186.303 118.485 185.727 118.601 185.092 118.616L181.887 118.689L181.695 110.293L184.9 110.22C185.535 110.205 186.116 110.296 186.643 110.491C187.17 110.686 187.624 110.964 188.004 111.326C188.384 111.687 188.683 112.122 188.9 112.632C189.116 113.142 189.232 113.705 189.246 114.321Z" fill="url(#paint13_linear)"/>
<path d="M190.358 117.705C190.355 117.585 190.374 117.47 190.417 117.361C190.458 117.252 190.518 117.157 190.596 117.078C190.674 116.999 190.766 116.935 190.873 116.886C190.981 116.837 191.096 116.811 191.22 116.808C191.34 116.806 191.455 116.826 191.564 116.87C191.674 116.914 191.768 116.974 191.847 117.049C191.926 117.125 191.99 117.217 192.039 117.324C192.088 117.432 192.114 117.545 192.116 117.665C192.12 117.789 192.099 117.904 192.055 118.012C192.011 118.12 191.951 118.213 191.875 118.292C191.8 118.371 191.708 118.434 191.601 118.481C191.494 118.528 191.38 118.553 191.26 118.556C191.136 118.559 191.02 118.539 190.91 118.497C190.801 118.455 190.705 118.396 190.624 118.32C190.543 118.245 190.479 118.155 190.432 118.049C190.385 117.944 190.36 117.829 190.358 117.705ZM190.263 113.565C190.26 113.446 190.28 113.331 190.322 113.221C190.364 113.112 190.423 113.018 190.501 112.938C190.579 112.859 190.671 112.795 190.778 112.746C190.886 112.697 191.001 112.671 191.126 112.669C191.245 112.666 191.36 112.686 191.47 112.73C191.579 112.774 191.673 112.834 191.752 112.91C191.831 112.986 191.896 113.077 191.945 113.184C191.994 113.292 192.019 113.405 192.022 113.525C192.025 113.649 192.004 113.765 191.96 113.872C191.916 113.98 191.856 114.073 191.781 114.152C191.705 114.232 191.614 114.295 191.506 114.341C191.399 114.389 191.285 114.413 191.165 114.416C191.041 114.419 190.925 114.399 190.816 114.357C190.706 114.316 190.611 114.257 190.529 114.181C190.448 114.105 190.384 114.015 190.338 113.909C190.291 113.804 190.266 113.69 190.263 113.565Z" fill="url(#paint14_linear)"/>
<path d="M161.769 88.9529C160.621 88.9529 159.691 88.0223 159.691 86.874C159.691 85.7263 160.621 84.7957 161.769 84.7957C162.917 84.7957 163.848 85.7263 163.848 86.874C163.848 88.0223 162.917 88.9529 161.769 88.9529ZM165.435 82.7839C162.781 80.9376 160.473 80.9743 158.849 81.4535C157.367 81.8909 156.407 83.3215 156.548 84.86L157.248 92.5063L165.584 93.2461C165.584 93.2461 170.64 86.4049 165.435 82.7839Z" fill="#8F89CC"/>
<path d="M157.863 86.8908C157.767 86.8908 157.684 86.8174 157.676 86.7195L157.591 85.7952C157.457 84.3351 158.375 82.9761 159.775 82.5636C160.767 82.2703 161.79 82.2282 162.815 82.4385C162.917 82.4594 162.983 82.5591 162.962 82.6611C162.941 82.7631 162.842 82.8288 162.74 82.8079C161.776 82.6103 160.814 82.6498 159.881 82.9249C158.655 83.2871 157.849 84.4797 157.966 85.7608L158.051 86.6855C158.061 86.7888 157.984 86.8809 157.881 86.8904C157.875 86.8908 157.869 86.8908 157.863 86.8908ZM158.082 89.2775C157.985 89.2775 157.903 89.204 157.894 89.1061L157.783 87.8886C157.773 87.7848 157.849 87.6927 157.953 87.6837C158.06 87.6746 158.149 87.7503 158.158 87.8541L158.27 89.0717C158.279 89.175 158.203 89.267 158.099 89.2766C158.093 89.277 158.087 89.2775 158.082 89.2775Z" fill="#91B3FA"/>
<path d="M145.871 97.4477V93.6037C145.871 92.2764 146.971 91.2134 148.298 91.2592L174.803 92.1671C175.979 92.2075 176.932 93.1358 177.002 94.3108L177.224 98.0048L145.871 97.4477Z" fill="#978EF4"/>
<path d="M155.754 92.6949H154.614C154.51 92.6949 154.426 92.6106 154.426 92.5063C154.426 92.4025 154.51 92.3177 154.614 92.3177H155.754C155.858 92.3177 155.943 92.4025 155.943 92.5063C155.943 92.6106 155.858 92.6949 155.754 92.6949Z" fill="#91B3FA"/>
<path d="M147.306 96.2284C147.202 96.2284 147.117 96.1436 147.117 96.0398V94.4845C147.117 93.2896 148.09 92.3178 149.284 92.3178H153.475C153.579 92.3178 153.663 92.4025 153.663 92.5063C153.663 92.6106 153.579 92.6949 153.475 92.6949H149.284C148.297 92.6949 147.494 93.4977 147.494 94.4845V96.0398C147.494 96.1436 147.41 96.2284 147.306 96.2284Z" fill="#91B3FA"/>
<path d="M137.566 96.0411L183.916 96.0398C185.582 96.0398 187.007 97.2392 187.291 98.881L187.331 99.1077C187.642 100.906 186.257 102.552 184.432 102.552H136.88C135.787 102.552 134.916 101.638 134.969 100.547L135.072 98.4187C135.135 97.0873 136.233 96.0411 137.566 96.0411Z" fill="#8A8CFA"/>
<path d="M212.038 205.873C212.006 205.873 211.974 205.873 211.941 205.873L189.287 205.442C190.29 204.863 190.982 203.664 190.982 202.275V192.35L192.953 192.137C193.648 192.062 194.174 191.476 194.174 190.778V173.107C191.754 173.149 189.246 173.208 186.703 173.288L186.008 182.748C185.237 182.742 184.395 182.739 183.495 182.739C178.585 182.739 171.953 182.844 165.77 183.285L166.104 178.092C166.167 176.338 167.346 174.859 168.968 174.37C169.233 174.29 169.509 174.237 169.794 174.213C177.032 173.602 185.05 173.29 192.396 173.141C193.806 173.112 195.19 173.089 196.54 173.072L209.567 173.319C209.589 173.32 209.612 173.32 209.635 173.32C210.116 173.32 210.575 173.223 210.994 173.049C211.257 173.052 211.514 173.054 211.763 173.057C211.919 173.059 212.074 173.067 212.227 173.082C214.951 173.345 217.073 175.641 217.073 178.429V200.837C217.073 203.623 214.813 205.873 212.038 205.873Z" fill="url(#paint15_linear)"/>
<path d="M211.955 180.853C211.992 182.76 211.936 185.785 211.89 187.74C211.865 188.757 210.973 189.531 209.962 189.413L202.691 188.561C201.722 188.448 201.04 187.555 201.184 186.59L202.077 180.636C202.204 179.791 202.93 179.165 203.785 179.165H210.229C211.167 179.165 211.936 179.915 211.955 180.853Z" fill="white"/>
<path d="M190.981 192.35V186.538C190.981 184.47 189.546 182.788 187.759 182.765C187.229 182.759 186.642 182.753 186.008 182.748L186.703 173.288C189.246 173.208 191.753 173.149 194.174 173.107V190.778C194.174 191.476 193.647 192.062 192.953 192.137L190.981 192.35Z" fill="url(#paint16_linear)"/>
<path d="M190.467 189.01C190.448 189.334 190.179 189.584 189.858 189.584C189.847 189.584 189.835 189.584 189.823 189.584C189.486 189.564 189.229 189.275 189.249 188.939L190.164 173.192C190.574 173.181 190.981 173.172 191.387 173.163L190.467 189.01Z" fill="white"/>
<path d="M208.592 186.537C208.698 186.537 208.788 186.454 208.795 186.347L209.109 181.386C209.117 181.275 209.032 181.178 208.919 181.171C208.801 181.162 208.711 181.249 208.704 181.361L208.389 186.321C208.382 186.433 208.467 186.53 208.579 186.537C208.584 186.537 208.588 186.537 208.592 186.537Z" fill="url(#paint17_linear)"/>
<path d="M207.945 186.537C208.055 186.537 208.145 186.45 208.149 186.341L208.314 181.285C208.317 181.173 208.229 181.079 208.117 181.076C207.988 181.069 207.911 181.16 207.907 181.272L207.742 186.327C207.739 186.439 207.827 186.534 207.939 186.537H207.945Z" fill="url(#paint18_linear)"/>
<path d="M207.107 181.279H207.111H207.107ZM207.068 186.537C206.955 186.531 206.869 186.436 206.874 186.324C206.955 184.626 207.109 181.387 207.111 181.277C207.112 181.166 207.203 181.076 207.314 181.076C207.427 181.076 207.518 181.166 207.518 181.279C207.518 181.362 207.32 185.512 207.28 186.343C207.275 186.453 207.185 186.537 207.077 186.537L207.068 186.537Z" fill="url(#paint19_linear)"/>
<path d="M205.72 186.74C205.938 186.74 206.119 186.568 206.127 186.348C206.298 181.45 206.268 181.34 206.248 181.267C206.19 181.05 205.964 180.922 205.749 180.981C205.55 181.036 205.426 181.229 205.452 181.428C205.466 181.722 205.375 184.572 205.314 186.319C205.306 186.544 205.481 186.733 205.706 186.74C205.71 186.74 205.715 186.74 205.72 186.74Z" fill="url(#paint20_linear)"/>
<path d="M204.84 186.537C204.953 186.537 205.043 186.446 205.043 186.334V181.374C205.043 181.261 204.953 181.17 204.84 181.17C204.727 181.17 204.637 181.261 204.637 181.374V186.334C204.637 186.446 204.727 186.537 204.84 186.537Z" fill="url(#paint21_linear)"/>
<path d="M204.127 186.537C204.238 186.537 204.328 186.449 204.33 186.338C204.369 184.615 204.46 181.8 204.542 181.461C204.578 181.397 204.577 181.317 204.534 181.25C204.473 181.156 204.347 181.131 204.253 181.192C204.142 181.265 204.036 181.333 203.924 186.329C203.921 186.441 204.01 186.534 204.122 186.537H204.127Z" fill="url(#paint22_linear)"/>
<path d="M209.687 186.989C209.902 186.989 210.081 186.82 210.093 186.603L210.364 181.395C210.375 181.17 210.203 180.979 209.979 180.967C209.766 180.952 209.563 181.128 209.551 181.352L209.28 186.561C209.268 186.785 209.441 186.977 209.665 186.988C209.672 186.989 209.68 186.989 209.687 186.989Z" fill="url(#paint23_linear)"/>
<path d="M187.926 205.811C187.907 205.811 187.887 205.811 187.867 205.811L167.017 205.352L162.253 205.247C160.559 205.21 159.211 203.615 159.199 201.673C159.199 201.621 159.199 201.568 159.201 201.516L159.416 197.65L159.508 195.998L159.953 187.986L160.047 186.301C160.061 185.854 160.164 185.433 160.337 185.061C160.717 184.24 161.437 183.66 162.287 183.577C163.421 183.466 164.587 183.369 165.769 183.285C171.953 182.844 178.585 182.739 183.495 182.739C184.394 182.739 185.237 182.742 186.008 182.748C186.642 182.753 187.228 182.759 187.759 182.765C189.546 182.788 190.981 184.47 190.981 186.538V192.35V202.275C190.981 203.664 190.29 204.863 189.287 205.442C188.877 205.678 188.415 205.811 187.926 205.811ZM177.083 182.801C175.615 182.83 174.093 182.871 172.549 182.928L171.745 195.599C171.709 196.161 172.096 196.63 172.57 196.63C172.6 196.63 172.631 196.628 172.661 196.624L176.343 196.165C176.764 196.112 177.083 195.7 177.083 195.21V182.801Z" fill="url(#paint24_linear)"/>
<path d="M187.876 188.24C187.899 189.58 187.864 191.704 187.836 193.077C187.821 193.791 187.28 194.335 186.666 194.252L182.253 193.653C181.665 193.574 181.251 192.947 181.339 192.269L181.881 188.088C181.958 187.494 182.398 187.055 182.917 187.055H186.828C187.398 187.055 187.865 187.581 187.876 188.24Z" fill="white"/>
<path d="M172.541 196.634V196.63H172.486V196.625H172.459V196.621H172.432V196.616H172.409V196.611H172.391V196.607H172.373V196.602H172.359V196.598H172.346V196.593H172.332V196.589H172.319V196.584H172.305V196.58H172.296V196.575H172.287V196.571H172.273V196.566H172.264V196.562H172.255V196.557H172.246V196.553H172.232V196.548H172.228V196.543H172.219V196.539H172.21V196.534H172.205V196.53H172.196V196.525H172.187V196.521H172.178V196.516H172.173V196.512H172.164V196.507H172.155V196.503H172.151V196.498H172.146V196.494H172.137V196.489H172.133V196.485H172.128V196.48H172.119V196.475H172.115V196.471H172.11V196.466H172.101V196.462H172.096V196.457H172.092V196.453H172.083V196.448H172.078V196.444H172.074V196.439H172.069V196.435H172.065V196.43H172.06V196.426H172.056V196.421H172.051V196.417H172.047V196.412H172.042V196.408H172.037V196.403H172.028V196.398H172.024V196.394H172.019V196.389H172.015V196.38H172.01V196.376H172.006V196.371H172.001V196.367H171.997V196.362H171.992V196.358H171.988V196.353H171.983V196.349H171.979V196.34H171.974V196.335H171.969V196.33H171.965V196.326H171.96V196.321H171.956V196.312H171.951V196.308H171.947V196.303H171.942V196.294H171.938V196.29H171.933V196.281H171.929V196.276H171.924V196.272H171.92V196.262H171.915V196.258H171.911V196.249H171.906V196.244H171.901V196.235H171.897V196.226H171.892V196.222H171.888V196.213H171.883V196.204H171.879V196.199H171.874V196.19H171.87V196.181H171.865V196.176H171.861V196.167H171.856V196.154H171.852V196.145H171.847V196.136H171.843V196.126H171.838V196.117H171.833V196.108H171.829V196.099H171.824V196.09H171.82V196.077H171.815V196.063H171.811V196.049H171.806V196.04H171.802V196.027H171.797V196.013H171.793V196.004H171.788V195.986H171.784V195.968H171.779V195.95H171.775V195.936H171.77V195.918H171.765V195.895H171.761V195.868H171.756V195.841H171.752V195.818H171.747V195.768H171.743V195.705H171.738V195.691H171.743V195.555H171.747V195.483H171.752V195.41H171.756V195.342H171.761V195.27H171.765V195.197H171.77V195.125H171.775V195.057H171.779V194.984H171.784V194.912H171.788V194.839H171.793V194.771H171.797V194.699H171.802V194.626H171.806V194.554H171.811V194.486H171.815V194.413H171.82V194.34H171.824V194.268H171.829V194.2H171.833V194.127H171.838V194.055H171.843V193.982H171.847V193.914H171.852V193.842H171.856V193.769H171.861V193.697H171.865V193.629H171.87V193.556H171.874V193.484H171.879V193.411H171.883V193.343H171.888V193.271H171.892V193.198H171.897V193.126H171.901V193.058H171.906V192.985H171.911V192.913H171.915V192.84H171.92V192.772H171.924V192.699H171.929V192.627H171.933V192.554H171.938V192.486H171.942V192.414H171.947V192.341H171.951V192.269H171.956V192.201H171.96V192.128H171.965V192.056H171.969V191.983H171.974V191.915H171.979V191.843H171.983V191.77H171.988V191.698H171.992V191.63H171.997V191.557H172.001V191.485H172.006V191.412H172.01V191.344H172.015V191.272H172.019V191.199H172.024V191.127H172.028V191.059H172.033V190.986H172.037V190.913H172.042V190.841H172.047V190.773H172.051V190.7H172.056V190.628H172.06V190.555H172.065V190.487H172.069V190.415H172.074V190.342H172.078V190.27H172.083V190.202H172.087V190.129H172.092V190.057H172.096V189.984H172.101V189.916H172.105V189.844H172.11V189.771H172.115V189.699H172.119V189.631H172.124V189.558H172.128V189.486H172.133V189.413H172.137V189.345H172.142V189.273H172.146V189.2H172.151V189.127H172.155V189.059H172.16V188.987H172.164V188.914H172.169V188.842H172.173V188.774H172.178V188.701H172.183V188.629H172.187V188.556H172.192V188.488H172.196V188.416H172.201V188.343H172.205V188.271H172.21V188.203H172.214V188.13H172.219V188.058H172.223V187.985H172.228V187.917H172.232V187.845H172.237V187.772H172.241V187.7H172.246V187.632H172.251V187.559H172.255V187.487H172.26V187.419H172.264V187.346H172.269V187.273H172.273V187.201H172.278V187.133H172.282V187.06H172.287V186.988H172.291V186.915H172.296V186.847H172.3V186.775H172.305V186.702H172.309V186.63H172.314V186.562H172.319V186.489H172.323V186.417H172.328V186.344H172.332V186.276H172.337V186.204H172.341V186.131H172.346V186.059H172.35V185.991H172.355V185.918H172.359V185.846H172.364V185.773H172.368V185.705H172.373V185.633H172.377V185.56H172.382V185.487H172.387V185.419H172.391V185.347H172.396V185.274H172.4V185.202H172.405V185.134H172.409V185.061H172.414V184.989H172.418V184.916H172.423V184.848H172.427V184.776H172.432V184.703H172.436V184.631H172.441V184.563H172.445V184.49H172.45V184.418H172.454V184.345H172.459V184.277H172.464V184.205H172.468V184.132H172.473V184.06H172.477V183.992H172.482V183.919H172.486V183.847H172.491V183.774H172.495V183.706H172.5V183.633H172.504V183.561H172.509V183.488H172.513V183.42H172.518V183.348H172.522V183.275H172.527V183.203H172.532V183.135H172.536V183.062H172.541V182.99H172.545V182.926H172.586V182.922H172.708V182.917H172.831V182.913H172.967V182.908H173.103V182.904H173.234V182.899H173.37V182.895H173.506V182.89H173.642V182.886H173.783V182.881H173.937V182.876H174.086V182.872H174.241V182.867H174.39V182.863H174.54V182.858H174.694V182.854H174.843V182.849H175.02V182.845H175.197V182.84H175.374V182.836H175.551V182.831H175.727V182.827H175.904V182.822H176.095V182.818H176.298V182.813H176.502V182.808H176.706V182.804H176.92V182.799H177.087V195.252H177.083V195.32H177.078V195.356H177.074V195.392H177.069V195.415H177.065V195.437H177.06V195.456H177.056V195.478H177.051V195.496H177.046V195.51H177.042V195.524H177.037V195.542H177.033V195.555H177.028V195.569H177.024V195.582H177.019V195.592H177.015V195.605H177.01V195.619H177.006V195.628H177.001V195.641H176.997V195.65H176.992V195.66H176.988V195.669H176.983V195.678H176.978V195.687H176.974V195.696H176.969V195.705H176.965V195.714H176.96V195.723H176.956V195.732H176.951V195.741H176.947V195.746H176.942V195.755H176.938V195.764H176.933V195.768H176.929V195.777H176.924V195.786H176.92V195.791H176.915V195.8H176.91V195.805H176.906V195.809H176.901V195.818H176.897V195.823H176.892V195.832H176.888V195.836H176.883V195.841H176.879V195.85H176.874V195.854H176.87V195.859H176.865V195.868H176.861V195.873H176.856V195.877H176.852V195.882H176.847V195.886H176.842V195.891H176.838V195.9H176.833V195.904H176.829V195.909H176.824V195.913H176.82V195.918H176.815V195.922H176.811V195.927H176.806V195.932H176.802V195.936H176.797V195.941H176.793V195.945H176.788V195.95H176.784V195.954H176.779V195.959H176.774V195.963H176.77V195.968H176.765V195.972H176.761V195.977H176.756V195.981H176.747V195.986H176.743V195.99H176.738V195.995H176.734V196H176.729V196.004H176.72V196.009H176.716V196.013H176.711V196.018H176.706V196.022H176.697V196.027H176.693V196.031H176.684V196.036H176.679V196.04H176.67V196.045H176.666V196.049H176.657V196.054H176.652V196.058H176.643V196.063H176.638V196.068H176.629V196.072H176.62V196.077H176.611V196.081H176.602V196.086H176.593V196.09H176.584V196.095H176.58V196.099H176.57V196.104H176.557V196.108H176.548V196.113H176.534V196.117H176.525V196.122H176.516V196.126H176.502V196.131H176.489V196.136H176.475V196.14H176.457V196.145H176.444V196.149H176.43V196.154H176.407V196.158H176.385V196.163H176.362V196.167H176.321V196.172H176.285V196.176H176.249V196.181H176.212V196.185H176.176V196.19H176.14V196.194H176.104V196.199H176.067V196.204H176.031V196.208H175.995V196.213H175.959V196.217H175.922V196.222H175.886V196.226H175.85V196.231H175.813V196.235H175.777V196.24H175.741V196.244H175.705V196.249H175.668V196.253H175.632V196.258H175.596V196.262H175.56V196.267H175.523V196.272H175.487V196.276H175.451V196.281H175.415V196.285H175.378V196.29H175.342V196.294H175.306V196.299H175.27V196.303H175.233V196.308H175.197V196.312H175.161V196.317H175.124V196.321H175.088V196.326H175.052V196.33H175.016V196.335H174.979V196.34H174.943V196.344H174.907V196.349H174.871V196.353H174.834V196.358H174.798V196.362H174.762V196.367H174.726V196.371H174.689V196.376H174.653V196.38H174.617V196.385H174.58V196.389H174.544V196.394H174.508V196.398H174.472V196.403H174.435V196.408H174.399V196.412H174.363V196.417H174.327V196.421H174.29V196.426H174.254V196.43H174.218V196.435H174.182V196.439H174.145V196.444H174.109V196.448H174.073V196.453H174.037V196.457H174V196.462H173.964V196.466H173.928V196.471H173.891V196.475H173.855V196.48H173.819V196.485H173.783V196.489H173.746V196.494H173.71V196.498H173.674V196.503H173.638V196.507H173.601V196.512H173.565V196.516H173.529V196.521H173.493V196.525H173.456V196.53H173.42V196.534H173.384V196.539H173.348V196.543H173.311V196.548H173.275V196.553H173.239V196.557H173.202V196.562H173.166V196.566H173.13V196.571H173.094V196.575H173.057V196.58H173.021V196.584H172.985V196.589H172.949V196.593H172.912V196.598H172.876V196.602H172.84V196.607H172.804V196.611H172.767V196.616H172.726V196.621H172.695V196.625H172.654V196.63H172.6V196.634" fill="url(#paint25_linear)"/>
<path d="M174.834 193.968C174.822 194.196 174.659 194.372 174.464 194.372C174.457 194.372 174.45 194.372 174.443 194.371C174.239 194.358 174.083 194.155 174.094 193.919L174.65 182.86C174.899 182.852 175.146 182.846 175.392 182.84L174.834 193.968Z" fill="white"/>
<path d="M185.835 192.232C185.9 192.232 185.954 192.174 185.958 192.098L186.149 188.615C186.154 188.536 186.102 188.468 186.034 188.463C185.962 188.457 185.907 188.518 185.903 188.597L185.712 192.08C185.708 192.159 185.759 192.227 185.827 192.232L185.835 192.232Z" fill="url(#paint26_linear)"/>
<path d="M185.442 192.232C185.508 192.232 185.563 192.171 185.565 192.094L185.665 188.544C185.667 188.465 185.614 188.399 185.546 188.396C185.468 188.392 185.421 188.456 185.419 188.535L185.318 192.084C185.316 192.163 185.37 192.229 185.438 192.232H185.442Z" fill="url(#paint27_linear)"/>
<path d="M184.933 188.539H184.935H184.933ZM184.909 192.232C184.841 192.228 184.788 192.161 184.791 192.083C184.84 190.89 184.933 188.615 184.935 188.538C184.935 188.46 184.991 188.396 185.058 188.396C185.127 188.396 185.182 188.46 185.182 188.539C185.182 188.598 185.062 191.512 185.038 192.096C185.035 192.173 184.98 192.232 184.914 192.232L184.909 192.232Z" fill="url(#paint28_linear)"/>
<path d="M184.093 192.375C184.225 192.375 184.334 192.254 184.339 192.099C184.444 188.66 184.425 188.582 184.413 188.531C184.378 188.378 184.241 188.289 184.11 188.33C183.99 188.369 183.914 188.504 183.93 188.644C183.938 188.851 183.883 190.852 183.846 192.079C183.841 192.237 183.948 192.369 184.084 192.375L184.093 192.375Z" fill="url(#paint29_linear)"/>
<path d="M183.557 192.232C183.625 192.232 183.681 192.168 183.681 192.089V188.606C183.681 188.527 183.625 188.463 183.557 188.463C183.489 188.463 183.434 188.527 183.434 188.606V192.089C183.434 192.168 183.489 192.232 183.557 192.232Z" fill="url(#paint30_linear)"/>
<path d="M183.126 192.232C183.192 192.232 183.248 192.17 183.249 192.093C183.273 190.882 183.328 188.905 183.377 188.667C183.399 188.623 183.399 188.566 183.373 188.519C183.335 188.453 183.259 188.435 183.202 188.478C183.134 188.53 183.07 188.578 183.002 192.086C183.001 192.165 183.055 192.23 183.123 192.232H183.126Z" fill="url(#paint31_linear)"/>
<path d="M186.499 192.549C186.629 192.549 186.739 192.431 186.745 192.278L186.91 188.621C186.917 188.463 186.813 188.329 186.676 188.321C186.547 188.31 186.424 188.434 186.417 188.591L186.252 192.249C186.245 192.406 186.35 192.54 186.486 192.549C186.49 192.549 186.495 192.549 186.499 192.549Z" fill="url(#paint32_linear)"/>
<path d="M200.507 150.265L199.787 136.281C200.076 136.753 200.35 137.238 200.608 137.737C201.123 138.728 201.56 139.739 201.923 140.763L202.412 150.252C201.793 150.255 201.157 150.259 200.507 150.265Z" fill="#A0B3F7"/>
<path d="M190.053 133.416H160.336C161.218 132.4 162.192 131.447 163.251 130.571L189.982 131.035C190.141 131.038 190.275 131.17 190.28 131.329L190.334 133.127C190.339 133.286 190.212 133.416 190.053 133.416Z" fill="#ECF1FE"/>
<path d="M190.053 147.067H154.435C154.534 146.061 154.697 145.063 154.921 144.077L189.982 144.686C190.141 144.689 190.275 144.821 190.28 144.98L190.334 146.778C190.339 146.937 190.212 147.067 190.053 147.067Z" fill="#ECF1FE"/>
<path d="M176.931 160.719H157.173C157.111 160.603 157.05 160.488 156.989 160.371C156.542 159.508 156.152 158.63 155.819 157.741L177.099 158.105L176.931 160.719Z" fill="#ECF1FE"/>
<path d="M178.456 173.281C175.389 173.281 172.368 172.709 169.551 171.615L177.496 171.747C178.127 172.356 178.981 172.738 179.929 172.756L183.209 172.818C181.628 173.129 180.036 173.281 178.456 173.281Z" fill="#ECF1FE"/>
<path d="M134.782 204.867C133.462 205.051 132.543 204.709 132.051 203.852C131.549 202.98 131.68 201.859 132.378 201.064L135.963 196.979C135.985 196.954 136.023 196.952 136.047 196.973C136.072 196.995 136.075 197.032 136.053 197.057L132.467 201.142C131.803 201.899 131.677 202.964 132.153 203.793C132.625 204.612 133.513 204.933 134.807 204.743H134.807C134.839 204.738 134.869 204.761 134.874 204.793C134.879 204.825 134.856 204.856 134.824 204.86C134.81 204.863 134.796 204.864 134.782 204.867Z" fill="#91B3FA"/>
<path d="M137.121 195.818C137.105 195.82 137.087 195.816 137.074 195.804C137.049 195.782 137.047 195.744 137.069 195.72L137.533 195.19C137.555 195.165 137.592 195.163 137.617 195.185C137.642 195.206 137.644 195.244 137.623 195.268L137.158 195.798C137.148 195.809 137.135 195.816 137.121 195.818Z" fill="#91B3FA"/>
<path d="M122.615 152.293C122.615 152.293 122.615 160.552 118.994 159.879C116.782 159.467 115.473 150.571 115.473 150.571C115.473 150.571 117.762 145.472 118.017 147.141C119.875 159.272 121.259 149.988 122.615 152.293Z" fill="url(#paint33_linear)"/>
<path d="M112.891 201.313C112.891 201.313 112.618 202.861 112.484 204.393C112.431 204.992 112.893 205.512 113.493 205.537C115.534 205.622 119.898 205.787 121.464 205.717C121.699 205.707 121.854 205.465 121.766 205.246C121.693 205.063 121.553 204.915 121.373 204.832L114.164 201.519L112.891 201.313Z" fill="url(#paint34_linear)"/>
<path d="M112.667 200.404L112.887 202.255C112.887 202.255 114.15 202.843 115.012 202.181L114.489 200.118L112.667 200.404Z" fill="url(#paint35_linear)"/>
<path d="M112.832 165.598C112.737 166.082 112.323 189.725 114.85 200.319C114.891 200.492 114.803 200.67 114.639 200.738C114.251 200.896 113.491 201.125 112.581 201.156C112.299 201.165 112.046 200.982 111.966 200.711C111.244 198.253 107.782 185.937 107.331 174.172C106.826 161.025 107.331 173.724 107.331 173.724L107.627 165.598L112.832 165.598Z" fill="url(#paint36_linear)"/>
<path d="M104.598 202.12C104.598 202.12 104.163 202.902 103.742 204.978C103.666 205.353 103.928 205.712 104.308 205.75C104.982 205.816 106.019 205.901 106.85 205.895C107.233 205.892 107.532 205.559 107.486 205.179C107.394 204.421 107.107 203.178 106.221 202.208L104.598 202.12Z" fill="url(#paint37_linear)"/>
<path d="M104.216 199.739L104.729 202.539C104.729 202.539 105.237 202.917 106.24 202.643L105.995 199.631L104.216 199.739Z" fill="url(#paint38_linear)"/>
<path d="M102.83 166.324C100.763 178.798 103.278 197.154 104.126 200.747C104.178 200.967 104.356 201.136 104.579 201.173C104.958 201.235 105.581 201.287 106.196 201.108C106.407 201.047 106.556 200.855 106.565 200.635C106.679 197.73 106.474 179.899 108.4 172.851C108.497 172.495 108.715 172.183 109.017 171.968L112.755 169.311L113.042 165.016L102.83 166.324Z" fill="url(#paint39_linear)"/>
<path d="M116.228 143.16C108.68 142.405 102.971 144.315 102.971 144.315C101.125 155.088 102.648 167.515 102.648 167.515C107.444 168.772 112.853 166.745 112.853 166.745C113.65 162.243 116.971 151.845 116.971 151.845C118.484 151.657 119.904 152.421 119.578 150.321C119.251 148.22 117.178 143.255 116.228 143.16Z" fill="url(#paint40_linear)"/>
<path d="M105.347 150.313L102.971 144.315C102.971 144.315 97.1859 148.246 96.2344 153.23C97.3276 153.311 99.3168 153.595 101.264 154.578C101.692 152.225 105.347 150.313 105.347 150.313Z" fill="url(#paint41_linear)"/>
<path d="M110.906 155.956C110.906 155.956 104.223 159.617 102.031 156.483C101.576 155.832 101.167 154.968 101.279 154.351C99.3319 153.367 97.3273 153.311 96.234 153.23C95.9472 154.733 96.0942 156.009 97.1912 158.062C100.125 163.555 111.766 157.558 111.766 157.558L110.906 155.956Z" fill="url(#paint42_linear)"/>
<path d="M111.21 158.361L114.049 148.446C114.081 148.334 114.177 148.251 114.293 148.238C114.808 148.178 116.298 148.009 118.019 147.864C120.092 147.688 122.499 147.547 123.938 147.668C124.142 147.685 124.266 147.901 124.175 148.085C123.357 149.74 119.992 156.472 118.307 158.677C118.251 158.75 118.165 158.793 118.073 158.792L111.486 158.731C111.294 158.729 111.157 158.545 111.21 158.361Z" fill="url(#paint43_linear)"/>
<path d="M118.419 147.016L120.44 146.679C120.548 146.661 120.636 146.764 120.602 146.868L120.402 147.474C120.384 147.527 120.338 147.565 120.283 147.572L118.338 147.832C118.238 147.845 118.155 147.754 118.178 147.655L118.301 147.126C118.315 147.069 118.361 147.025 118.419 147.016Z" fill="#91B3FA"/>
<path d="M116.906 148.727L117.072 147.859C117.089 147.772 117.161 147.707 117.249 147.698L121.332 147.284C121.469 147.27 121.579 147.396 121.546 147.53L121.287 148.611C121.266 148.697 121.191 148.76 121.102 148.764L117.113 148.965C116.983 148.971 116.882 148.854 116.906 148.727Z" fill="#7D97F4"/>
<path d="M111.485 157.624C111.201 157.651 110.944 157.452 110.886 157.172C110.753 156.534 110.547 155.368 110.688 154.858C110.887 154.138 111.273 153.212 112.56 153.417C113.846 153.623 115.364 154.165 115.364 154.165C115.364 154.165 115.287 155.104 114.309 154.801L114.916 155.27C114.916 155.27 114.829 156.022 114.003 155.62L114.567 156.242C114.567 156.242 114.212 156.859 113.605 156.464C113.062 156.11 112.771 157.499 111.485 157.624Z" fill="url(#paint44_linear)"/>
<path d="M120.904 154.468C120.904 154.468 122.401 153.009 122.616 152.293C122.83 151.577 122.995 150.587 121.795 150.078C120.596 149.569 119.022 149.222 119.022 149.222C119.022 149.222 118.588 150.058 119.578 150.321L118.815 150.396C118.815 150.396 118.489 151.079 119.402 151.178L118.594 151.405C118.594 151.405 118.567 152.116 119.292 152.104C120.017 152.091 119.315 153.759 120.904 154.468Z" fill="url(#paint45_linear)"/>
<path d="M110 138.429L108.029 144.129C107.996 144.223 108.035 144.328 108.123 144.376C108.66 144.673 110.595 145.532 112.928 144.053C113.171 143.899 113.336 143.648 113.373 143.362L114.012 138.429H110Z" fill="url(#paint46_linear)"/>
<path d="M115.885 137.019C115.885 137.019 115.248 141.588 114.058 142.757C112.868 143.928 110.765 142.259 109.652 139.802L110.907 135.28L115.885 137.019Z" fill="url(#paint47_linear)"/>
<path d="M111.003 138.113C111.105 138.135 111.202 138.061 111.207 137.958C111.222 137.641 111.276 137.013 111.469 136.569C111.469 136.569 111.3 136.139 112.611 136.681C113.922 137.222 115.888 138.014 116.927 137.317C117.94 136.637 118.732 133.656 115.955 134.477C115.849 134.508 115.741 134.432 115.738 134.323C115.725 133.847 115.567 132.767 114.433 132.531C113.371 132.31 112.855 132.832 112.652 133.136C112.592 133.225 112.465 133.236 112.391 133.158C112.042 132.787 111.118 132.017 109.942 132.686C108.973 133.236 108.879 133.877 108.936 134.265C108.954 134.39 108.835 134.489 108.715 134.448C108.39 134.337 107.882 134.313 107.465 134.962C106.888 135.859 107.907 136.482 108.21 136.641C108.26 136.667 108.294 136.715 108.3 136.771C108.347 137.202 108.606 139.076 109.657 140.041C109.748 140.124 109.897 140.082 109.932 139.964L110.482 138.16C110.507 138.076 110.592 138.026 110.678 138.044L111.003 138.113Z" fill="url(#paint48_linear)"/>
<path d="M111.055 138.463C111.055 138.463 110.427 136.703 109.813 137.358C109.2 138.013 110.181 139.216 110.977 139.384L111.055 138.463Z" fill="url(#paint49_linear)"/>
<defs>
<linearGradient id="paint0_linear" x1="114.126" y1="187.114" x2="124.057" y2="148.744" gradientUnits="userSpaceOnUse">
<stop stop-color="#4F52FF"/>
<stop offset="1" stop-color="#4042E2"/>
</linearGradient>
<linearGradient id="paint1_linear" x1="150.968" y1="103.027" x2="118.444" y2="158.538" gradientUnits="userSpaceOnUse">
<stop stop-color="#FE7062"/>
<stop offset="1" stop-color="#FF928E"/>
</linearGradient>
<linearGradient id="paint2_linear" x1="156.923" y1="106.516" x2="124.398" y2="162.027" gradientUnits="userSpaceOnUse">
<stop stop-color="#FE7062"/>
<stop offset="1" stop-color="#FF928E"/>
</linearGradient>
<linearGradient id="paint3_linear" x1="161.929" y1="120.2" x2="119.134" y2="179.868" gradientUnits="userSpaceOnUse">
<stop stop-color="#FE7062"/>
<stop offset="1" stop-color="#FF928E"/>
</linearGradient>
<linearGradient id="paint4_linear" x1="168.831" y1="113.493" x2="136.307" y2="169.004" gradientUnits="userSpaceOnUse">
<stop stop-color="#FE7062"/>
<stop offset="1" stop-color="#FF928E"/>
</linearGradient>
<linearGradient id="paint5_linear" x1="169.594" y1="127.109" x2="137.07" y2="182.62" gradientUnits="userSpaceOnUse">
<stop stop-color="#FE7062"/>
<stop offset="1" stop-color="#FF928E"/>
</linearGradient>
<linearGradient id="paint6_linear" x1="157.666" y1="86.9516" x2="120.191" y2="130.119" gradientUnits="userSpaceOnUse">
<stop stop-color="#E1473D"/>
<stop offset="1" stop-color="#E9605A"/>
</linearGradient>
<linearGradient id="paint7_linear" x1="160.051" y1="89.0232" x2="122.577" y2="132.191" gradientUnits="userSpaceOnUse">
<stop stop-color="#E1473D"/>
<stop offset="1" stop-color="#E9605A"/>
</linearGradient>
<linearGradient id="paint8_linear" x1="164.108" y1="92.5444" x2="126.634" y2="135.712" gradientUnits="userSpaceOnUse">
<stop stop-color="#E1473D"/>
<stop offset="1" stop-color="#E9605A"/>
</linearGradient>
<linearGradient id="paint9_linear" x1="169.491" y1="97.2178" x2="132.016" y2="140.386" gradientUnits="userSpaceOnUse">
<stop stop-color="#E1473D"/>
<stop offset="1" stop-color="#E9605A"/>
</linearGradient>
<linearGradient id="paint10_linear" x1="173.847" y1="101.001" x2="136.373" y2="144.169" gradientUnits="userSpaceOnUse">
<stop stop-color="#E1473D"/>
<stop offset="1" stop-color="#E9605A"/>
</linearGradient>
<linearGradient id="paint11_linear" x1="177.612" y1="104.27" x2="140.138" y2="147.438" gradientUnits="userSpaceOnUse">
<stop stop-color="#E1473D"/>
<stop offset="1" stop-color="#E9605A"/>
</linearGradient>
<linearGradient id="paint12_linear" x1="182.82" y1="108.79" x2="145.346" y2="151.958" gradientUnits="userSpaceOnUse">
<stop stop-color="#E1473D"/>
<stop offset="1" stop-color="#E9605A"/>
</linearGradient>
<linearGradient id="paint13_linear" x1="186.514" y1="111.998" x2="149.04" y2="155.166" gradientUnits="userSpaceOnUse">
<stop stop-color="#E1473D"/>
<stop offset="1" stop-color="#E9605A"/>
</linearGradient>
<linearGradient id="paint14_linear" x1="190.97" y1="115.867" x2="153.495" y2="159.035" gradientUnits="userSpaceOnUse">
<stop stop-color="#E1473D"/>
<stop offset="1" stop-color="#E9605A"/>
</linearGradient>
<linearGradient id="paint15_linear" x1="201.124" y1="170.58" x2="189.614" y2="193.601" gradientUnits="userSpaceOnUse">
<stop stop-color="#FF928E"/>
<stop offset="1" stop-color="#FE7062"/>
</linearGradient>
<linearGradient id="paint16_linear" x1="201.124" y1="170.58" x2="189.614" y2="193.601" gradientUnits="userSpaceOnUse">
<stop stop-color="#FFBAB8"/>
<stop offset="1" stop-color="#FEA59C"/>
</linearGradient>
<linearGradient id="paint17_linear" x1="206.29" y1="180.281" x2="219.306" y2="199.195" gradientUnits="userSpaceOnUse">
<stop stop-color="#09005D"/>
<stop offset="1" stop-color="#1A0F91"/>
</linearGradient>
<linearGradient id="paint18_linear" x1="205.823" y1="180.603" x2="218.84" y2="199.517" gradientUnits="userSpaceOnUse">
<stop stop-color="#09005D"/>
<stop offset="1" stop-color="#1A0F91"/>
</linearGradient>
<linearGradient id="paint19_linear" x1="205.259" y1="180.991" x2="218.275" y2="199.905" gradientUnits="userSpaceOnUse">
<stop stop-color="#09005D"/>
<stop offset="1" stop-color="#1A0F91"/>
</linearGradient>
<linearGradient id="paint20_linear" x1="204.281" y1="181.664" x2="217.297" y2="200.577" gradientUnits="userSpaceOnUse">
<stop stop-color="#09005D"/>
<stop offset="1" stop-color="#1A0F91"/>
</linearGradient>
<linearGradient id="paint21_linear" x1="203.638" y1="182.107" x2="216.654" y2="201.021" gradientUnits="userSpaceOnUse">
<stop stop-color="#09005D"/>
<stop offset="1" stop-color="#1A0F91"/>
</linearGradient>
<linearGradient id="paint22_linear" x1="203.237" y1="182.382" x2="216.253" y2="201.296" gradientUnits="userSpaceOnUse">
<stop stop-color="#09005D"/>
<stop offset="1" stop-color="#1A0F91"/>
</linearGradient>
<linearGradient id="paint23_linear" x1="206.961" y1="179.82" x2="219.977" y2="198.734" gradientUnits="userSpaceOnUse">
<stop stop-color="#B7B0FA"/>
<stop offset="1" stop-color="#1A0F91"/>
</linearGradient>
<linearGradient id="paint24_linear" x1="185.292" y1="184.896" x2="160.014" y2="209.723" gradientUnits="userSpaceOnUse">
<stop stop-color="#FF928E"/>
<stop offset="1" stop-color="#FE7062"/>
</linearGradient>
<linearGradient id="paint25_linear" x1="185.292" y1="184.896" x2="160.014" y2="209.723" gradientUnits="userSpaceOnUse">
<stop stop-color="#FFBAB8"/>
<stop offset="1" stop-color="#FEA59C"/>
</linearGradient>
<linearGradient id="paint26_linear" x1="184.201" y1="187.834" x2="193.357" y2="201.139" gradientUnits="userSpaceOnUse">
<stop stop-color="#09005D"/>
<stop offset="1" stop-color="#1A0F91"/>
</linearGradient>
<linearGradient id="paint27_linear" x1="183.945" y1="188.067" x2="193.077" y2="201.336" gradientUnits="userSpaceOnUse">
<stop stop-color="#09005D"/>
<stop offset="1" stop-color="#1A0F91"/>
</linearGradient>
<linearGradient id="paint28_linear" x1="183.626" y1="188.337" x2="192.769" y2="201.624" gradientUnits="userSpaceOnUse">
<stop stop-color="#09005D"/>
<stop offset="1" stop-color="#1A0F91"/>
</linearGradient>
<linearGradient id="paint29_linear" x1="183.081" y1="188.817" x2="192.177" y2="202.036" gradientUnits="userSpaceOnUse">
<stop stop-color="#09005D"/>
<stop offset="1" stop-color="#1A0F91"/>
</linearGradient>
<linearGradient id="paint30_linear" x1="182.716" y1="189.125" x2="191.822" y2="202.358" gradientUnits="userSpaceOnUse">
<stop stop-color="#09005D"/>
<stop offset="1" stop-color="#1A0F91"/>
</linearGradient>
<linearGradient id="paint31_linear" x1="182.489" y1="189.314" x2="191.632" y2="202.6" gradientUnits="userSpaceOnUse">
<stop stop-color="#09005D"/>
<stop offset="1" stop-color="#1A0F91"/>
</linearGradient>
<linearGradient id="paint32_linear" x1="184.577" y1="187.522" x2="193.695" y2="200.771" gradientUnits="userSpaceOnUse">
<stop stop-color="#09005D"/>
<stop offset="1" stop-color="#1A0F91"/>
</linearGradient>
<linearGradient id="paint33_linear" x1="115.473" y1="153.362" x2="122.615" y2="153.362" gradientUnits="userSpaceOnUse">
<stop stop-color="#FEBBBA"/>
<stop offset="1" stop-color="#FF928E"/>
</linearGradient>
<linearGradient id="paint34_linear" x1="116.98" y1="187.852" x2="117.168" y2="208.559" gradientUnits="userSpaceOnUse">
<stop stop-color="#09005D"/>
<stop offset="1" stop-color="#1A0F91"/>
</linearGradient>
<linearGradient id="paint35_linear" x1="112.667" y1="201.307" x2="115.012" y2="201.307" gradientUnits="userSpaceOnUse">
<stop stop-color="#FEBBBA"/>
<stop offset="1" stop-color="#FF928E"/>
</linearGradient>
<linearGradient id="paint36_linear" x1="110.017" y1="210.229" x2="111.618" y2="167.285" gradientUnits="userSpaceOnUse">
<stop stop-color="#09005D"/>
<stop offset="1" stop-color="#1A0F91"/>
</linearGradient>
<linearGradient id="paint37_linear" x1="105.453" y1="187.957" x2="105.641" y2="208.664" gradientUnits="userSpaceOnUse">
<stop stop-color="#09005D"/>
<stop offset="1" stop-color="#1A0F91"/>
</linearGradient>
<linearGradient id="paint38_linear" x1="104.216" y1="201.187" x2="106.24" y2="201.187" gradientUnits="userSpaceOnUse">
<stop stop-color="#FEBBBA"/>
<stop offset="1" stop-color="#FF928E"/>
</linearGradient>
<linearGradient id="paint39_linear" x1="106.06" y1="210.082" x2="107.66" y2="167.138" gradientUnits="userSpaceOnUse">
<stop stop-color="#09005D"/>
<stop offset="1" stop-color="#1A0F91"/>
</linearGradient>
<linearGradient id="paint40_linear" x1="101.066" y1="217.525" x2="103.774" y2="199.018" gradientUnits="userSpaceOnUse">
<stop stop-color="#FF928E"/>
<stop offset="1" stop-color="#FE7062"/>
</linearGradient>
<linearGradient id="paint41_linear" x1="91.3758" y1="216.107" x2="94.0842" y2="197.6" gradientUnits="userSpaceOnUse">
<stop stop-color="#FF928E"/>
<stop offset="1" stop-color="#FE7062"/>
</linearGradient>
<linearGradient id="paint42_linear" x1="96.1064" y1="156.804" x2="111.766" y2="156.804" gradientUnits="userSpaceOnUse">
<stop stop-color="#FEBBBA"/>
<stop offset="1" stop-color="#FF928E"/>
</linearGradient>
<linearGradient id="paint43_linear" x1="130.579" y1="131.535" x2="125.664" y2="139.058" gradientUnits="userSpaceOnUse">
<stop stop-color="#09005D"/>
<stop offset="1" stop-color="#1A0F91"/>
</linearGradient>
<linearGradient id="paint44_linear" x1="110.641" y1="155.507" x2="115.364" y2="155.507" gradientUnits="userSpaceOnUse">
<stop stop-color="#FEBBBA"/>
<stop offset="1" stop-color="#FF928E"/>
</linearGradient>
<linearGradient id="paint45_linear" x1="122.309" y1="152.871" x2="118.308" y2="150.362" gradientUnits="userSpaceOnUse">
<stop stop-color="#FEBBBA"/>
<stop offset="1" stop-color="#FF928E"/>
</linearGradient>
<linearGradient id="paint46_linear" x1="108.018" y1="141.662" x2="114.012" y2="141.662" gradientUnits="userSpaceOnUse">
<stop stop-color="#FEBBBA"/>
<stop offset="1" stop-color="#FF928E"/>
</linearGradient>
<linearGradient id="paint47_linear" x1="114.06" y1="141.497" x2="111.081" y2="134.376" gradientUnits="userSpaceOnUse">
<stop stop-color="#FEBBBA"/>
<stop offset="1" stop-color="#FF928E"/>
</linearGradient>
<linearGradient id="paint48_linear" x1="110.741" y1="128.898" x2="113.692" y2="139.338" gradientUnits="userSpaceOnUse">
<stop stop-color="#09005D"/>
<stop offset="1" stop-color="#1A0F91"/>
</linearGradient>
<linearGradient id="paint49_linear" x1="111.779" y1="141.696" x2="109.098" y2="135.289" gradientUnits="userSpaceOnUse">
<stop stop-color="#FEBBBA"/>
<stop offset="1" stop-color="#FF928E"/>
</linearGradient>
</defs>
</svg>
