<svg width="312" height="282" viewBox="0 0 312 282" fill="none" xmlns="http://www.w3.org/2000/svg">
<rect width="312" height="282" fill="#FAFFF8"/>
<path d="M243.319 203.661L169.232 203.68L153.016 203.684L147.654 203.685L131.468 203.69L70.7463 203.977C70.7068 203.85 70.668 203.724 70.6309 203.599C64.0581 181.746 84.0087 182.018 89.5197 175.227C91.4821 172.81 91.6143 169.496 88.07 163.972C88.0533 163.946 88.0359 163.92 88.0192 163.894C85.905 160.585 84.3664 157.336 83.3488 154.163C81.2156 147.516 81.3645 141.2 83.2834 135.364C84.7378 130.94 87.2104 126.79 90.4774 122.981C91.7495 121.498 93.1429 120.066 94.6444 118.689C124.797 91.0322 198.327 85.7897 208.502 134.113C214.271 161.51 223.396 145.659 242.163 165.122C248.359 171.548 250.449 178.089 250.517 183.916C250.65 195.11 243.319 203.661 243.319 203.661Z" fill="#EBF3FA"/>
<path d="M153.362 128.94C153.155 130.438 152.794 132.023 152.263 133.7C151.282 136.81 149.724 140.233 147.501 143.989C147.033 144.78 146.636 145.526 146.307 146.235L83.3493 154.163C81.2161 147.516 81.365 141.2 83.2839 135.364L151.082 117.112C152.218 118.858 153.003 120.844 153.36 123.09C153.643 124.873 153.656 126.819 153.362 128.94Z" fill="#F1F7FD"/>
<path d="M243.319 203.661L169.232 203.68L153.016 203.684L147.654 203.685L131.468 203.69L70.7463 203.977C70.7068 203.85 70.668 203.724 70.6309 203.599C64.0581 181.746 84.0087 182.018 89.5197 175.227C91.4821 172.81 91.6143 169.496 88.07 163.972C88.0533 163.946 88.0359 163.92 88.0192 163.894C107.37 155.923 107.299 156.778 127.93 160.229C153.391 164.487 174.347 169.433 184.725 164.063C195.103 158.693 217.475 162.57 223.626 170.305C229.778 178.039 228.411 185.703 234.791 185.06C239.342 184.602 245.053 182.379 250.517 183.916C250.65 195.11 243.319 203.661 243.319 203.661Z" fill="#DFEBFD"/>
<path d="M253.573 203.86H59.2387C59.1074 203.86 59 203.753 59 203.622V203.494C59 203.363 59.1074 203.255 59.2387 203.255H253.573C253.703 203.255 253.812 203.363 253.812 203.494V203.622C253.812 203.753 253.703 203.86 253.573 203.86Z" fill="#2E3552"/>
<path d="M115.231 114.815L90.4775 122.982C91.7496 121.498 93.1431 120.066 94.6445 118.689L115.231 114.815Z" fill="#F1F7FD"/>
<path d="M113.621 120.648C113.621 119.758 114.343 119.037 115.233 119.037C116.123 119.037 116.844 119.758 116.844 120.648C116.844 121.538 116.123 122.26 115.233 122.26C114.343 122.26 113.621 121.538 113.621 120.648Z" fill="#F8FBFF"/>
<path d="M123.771 166.321C123.771 166.321 114.978 164.871 109.008 169.774C103.039 174.677 106.566 183.055 101.637 184.139C94.5314 185.703 78.1881 187.946 79.8934 203.31C80.0659 204.863 129.776 203.31 129.776 203.31L127.644 170.212L123.771 166.321Z" fill="#BDE5B3"/>
<path d="M195.518 177.449C195.518 177.449 206.019 175.531 213.31 181.5C220.602 187.47 217.278 192.373 221.184 193.652C225.09 194.931 230.612 197.434 229.374 203.751H194.084L195.518 177.449Z" fill="#82B378"/>
<path d="M238.859 203.255H234.115C233.861 203.04 234.291 202.55 234.74 202.517C234.936 202.502 235.182 202.543 235.465 202.602C235.53 201.736 235.903 197.837 237.308 197.994C238.888 198.169 237.308 199.711 236.861 200.623C236.53 201.299 236.181 202.269 236.022 202.726C236.15 202.754 236.283 202.781 236.418 202.806C236.628 202.163 237.407 200 238.398 200.126C239.562 200.273 239.094 201.141 238.27 201.656C237.665 202.034 236.922 202.572 236.568 202.832C236.868 202.881 237.18 202.914 237.497 202.907C238.309 202.887 238.706 203.127 238.859 203.255Z" fill="#82B378"/>
<path d="M123.774 199.061H207.406V83.8775H123.774V199.061Z" fill="#CDE0FB"/>
<path d="M208.508 139.886H122.67V136.191H208.508V139.886Z" fill="#AFCDFB"/>
<path d="M172.802 130.316H195.647V99.9487H172.802V130.316Z" fill="#E6F0FD"/>
<path d="M195.09 100.506V129.759H173.359V100.506H195.09Z" fill="#DFEBFD"/>
<path d="M178.527 100.21V108.541C178.527 108.614 178.526 108.686 178.524 108.756C178.51 109.405 178.433 109.905 178.342 109.905H178.315C178.23 109.905 178.158 109.474 178.137 108.894C178.135 108.846 178.133 108.798 178.132 108.748V108.737C178.131 108.673 178.131 108.608 178.131 108.541V100.171C178.264 100.181 178.396 100.194 178.527 100.21Z" fill="#AFCDFB"/>
<path d="M178.226 108.851C176.783 108.851 175.613 110.088 175.613 111.614H180.837C180.837 110.088 179.668 108.851 178.226 108.851Z" fill="#AFCDFB"/>
<path d="M178.434 108.885C178.359 108.869 178.282 108.86 178.204 108.86C177.264 108.86 176.502 110.093 176.502 111.614H176.961C176.961 110.219 177.602 109.067 178.434 108.885Z" fill="#CDE0FB"/>
<path d="M177.785 120.783C177.785 120.783 176.499 119.282 177.706 118.329C177.706 118.329 178.588 117.795 179.307 117.838C179.307 117.838 178.289 119.547 178.618 119.717C178.947 119.887 179.616 117.731 179.616 117.731C179.616 117.731 181.622 117.537 182.268 117.847C182.268 117.847 180.552 119.251 180.914 119.334C181.275 119.418 183.128 118.04 183.128 118.04C183.128 118.04 184.995 118.358 184.895 119.497C184.796 120.637 184.153 120.988 183.87 120.958C183.587 120.928 181.932 120.296 181.897 120.528C181.861 120.76 182.857 121.517 183.554 121.552C183.554 121.552 182.237 123.005 181.362 122.585C180.487 122.166 180.412 121.502 179.867 121.253C179.322 121.004 178.856 121.005 179.081 121.258C179.306 121.513 180.293 121.759 180.605 122.311C180.917 122.863 181.197 123.235 180.292 123.099C179.386 122.963 177.914 122.301 177.85 121.542C177.785 120.783 177.785 120.783 177.785 120.783Z" fill="#82B378"/>
<path d="M183.978 119.528C183.978 119.528 178.905 119.333 177.785 120.783C177.785 120.783 177.538 121.525 176.775 122.201L176.656 122.525C176.656 122.525 177.535 121.598 177.85 121.542C177.85 121.542 177.358 119.744 183.978 119.528Z" fill="#82B378"/>
<path d="M176.776 122.201C176.776 122.201 175.687 123.006 175.611 124.445L175.809 124.463C175.809 124.463 176.157 122.975 176.785 122.393C177.414 121.811 176.776 122.201 176.776 122.201Z" fill="#82B378"/>
<path d="M174.483 120.963C174.483 120.963 174.483 120.963 174.203 121.563C174.19 121.59 174.177 121.619 174.163 121.649L174.162 121.65C174.042 121.909 173.738 122.087 173.359 122.197V117.278C173.634 117.397 173.819 117.485 173.819 117.485C173.819 117.485 173.705 119.728 174.071 119.682C174.437 119.636 174.071 117.692 174.071 117.692C174.757 117.898 175.398 118.698 175.398 118.698C176.199 120.003 174.483 120.963 174.483 120.963Z" fill="#A8D29F"/>
<path d="M174.941 122.634V122.978C174.941 122.978 174.935 122.964 174.924 122.939L174.922 122.936C174.908 122.901 174.893 122.868 174.877 122.835C174.874 122.827 174.87 122.819 174.866 122.81L174.858 122.792C174.827 122.726 174.789 122.646 174.747 122.559L174.746 122.556C174.574 122.204 174.327 121.747 174.162 121.65L174.163 121.649C174.167 121.643 174.186 121.614 174.203 121.563C174.271 121.361 174.322 120.809 173.359 119.973V119.675C173.914 120.077 174.34 120.514 174.483 120.963C174.483 120.963 174.46 121.74 174.939 122.632L174.941 122.634Z" fill="#82B378"/>
<path d="M174.94 122.634C174.94 122.634 175.682 123.759 175.259 125.129L175.069 125.078C175.069 125.078 175.254 123.569 174.866 122.81C174.478 122.052 174.94 122.634 174.94 122.634Z" fill="#82B378"/>
<path d="M176.538 118.516C176.538 118.516 174.276 117.249 175.331 115.53C175.331 115.53 176.176 114.474 177.081 114.202C177.081 114.202 176.598 116.766 177.081 116.826C177.563 116.887 177.412 113.931 177.412 113.931C177.412 113.931 179.796 112.785 180.731 112.875C180.731 112.875 179.253 115.379 179.735 115.319C180.218 115.258 181.877 112.724 181.877 112.724C181.877 112.724 184.32 112.272 184.712 113.72C185.104 115.168 184.471 115.891 184.109 115.982C183.747 116.073 181.424 116.042 181.485 116.344C181.545 116.646 183.114 117.128 183.988 116.857C183.988 116.857 183.023 119.239 181.756 119.119C180.489 118.998 180.097 118.214 179.313 118.153C178.529 118.094 177.955 118.304 178.347 118.516C178.74 118.727 180.067 118.585 180.701 119.124C181.334 119.662 181.847 119.994 180.67 120.235C179.494 120.476 177.383 120.325 176.96 119.421C176.538 118.516 176.538 118.516 176.538 118.516Z" fill="#A8D29F"/>
<path d="M183.595 114.172C183.595 114.172 177.262 116.224 176.537 118.516C176.537 118.516 176.568 119.541 175.934 120.718V121.17C175.934 121.17 176.597 119.632 176.96 119.421C176.96 119.421 175.542 117.43 183.595 114.172Z" fill="#82B378"/>
<path d="M175.934 120.718C175.934 120.718 174.957 122.201 175.514 124.007L175.766 123.939C175.766 123.939 175.521 121.951 176.033 120.95C176.544 119.95 175.934 120.718 175.934 120.718Z" fill="#82B378"/>
<path d="M190.208 125.114C190.208 125.114 193.556 111.473 193.798 110.326C193.905 109.815 194.237 109.631 194.571 109.583C193.983 109.522 193.554 109.519 193.554 109.519C192.396 109.519 191.367 110.347 190.995 111.58C190.183 114.268 187.041 118.767 185.528 123.817C185.605 123.814 190.208 125.114 190.208 125.114Z" fill="#F99746"/>
<path d="M173.359 129.759V127.202C173.967 126.029 174.581 124.967 175.111 124.135C175.193 124.007 175.272 123.885 175.349 123.769V123.769C175.374 123.73 175.399 123.694 175.424 123.657V123.656C175.525 123.505 175.622 123.364 175.714 123.236V123.235C175.856 123.037 175.985 122.867 176.098 122.728C176.258 122.534 176.463 122.379 176.704 122.259L176.704 122.259C176.725 122.248 176.745 122.238 176.765 122.229C176.855 122.187 176.95 122.15 177.049 122.116C177.059 122.112 177.07 122.109 177.08 122.105H177.081C177.359 122.014 177.668 121.956 177.999 121.924H178C178.722 121.854 179.546 121.909 180.361 122.027H180.362C180.466 122.042 180.571 122.057 180.674 122.074C181.126 122.147 181.572 122.238 181.99 122.334L181.995 122.335C182.148 122.37 182.298 122.406 182.442 122.441C182.453 122.444 182.464 122.447 182.475 122.45H182.476C182.526 122.462 182.577 122.476 182.627 122.488C182.852 122.546 183.065 122.603 183.262 122.658C184.08 122.889 184.623 123.082 184.623 123.082L184.626 123.192L184.636 123.604L184.642 123.807L184.656 124.401L184.657 124.427L184.659 124.509L184.672 125.026L184.673 125.068L184.792 129.759H173.359Z" fill="#F99746"/>
<path d="M189.15 124.895C189.08 124.861 188.977 124.809 188.843 124.745H188.842C188.816 124.732 188.79 124.72 188.763 124.707L188.762 124.707C188.689 124.672 188.609 124.634 188.522 124.594C188.416 124.544 188.299 124.49 188.173 124.433C187.999 124.353 187.809 124.268 187.604 124.178C187.544 124.152 187.483 124.126 187.42 124.098H187.419C187.36 124.073 187.3 124.047 187.239 124.021L187.237 124.021C186.998 123.919 186.744 123.814 186.478 123.708L186.477 123.707C186.229 123.607 185.97 123.506 185.702 123.408L185.66 123.391C184.917 123.115 184.117 122.848 183.319 122.634C183.068 122.567 182.819 122.505 182.57 122.451H182.57C182.536 122.443 182.502 122.435 182.468 122.428H182.468L182.462 122.427H182.461C182.305 122.392 182.149 122.362 181.995 122.335L181.991 122.334C181.574 122.259 181.168 122.206 180.781 122.184C180.689 122.178 180.598 122.175 180.508 122.173C179.797 122.157 179.164 122.252 178.669 122.503C178.331 122.675 178.058 122.92 177.869 123.252C177.675 123.594 177.412 124.142 177.115 124.834C176.565 126.115 175.896 127.888 175.323 129.759H188.817L188.851 129.378L188.852 129.377L188.92 128.624L189.251 124.957L189.252 124.946C189.252 124.946 189.217 124.928 189.15 124.895Z" fill="#DB6F26"/>
<path d="M195.091 109.569V129.759H194.307C193.75 129.681 193.196 129.595 192.656 129.503H192.655C191.735 129.345 190.86 129.167 190.099 128.973C189.875 128.915 189.661 128.857 189.458 128.796C189.336 128.76 189.218 128.723 189.105 128.686C189.042 128.666 188.98 128.645 188.92 128.624C188.071 128.327 187.521 128.002 187.453 127.655C187.392 127.338 187.543 126.585 187.834 125.561L187.835 125.559C187.886 125.374 187.944 125.179 188.005 124.976C188.033 124.883 188.063 124.788 188.092 124.691C188.104 124.655 188.116 124.617 188.127 124.58L188.141 124.533C188.152 124.5 188.163 124.466 188.173 124.433C188.176 124.424 188.179 124.416 188.181 124.408V124.407C188.25 124.19 188.322 123.968 188.397 123.738C188.506 123.412 188.619 123.074 188.739 122.727C188.894 122.273 189.059 121.805 189.23 121.327C189.28 121.187 189.329 121.048 189.38 120.907C189.56 120.409 189.745 119.905 189.932 119.398C190.415 118.097 190.915 116.789 191.379 115.593C191.519 115.234 191.655 114.885 191.788 114.549L191.788 114.547C191.879 114.313 191.969 114.086 192.056 113.866C192.31 113.222 192.489 112.605 192.657 112.047V112.046C192.908 111.212 193.133 110.515 193.543 110.075C193.781 109.818 194.082 109.649 194.488 109.591C194.512 109.588 194.536 109.585 194.561 109.582H194.562H194.564C194.643 109.574 194.724 109.569 194.81 109.569H195.091Z" fill="#FFA969"/>
<path d="M192.655 129.503H192.654L191.294 125.022L191.272 124.949C191.272 124.949 191.119 124.933 190.844 124.908C190.689 124.894 190.496 124.877 190.27 124.858C189.909 124.827 189.464 124.791 188.957 124.753H188.956C188.942 124.752 188.928 124.751 188.913 124.749H188.912C188.89 124.748 188.865 124.746 188.842 124.745H188.841C188.746 124.737 188.649 124.73 188.55 124.723H188.549C188.504 124.72 188.459 124.717 188.413 124.714C188.308 124.706 188.2 124.699 188.091 124.691C187.325 124.639 186.466 124.588 185.566 124.546C185.345 124.536 185.121 124.527 184.896 124.518C184.817 124.515 184.738 124.512 184.658 124.509C184.121 124.49 183.576 124.474 183.033 124.466H183.033C182.297 124.454 181.568 124.454 180.869 124.469H180.868C180.813 124.471 180.759 124.473 180.703 124.474C180.356 124.483 180.018 124.497 179.691 124.515C179.071 124.55 178.493 124.602 177.979 124.675C177.665 124.72 177.375 124.773 177.114 124.834C176.521 124.974 176.081 125.161 175.855 125.404C175.365 125.932 175.008 127.623 174.75 129.759H192.732L192.655 129.503Z" fill="#FFA969"/>
<path d="M187.629 116.203C187.629 116.203 186.859 116.477 186.251 117.709C185.644 118.941 185.393 122.258 185.092 122.289C184.792 122.321 182.508 121.877 182.508 121.877L182.561 122.445C182.561 122.445 184.936 124.026 185.433 123.742C185.928 123.458 187.299 119.627 187.388 119.047C187.476 118.467 187.629 116.203 187.629 116.203Z" fill="#FFB27D"/>
<path d="M192.935 115.775C192.935 115.775 189.845 115.12 187.629 116.203C187.629 116.203 186.209 119.261 186.253 119.78C186.297 120.298 186.79 122.46 186.342 123.276C185.895 124.092 190.452 125.541 191.273 125.037C192.094 124.532 193.069 116.337 192.935 115.775Z" fill="white"/>
<path d="M181.85 128.14C181.642 128.624 181.365 129.172 181.054 129.759H176.854C177.335 127.246 177.765 125.497 177.98 124.675C178.072 124.323 178.124 124.141 178.124 124.141C178.328 123.779 178.574 123.579 178.842 123.501L178.846 123.499C179.411 123.337 180.073 123.715 180.664 124.267C180.733 124.332 180.802 124.4 180.869 124.469H180.87C181.093 124.7 181.302 124.952 181.487 125.201C181.909 125.769 182.202 126.328 182.242 126.613C182.291 126.954 182.133 127.487 181.85 128.14Z" fill="#163560"/>
<path d="M178.814 123.515C178.814 123.515 179.76 122.973 181.907 123.439C184.054 123.906 185.811 125.021 185.811 125.021L180.335 125.248L178.814 123.515Z" fill="#163560"/>
<path d="M192.079 115.767C192.079 115.767 193.449 115.516 193.639 116.631C193.83 117.747 193.662 124.482 192.612 124.822C191.563 125.161 187.258 123.267 187.258 123.267L187.388 122.547C187.388 122.547 191.506 123.108 191.655 123.046C191.803 122.984 192.079 115.767 192.079 115.767Z" fill="#FFB27D"/>
<path d="M181.486 120.844L181.291 119.047L183.831 122.394C183.831 122.394 182.768 122.924 182.705 122.823C182.642 122.721 181.486 120.844 181.486 120.844Z" fill="#B5453C"/>
<path d="M185.287 120.844L187.633 124.427H183.693L181.486 120.844H185.287Z" fill="#B5453C"/>
<path d="M181.486 120.844L181.302 119.065L182.629 120.726L181.486 120.844Z" fill="white"/>
<path d="M187.514 124.242L187.693 124.114L185.362 120.648L185.287 120.844L187.514 124.242Z" fill="#EFDECE"/>
<path d="M185.362 120.648L181.649 120.753L181.486 120.844H185.287L185.362 120.648Z" fill="#FCECDB"/>
<path d="M186.607 129.759H182.406C182.203 129.181 182.017 128.639 181.85 128.14C181.427 126.876 181.118 125.88 180.922 125.224C180.818 124.874 180.745 124.62 180.704 124.474C180.676 124.378 180.663 124.328 180.663 124.328C180.663 124.308 180.663 124.287 180.664 124.267C180.67 123.8 180.83 123.49 181.089 123.299C181.103 123.289 181.117 123.28 181.131 123.271L181.131 123.27C181.558 122.987 182.224 123 182.911 123.156H182.911C183.525 123.295 184.154 123.548 184.642 123.807C185.038 124.017 185.34 124.231 185.466 124.389C185.475 124.401 185.485 124.413 185.494 124.427C185.518 124.462 185.543 124.502 185.567 124.546C185.63 124.662 185.692 124.809 185.751 124.984C185.755 124.992 185.758 125.001 185.76 125.009L185.765 125.023C186.001 125.729 186.213 126.854 186.396 128.134V128.135C186.472 128.656 186.542 129.204 186.607 129.759Z" fill="#1C468A"/>
<path d="M181.131 123.271C181.131 123.271 182.757 121.811 189.392 124.955L183.943 125.037L181.131 123.271Z" fill="#1C468A"/>
<path d="M187.388 122.547C187.388 122.547 186.784 122.143 186.562 122.112C186.3 122.075 186.02 121.747 186.048 121.933C186.076 122.121 186.364 122.363 186.444 122.441C186.524 122.52 185.992 122.506 185.778 122.403C185.678 122.353 185.144 122.215 185.147 122.407C185.149 122.523 185.359 123.077 185.887 123.197C186.13 123.251 187.302 123.285 187.302 123.285L187.388 122.547Z" fill="#FFB27D"/>
<path d="M190.143 112.64C190.143 112.64 191.294 113.27 190.407 114.528C190.407 114.528 191.407 114.673 191.668 114.391C191.668 114.391 191.626 114.517 191.58 114.577C191.58 114.577 192.555 114.477 192.915 114.118C193.273 113.76 192.325 108.828 189.707 109.757C189.707 109.757 187.399 109.903 187.979 112.516C188.559 115.13 187.697 115.25 187.697 115.25C187.697 115.25 187.953 115.334 188.069 115.319C188.069 115.319 188.229 115.23 188.25 115.132C188.25 115.132 188.237 115.284 188.2 115.337C188.2 115.337 189.143 115.295 189.559 114.879C189.975 114.463 190.352 113.166 190.143 112.64Z" fill="#233862"/>
<path d="M190.549 113.954C190.549 113.954 191.176 113.071 191.356 112.297C191.484 111.744 192.181 109.473 190.088 109.661C190.088 109.661 188.609 109.878 188.021 110.231C187.554 110.512 186.869 111.135 187.502 112.978L187.658 113.597L190.549 113.954Z" fill="#233862"/>
<path d="M189.2 116.607C189.355 116.721 190.039 116.861 190.585 116.59C191.1 116.336 191.335 115.785 191.258 115.559C191.18 115.334 190.942 115.258 190.683 113.898L190.582 113.939L188.9 114.626C188.9 114.626 189.047 115.169 189.15 115.688C189.236 116.122 189.109 116.541 189.2 116.607Z" fill="#FFB27D"/>
<path d="M188.9 114.626C188.9 114.626 189.047 115.169 189.15 115.688C190.123 115.469 190.467 114.475 190.582 113.939L188.9 114.626Z" fill="#ED975D"/>
<path d="M188.67 115.181C188.67 115.181 190.994 114.767 190.714 113.324C190.434 111.881 190.545 110.856 189.05 111.059C187.555 111.262 187.374 111.869 187.35 112.373C187.327 112.878 188.059 115.252 188.67 115.181Z" fill="#FFB27D"/>
<path d="M188.043 110.717C188.043 110.717 189.187 112.645 190.314 112.774C191.441 112.903 191.701 112.411 191.701 112.411C191.701 112.411 190.774 111.864 190.44 110.731C190.44 110.731 188.453 109.742 188.043 110.717Z" fill="#233862"/>
<path d="M188.24 110.846C188.24 110.846 187.77 111.343 187.697 111.771C187.625 112.2 187.685 113.053 187.434 113.059C187.434 113.059 186.721 111.847 187.22 111.036C187.75 110.176 188.24 110.846 188.24 110.846Z" fill="#233862"/>
<path d="M188.15 110.924C188.15 110.924 188.931 112.836 190.392 113.279C190.392 113.279 188.85 112.253 188.551 110.961C188.253 109.669 188.15 110.924 188.15 110.924Z" fill="#233862"/>
<path d="M192.914 114.119C192.556 114.477 191.58 114.578 191.58 114.578C191.626 114.517 191.667 114.392 191.667 114.392C191.156 114.783 189.937 114.454 189.937 114.454C190.922 114.266 190.645 112.844 190.314 112.774C190.15 111.703 189.803 110.366 189.639 109.765C189.682 109.759 189.707 109.758 189.707 109.758C192.325 108.828 193.273 113.76 192.914 114.119Z" fill="#233862"/>
<path d="M191.632 115.649C191.632 115.649 193.142 115.671 193.539 115.997C193.935 116.323 194.119 120.986 194.119 120.986C194.119 120.986 193.403 120.794 192.761 120.941C192.119 121.089 191.272 120.941 191.272 120.941L191.632 115.649Z" fill="white"/>
<path d="M189.08 115.733C189.08 115.733 187.177 116.114 186.742 116.619C186.308 117.125 185.433 119.667 185.433 119.667C185.433 119.667 185.77 119.719 185.944 119.954C186.118 120.189 186.687 120.078 186.687 120.078L189.08 115.733Z" fill="white"/>
<path d="M185.609 129.759C185.87 129.193 186.135 128.648 186.396 128.135V128.134C186.916 127.112 187.418 126.222 187.833 125.561L187.834 125.559C187.973 125.336 188.103 125.139 188.22 124.973C188.273 124.897 188.324 124.829 188.371 124.766C188.384 124.748 188.398 124.731 188.413 124.714C188.42 124.704 188.427 124.696 188.436 124.686C188.452 124.667 188.468 124.648 188.487 124.63C188.498 124.618 188.509 124.606 188.522 124.594C188.53 124.585 188.539 124.576 188.548 124.568C188.763 124.363 189.035 124.21 189.347 124.101C189.693 123.982 190.086 123.915 190.508 123.888C190.914 123.862 191.345 123.874 191.781 123.909H191.781C192.222 123.946 192.667 124.009 193.096 124.085C193.243 124.112 193.388 124.139 193.53 124.168L193.536 124.169H193.539C194.121 124.287 194.657 124.424 195.09 124.544V129.759H185.609Z" fill="#F99746"/>
<path d="M188.716 129.759C188.761 129.632 188.806 129.503 188.851 129.378L188.852 129.377C188.936 129.141 189.021 128.91 189.105 128.686C189.343 128.052 189.577 127.468 189.793 126.956C190.114 126.2 190.398 125.603 190.604 125.239C190.623 125.205 190.643 125.172 190.665 125.14C190.718 125.057 190.778 124.98 190.844 124.908C190.925 124.819 191.015 124.739 191.113 124.667C191.267 124.553 191.442 124.459 191.634 124.385C192.046 124.226 192.535 124.156 193.073 124.154C193.222 124.154 193.375 124.159 193.53 124.168L193.536 124.169H193.539C193.797 124.185 194.062 124.213 194.334 124.253C194.38 124.259 194.425 124.266 194.471 124.274C194.481 124.276 194.492 124.277 194.505 124.28C194.698 124.311 194.893 124.347 195.09 124.388V129.759H188.716Z" fill="#ED7D2B"/>
<path d="M173.373 107.12H195.103V129.749H173.373V107.12ZM173.373 100.496H195.103V105.867H173.373V100.496ZM196.707 129.749H196.218V99.3816H172.258V105.867V107.12V129.749H171.769C170.546 129.749 169.556 130.74 169.556 131.963V132.04H198.921V131.963C198.921 130.74 197.93 129.749 196.707 129.749Z" fill="#8FB7EF"/>
<path d="M194.776 102.033H173.767V100.976H194.776V102.033Z" fill="white"/>
<path d="M194.776 103.693H173.767V102.636H194.776V103.693Z" fill="white"/>
<path d="M194.776 105.352H173.767V104.296H194.776V105.352Z" fill="white"/>
<path d="M194.776 106.906H173.767V105.849H194.776V106.906Z" fill="white"/>
<path d="M194.776 108.654H173.767V107.597H194.776V108.654Z" fill="white"/>
<path d="M174.945 109.511H174.742V100.479H174.945V109.511Z" fill="white"/>
<path d="M193.923 109.511H193.72V100.479H193.923V109.511Z" fill="white"/>
<path d="M196.149 152.752V183.12H173.304V152.752H196.149Z" fill="#F9DDBF"/>
<path d="M185.169 153.299C185.169 153.299 185.224 162.273 176.121 169.859C176.121 169.859 178.017 179.75 177.747 182.553H173.373V153.299H185.169Z" fill="white"/>
<path d="M185.964 168.586C185.964 168.586 185.019 168.69 184.463 169.627C183.908 170.565 182.832 174.62 182.045 175.448C181.259 176.275 178.486 177.931 178.486 177.931L179.19 178.386C179.19 178.386 183.411 177.103 184.031 176.358C184.652 175.613 185.529 171.62 185.529 171.62L185.964 168.586Z" fill="#FFB27D"/>
<path d="M186.897 162.879C186.897 162.879 186.951 161.543 188.875 161.46C190.799 161.377 192.184 162.999 192.247 163.884C192.31 164.771 191.916 166.148 193.179 167.063C194.441 167.977 193.82 172.234 190.84 172.234C187.861 172.234 186.086 172.06 186.075 170.522C186.063 168.985 186.015 167.59 187.199 167.163C188.382 166.736 186.897 162.879 186.897 162.879Z" fill="#233862"/>
<path d="M190.15 179.987C190.15 179.987 190.146 179.999 190.139 180.022C190.136 180.032 190.133 180.042 190.129 180.054C190.121 180.081 190.11 180.115 190.098 180.157C190.094 180.166 190.091 180.177 190.088 180.188C190.077 180.222 190.066 180.26 190.053 180.302C190.045 180.327 190.038 180.354 190.029 180.382C189.961 180.604 189.87 180.912 189.76 181.283C189.733 181.378 189.703 181.479 189.673 181.583C189.658 181.634 189.642 181.687 189.627 181.741C189.621 181.759 189.616 181.777 189.611 181.796C189.6 181.833 189.59 181.869 189.579 181.907C189.567 181.949 189.555 181.991 189.542 182.036C189.513 182.136 189.484 182.24 189.453 182.345C189.383 182.592 189.31 182.852 189.236 183.12H184.735C184.746 182.838 184.759 182.571 184.776 182.321C184.779 182.263 184.783 182.206 184.787 182.149C184.806 181.868 184.828 181.608 184.85 181.373C184.857 181.311 184.862 181.25 184.868 181.191C184.881 181.072 184.893 180.96 184.906 180.854C184.908 180.835 184.91 180.816 184.913 180.797C184.915 180.778 184.917 180.759 184.92 180.74C184.934 180.628 184.947 180.526 184.96 180.432C184.965 180.401 184.97 180.371 184.973 180.341C184.977 180.313 184.982 180.284 184.986 180.257C184.99 180.229 184.994 180.204 184.998 180.179C185.001 180.154 185.005 180.131 185.009 180.107C185.011 180.096 185.012 180.085 185.015 180.074C185.02 180.041 185.025 180.011 185.029 179.983C185.033 179.964 185.036 179.946 185.039 179.93C185.042 179.914 185.045 179.898 185.047 179.884C185.058 179.826 185.076 179.771 185.101 179.722C185.107 179.71 185.114 179.697 185.121 179.686C185.128 179.674 185.135 179.662 185.143 179.651C185.159 179.628 185.177 179.606 185.197 179.585C185.205 179.576 185.215 179.567 185.224 179.558C185.234 179.548 185.244 179.539 185.255 179.53C185.264 179.523 185.271 179.517 185.28 179.511C185.295 179.499 185.309 179.488 185.325 179.478C185.335 179.471 185.345 179.465 185.356 179.458C185.379 179.445 185.402 179.432 185.426 179.421C185.439 179.415 185.452 179.409 185.465 179.403C185.48 179.396 185.495 179.39 185.511 179.384C185.526 179.378 185.541 179.373 185.556 179.367C185.57 179.362 185.585 179.357 185.6 179.353C185.651 179.336 185.705 179.322 185.762 179.311C185.775 179.308 185.789 179.305 185.803 179.303C185.824 179.298 185.845 179.294 185.866 179.291C185.895 179.287 185.924 179.283 185.954 179.279C185.973 179.276 185.992 179.274 186.013 179.273C186.028 179.271 186.045 179.269 186.061 179.268C186.088 179.266 186.116 179.263 186.144 179.262C186.177 179.26 186.211 179.259 186.245 179.257C186.402 179.252 186.569 179.255 186.742 179.266C186.781 179.269 186.821 179.272 186.861 179.275C186.928 179.28 186.994 179.287 187.061 179.294C187.158 179.304 187.256 179.315 187.355 179.329H187.355C187.364 179.33 187.373 179.332 187.383 179.333C187.429 179.339 187.474 179.346 187.52 179.353C187.659 179.374 187.797 179.399 187.935 179.424C187.989 179.434 188.044 179.445 188.098 179.456L188.247 179.486C188.386 179.515 188.523 179.546 188.655 179.577C188.705 179.588 188.753 179.6 188.802 179.612C188.814 179.614 188.826 179.617 188.839 179.621C188.863 179.626 188.886 179.632 188.909 179.638C188.944 179.647 188.978 179.655 189.012 179.664C189.068 179.679 189.123 179.693 189.176 179.706C189.197 179.711 189.218 179.717 189.239 179.722C189.272 179.731 189.305 179.74 189.337 179.749C189.425 179.772 189.507 179.795 189.583 179.817C189.618 179.827 189.652 179.837 189.684 179.846C189.712 179.854 189.738 179.861 189.764 179.869L189.776 179.872C189.798 179.879 189.82 179.886 189.84 179.891C189.86 179.897 189.879 179.903 189.897 179.908C189.919 179.915 189.94 179.921 189.96 179.928C189.973 179.931 189.986 179.935 189.998 179.939C190.012 179.943 190.025 179.947 190.037 179.951C190.11 179.973 190.15 179.987 190.15 179.987Z" fill="#1C468A"/>
<path d="M190.15 179.987C190.15 179.987 190.146 179.999 190.139 180.022C190.136 180.032 190.133 180.042 190.129 180.054C190.121 180.081 190.11 180.115 190.098 180.157C190.094 180.166 190.091 180.177 190.088 180.188C190.077 180.222 190.066 180.26 190.053 180.302C190.045 180.327 190.038 180.354 190.029 180.382C189.961 180.604 189.87 180.912 189.76 181.283C189.733 181.378 189.703 181.479 189.673 181.583C189.658 181.634 189.642 181.687 189.627 181.741C189.621 181.759 189.616 181.777 189.611 181.796C189.6 181.833 189.59 181.869 189.579 181.907C189.567 181.949 189.555 181.991 189.542 182.036C189.513 182.136 189.484 182.24 189.453 182.345C189.383 182.592 189.31 182.852 189.236 183.12H184.735C184.746 182.838 184.759 182.571 184.776 182.321C184.779 182.263 184.783 182.206 184.787 182.149C184.806 181.868 184.828 181.608 184.85 181.373C184.857 181.311 184.862 181.25 184.868 181.191C184.881 181.072 184.893 180.96 184.906 180.854C184.908 180.835 184.91 180.816 184.913 180.797C184.915 180.778 184.917 180.759 184.92 180.74C184.934 180.628 184.947 180.526 184.96 180.432C184.965 180.401 184.97 180.371 184.973 180.341C184.977 180.313 184.982 180.284 184.986 180.257C184.99 180.229 184.994 180.204 184.998 180.179C185.001 180.154 185.005 180.131 185.009 180.107C185.011 180.096 185.012 180.085 185.015 180.074C185.02 180.041 185.025 180.011 185.029 179.983C185.033 179.964 185.036 179.946 185.039 179.93C185.042 179.914 185.045 179.898 185.047 179.884C185.058 179.826 185.076 179.771 185.101 179.722C185.107 179.71 185.114 179.697 185.121 179.686C185.128 179.674 185.135 179.662 185.143 179.651C185.159 179.628 185.177 179.606 185.197 179.585C185.205 179.576 185.215 179.567 185.224 179.558C185.234 179.548 185.244 179.539 185.255 179.53C185.264 179.523 185.271 179.517 185.28 179.511C185.295 179.499 185.309 179.488 185.325 179.478C185.335 179.471 185.345 179.465 185.356 179.458C185.379 179.445 185.402 179.432 185.426 179.421C185.439 179.415 185.452 179.409 185.465 179.403C185.48 179.396 185.495 179.39 185.511 179.384C185.526 179.378 185.541 179.373 185.556 179.367C185.57 179.362 185.585 179.357 185.6 179.353C185.651 179.336 185.705 179.322 185.762 179.311C185.775 179.308 185.789 179.305 185.803 179.303C185.824 179.298 185.845 179.294 185.866 179.291C185.895 179.287 185.924 179.283 185.954 179.279C185.973 179.276 185.992 179.274 186.013 179.273C186.028 179.271 186.045 179.269 186.061 179.268C186.088 179.266 186.116 179.263 186.144 179.262C186.177 179.26 186.211 179.259 186.245 179.257C186.402 179.252 186.569 179.255 186.742 179.266C186.781 179.269 186.821 179.272 186.861 179.275C186.928 179.28 186.994 179.287 187.061 179.294C187.158 179.304 187.256 179.315 187.355 179.329H187.355C187.364 179.33 187.373 179.332 187.383 179.333C187.429 179.339 187.474 179.346 187.52 179.353C187.659 179.374 187.797 179.399 187.935 179.424C187.989 179.434 188.044 179.445 188.098 179.456L188.247 179.486C188.386 179.515 188.523 179.546 188.655 179.577C188.705 179.588 188.753 179.6 188.802 179.612C188.814 179.614 188.826 179.617 188.839 179.621C188.863 179.626 188.886 179.632 188.909 179.638C188.944 179.647 188.978 179.655 189.012 179.664C189.068 179.679 189.123 179.693 189.176 179.706C189.197 179.711 189.218 179.717 189.239 179.722C189.272 179.731 189.305 179.74 189.337 179.749C189.425 179.772 189.507 179.795 189.583 179.817C189.618 179.826 189.652 179.837 189.684 179.846C189.712 179.854 189.738 179.861 189.764 179.869L189.776 179.872C189.798 179.879 189.82 179.886 189.84 179.891C189.86 179.897 189.879 179.903 189.897 179.908C189.919 179.915 189.94 179.921 189.96 179.928C189.973 179.931 189.986 179.935 189.998 179.939C190.012 179.943 190.025 179.947 190.037 179.951C190.11 179.973 190.15 179.987 190.15 179.987Z" fill="#163560"/>
<path d="M192.371 183.12H187.922C187.812 182.495 187.708 181.918 187.614 181.416C187.456 180.558 187.33 179.918 187.274 179.63C187.252 179.52 187.24 179.461 187.24 179.461C187.24 179.461 187.281 179.412 187.354 179.329H187.355C187.816 178.81 189.559 176.968 190.392 177.813C190.529 177.952 190.673 178.099 190.82 178.259C191.318 178.802 191.842 179.49 192.147 180.46C192.373 181.176 192.48 182.044 192.371 183.12Z" fill="#1C468A"/>
<path d="M186.896 169.214L187.65 170.343L189.166 170.269L189.866 168.458C189.866 168.458 189.65 168.417 189.549 166.16L187.657 166.737C187.657 166.737 187.757 167.325 187.623 167.966C187.53 168.414 187.325 168.89 186.896 169.214Z" fill="#FFB27D"/>
<path d="M186.687 168.418C186.784 168.418 188.567 167.821 191.112 168.858C191.112 168.858 189.904 175.773 190.423 177.092C190.942 178.411 191.14 179.583 191.14 179.583L185.508 179.652C185.508 179.652 185.587 175.123 185.327 173.521C185.068 171.917 186.687 168.418 186.687 168.418Z" fill="#FFB27D"/>
<path d="M192.247 180.312C192.152 180.51 191.939 180.667 191.68 180.792C191.342 180.954 190.927 181.064 190.595 181.14C190.338 181.199 189.945 181.265 189.491 181.315C189.249 181.343 188.99 181.366 188.728 181.381C188.691 181.383 188.654 181.385 188.617 181.387C186.92 181.471 185.021 181.43 184.773 180.623C184.749 180.546 184.749 180.391 184.765 180.187C184.797 179.771 184.894 179.148 184.988 178.566C185.078 178.009 185.166 177.487 185.191 177.217C185.321 175.787 185.048 173.734 185.008 172.404C184.976 171.296 185.964 168.586 185.964 168.586C185.964 168.586 186.152 168.475 186.886 168.374C186.886 168.374 186.992 169.703 187.675 169.816C188.857 170.011 189.81 168.929 190.088 168.493C190.088 168.493 191.445 168.835 191.844 169.29C192.13 169.616 192.093 170.397 192.007 170.888C191.981 171.044 191.949 171.171 191.922 171.244C191.837 171.465 191.519 173.096 191.374 173.745C191.371 173.763 191.368 173.777 191.365 173.791C191.354 173.835 191.346 173.873 191.338 173.905L191.337 173.907C191.329 173.942 191.321 173.97 191.316 173.987C191.312 173.998 191.309 174.008 191.305 174.019L191.305 174.021C191.095 174.688 190.969 175.368 191.043 176.203C191.052 176.301 191.074 176.419 191.109 176.552C191.297 177.522 192.083 179.434 192.247 180.312Z" fill="#F99746"/>
<path d="M187.624 167.966C188.407 167.903 189.55 166.16 189.55 166.16L187.657 166.737C187.657 166.737 187.758 167.325 187.624 167.966Z" fill="#ED975D"/>
<path d="M186.886 168.374C186.886 168.374 185.07 168.568 184.463 169.422C183.856 170.275 183.47 171.555 183.47 171.555C183.47 171.555 183.903 172.856 185.169 172.693C186.436 172.53 186.886 168.374 186.886 168.374Z" fill="#F99746"/>
<path d="M187.34 167.25C187.34 167.25 189.651 167.18 189.584 165.741C189.519 164.304 189.773 163.326 188.295 163.31C186.817 163.294 186.556 163.856 186.461 164.341C186.366 164.827 186.737 167.231 187.34 167.25Z" fill="#FFB27D"/>
<path d="M187.518 163.128C187.518 163.128 187.588 163.605 188.499 164.229C189.409 164.854 189.565 166.309 189.565 166.309C189.565 166.309 190.254 163.724 189.43 163.142C188.607 162.56 187.518 163.128 187.518 163.128Z" fill="#233862"/>
<path d="M188.264 162.312C188.264 162.312 187.081 162.2 186.242 163.527C185.88 164.098 186.162 164.991 186.537 165.459C186.537 165.459 186.66 164.24 187.304 163.83C187.949 163.42 188.264 162.312 188.264 162.312Z" fill="#233862"/>
<path d="M187.87 166.411C187.87 166.411 187.849 166.589 187.416 166.611C187.416 166.611 187.053 166.63 187.042 166.439C187.042 166.439 187.377 166.264 187.87 166.411Z" fill="white"/>
<path d="M180.364 175.99C180.364 175.99 179.755 175.279 180.327 174.827C180.327 174.827 180.745 174.575 181.085 174.595C181.085 174.595 180.602 175.404 180.759 175.485C180.914 175.565 181.231 174.544 181.231 174.544C181.231 174.544 182.181 174.452 182.487 174.599C182.487 174.599 181.675 175.264 181.845 175.303C182.016 175.343 182.894 174.69 182.894 174.69C182.894 174.69 183.778 174.841 183.732 175.381C183.684 175.92 183.379 176.087 183.246 176.073C183.112 176.058 182.328 175.759 182.311 175.869C182.294 175.979 182.766 176.337 183.096 176.354C183.096 176.354 182.472 177.041 182.058 176.843C181.644 176.645 181.608 176.33 181.35 176.212C181.092 176.094 180.871 176.095 180.978 176.214C181.085 176.335 181.552 176.452 181.7 176.713C181.848 176.974 181.98 177.151 181.551 177.086C181.123 177.022 180.426 176.708 180.395 176.349C180.364 175.99 180.364 175.99 180.364 175.99Z" fill="#82B378"/>
<path d="M183.297 175.395C183.297 175.395 180.895 175.303 180.365 175.99C180.365 175.99 180.247 176.341 179.886 176.661L179.83 176.814C179.83 176.814 180.246 176.375 180.395 176.349C180.395 176.349 180.162 175.498 183.297 175.395Z" fill="#82B378"/>
<path d="M179.887 176.661C179.887 176.661 179.371 177.042 179.335 177.724L179.429 177.732C179.429 177.732 179.593 177.027 179.891 176.752C180.189 176.477 179.887 176.661 179.887 176.661Z" fill="#82B378"/>
<path d="M178.235 175.096C178.235 175.096 179.204 174.553 178.751 173.817C178.751 173.817 178.39 173.364 178.002 173.248C178.002 173.248 178.209 174.347 178.002 174.373C177.795 174.398 177.86 173.132 177.86 173.132C177.86 173.132 176.839 172.641 176.439 172.68C176.439 172.68 177.072 173.752 176.865 173.726C176.658 173.7 175.948 172.615 175.948 172.615C175.948 172.615 174.901 172.421 174.733 173.042C174.565 173.662 174.836 173.972 174.991 174.011C175.147 174.05 176.142 174.036 176.116 174.166C176.089 174.295 175.418 174.502 175.043 174.385C175.043 174.385 175.456 175.406 175.999 175.354C176.542 175.303 176.71 174.967 177.046 174.941C177.382 174.915 177.627 175.006 177.459 175.096C177.291 175.186 176.723 175.126 176.452 175.357C176.18 175.587 175.96 175.729 176.464 175.833C176.968 175.936 177.873 175.872 178.054 175.483C178.235 175.096 178.235 175.096 178.235 175.096Z" fill="#A8D29F"/>
<path d="M175.211 173.235C175.211 173.235 177.924 174.114 178.235 175.096C178.235 175.096 178.221 175.535 178.493 176.039V176.233C178.493 176.233 178.209 175.574 178.053 175.483C178.053 175.483 178.661 174.631 175.211 173.235Z" fill="#82B378"/>
<path d="M178.493 176.039C178.493 176.039 178.911 176.675 178.673 177.448L178.565 177.419C178.565 177.419 178.67 176.567 178.451 176.139C178.232 175.71 178.493 176.039 178.493 176.039Z" fill="#82B378"/>
<path d="M179.776 174.347C179.776 174.347 178.499 173.632 179.095 172.661C179.095 172.661 179.572 172.065 180.083 171.912C180.083 171.912 179.811 173.359 180.083 173.394C180.355 173.427 180.27 171.759 180.27 171.759C180.27 171.759 181.616 171.111 182.144 171.162C182.144 171.162 181.31 172.576 181.582 172.542C181.854 172.508 182.792 171.077 182.792 171.077C182.792 171.077 184.171 170.821 184.393 171.639C184.613 172.456 184.256 172.866 184.052 172.916C183.847 172.967 182.536 172.95 182.57 173.121C182.604 173.291 183.489 173.564 183.983 173.41C183.983 173.41 183.439 174.756 182.723 174.688C182.007 174.62 181.787 174.177 181.343 174.143C180.9 174.109 180.577 174.228 180.799 174.347C181.019 174.466 181.769 174.386 182.127 174.691C182.484 174.995 182.775 175.182 182.11 175.318C181.446 175.454 180.253 175.37 180.014 174.859C179.776 174.347 179.776 174.347 179.776 174.347Z" fill="#A8D29F"/>
<path d="M183.762 171.895C183.762 171.895 180.185 173.053 179.776 174.348C179.776 174.348 179.793 174.926 179.436 175.591V175.847C179.436 175.847 179.811 174.978 180.014 174.859C180.014 174.859 179.214 173.735 183.762 171.895Z" fill="#82B378"/>
<path d="M179.436 175.591C179.436 175.591 178.884 176.428 179.198 177.448L179.34 177.41C179.34 177.41 179.202 176.287 179.491 175.722C179.779 175.157 179.436 175.591 179.436 175.591Z" fill="#82B378"/>
<path d="M182.236 177.157C182.236 178.539 181.116 179.66 179.733 179.66C179.445 179.66 179.168 179.611 178.91 179.521C177.932 179.18 177.231 178.25 177.231 177.157H182.236Z" fill="#1C468A"/>
<path d="M179.733 179.66C179.632 179.672 180.144 179.66 180.038 179.66C178.656 179.66 177.536 178.539 177.536 177.157H178.158C178.158 178.434 178.498 179.507 179.733 179.66Z" fill="#285BA5"/>
<path d="M182.271 179.787H177.196C177.196 179.702 177.231 179.624 177.287 179.569C177.343 179.513 177.42 179.478 177.505 179.478H181.962C182.132 179.478 182.271 179.616 182.271 179.787Z" fill="#163560"/>
<path d="M182.293 177.234H177.148V177.157H182.293V177.234Z" fill="#163560"/>
<path d="M182.393 178.09C182.336 177.957 181.793 177.826 181.577 177.732C181.577 177.732 181.439 177.831 181.624 177.994C181.674 178.038 181.766 178.106 181.853 178.167C181.827 178.16 181.8 178.154 181.775 178.147C181.581 178.094 180.328 178.521 180.18 178.8C180.031 179.077 180.898 179.771 181.546 179.553C181.879 179.441 182.966 179.244 182.966 179.244L182.784 178.365C182.784 178.365 182.45 178.224 182.393 178.09Z" fill="#FFB27D"/>
<path d="M192.05 169.854C192.05 169.854 192.307 171.64 190.446 174.288C188.583 176.937 188.692 177.103 187.623 177.806C186.555 178.509 182.965 179.244 182.965 179.244L182.783 178.365C182.783 178.365 186.266 176.125 186.597 175.683C186.928 175.24 189.166 170.269 189.166 170.269L192.05 169.854Z" fill="#FFB27D"/>
<path d="M190.263 169.191C190.263 169.191 188.777 170.356 188.382 170.925C187.987 171.494 187.624 172.768 187.624 172.768C187.624 172.768 189.179 173.742 191.861 173.038C191.861 173.038 192.575 169.721 191.844 169.289C191.112 168.859 190.435 169.191 190.435 169.191H190.263Z" fill="#F99746"/>
<path d="M185.766 153.299C185.766 153.299 187.429 160.647 195.104 163.248C195.104 163.248 195.031 174.573 194.164 177.553C193.297 180.533 193.08 182.553 193.08 182.553H195.104V153.299H185.766Z" fill="white"/>
<path d="M173.373 159.923H195.103V182.553H173.373V159.923ZM173.373 153.299H195.103V158.67H173.373V153.299ZM196.707 182.553H196.218V152.185H172.258V158.67V159.923V182.553H171.769C170.546 182.553 169.556 183.543 169.556 184.766V184.843H198.921V184.766C198.921 183.543 197.93 182.553 196.707 182.553Z" fill="#8FB7EF"/>
<path d="M122.67 203.681H208.508V191.932H122.67V203.681Z" fill="#77A4E5"/>
<path d="M143.058 203.751C143.058 203.751 141.468 198.035 134.859 196.117C128.252 194.199 128.678 195.158 122.709 191.747C116.741 188.336 107.361 190.468 105.443 193.239C103.524 196.01 99.048 197.502 92.8662 197.396C86.6845 197.289 86.3721 203.31 86.3721 203.31L143.058 203.751Z" fill="#A8D29F"/>
<path d="M136.431 183.12H159.276V152.752H136.431V183.12Z" fill="#E6F0FD"/>
<path d="M158.72 182.562H136.988V153.309H158.72V182.562Z" fill="#FFCB9C"/>
<path d="M145.845 179.069C145.845 179.069 144.592 180.778 144.592 182.562H153.098C153.098 182.562 152.642 179.791 150.705 179.069C148.768 178.347 145.845 179.069 145.845 179.069Z" fill="#233862"/>
<path d="M156.254 169.859C156.254 169.859 154.917 173.262 154.768 173.381C154.366 173.706 151.894 169.932 151.515 169.273C151.135 168.614 148.789 169.178 148.589 167.953C148.527 167.577 148.403 167.165 148.402 166.901C148.401 166.869 148.402 166.837 148.402 166.805C148.404 166.567 148.421 166.309 148.455 166.032L148.338 166.042L146.369 166.193C146.369 166.193 146.567 166.671 146.501 167.241C146.479 167.428 146.471 167.779 146.449 168.123C146.423 168.505 146.162 168.831 145.794 168.94C144.951 169.187 143.906 169.559 143.724 170.028C143.37 170.94 142.572 175.063 142.421 176.46C142.269 177.857 140.852 181.955 140.852 181.955H141.56C141.56 181.955 144.218 177.484 144.446 176.786C144.516 176.572 144.769 175.716 145.087 174.635C145.383 175.811 145.805 176.986 145.896 177.462C146.057 178.298 144.522 180.993 144.673 181.741C144.825 182.488 152.951 182.892 152.841 181.741C152.73 180.59 151.585 178.639 151.357 177.728C151.185 177.041 151.583 174.747 151.707 173.385C152.948 174.803 154.636 176.126 155.154 175.855C156.482 175.159 156.9 170.02 156.9 170.02L156.254 169.859Z" fill="#FFB27D"/>
<path d="M147.006 164.974C147.006 164.974 145.948 165.816 146.841 167.034C146.841 167.034 145.805 166.992 145.544 166.721C145.544 166.721 145.587 166.843 145.633 166.901C145.633 166.901 144.675 166.821 144.316 166.477C143.958 166.131 144.794 161.276 147.379 162.139C147.379 162.139 149.645 162.237 149.126 164.812C148.606 167.386 149.454 167.487 149.454 167.487C149.454 167.487 149.205 167.575 149.091 167.562C149.091 167.562 148.932 167.478 148.91 167.382C148.91 167.382 148.925 167.531 148.963 167.582C148.963 167.582 148.037 167.559 147.621 167.159C147.205 166.759 146.812 165.494 147.006 164.974Z" fill="#233862"/>
<path d="M146.072 166.035C146.072 166.035 145.614 165.076 145.57 164.298C145.538 163.742 146.056 161.758 148.047 162.29C148.047 162.29 148.629 162.419 149.138 162.859C149.543 163.208 150.101 163.926 149.181 165.601L148.926 166.173L146.072 166.035Z" fill="#233862"/>
<path d="M148.588 167.953C147.166 167.745 146.365 166.251 146.365 166.251C146.945 166.186 147.754 166.481 148.401 166.805C148.401 166.837 148.4 166.869 148.401 166.901C148.402 167.165 148.493 167.584 148.588 167.953Z" fill="#ED975D"/>
<path d="M148.607 167.386C148.607 167.386 146.056 167.124 146.243 165.537C146.431 163.95 146.228 162.848 147.864 162.949C149.502 163.049 149.746 163.691 149.812 164.236C149.878 164.781 149.276 167.413 148.607 167.386Z" fill="#FFB27D"/>
<path d="M149.029 163.048C149.029 163.048 148.11 164.826 147.007 164.973C145.904 165.121 145.475 164.779 145.475 164.779C145.475 164.779 146.373 164.224 146.679 163.107C146.679 163.107 148.609 162.1 149.029 163.048Z" fill="#233862"/>
<path d="M148.838 163.179C148.838 163.179 149.309 163.657 149.388 164.075C149.466 164.494 149.424 165.333 149.67 165.334C149.67 165.334 150.346 164.131 149.841 163.345C149.306 162.511 148.838 163.179 148.838 163.179Z" fill="#233862"/>
<path d="M148.928 163.253C148.928 163.253 148.198 165.142 146.773 165.605C146.773 165.605 148.266 164.569 148.535 163.296C148.803 162.024 148.928 163.253 148.928 163.253Z" fill="#233862"/>
<path d="M148.084 166.46C148.084 166.46 148.148 166.688 148.304 166.722C148.46 166.756 148.869 166.8 148.905 166.77C148.942 166.74 149.064 166.537 149.064 166.537C149.064 166.537 148.409 166.386 148.084 166.46Z" fill="white"/>
<path d="M156.228 170.051C156.228 170.051 156.182 168.84 156.31 168.424C156.439 168.008 156.719 167.338 156.782 167.367C156.845 167.395 156.97 168.302 156.917 168.506C156.865 168.709 156.971 169.192 157.052 169.096C157.132 168.999 157.259 168.355 157.365 168.393C157.472 168.431 157.373 168.823 157.423 168.921C157.474 169.02 157.47 169.283 157.265 169.617C157.059 169.951 156.859 170.333 156.859 170.333L156.228 170.051Z" fill="#FFB27D"/>
<path d="M141.003 181.955C141.003 181.955 139.977 181.709 139.64 181.826C139.303 181.942 138.687 182.543 138.846 182.553C139.005 182.562 139.709 182.372 139.808 182.398C139.908 182.423 140.196 182.46 140.196 182.46C140.196 182.46 139.779 182.487 139.799 182.562C139.818 182.639 140.878 182.652 141.003 182.562C141.128 182.474 141.559 181.955 141.559 181.955H141.003Z" fill="#FFB27D"/>
<path d="M144.699 169.317C144.699 169.317 145.986 170.419 147.625 170.333C149.263 170.247 150.554 168.9 150.554 168.9C150.554 168.9 151.3 168.906 151.693 169.323C152.085 169.741 153.579 171.614 153.579 171.614C153.579 171.614 153.709 173.02 152.031 174.001L151.862 173.696C151.862 173.696 151.579 177.196 151.756 177.524C151.933 177.854 153.326 181.297 153.098 181.826C152.87 182.354 145.248 183.653 144.673 181.741C144.099 179.829 145.533 178.17 145.474 177.487C145.415 176.803 145.086 174.635 145.086 174.635C145.086 174.635 142.884 174.298 142.808 172.981C142.808 172.981 143.197 169.299 144.699 169.317Z" fill="white"/>
<path d="M137.002 159.923H158.732V182.553H137.002V159.923ZM137.002 153.299H158.732V158.67H137.002V153.299ZM160.336 182.553H159.847V152.185H135.887V158.67V159.923V182.553H135.398C134.175 182.553 133.185 183.543 133.185 184.766V184.843H162.55V184.766C162.55 183.543 161.558 182.553 160.336 182.553Z" fill="#8FB7EF"/>
<path d="M158.405 154.836H137.396V153.78H158.405V154.836Z" fill="white"/>
<path d="M158.405 156.496H137.396V155.439H158.405V156.496Z" fill="white"/>
<path d="M158.405 158.155H137.396V157.099H158.405V158.155Z" fill="white"/>
<path d="M158.405 159.709H137.396V158.653H158.405V159.709Z" fill="white"/>
<path d="M158.405 161.457H137.396V160.4H158.405V161.457Z" fill="white"/>
<path d="M138.574 162.314H138.371V153.282H138.574V162.314Z" fill="white"/>
<path d="M157.552 162.314H157.349V153.282H157.552V162.314Z" fill="white"/>
<path d="M152.89 181.707H149.797V180.615H152.9C153.141 180.615 153.336 180.81 153.336 181.051V181.26C153.336 181.507 153.136 181.707 152.89 181.707Z" fill="#FCECDB"/>
<path d="M155.977 181.064V181.228C155.977 181.316 155.953 181.398 155.911 181.469C155.829 181.611 155.674 181.707 155.498 181.707H149.702C149.664 181.707 149.633 181.676 149.633 181.638V181.613C149.633 181.575 149.664 181.543 149.702 181.543H153.235C153.254 181.52 153.27 181.495 153.284 181.469C153.318 181.407 153.336 181.336 153.336 181.26V181.051C153.336 181.013 153.332 180.976 153.322 180.94C153.306 180.88 153.278 180.825 153.24 180.778H149.702C149.664 180.778 149.633 180.747 149.633 180.708V180.684C149.633 180.646 149.664 180.615 149.702 180.615H155.527C155.732 180.615 155.905 180.752 155.959 180.94C155.971 180.979 155.977 181.021 155.977 181.064Z" fill="#699DEE"/>
<path d="M155.959 180.94H153.322C153.306 180.88 153.278 180.825 153.24 180.778H149.702C149.664 180.778 149.633 180.747 149.633 180.708V180.684C149.633 180.646 149.664 180.615 149.702 180.615H155.527C155.732 180.615 155.905 180.752 155.959 180.94Z" fill="#548EE2"/>
<path d="M149.797 181.161L150.226 181.179L149.797 181.19V181.161Z" fill="#F4D2B8"/>
<path d="M149.797 181.332L150.818 181.35L149.797 181.361V181.332Z" fill="#F4D2B8"/>
<path d="M150.459 182.553H153.751V181.703H150.432C150.205 181.703 150.021 181.887 150.021 182.114C150.021 182.356 150.217 182.553 150.459 182.553Z" fill="#B5453C"/>
<path d="M153.563 182.553H157.31V181.703H153.553C153.322 181.703 153.135 181.89 153.135 182.121V182.125C153.135 182.361 153.326 182.553 153.563 182.553Z" fill="#FCECDB"/>
<path d="M152.884 182.553H157.44C157.475 182.553 157.504 182.524 157.504 182.489C157.504 182.454 157.475 182.425 157.44 182.425H152.884C152.849 182.425 152.821 182.454 152.821 182.489C152.821 182.524 152.849 182.553 152.884 182.553Z" fill="#B5453C"/>
<path d="M152.884 181.83H157.44C157.475 181.83 157.504 181.802 157.504 181.767C157.504 181.732 157.475 181.703 157.44 181.703H152.884C152.849 181.703 152.821 181.732 152.821 181.767C152.821 181.802 152.849 181.83 152.884 181.83Z" fill="#B5453C"/>
<path d="M157.309 182.128L156.803 182.142L157.309 182.151V182.128Z" fill="#F4D2B8"/>
<path d="M157.31 181.932L156.105 181.946L157.31 181.956V181.932Z" fill="#F4D2B8"/>
<path d="M156.118 181.944C156.118 181.944 156.17 181.981 156.187 182.04C156.19 182.051 156.192 182.062 156.192 182.074C156.195 182.154 156.192 182.334 156.192 182.334L156.345 182.244L156.496 182.334V182.089C156.496 182.044 156.484 181.998 156.459 181.969C156.447 181.955 156.433 181.944 156.417 181.944H156.118Z" fill="#699DEE"/>
<path d="M156.118 181.944C156.118 181.944 156.17 181.98 156.187 182.04L156.492 182.043C156.492 182.043 156.48 181.958 156.417 181.944H156.118Z" fill="#568CDB"/>
<path d="M158.802 99.9487V130.316H135.957V99.9487H158.802Z" fill="#DFEBFD"/>
<path d="M146.936 100.496C146.936 100.496 146.881 109.47 155.984 117.056C155.984 117.056 154.088 126.946 154.358 129.749H158.732V100.496H146.936Z" fill="white"/>
<path d="M138.788 117.524C138.788 117.524 136.883 117.793 136.392 118.224C135.563 118.949 136.171 129.992 136.171 129.992C136.171 129.992 139.035 130.229 139.035 129.992C139.035 129.756 138.788 117.524 138.788 117.524Z" fill="#D39E7A"/>
<path d="M146.255 130.012L142.16 130.316L139.307 130.528L138.704 130.573L138.667 130.316L138.634 130.089L138.627 130.039L138.484 129.04L138.483 129.037L138.426 128.643L138.251 127.428L137.354 121.217L137.104 119.486C137.104 119.486 136.914 117.853 138.433 117.587C138.544 117.568 138.662 117.547 138.782 117.525L138.788 117.524C139.302 117.432 139.89 117.327 140.469 117.253C140.946 117.191 141.418 117.152 141.836 117.159C142.015 117.162 142.185 117.175 142.34 117.197C142.543 117.226 142.722 117.274 142.87 117.344C142.887 117.351 142.904 117.359 142.92 117.369C142.979 117.399 143.032 117.433 143.079 117.473C143.1 117.489 143.118 117.507 143.136 117.525C143.188 117.577 143.248 117.688 143.315 117.847C143.388 118.02 143.47 118.251 143.559 118.531C143.682 118.919 143.819 119.398 143.964 119.939C144.368 121.453 144.831 123.45 145.236 125.265C145.248 125.32 145.261 125.375 145.272 125.429C145.325 125.664 145.376 125.895 145.425 126.12C145.427 126.131 145.43 126.142 145.433 126.153C145.442 126.195 145.451 126.237 145.46 126.279C145.485 126.391 145.509 126.502 145.533 126.611C145.58 126.829 145.626 127.04 145.67 127.244C145.967 128.623 146.184 129.669 146.24 129.942C146.25 129.988 146.255 130.012 146.255 130.012Z" fill="#EFCBAB"/>
<path d="M143.665 118.491C143.665 118.491 144.313 119.449 144.682 121.462C145.005 123.226 145.289 123.877 145.756 124.238C146.223 124.6 148.824 125.667 148.824 125.667L148.629 126.123C148.629 126.123 144.817 125.604 144.388 124.967C143.96 124.329 142.327 120.564 142.454 119.698C142.581 118.83 143.665 118.491 143.665 118.491Z" fill="#F4A269"/>
<path d="M152.4 130.316H149.252C149.174 130.003 149.057 129.805 148.835 129.793C148.635 129.782 147.552 129.897 146.24 129.942C144.159 130.015 141.506 129.913 140.908 128.86C140.765 128.609 140.661 128.358 140.587 128.112V128.111C140.575 128.074 140.565 128.039 140.555 128.004C140.433 127.549 140.411 127.118 140.436 126.743C140.451 126.525 140.482 126.325 140.519 126.151C140.611 125.717 140.74 125.447 140.74 125.447L141.767 126.199H141.768L141.883 126.283C141.883 126.283 142.766 126.217 143.98 126.165C144.25 126.155 144.535 126.144 144.831 126.135C144.978 126.13 145.128 126.127 145.28 126.123C145.328 126.122 145.377 126.121 145.425 126.12C145.792 126.113 146.169 126.109 146.544 126.109C146.581 126.109 146.618 126.109 146.655 126.109C146.744 126.109 146.831 126.11 146.919 126.111C148.369 126.126 149.747 126.221 150.446 126.485C150.545 126.522 150.629 126.562 150.699 126.606L150.706 126.611C151.21 126.94 151.823 128.481 152.4 130.316Z" fill="#ED7D2B"/>
<path d="M149.511 130.316H142.16L139.307 130.528C139.168 130.464 139.043 130.394 138.932 130.316C138.831 130.246 138.743 130.17 138.669 130.088C138.655 130.071 138.641 130.055 138.628 130.039C138.582 129.983 138.543 129.924 138.511 129.861C138.367 129.584 138.317 129.315 138.336 129.061V129.06C138.346 128.916 138.377 128.777 138.426 128.643C138.541 128.324 138.751 128.034 138.994 127.781C139.608 127.141 140.43 126.743 140.43 126.743H140.436C140.518 126.747 141.375 126.79 142.508 126.885H142.509C142.617 126.894 142.729 126.904 142.842 126.913H142.843C143.729 126.992 144.742 127.101 145.67 127.244C146.867 127.43 147.923 127.675 148.383 127.991C148.74 128.236 149.13 129.131 149.511 130.316Z" fill="#F99746"/>
<path d="M143.52 115.007L143.519 114.992V114.991C143.516 114.865 143.51 114.74 143.502 114.616C143.476 114.241 143.428 113.879 143.36 113.554C143.322 113.368 143.278 113.194 143.229 113.036C143.221 113.012 143.213 112.989 143.205 112.966V112.965C143.086 112.607 142.939 112.345 142.779 112.239C142.487 112.046 142.123 112.003 141.868 112.001C141.938 111.938 142.069 111.922 142.069 111.922C141.912 111.887 141.549 112.02 141.549 112.02C139.408 111.027 138.847 114.241 138.843 114.995C138.838 115.751 138.786 116.616 137.644 117.218C137.206 117.448 136.917 117.727 136.735 118.025C135.983 119.258 137.064 120.838 137.064 120.838C137.068 120.841 137.187 120.995 137.355 121.217C137.79 121.79 138.561 122.811 138.561 122.811V122.809C138.559 122.672 138.677 122.403 138.879 122.06C139.029 121.808 139.223 121.513 139.449 121.202C139.555 121.054 139.669 120.902 139.788 120.748C139.946 120.544 140.113 120.336 140.287 120.132C140.353 120.053 140.42 119.975 140.487 119.898C140.794 119.548 141.113 119.211 141.427 118.917C141.5 118.848 141.572 118.782 141.644 118.718H141.645C141.734 118.64 141.823 118.564 141.91 118.495C142.078 118.36 142.241 118.242 142.397 118.147C142.404 118.143 142.411 118.139 142.419 118.134H142.42C142.441 118.121 142.462 118.109 142.484 118.096C142.55 118.012 142.61 117.916 142.665 117.814C142.685 117.776 142.705 117.737 142.723 117.698C142.779 117.581 142.828 117.46 142.871 117.344C142.998 116.989 143.065 116.669 143.078 116.611C143.031 116.918 142.977 117.166 142.921 117.369C142.882 117.503 142.844 117.617 142.805 117.713C142.777 117.783 142.75 117.843 142.723 117.896C142.711 117.92 142.699 117.943 142.687 117.964C142.704 117.95 142.721 117.936 142.737 117.921C142.799 117.866 142.857 117.804 142.91 117.734C142.973 117.655 143.029 117.568 143.08 117.473C143.418 116.851 143.541 115.917 143.52 115.007Z" fill="#B5453C"/>
<path d="M142.445 117.656C142.408 117.64 142.364 117.623 142.318 117.607C142.32 117.509 142.325 117.404 142.333 117.299C142.367 116.817 142.437 116.308 142.437 116.308L140.833 115.878L140.738 115.852C140.694 116.56 140.55 117.043 140.424 117.371C140.258 117.378 140.153 117.388 140.153 117.388C140.125 117.484 140.153 117.635 140.241 117.803C140.23 117.833 140.22 117.859 140.216 117.882C140.115 118.331 141.246 118.965 141.769 118.987C142.076 119.001 142.24 118.879 142.325 118.724C142.964 118.559 142.914 117.852 142.445 117.656Z" fill="#FFB27D"/>
<path d="M142.438 116.308C142.438 116.308 142.367 116.817 142.334 117.299C141.426 117.213 141 116.351 140.834 115.878L142.438 116.308Z" fill="#F4A269"/>
<path d="M140.678 115.69C140.678 115.69 140.252 114.906 140.181 114.254C140.129 113.789 140.477 112.101 142.173 112.46C142.173 112.46 142.667 112.542 143.113 112.889C143.469 113.165 143.969 113.743 143.27 115.19L143.081 115.681L140.678 115.69Z" fill="#B5453C"/>
<path d="M142.711 116.785C142.711 116.785 140.557 116.677 140.645 115.337C140.733 113.996 140.515 113.08 141.894 113.092C143.272 113.104 143.506 113.633 143.585 114.087C143.665 114.542 143.274 116.778 142.711 116.785Z" fill="#FFB27D"/>
<path d="M142.875 113.124C142.875 113.124 142.182 114.658 141.262 114.83C140.343 115.002 139.967 114.734 139.967 114.734C139.967 114.734 140.696 114.229 140.905 113.277C140.905 113.277 142.481 112.346 142.875 113.124Z" fill="#B5453C"/>
<path d="M142.721 113.243C142.721 113.243 143.138 113.623 143.222 113.972C143.306 114.32 143.308 115.026 143.514 115.016C143.514 115.016 144.029 113.976 143.571 113.338C143.085 112.662 142.721 113.243 142.721 113.243Z" fill="#B5453C"/>
<path d="M144.867 126.395C144.692 126.603 144.148 126.668 143.566 126.763C143.109 126.839 142.628 126.934 142.285 127.135C141.509 127.59 138.972 129.131 138.229 129.061C137.941 129.033 137.994 128.483 138.169 127.753C138.444 126.6 139.019 124.999 139.019 124.302C139.019 123.923 139.146 123.023 139.315 121.995C139.329 121.912 139.343 121.828 139.357 121.744C139.69 119.745 140.153 117.389 140.153 117.389C140.153 117.389 140.669 118.514 141.674 118.514C142.679 118.514 142.446 117.656 142.446 117.656C142.446 117.656 143.363 117.764 143.579 117.997C143.796 118.23 144.346 119.239 144.455 119.514C144.455 119.514 144.477 119.864 143.61 120.031C143.61 120.031 143.821 120.982 143.847 121.615C143.865 122.084 143.527 123.548 143.43 124.459C143.396 124.782 143.391 125.035 143.443 125.15C143.51 125.297 143.727 125.444 143.974 125.587C144.464 125.873 145.074 126.147 144.867 126.395Z" fill="#739AF0"/>
<path d="M143.974 125.587C144.531 126.536 142.465 126.821 142.123 127.023C141.347 127.479 138.972 129.131 138.229 129.061C137.941 129.034 137.994 128.484 138.169 127.753C138.444 126.6 139.019 124.999 139.019 124.302C139.019 123.923 139.146 123.023 139.315 121.995L140.209 121.136C140.209 121.136 141.168 123.615 142.082 124.021C142.562 124.234 143.062 124.374 143.43 124.459C143.396 124.782 143.391 125.035 143.443 125.15C143.51 125.297 143.727 125.444 143.974 125.587Z" fill="#4A75CB"/>
<path d="M146.982 126.611H144.167V126.279H146.982V126.611Z" fill="#233862"/>
<path d="M146.385 126.566C146.413 126.455 148.973 122.434 148.973 122.434H154.671L151.813 126.458L146.385 126.566Z" fill="#233862"/>
<path d="M146.624 126.611C146.652 126.501 149.221 122.434 149.221 122.434H154.671L151.952 126.611H146.624Z" fill="#2B478B"/>
<path d="M151.134 124.662C151.078 124.826 150.901 124.958 150.738 124.958C150.575 124.958 150.488 124.826 150.544 124.662C150.6 124.5 150.778 124.368 150.941 124.368C151.104 124.368 151.19 124.5 151.134 124.662Z" fill="#AFCDFB"/>
<path d="M145.714 125.237C145.596 125.187 144.686 125.352 144.426 125.401C143.602 125.24 140.894 124.698 140.762 124.529C140.606 124.329 140.267 118.232 139.878 118.13C139.878 118.13 139.112 117.666 138.372 118.547C137.632 119.429 138.898 125.73 139.994 126.054C141.212 126.413 144.73 125.997 144.73 125.997C145.019 126.095 145.524 126.151 145.792 126.24C146.146 126.358 146.461 126.259 146.54 126.122C146.618 125.984 145.851 125.296 145.714 125.237Z" fill="#FFB27D"/>
<path d="M140.153 117.388C140.153 117.388 138.581 117.53 138.125 118.047C137.668 118.564 137.535 119.965 137.535 119.965C137.535 119.965 138.919 121.082 140.586 120.648L140.153 117.388Z" fill="#739AF0"/>
<path d="M146.34 100.496C146.34 100.496 144.677 107.845 137.002 110.445C137.002 110.445 137.074 121.769 137.942 124.75C138.808 127.73 139.025 129.749 139.025 129.749H137.002V100.496H146.34Z" fill="white"/>
<path d="M158.732 129.749H137.002V107.12H158.732V129.749ZM158.732 105.867H137.002V100.496H158.732V105.867ZM133.185 131.963V132.04H162.55V131.963C162.55 130.74 161.558 129.749 160.336 129.749H159.847V107.12V105.867V99.3816H135.887V105.867V107.12V129.749H135.398C134.175 129.749 133.185 130.74 133.185 131.963Z" fill="#8FB7EF"/>
<path d="M155.039 127.544C155.039 127.544 155.81 127.857 156.358 127.07C156.358 127.07 155.468 126.919 155.039 127.544Z" fill="#6BB7BF"/>
<path d="M154.985 127.221C154.985 127.221 154.93 126.945 154.607 126.935C154.607 126.935 154.729 127.215 154.985 127.221Z" fill="#6BB7BF"/>
<path d="M155.146 125.607C155.146 125.607 155.521 125.647 155.661 125.237C155.661 125.237 155.255 125.282 155.146 125.607Z" fill="#6BB7BF"/>
<path d="M156.034 120.188C155.28 120.026 155.267 119.408 155.267 119.408C156.156 119.689 156.034 120.188 156.034 120.188Z" fill="#6BB7BF"/>
<path d="M156.087 120.047C156.087 120.047 156.558 120.238 156.892 119.758C156.892 119.758 156.349 119.666 156.087 120.047Z" fill="#6BB7BF"/>
<path d="M155.054 129.354L154.956 129.467C154.941 129.483 154.913 129.473 154.913 129.45C154.919 126.273 155.322 123.449 155.661 121.783C156.031 119.965 156.406 118.89 156.41 118.88C156.406 118.89 156.068 119.982 155.699 121.796C155.36 123.464 154.971 125.645 155.069 129.311C155.07 129.327 155.064 129.342 155.054 129.354Z" fill="#6BB7BF"/>
<path d="M156.403 118.447C156.282 118.543 155.821 118.956 156.268 119.274C156.268 119.274 156.611 119.383 156.725 119.118C156.811 118.917 156.835 118.692 156.841 118.597C156.843 118.572 156.824 118.551 156.799 118.549C156.773 118.546 156.738 118.54 156.703 118.527C156.66 118.511 156.639 118.446 156.581 118.432C156.545 118.423 156.509 118.416 156.467 118.42C156.443 118.422 156.421 118.432 156.403 118.447Z" fill="#F99746"/>
<path d="M156.147 119.159C156.147 119.159 156.284 119.268 156.233 119.443L156.231 119.507C156.231 119.507 156.268 119.346 156.435 119.295C156.435 119.295 156.284 119.313 156.147 119.159Z" fill="#6BB7BF"/>
<path d="M156.034 120.188C155.28 120.026 155.267 119.408 155.267 119.408C155.267 119.408 155.865 119.737 156.034 120.188Z" fill="#8AD8DB"/>
<path d="M155.309 119.765C155.309 119.765 154.835 119.947 154.51 119.46C154.51 119.46 155.055 119.378 155.309 119.765Z" fill="#6BB7BF"/>
<path d="M156.156 129.091L156.251 129.206C156.265 129.223 156.293 129.213 156.294 129.19C156.352 126.012 156.006 123.182 155.7 121.51C155.367 119.685 155.013 118.602 155.01 118.592C155.013 118.602 155.329 119.701 155.662 121.52C155.967 123.196 156.312 125.384 156.141 129.048C156.14 129.063 156.146 129.079 156.156 129.091Z" fill="#6BB7BF"/>
<path d="M155.025 118.159C155.143 118.258 155.596 118.679 155.143 118.988C155.143 118.988 154.798 119.089 154.69 118.823C154.607 118.62 154.588 118.395 154.584 118.3C154.583 118.275 154.602 118.255 154.627 118.253C154.653 118.251 154.688 118.245 154.724 118.233C154.767 118.217 154.789 118.154 154.847 118.14C154.883 118.133 154.92 118.126 154.961 118.13C154.985 118.133 155.007 118.143 155.025 118.159Z" fill="#F99746"/>
<path d="M155.267 118.875C155.267 118.875 155.128 118.982 155.175 119.158V119.222C155.175 119.222 155.141 119.06 154.976 119.007C154.976 119.007 155.126 119.026 155.267 118.875Z" fill="#6BB7BF"/>
<path d="M155.511 119.208C155.511 119.208 156.012 119.292 156.233 118.75C156.233 118.75 155.683 118.779 155.511 119.208Z" fill="#6BB7BF"/>
<path d="M156.532 128.517L156.462 128.648C156.451 128.668 156.421 128.663 156.416 128.642C155.728 125.538 155.506 122.695 155.474 120.996C155.439 119.141 155.57 118.01 155.572 117.999C155.57 118.01 155.478 119.149 155.513 120.999C155.546 122.702 155.643 124.914 156.539 128.472C156.542 128.487 156.539 128.503 156.532 128.517Z" fill="#6BB7BF"/>
<path d="M155.471 117.578C155.374 117.699 155.015 118.201 155.521 118.414C155.521 118.414 155.878 118.445 155.931 118.163C155.973 117.948 155.946 117.723 155.931 117.629C155.927 117.604 155.905 117.587 155.88 117.591C155.854 117.594 155.819 117.596 155.781 117.59C155.736 117.583 155.701 117.526 155.642 117.524C155.605 117.524 155.568 117.524 155.528 117.538C155.505 117.545 155.486 117.559 155.471 117.578Z" fill="#F99746"/>
<path d="M155.376 118.328C155.376 118.328 155.533 118.405 155.521 118.587L155.535 118.65C155.535 118.65 155.535 118.484 155.687 118.399C155.687 118.399 155.543 118.448 155.376 118.328Z" fill="#6BB7BF"/>
<path d="M155.924 118.65C155.924 118.65 155.924 118.253 156.266 118.129C156.266 118.129 156.342 118.46 155.924 118.65Z" fill="#6BB7BF"/>
<path d="M155.122 118.012C155.122 118.012 155.132 117.709 154.851 117.622C154.851 117.622 154.784 117.904 155.122 118.012Z" fill="#ED9F4A"/>
<path d="M156.04 119.835C156.05 119.843 156.186 119.54 155.91 119.296C155.91 119.296 155.794 119.621 156.04 119.835Z" fill="#ED9F4A"/>
<path d="M156.234 119.811C156.226 119.813 156.231 119.66 156.375 119.638C156.375 119.638 156.399 119.765 156.234 119.811Z" fill="#6BB7BF"/>
<path d="M154.802 119.296C154.802 119.296 154.68 119.045 154.292 119.089C154.292 119.089 154.35 119.358 154.802 119.296Z" fill="#6BB7BF"/>
<path d="M156.946 129.726H154.458C154.291 129.726 154.162 129.578 154.187 129.412L155.345 121.43C155.356 121.355 155.42 121.3 155.494 121.3H155.864C155.945 121.3 156.012 121.359 156.024 121.439L157.21 129.42C157.234 129.581 157.109 129.726 156.946 129.726Z" fill="#F99746"/>
<path d="M155.009 129.485L155.624 121.302C155.558 121.311 155.504 121.362 155.494 121.43L154.336 129.412C154.312 129.578 154.44 129.726 154.607 129.726H155.105C155.041 129.668 155.002 129.581 155.009 129.485Z" fill="#FFB278"/>
<path d="M223.031 147.882H222.508L222.512 147.841L222.67 146.447C222.676 146.402 222.714 146.368 222.759 146.368L222.775 146.369C222.805 146.373 222.831 146.385 222.853 146.405C222.877 146.427 222.894 146.458 222.898 146.494L223.031 147.882Z" fill="#A2C5F9"/>
<path d="M222.559 147.565L222.54 147.566L222.671 146.446C222.676 146.402 222.714 146.368 222.759 146.368L222.776 146.369L222.79 146.382C222.812 146.407 222.826 146.439 222.827 146.475L222.834 147.28C222.836 147.434 222.714 147.561 222.559 147.565Z" fill="#AFCDFB"/>
<path d="M223.364 154.084V198.58H222.356V154.084H223.364Z" fill="#A2C5F9"/>
<path d="M222.822 154.084V198.58H222.356V154.084H222.822Z" fill="#AFCDFB"/>
<path d="M224.465 191.479V203.252H221.256V191.479H224.465Z" fill="#A2C5F9"/>
<path d="M223.169 191.479V203.252H221.256V191.479H223.169Z" fill="#AFCDFB"/>
<path d="M224.614 148.553C224.614 149.103 223.789 149.549 222.769 149.549C222.692 149.549 222.615 149.546 222.54 149.541C221.63 149.48 220.926 149.061 220.926 148.553C220.926 148.045 221.63 147.627 222.54 147.566C222.615 147.561 222.692 147.558 222.769 147.558C223.789 147.558 224.614 148.004 224.614 148.553Z" fill="#A2C5F9"/>
<path d="M223.659 148.553C223.659 148.997 223.198 149.377 222.54 149.541C221.63 149.48 220.926 149.061 220.926 148.553C220.926 148.045 221.63 147.627 222.54 147.566C223.198 147.729 223.659 148.11 223.659 148.553Z" fill="#AFCDFB"/>
<path d="M224.461 154.962H221.251L220.119 149.513H225.418L224.461 154.962Z" fill="#AFCDFB"/>
<path d="M225.706 149.102V149.625H219.834V149.102H225.706Z" fill="#A2C5F9"/>
<path d="M223.525 149.102V149.625H219.834V149.102H223.525Z" fill="#AFCDFB"/>
<path d="M221.78 191.479H223.832L223.531 190.569C223.505 190.489 223.429 190.433 223.345 190.433H222.384C222.28 190.433 222.186 190.496 222.146 190.593L221.78 191.479Z" fill="#A2C5F9"/>
<path d="M220.499 149.779H225.025L224.141 154.676H221.542L220.499 149.779Z" fill="#C7DCF9"/>
<path d="M221.047 148.612C221.047 148.612 221.392 147.858 222.072 147.882C222.072 147.882 221.64 148.267 221.679 148.612C221.719 148.957 221.047 148.612 221.047 148.612Z" fill="#C7DCF9"/>
<path d="M225.33 149.102H220.209L220.628 148.506H224.932L225.33 149.102Z" fill="#A2C5F9"/>
<path d="M224.069 149.102H220.209L220.628 148.506H223.671L224.069 149.102Z" fill="#AFCDFB"/>
<path d="M220.8 149.95H221.837L222.139 154.523H221.837L220.8 149.95Z" fill="#D2E4F9"/>
<path d="M212.39 85.3906L119.019 88.7551L118.789 82.3637L212.16 79L212.39 85.3906Z" fill="#AFCDFB"/>
<path d="M161.665 98.1704H134.135V92.2839H161.665V98.1704Z" fill="#AFCDFB"/>
<path d="M197.99 98.1704H170.459V92.2839H197.99V98.1704Z" fill="#AFCDFB"/>
<path d="M161.665 149.922H134.135V144.034H161.665V149.922Z" fill="#AFCDFB"/>
<path d="M197.99 149.922H170.459V144.034H197.99V149.922Z" fill="#AFCDFB"/>
</svg>
