<svg width="312" height="282" viewBox="0 0 312 282" fill="none" xmlns="http://www.w3.org/2000/svg">
<rect width="312" height="282" fill="#FFF8F8"/>
<path d="M83.2572 202.21C83.2572 202.21 62.5487 179.975 79.7551 155.904C95.0217 134.546 112.821 136.006 125.881 144.673C131.442 148.365 147.478 145.128 161.127 123.395C179.74 93.7574 244.26 111.733 232.496 157.331C226.803 179.397 249.821 180.199 238.093 202.257L83.2572 202.21Z" fill="#EBF3FA"/>
<path d="M250.021 202.229H69.6872C69.5745 202.229 69.4824 202.137 69.4824 202.025V201.955C69.4824 201.842 69.5745 201.75 69.6872 201.75H250.021C250.133 201.75 250.226 201.842 250.226 201.955V202.025C250.226 202.137 250.133 202.229 250.021 202.229Z" fill="#2E3552"/>
<path d="M252.097 196.972C252.097 200.301 211.11 203 160.549 203C109.988 203 69 200.301 69 196.972C69 193.644 109.988 190.945 160.549 190.945C211.11 190.945 252.097 193.644 252.097 196.972Z" fill="#B9E5F9"/>
<path d="M154.711 189.708H170.094V155.127H154.711V189.708Z" fill="#93BCD3"/>
<path d="M157.241 170.728H167.563V143.687H157.241V170.728Z" fill="#93BCD3"/>
<path d="M162.723 149.667H162.081V137.707H162.723V149.667Z" fill="#93BCD3"/>
<path d="M141.788 201.479H117.997V166.899H141.788V201.479Z" fill="#93BCD3"/>
<path d="M130.85 182.499H120.528V159.943H130.85V182.499Z" fill="#93BCD3"/>
<path d="M89.002 121.587V123.667H109.679V121.587H89.002Z" fill="#93BCD3"/>
<path d="M89.002 133.027H109.679V130.947H89.002V133.027Z" fill="#93BCD3"/>
<path d="M89.002 142.387H109.679V140.307H89.002V142.387Z" fill="#93BCD3"/>
<path d="M89.002 151.747H109.679V149.667H89.002V151.747Z" fill="#93BCD3"/>
<path d="M89.002 161.108H109.679V159.027H89.002V161.108Z" fill="#93BCD3"/>
<path d="M89.002 170.468H109.679V168.388H89.002V170.468Z" fill="#93BCD3"/>
<path d="M106.58 128.867H103.95V124.707H106.58V128.867ZM106.58 138.305H103.95V134.145H106.58V138.305ZM106.58 147.743H103.95V143.583H106.58V147.743ZM106.58 157.181H103.95V153.021H106.58V157.181ZM106.58 166.62H103.95V162.459H106.58V166.62ZM106.58 176.058H103.95V171.898H106.58V176.058ZM100.673 128.867H98.0429V124.707H100.673V128.867ZM100.673 138.305H98.0429V134.145H100.673V138.305ZM100.673 147.743H98.0429V143.583H100.673V147.743ZM100.673 157.181H98.0429V153.021H100.673V157.181ZM100.673 166.62H98.0429V162.459H100.673V166.62ZM100.673 176.058H98.0429V171.898H100.673V176.058ZM94.766 128.867H92.1361V124.707H94.766V128.867ZM94.766 138.305H92.1361V134.145H94.766V138.305ZM94.766 147.743H92.1361V143.583H94.766V147.743ZM94.766 157.181H92.1361V153.021H94.766V157.181ZM94.766 166.62H92.1361V162.459H94.766V166.62ZM94.766 176.058H92.1361V171.898H94.766V176.058ZM90.2783 122.627V196.988H108.579V122.627H90.2783Z" fill="#93BCD3"/>
<path d="M199.622 181.908V181.645H183.176V120.029H199.36L199.36 181.908H199.622V181.645V181.908H199.885V119.504H182.65V182.17H199.885V181.908H199.622Z" fill="#93BCD3"/>
<path d="M196.164 137.686L186.325 147.331H194.68L186.948 154.911L187.499 155.474L196.609 146.543H188.254L196.716 138.249L196.164 137.686Z" fill="#93BCD3"/>
<path d="M200.948 121.327H181.587V118.987H200.948V121.327Z" fill="#93BCD3"/>
<path d="M200.948 130.08H181.587V127.74H200.948V130.08Z" fill="#93BCD3"/>
<path d="M200.948 138.834H181.587V136.494H200.948V138.834Z" fill="#93BCD3"/>
<path d="M200.948 147.588H181.587V145.248H200.948V147.588Z" fill="#93BCD3"/>
<path d="M200.948 156.342H181.587V154.002H200.948V156.342Z" fill="#93BCD3"/>
<path d="M181.587 165.095H200.948V162.755H181.587V165.095Z" fill="#93BCD3"/>
<path d="M200.948 173.849H181.587V171.509H200.948V173.849Z" fill="#93BCD3"/>
<path d="M207.969 174.888V175.069H210.715V94.069L209.788 77.9999H208.528L207.787 94.0704V175.069H207.969V174.888H208.15V94.0788L208.875 78.3625H209.446L210.352 94.0796V174.706H207.969V174.888H208.15H207.969Z" fill="#93BCD3"/>
<path d="M208.499 83.8715L208.761 78.1813H209.677L210.004 83.8555C209.502 83.86 209.001 83.8653 208.499 83.8715Z" fill="#93BCD3"/>
<path d="M206.137 178.12H212.365V144.358H206.137V178.12Z" fill="#93BCD3"/>
<path d="M203.022 182.43H215.479V154.056H203.022V182.43Z" fill="#93BCD3"/>
<path d="M151.149 96.3194V96.5007H234.866V93.2647H150.968V96.5007H151.149V96.3194H151.33V93.6273H234.503V96.1381H151.149V96.3194H151.33H151.149Z" fill="#93BCD3"/>
<path d="M227.906 96.3193H234.684V93.4459H227.906V96.3193Z" fill="#93BCD3"/>
<path d="M148.218 97.2174H157.835V92.4583H148.218V97.2174Z" fill="#93BCD3"/>
<path d="M200.702 110.506H208.579V99.9112H200.702V110.506Z" fill="#93BCD3"/>
<path d="M212.976 94.9724C212.976 96.857 211.418 98.3848 209.495 98.3848C207.573 98.3848 206.015 96.857 206.015 94.9724C206.015 93.0881 207.573 91.5603 209.495 91.5603C211.418 91.5603 212.976 93.0881 212.976 94.9724Z" fill="#93BCD3"/>
<path d="M215.907 101.438H226.166V96.4091H215.907V101.438Z" fill="#93BCD3"/>
<path d="M225.194 93.4062L209.497 78.0188L164.28 93.3642L164.397 93.7075L209.402 78.4338L224.94 93.6655L225.194 93.4062Z" fill="#93BCD3"/>
<path d="M155.576 131.787H178.292V126.759H155.576V131.787Z" fill="#93BCD3"/>
<path d="M166.753 128.076H167.116V96.4691H166.753V128.076Z" fill="#93BCD3"/>
<path d="M163.331 97.4268H170.903V96.4691H163.331V97.4268Z" fill="#93BCD3"/>
<path d="M100.634 113.023H95.4941V110.504H100.634V113.023Z" fill="#93BCD3"/>
<path d="M108.252 117.567H104.306V112.258H108.252V117.567Z" fill="#93BCD3"/>
<path d="M102.103 109.784C102.103 110.728 102.883 111.493 103.846 111.493C104.809 111.493 105.59 110.728 105.59 109.784C105.59 108.84 104.809 108.074 103.846 108.074C102.883 108.074 102.103 108.84 102.103 109.784Z" fill="#93BCD3"/>
<path d="M133.08 110.459V110.327H91.3574V109.15H132.949V110.459H133.08V110.327V110.459H133.212V108.888H91.0947V110.59H133.212V110.459H133.08Z" fill="#93BCD3"/>
<path d="M94.6227 110.458H91.2266V109.019H94.6227V110.458Z" fill="#93BCD3"/>
<path d="M134.549 110.908H129.73V108.524H134.549V110.908Z" fill="#93BCD3"/>
<path d="M104.612 123.667V123.535H103.458V109.338L103.909 101.502H104.119L104.48 109.337V123.667H104.612V123.535V123.667H104.743V109.331L104.37 101.239H103.662L103.195 109.33V123.798H104.743V123.667H104.612Z" fill="#93BCD3"/>
<path d="M104.346 104.222L104.214 101.371H103.755L103.592 104.214C103.843 104.216 104.094 104.219 104.346 104.222Z" fill="#93BCD3"/>
<path d="M96.1369 109.158L103.904 101.544L126.43 109.188L126.514 108.94L103.836 101.243L95.9531 108.97L96.1369 109.158Z" fill="#93BCD3"/>
<path d="M130.862 128.229H119.48V125.71H130.862V128.229Z" fill="#93BCD3"/>
<path d="M125.081 126.37H125.263V110.534H125.081V126.37Z" fill="#93BCD3"/>
<path d="M126.976 111.013H123.183V110.534H126.976V111.013Z" fill="#93BCD3"/>
<path d="M102.675 196.161H91.6885L94.9276 176.515H99.3674L102.675 196.161Z" fill="#F7C0A4"/>
<path d="M92.3407 192.205L91.6885 196.161H102.675L102.009 192.205H92.3407Z" fill="#CE8B76"/>
<path d="M100.143 181.123H94.167L94.6327 178.298H99.667L100.143 181.123Z" fill="#FBC8A9"/>
<path d="M100.911 185.687H93.415L93.8809 182.862H100.436L100.911 185.687Z" fill="#FBC8A9"/>
<path d="M107.345 196.008C107.345 196.548 106.923 196.986 106.403 196.986H87.9615C87.4408 196.986 87.0186 196.548 87.0186 196.008C87.0186 195.468 87.4408 195.03 87.9615 195.03H106.403C106.923 195.03 107.345 195.468 107.345 196.008Z" fill="#F7C0A4"/>
<path d="M242.789 196.161H231.803L235.042 176.515H239.482L242.789 196.161Z" fill="#F7C0A4"/>
<path d="M232.455 192.205L231.803 196.161H242.789L242.124 192.205H232.455Z" fill="#CE8B76"/>
<path d="M240.258 181.123H234.282L234.748 178.298H239.782L240.258 181.123Z" fill="#FBC8A9"/>
<path d="M241.026 185.687H233.529L233.995 182.862H240.55L241.026 185.687Z" fill="#FBC8A9"/>
<path d="M247.46 196.008C247.46 196.548 247.037 196.986 246.517 196.986H228.076C227.555 196.986 227.133 196.548 227.133 196.008C227.133 195.468 227.555 195.03 228.076 195.03H246.517C247.037 195.03 247.46 195.468 247.46 196.008Z" fill="#F7C0A4"/>
<path d="M119.329 193.123H108.342L111.581 173.477H116.021L119.329 193.123Z" fill="#F7C0A4"/>
<path d="M108.994 189.167L108.342 193.123H119.329L118.663 189.167H108.994Z" fill="#CE8B76"/>
<path d="M116.796 178.085H110.82L111.286 175.26H116.32L116.796 178.085Z" fill="#FBC8A9"/>
<path d="M117.565 182.648H110.068L110.534 179.823H117.089L117.565 182.648Z" fill="#FBC8A9"/>
<path d="M123.999 192.97C123.999 193.51 123.577 193.948 123.056 193.948H104.615C104.094 193.948 103.672 193.51 103.672 192.97C103.672 192.43 104.094 191.992 104.615 191.992H123.056C123.577 191.992 123.999 192.43 123.999 192.97Z" fill="#F7C0A4"/>
<path d="M166.857 195.303H169.076V156.205H166.857V195.303Z" fill="#535C68"/>
<path d="M219.452 195.303H221.671V156.205H219.452V195.303Z" fill="#535C68"/>
<path d="M160.059 169.518H228.469V160.273H160.059V169.518Z" fill="#F7C0A4"/>
<path d="M161.358 169.517H160.059V165.006L164.792 160.272H170.603L161.358 169.517Z" fill="#FBC8A9"/>
<path d="M172.562 169.518H166.751L175.996 160.273H181.807L172.562 169.518Z" fill="#FBC8A9"/>
<path d="M183.766 169.518H177.955L187.2 160.273H193.011L183.766 169.518Z" fill="#FBC8A9"/>
<path d="M194.97 169.518H189.159L198.404 160.273H204.215L194.97 169.518Z" fill="#FBC8A9"/>
<path d="M206.173 169.518H200.362L209.607 160.273H215.418L206.173 169.518Z" fill="#FBC8A9"/>
<path d="M217.377 169.518H211.566L220.811 160.273H226.622L217.377 169.518Z" fill="#FBC8A9"/>
<path d="M228.469 169.518H222.77L228.469 163.818V169.518Z" fill="#FBC8A9"/>
<path d="M160.059 184.312H228.469V175.066H160.059V184.312Z" fill="#F7C0A4"/>
<path d="M161.358 184.311H160.059V179.8L164.792 175.066H170.603L161.358 184.311Z" fill="#FBC8A9"/>
<path d="M172.562 184.312H166.751L175.996 175.066H181.807L172.562 184.312Z" fill="#FBC8A9"/>
<path d="M183.766 184.312H177.955L187.2 175.066H193.011L183.766 184.312Z" fill="#FBC8A9"/>
<path d="M194.97 184.312H189.159L198.404 175.066H204.215L194.97 184.312Z" fill="#FBC8A9"/>
<path d="M206.173 184.312H200.362L209.607 175.066H215.418L206.173 184.312Z" fill="#FBC8A9"/>
<path d="M217.377 184.312H211.566L220.811 175.066H226.622L217.377 184.312Z" fill="#FBC8A9"/>
<path d="M228.469 184.312H222.77L228.469 178.612V184.312Z" fill="#FBC8A9"/>
<path d="M147.875 125.139C147.875 125.139 154.444 162.308 154.736 192.209C154.736 192.209 150.365 193.868 148.911 192.803C147.426 185.766 146.664 176.89 144.452 166.707C142.368 157.12 140.003 145.775 140.003 145.775L139.13 145.946C139.13 145.946 134.692 189.733 134.025 193.305C129.437 194.598 127.754 192.795 127.754 192.795C127.754 192.795 127.253 140.809 128.176 131.34C129.386 118.934 147.875 125.139 147.875 125.139Z" fill="#849ECB"/>
<path d="M127.63 171.727C127.663 183.322 127.754 192.795 127.754 192.795C127.754 192.795 129.438 194.598 134.025 193.305C134.325 191.7 135.385 181.98 136.463 171.76C133.523 171.855 130.571 171.682 127.63 171.727Z" fill="#7395C7"/>
<path d="M150.28 142.543C152.048 155.849 154.549 173.019 154.736 192.209C154.736 192.209 150.365 193.868 148.912 192.803C147.427 185.765 146.665 176.89 144.452 166.707C142.504 157.744 140.311 147.247 140.033 145.917C143.65 145.275 147.134 144.243 150.28 142.543Z" fill="#7395C7"/>
<path d="M126.205 173.757L136.96 174.225L134.622 195.035C134.622 195.035 114.048 199.01 126.907 193.866L126.205 173.757Z" fill="#F7C0A4"/>
<path d="M155.665 173.29L145.611 174.225L149.118 195.269C149.118 195.269 170.73 197.02 157.362 193.401L155.665 173.29Z" fill="#F7C0A4"/>
<path d="M123.283 108.333C123.283 108.333 119.893 109.503 118.958 111.724C118.023 113.945 122.582 133.236 126.907 133.352C131.233 133.469 123.283 108.333 123.283 108.333Z" fill="#B5C2C7"/>
<path d="M129.4 99.5653L130.803 105.722L136.726 104.865L131.738 97.5386L129.4 99.5653Z" fill="#F9A771"/>
<path d="M172.187 97.2668C172.187 97.2668 182.014 94.5324 182.162 95.2715C182.31 96.0106 177.137 97.4885 177.137 97.4885L178.394 96.528C178.394 96.528 179.65 97.2668 178.911 98.0799C178.911 98.0799 179.798 98.745 178.394 99.41C178.394 99.41 179.428 100.149 177.803 100.593C176.177 101.036 172.261 102.218 172.261 102.218L172.187 97.2668Z" fill="#F9A771"/>
<path d="M130.347 105.431C130.347 105.431 139.781 124.886 139.957 124.36C140.132 123.834 148.373 113.312 148.373 113.312L175.304 101.748L174.271 96.4285L146.971 103.142H140.132L129.787 105.421" fill="#B5C2C7"/>
<path d="M150.845 102.189L147.111 103.107C147.134 104.173 147.139 105.24 147.154 106.307C147.181 108.143 147.312 109.957 147.456 111.786C147.521 112.605 147.584 113.424 147.647 114.243C148.098 113.665 148.374 113.312 148.374 113.312L152.716 111.448C151.952 108.39 151.297 105.308 150.845 102.189Z" fill="#61B8D2"/>
<path d="M144.118 106.476C144.025 106.39 144.026 106.196 144.171 106.176C145.059 106.052 145.95 105.999 146.843 105.983C146.832 105.036 146.825 104.089 146.805 103.142H140.133L129.927 105.391L129.952 105.424L130.348 105.431C130.348 105.431 130.521 105.789 130.821 106.405C134.326 109.776 140.967 110.381 144.118 106.476Z" fill="#61B8D2"/>
<path d="M149.235 102.488L140.97 103.153L138.246 116.751L131.337 104.3L130.882 104.359L122.465 108.217L127.375 140.016C127.375 140.016 133.921 142.588 139.766 142.121V137.444L140.818 142.121C140.818 142.121 147.014 141.536 150.872 137.795L149.235 102.488Z" fill="#F7C0A4"/>
<path d="M124.352 105.597L129.261 124.711L120.845 125.763L121.721 128.919L153.634 125.588L153.283 122.431L147.848 122.782L146.094 100.687L142.938 100.862L144.165 123.133L132.417 124.535L127.858 103.317L124.352 105.597Z" fill="#E4B780"/>
<path d="M121.021 131.9L153.809 128.744L154.16 131.374L121.897 135.057L121.021 131.9Z" fill="#E4B780"/>
<path d="M149.449 133.322L134.562 136.395L130.537 116.892L145.424 113.819L149.449 133.322Z" fill="#535C68"/>
<path d="M140.629 115.672L135.11 116.811L134.693 114.791L140.213 113.651L140.629 115.672Z" fill="#AA9F8F"/>
<path d="M139.766 122.947C139.766 122.947 149.351 119.323 147.013 121.661C147.013 121.661 149.001 121.778 147.247 122.831C147.247 122.831 148.884 123.298 147.715 123.883C147.715 123.883 149.702 124.35 146.897 125.519C144.091 126.689 138.597 129.261 138.597 129.261L139.766 122.947Z" fill="#F9A771"/>
<path d="M141.753 122.129L128.63 125.171L122.465 108.217L124.218 127.974L124.278 127.953L124.588 131.632C127.74 137.614 143.741 127.039 143.741 127.039L141.753 122.129Z" fill="#B5C2C7"/>
<path d="M140.375 89.0454C140.298 88.7713 140.253 88.6185 140.253 88.6185L129.232 90.4983C130.221 111.889 140.121 103.926 142.059 102.633C143.785 101.482 141.005 91.2702 140.375 89.0454Z" fill="#F9A771"/>
<path d="M130.56 90.8251C130.56 90.8251 131.882 103.12 133.668 103.268C135.453 103.415 134.075 101.149 133.935 99.3677C133.795 97.586 137.873 97.4478 139.8 97.5453C141.585 97.6356 140.837 101.672 141.469 101.605C142.101 101.539 142.831 100.263 142.277 97.6815C142.277 97.6815 145.903 101.831 142.611 105.099C139.32 108.367 133.556 107.642 131.224 105.431C128.892 103.219 130.313 101.991 129.867 98.8901C129.421 95.7894 129.24 95.2165 129.24 95.2165C129.24 95.2165 128.306 94.2512 127.805 95.4665L127.466 91.7313L130.56 90.8251Z" fill="#535C68"/>
<path d="M129.803 98.4308C129.803 98.4308 129.752 94.8065 128.543 94.7084C127.333 94.6101 126.839 100.429 129.937 99.81L129.803 98.4308Z" fill="#F9A771"/>
<path d="M129.273 90.6931C130.893 90.3024 132.524 89.9624 134.153 89.6166C136.272 89.1665 138.384 88.6967 140.454 88.0821C140.225 84.3118 137.069 81.3509 133.254 81.4039C129.324 81.4588 126.183 84.6888 126.238 88.6185C126.251 89.5785 126.455 90.491 126.812 91.3218C127.63 91.1267 128.444 90.8932 129.273 90.6931Z" fill="#F7C0A4"/>
<path d="M136.061 88.0288C136.109 88.4204 136.122 88.8083 136.107 89.1903C137.024 88.9849 137.937 88.7668 138.844 88.5291C138.843 88.2536 138.828 87.9759 138.793 87.6956C138.381 84.3084 135.651 81.77 132.386 81.4709C131.761 81.5559 131.162 81.7215 130.601 81.9575C133.434 82.6125 135.689 84.9749 136.061 88.0288Z" fill="#E4B780"/>
<path d="M143.105 89.0723C143.172 89.3887 142.969 89.6995 142.653 89.7662L126.468 93.3487C126.151 93.4154 125.841 93.2131 125.774 92.8967L125.303 90.6614C125.236 90.345 125.439 90.0345 125.755 89.9675L141.94 86.385C142.256 86.3183 142.567 86.5206 142.634 86.8374L143.105 89.0723Z" fill="#E4B780"/>
<path d="M143.063 88.8682L125.734 92.7041L125.775 92.8967C125.841 93.2131 126.152 93.4154 126.469 93.3487L142.654 89.7662C142.97 89.6995 143.173 89.3887 143.106 89.0723L143.063 88.8682Z" fill="#F7C0A4"/>
<path d="M129.524 99.2618C129.405 99.2296 129.288 99.1825 129.181 99.1141C129.128 99.0805 129.077 99.0413 129.032 98.9933C128.987 98.9462 128.946 98.8894 128.925 98.8224C128.9 98.7571 128.898 98.68 128.915 98.6127C128.926 98.5799 128.931 98.5427 128.948 98.5135L128.998 98.4241C129.014 98.3933 129.038 98.372 129.058 98.3453L129.122 98.2702L129.266 98.1405L129.234 98.208C129.194 97.7946 129.148 97.3789 129.082 96.9706C129.049 96.7663 129.009 96.5636 128.957 96.3671C128.931 96.269 128.903 96.1718 128.866 96.0813C128.83 95.9916 128.785 95.903 128.731 95.8467C128.673 95.7912 128.647 95.7791 128.574 95.8223C128.516 95.8447 128.507 95.8755 128.481 95.8982C128.455 95.9221 128.434 95.972 128.409 96.0076C128.368 96.0928 128.333 96.1847 128.308 96.2825C128.284 96.3803 128.263 96.4801 128.25 96.5821C128.195 96.9899 128.185 97.4098 128.192 97.8294C128.152 97.6228 128.129 97.4134 128.111 97.2029C128.092 96.9924 128.093 96.7803 128.106 96.567C128.112 96.4602 128.127 96.3534 128.145 96.2461C128.164 96.1387 128.193 96.0311 128.238 95.9249C128.27 95.8727 128.287 95.8217 128.333 95.7693C128.38 95.7172 128.435 95.6608 128.477 95.6446L128.512 95.625L128.529 95.6152C128.565 95.5975 128.555 95.6062 128.571 95.6006C128.609 95.5902 128.648 95.5857 128.69 95.5927C128.771 95.6042 128.839 95.6494 128.883 95.6962C128.975 95.792 129.023 95.8963 129.068 95.9986C129.111 96.1017 129.143 96.2057 129.172 96.3097C129.229 96.5179 129.264 96.7279 129.296 96.9375C129.356 97.3576 129.389 97.7775 129.394 98.2007L129.394 98.243L129.362 98.2683L129.223 98.3762L129.163 98.437L129.106 98.5001L129.06 98.5687L129.029 98.6419C129.016 98.6665 129.019 98.6923 129.016 98.7178C129.009 98.7439 129.017 98.7691 129.021 98.7952C129.03 98.8473 129.057 98.8978 129.091 98.9437C129.124 98.9903 129.167 99.0323 129.213 99.0704C129.307 99.1455 129.412 99.21 129.524 99.2618Z" fill="#DCBCB7"/>
<path d="M137.454 97.5605C138.04 97.3489 138.635 97.1743 139.232 97.0115L139.149 97.2211C139.025 97.0496 138.91 96.8764 138.795 96.7009C138.68 96.526 138.569 96.3484 138.465 96.1673C138.246 95.8105 138.057 95.4358 137.867 95.063C137.696 94.6796 137.515 94.3015 137.388 93.8993L137.288 93.6011C137.251 93.5033 137.228 93.4001 137.206 93.297C137.158 93.0918 137.117 92.8864 137.079 92.6818C137.166 92.8738 137.249 93.0646 137.326 93.2561C137.397 93.4494 137.502 93.6308 137.587 93.818L137.719 94.0974C137.76 94.1913 137.814 94.2802 137.862 94.3718L138.146 94.9206C138.249 95.0994 138.344 95.2822 138.444 95.463L138.749 96.0014C138.847 96.183 138.959 96.3565 139.06 96.537C139.161 96.7164 139.271 96.8926 139.375 97.0681L139.48 97.2427L139.293 97.278C138.685 97.3924 138.074 97.495 137.454 97.5605Z" fill="#DCBCB7"/>
<path d="M137.302 92.6506C137.302 92.6506 137.306 92.5758 137.344 92.4542C137.362 92.3925 137.389 92.3202 137.425 92.2395C137.464 92.1615 137.506 92.0674 137.57 91.9796C137.629 91.8872 137.699 91.7893 137.787 91.6974C137.869 91.599 137.977 91.5161 138.085 91.425C138.204 91.3493 138.322 91.2571 138.464 91.2022C138.534 91.1725 138.603 91.1385 138.675 91.1125L138.9 91.0528C139.049 91.0093 139.207 91.0099 139.358 90.9995C139.51 90.9956 139.658 91.025 139.798 91.043C139.936 91.0744 140.065 91.1228 140.184 91.1649C140.304 91.2072 140.403 91.2806 140.497 91.3345C140.592 91.3885 140.673 91.444 140.737 91.5079C140.804 91.5657 140.856 91.6226 140.9 91.6677C140.987 91.7588 141.03 91.8174 141.03 91.8174C141.03 91.8174 140.953 91.8176 140.83 91.8064C140.769 91.8003 140.696 91.7952 140.616 91.7818C140.537 91.7661 140.444 91.7669 140.349 91.7577C140.252 91.7549 140.152 91.7355 140.047 91.7369C139.945 91.7352 139.837 91.7336 139.726 91.7322C139.617 91.7456 139.507 91.7434 139.397 91.7565C139.29 91.7823 139.177 91.777 139.071 91.8148L138.909 91.8504C138.857 91.8698 138.803 91.8858 138.751 91.9029C138.642 91.9295 138.545 91.9844 138.44 92.0178C138.344 92.0693 138.239 92.1041 138.149 92.1576C138.055 92.205 137.964 92.2512 137.881 92.2994C137.716 92.3953 137.571 92.4819 137.468 92.5469C137.362 92.6131 137.302 92.6506 137.302 92.6506Z" fill="#535C68"/>
<path d="M132.127 93.7554C132.127 93.7554 132.131 93.6803 132.17 93.5589C132.187 93.4972 132.214 93.4249 132.25 93.3442C132.289 93.266 132.331 93.1721 132.395 93.0844C132.454 92.9919 132.524 92.8941 132.612 92.8022C132.694 92.7038 132.802 92.6208 132.91 92.5297C133.029 92.454 133.147 92.3618 133.289 92.3069C133.359 92.2772 133.428 92.2433 133.5 92.2169L133.725 92.1572C133.875 92.1141 134.032 92.1146 134.183 92.1043C134.335 92.1003 134.483 92.1295 134.623 92.1474C134.762 92.1791 134.89 92.2276 135.01 92.2696C135.13 92.3119 135.229 92.3851 135.323 92.4392C135.417 92.4933 135.499 92.5485 135.562 92.6127C135.628 92.6704 135.682 92.7273 135.725 92.7722C135.812 92.8632 135.855 92.9218 135.855 92.9218C135.855 92.9218 135.778 92.9224 135.655 92.9112C135.595 92.905 135.521 92.9 135.442 92.8862C135.362 92.8708 135.269 92.8717 135.174 92.8624C135.077 92.8596 134.978 92.8403 134.872 92.8417C134.77 92.84 134.662 92.8383 134.551 92.8366C134.442 92.8501 134.332 92.8478 134.223 92.8613C134.115 92.8868 134.002 92.8817 133.896 92.9193L133.734 92.9552C133.682 92.9745 133.629 92.9902 133.576 93.0073C133.468 93.0342 133.37 93.0892 133.265 93.1225C133.169 93.1741 133.064 93.2088 132.974 93.2624C132.88 93.3097 132.789 93.356 132.707 93.4042C132.541 93.5 132.396 93.5864 132.293 93.6514C132.187 93.7175 132.127 93.7554 132.127 93.7554Z" fill="#535C68"/>
<path d="M135.425 94.5943C135.512 95.0997 135.443 95.5336 135.27 95.5635C135.097 95.5935 134.886 95.2084 134.798 94.7031C134.71 94.198 134.779 93.7642 134.952 93.7342C135.126 93.7039 135.337 94.089 135.425 94.5943Z" fill="#535C68"/>
<path d="M140.435 93.7151C140.523 94.2204 140.454 94.6543 140.281 94.6843C140.108 94.7143 139.896 94.3292 139.809 93.8238C139.721 93.3188 139.79 92.8849 139.963 92.8546C140.136 92.8246 140.348 93.21 140.435 93.7151Z" fill="#535C68"/>
<path d="M134.658 99.1902C134.658 99.1902 137.223 98.987 140.067 98.7799C140.067 98.7799 137.872 101.546 134.658 99.1902Z" fill="white"/>
</svg>
