<svg width="145" height="146" viewBox="0 0 145 146" fill="none" xmlns="http://www.w3.org/2000/svg">
<ellipse cx="2.70737" cy="2.52194" rx="2.48276" ry="2.5" fill="#F5D89F"/>
<ellipse cx="22.5697" cy="2.52194" rx="2.48276" ry="2.5" fill="#F5D89F"/>
<ellipse cx="42.432" cy="2.52194" rx="2.48276" ry="2.5" fill="#F5D89F"/>
<ellipse cx="62.2933" cy="2.52194" rx="2.48276" ry="2.5" fill="#F5D89F"/>
<ellipse cx="82.1556" cy="2.52194" rx="2.48276" ry="2.5" fill="#F5D89F"/>
<ellipse cx="102.018" cy="2.52194" rx="2.48276" ry="2.5" fill="#F5D89F"/>
<ellipse cx="121.88" cy="2.52194" rx="2.48276" ry="2.5" fill="#F5D89F"/>
<ellipse cx="141.742" cy="2.52194" rx="2.48276" ry="2.5" fill="#F5D89F"/>
<ellipse cx="2.70737" cy="22.5219" rx="2.48276" ry="2.5" fill="#F5D89F"/>
<ellipse cx="22.5697" cy="22.5219" rx="2.48276" ry="2.5" fill="#F5D89F"/>
<ellipse cx="42.432" cy="22.5219" rx="2.48276" ry="2.5" fill="#F5D89F"/>
<ellipse cx="62.2933" cy="22.5219" rx="2.48276" ry="2.5" fill="#F5D89F"/>
<ellipse cx="82.1556" cy="22.5219" rx="2.48276" ry="2.5" fill="#F5D89F"/>
<ellipse cx="102.018" cy="22.5219" rx="2.48276" ry="2.5" fill="#F5D89F"/>
<ellipse cx="121.88" cy="22.5219" rx="2.48276" ry="2.5" fill="#F5D89F"/>
<ellipse cx="141.742" cy="22.5219" rx="2.48276" ry="2.5" fill="#F5D89F"/>
<ellipse cx="2.70737" cy="42.5219" rx="2.48276" ry="2.5" fill="#F5D89F"/>
<ellipse cx="22.5697" cy="42.5219" rx="2.48276" ry="2.5" fill="#F5D89F"/>
<ellipse cx="42.432" cy="42.5219" rx="2.48276" ry="2.5" fill="#F5D89F"/>
<ellipse cx="62.2933" cy="42.5219" rx="2.48276" ry="2.5" fill="#F5D89F"/>
<ellipse cx="82.1556" cy="42.5219" rx="2.48276" ry="2.5" fill="#F5D89F"/>
<ellipse cx="102.018" cy="42.5219" rx="2.48276" ry="2.5" fill="#F5D89F"/>
<ellipse cx="121.88" cy="42.5219" rx="2.48276" ry="2.5" fill="#F5D89F"/>
<ellipse cx="141.742" cy="42.5219" rx="2.48276" ry="2.5" fill="#F5D89F"/>
<ellipse cx="2.70737" cy="62.5219" rx="2.48276" ry="2.5" fill="#F5D89F"/>
<ellipse cx="22.5697" cy="62.5219" rx="2.48276" ry="2.5" fill="#F5D89F"/>
<ellipse cx="42.432" cy="62.5219" rx="2.48276" ry="2.5" fill="#F5D89F"/>
<ellipse cx="62.2933" cy="62.5219" rx="2.48276" ry="2.5" fill="#F5D89F"/>
<ellipse cx="82.1556" cy="62.5219" rx="2.48276" ry="2.5" fill="#F5D89F"/>
<ellipse cx="102.018" cy="62.5219" rx="2.48276" ry="2.5" fill="#F5D89F"/>
<ellipse cx="121.88" cy="62.5219" rx="2.48276" ry="2.5" fill="#F5D89F"/>
<ellipse cx="141.742" cy="62.5219" rx="2.48276" ry="2.5" fill="#F5D89F"/>
<ellipse cx="2.70737" cy="82.5219" rx="2.48276" ry="2.5" fill="#F5D89F"/>
<ellipse cx="22.5697" cy="82.5219" rx="2.48276" ry="2.5" fill="#F5D89F"/>
<ellipse cx="42.432" cy="82.5219" rx="2.48276" ry="2.5" fill="#F5D89F"/>
<ellipse cx="62.2933" cy="82.5219" rx="2.48276" ry="2.5" fill="#F5D89F"/>
<ellipse cx="82.1556" cy="82.5219" rx="2.48276" ry="2.5" fill="#F5D89F"/>
<ellipse cx="102.018" cy="82.5219" rx="2.48276" ry="2.5" fill="#F5D89F"/>
<ellipse cx="121.88" cy="82.5219" rx="2.48276" ry="2.5" fill="#F5D89F"/>
<ellipse cx="141.742" cy="82.5219" rx="2.48276" ry="2.5" fill="#F5D89F"/>
<ellipse cx="2.70737" cy="102.522" rx="2.48276" ry="2.5" fill="#F5D89F"/>
<ellipse cx="22.5697" cy="102.522" rx="2.48276" ry="2.5" fill="#F5D89F"/>
<ellipse cx="42.432" cy="102.522" rx="2.48276" ry="2.5" fill="#F5D89F"/>
<ellipse cx="62.2933" cy="102.522" rx="2.48276" ry="2.5" fill="#F5D89F"/>
<ellipse cx="82.1556" cy="102.522" rx="2.48276" ry="2.5" fill="#F5D89F"/>
<ellipse cx="102.018" cy="102.522" rx="2.48276" ry="2.5" fill="#F5D89F"/>
<ellipse cx="121.88" cy="102.522" rx="2.48276" ry="2.5" fill="#F5D89F"/>
<ellipse cx="141.742" cy="102.522" rx="2.48276" ry="2.5" fill="#F5D89F"/>
<ellipse cx="2.70737" cy="122.522" rx="2.48276" ry="2.5" fill="#F5D89F"/>
<ellipse cx="22.5697" cy="122.522" rx="2.48276" ry="2.5" fill="#F5D89F"/>
<ellipse cx="42.432" cy="122.522" rx="2.48276" ry="2.5" fill="#F5D89F"/>
<ellipse cx="62.2933" cy="122.522" rx="2.48276" ry="2.5" fill="#F5D89F"/>
<ellipse cx="82.1556" cy="122.522" rx="2.48276" ry="2.5" fill="#F5D89F"/>
<ellipse cx="102.018" cy="122.522" rx="2.48276" ry="2.5" fill="#F5D89F"/>
<ellipse cx="121.88" cy="122.522" rx="2.48276" ry="2.5" fill="#F5D89F"/>
<ellipse cx="141.742" cy="122.522" rx="2.48276" ry="2.5" fill="#F5D89F"/>
<ellipse cx="2.70737" cy="142.522" rx="2.48276" ry="2.5" fill="#F5D89F"/>
<ellipse cx="22.5697" cy="142.522" rx="2.48276" ry="2.5" fill="#F5D89F"/>
<ellipse cx="42.432" cy="142.522" rx="2.48276" ry="2.5" fill="#F5D89F"/>
<ellipse cx="62.2933" cy="142.522" rx="2.48276" ry="2.5" fill="#F5D89F"/>
<ellipse cx="82.1556" cy="142.522" rx="2.48276" ry="2.5" fill="#F5D89F"/>
<ellipse cx="102.018" cy="142.522" rx="2.48276" ry="2.5" fill="#F5D89F"/>
<ellipse cx="121.88" cy="142.522" rx="2.48276" ry="2.5" fill="#F5D89F"/>
<ellipse cx="141.742" cy="142.522" rx="2.48276" ry="2.5" fill="#F5D89F"/>
</svg>
