<svg width="312" height="282" viewBox="0 0 312 282" fill="none" xmlns="http://www.w3.org/2000/svg">
<rect width="312" height="282" fill="#FDF8FF"/>
<path d="M55.1145 225.945C55.1145 225.945 30.8903 199.936 51.0178 171.778C68.8764 146.794 89.6976 148.501 104.974 158.64C111.48 162.959 130.238 159.172 146.205 133.75C167.977 99.0807 243.451 120.108 229.69 173.447C223.03 199.259 249.957 200.198 236.237 226L55.1145 225.945Z" fill="#EBF3FA"/>
<path d="M250.189 225.968H39.2395C39.1078 225.968 39 225.86 39 225.729V225.646C39 225.515 39.1078 225.407 39.2395 225.407H250.189C250.32 225.407 250.428 225.515 250.428 225.646V225.729C250.428 225.86 250.32 225.968 250.189 225.968Z" fill="#2E3552"/>
<path d="M90.0879 200.864V196.203L109.167 189.96L176.572 196.483V201.207L132.602 224.076L90.0879 200.864Z" fill="#998B7A"/>
<path d="M176.572 201.207L133.625 226L90.0879 200.864L96.369 197.237C98.5162 195.991 100.962 195.335 103.454 195.335C105.932 195.335 108.386 195.991 110.533 197.237L139.257 213.827L161.766 200.838C163.92 199.592 166.359 198.937 168.851 198.937C171.329 198.937 173.782 199.592 175.936 200.838L176.572 201.207Z" fill="#BDA195"/>
<path d="M197.84 188.027L176.572 200.309L175.935 199.939C173.782 198.694 171.329 198.038 168.85 198.038C166.359 198.038 163.92 198.694 161.765 199.939L139.256 212.929L110.532 196.338C108.385 195.093 105.932 194.438 103.453 194.438C100.962 194.438 98.5157 195.093 96.3684 196.338L90.0873 199.966L69 187.793L133.223 150.718L197.84 188.027Z" fill="#E8DCD5"/>
<path d="M174.118 191.655L151.854 178.802C149.585 177.491 149.872 175.182 152.492 173.669L155.275 172.063C157.894 170.55 161.894 170.385 164.163 171.694L186.426 184.548C188.696 185.859 188.408 188.167 185.789 189.681L183.007 191.287C180.387 192.799 176.386 192.965 174.118 191.655Z" fill="#F8F6E1"/>
<path d="M177.976 192.147C179.729 192.147 181.491 191.71 182.81 190.947L185.592 189.341C186.847 188.618 187.564 187.682 187.564 186.776C187.564 186.056 187.091 185.385 186.23 184.889L163.967 172.033C163.04 171.497 161.738 171.202 160.307 171.202C158.553 171.202 156.791 171.641 155.471 172.404L152.688 174.009C151.434 174.733 150.715 175.668 150.715 176.574C150.715 177.294 151.19 177.965 152.051 178.462L174.314 191.315C175.241 191.853 176.542 192.147 177.976 192.147Z" fill="#8BA641"/>
<path d="M186.23 185.501L163.967 172.647C163.04 172.11 161.738 171.815 160.307 171.815C158.553 171.815 156.791 172.253 155.471 173.016L152.688 174.622C151.564 175.271 150.902 176.089 150.769 176.904C150.747 176.794 150.715 176.686 150.715 176.573C150.715 175.667 151.434 174.734 152.688 174.009L155.471 172.404C156.791 171.641 158.553 171.202 160.307 171.202C161.738 171.202 163.04 171.497 163.967 172.033L186.23 184.889C187.091 185.385 187.564 186.056 187.564 186.776C187.564 186.87 187.525 186.964 187.51 187.058C187.387 186.466 186.957 185.92 186.23 185.501Z" fill="#C9BCA1"/>
<path d="M204.275 205.532H169.081L176.572 201.207V200.309L197.841 188.027L187.854 182.261L197.581 182.547L220.836 195.972L204.275 205.532Z" fill="#ACA6B3"/>
<path d="M153.632 205.532H152.076L161.766 199.939C163.921 198.694 166.36 198.038 168.851 198.038C171.33 198.038 173.783 198.694 175.936 199.939L176.573 200.309V201.207L175.936 200.838C173.783 199.592 171.33 198.937 168.851 198.937C166.36 198.937 163.921 199.592 161.766 200.838L153.632 205.532Z" fill="#675A56"/>
<path d="M169.08 205.532H153.631L161.765 200.838C163.919 199.592 166.358 198.937 168.85 198.937C171.328 198.937 173.781 199.592 175.935 200.838L176.571 201.207L169.08 205.532Z" fill="#7F6969"/>
<path d="M152.075 205.532H139.912L161.926 192.822V184.617L174.117 191.655C175.145 192.248 176.527 192.539 177.974 192.539C179.725 192.539 181.572 192.115 183.006 191.287L185.788 189.681C188.408 188.167 188.695 185.859 186.426 184.548L182.174 182.094L187.853 182.261L197.84 188.027L176.571 200.309L175.935 199.939C173.781 198.694 171.328 198.038 168.85 198.038C166.358 198.038 163.919 198.694 161.765 199.939L152.075 205.532Z" fill="#9C8F96"/>
<path d="M177.974 192.539C176.526 192.539 175.145 192.248 174.117 191.655L161.926 184.617V184.176L161.545 184.397L161.926 184.176V184.164L174.314 191.315C175.241 191.853 176.542 192.147 177.976 192.147C179.728 192.147 181.49 191.71 182.809 190.947L185.592 189.341C186.846 188.618 187.564 187.682 187.564 186.776C187.564 186.056 187.09 185.385 186.23 184.889L181.347 182.069L182.174 182.094L186.426 184.548C188.695 185.859 188.408 188.167 185.788 189.681L183.006 191.287C181.572 192.115 179.725 192.539 177.974 192.539Z" fill="#A7A09E"/>
<path d="M177.976 192.147C176.542 192.147 175.241 191.853 174.314 191.315L161.927 184.164V181.304L162.283 181.509L180.229 182.036L186.23 185.502C186.957 185.92 187.387 186.466 187.51 187.058C187.525 186.964 187.564 186.87 187.564 186.776C187.564 187.682 186.847 188.618 185.592 189.341L182.81 190.947C181.491 191.71 179.729 192.147 177.976 192.147ZM173.699 183.857L169.916 186.04L173.699 188.224H178.868L182.65 186.04L178.868 183.857H173.699ZM187.564 186.776C187.564 186.056 187.091 185.385 186.23 184.889L181.348 182.069L186.23 184.889C187.091 185.385 187.564 186.056 187.564 186.776Z" fill="#5E6C2E"/>
<path d="M187.51 187.058C187.387 186.466 186.957 185.92 186.231 185.501L180.229 182.036L181.348 182.069L186.231 184.889C187.092 185.385 187.565 186.056 187.565 186.776C187.565 186.87 187.526 186.964 187.51 187.058Z" fill="#887A71"/>
<path d="M105.248 184.334L108.946 182.2C111.27 180.857 110.976 178.492 108.292 176.942L105.442 175.297C102.758 173.748 98.6613 173.578 96.3373 174.92L92.6399 177.055C90.316 178.397 90.6103 180.762 93.294 182.311L96.1436 183.957C98.8273 185.506 102.924 185.676 105.248 184.334Z" fill="#F8F6E1"/>
<path d="M101.296 184.837C99.5018 184.837 97.6965 184.391 96.3455 183.609L93.495 181.963C92.2101 181.223 91.4746 180.264 91.4746 179.336C91.4746 178.599 91.9595 177.912 92.8418 177.403L96.5384 175.267C97.4883 174.718 98.8209 174.416 100.288 174.416C102.085 174.416 103.889 174.864 105.24 175.646L108.091 177.291C109.376 178.033 110.113 178.99 110.113 179.917C110.113 180.656 109.626 181.344 108.745 181.852L105.047 183.987C104.098 184.536 102.765 184.837 101.296 184.837Z" fill="#8BA641"/>
<path d="M92.8418 178.031L96.5384 175.895C97.4883 175.345 98.8209 175.043 100.288 175.043C102.085 175.043 103.889 175.492 105.24 176.274L108.091 177.918C109.243 178.583 109.921 179.421 110.057 180.256C110.08 180.144 110.113 180.033 110.113 179.917C110.113 178.99 109.376 178.033 108.091 177.291L105.24 175.646C103.889 174.864 102.085 174.416 100.288 174.416C98.8209 174.416 97.4883 174.718 96.5384 175.267L92.8418 177.403C91.9595 177.912 91.4746 178.599 91.4746 179.336C91.4746 179.432 91.5153 179.528 91.5315 179.625C91.6567 179.019 92.0971 178.459 92.8418 178.031Z" fill="#C9BCA1"/>
<path d="M101.578 181.545H97.7922L95.0225 179.946L97.7922 178.347H101.578L104.348 179.946L101.578 181.545Z" fill="#5E6C2E"/>
<path d="M101.578 180.913L102.711 180.258V176.203L101.578 176.857V180.913Z" fill="#7C412F"/>
<path d="M101.578 180.913L100.446 180.258V176.203L101.578 176.857V180.913Z" fill="#5C3023"/>
<path d="M101.578 179.636L104.349 178.037L104.012 168.692L101.578 170.096V179.636Z" fill="#94983A"/>
<path d="M101.579 179.636L98.8096 178.037L99.1462 168.692L101.579 170.096V179.636Z" fill="#868533"/>
<path d="M101.579 170.096L99.1455 168.692L101.579 167.287L104.013 168.692L101.579 170.096Z" fill="#A7AA5C"/>
<path d="M90.4599 192.871L94.1565 190.737C96.4805 189.395 96.1869 187.03 93.5033 185.481L90.6528 183.835C87.9692 182.286 83.8722 182.116 81.5482 183.458L77.8509 185.593C75.5269 186.935 75.8212 189.3 78.5049 190.849L81.3545 192.495C84.0382 194.043 88.1352 194.214 90.4599 192.871Z" fill="#F8F6E1"/>
<path d="M86.5064 193.375C84.7119 193.375 82.9067 192.929 81.5556 192.148L78.7052 190.501C77.421 189.76 76.6855 188.802 76.6855 187.874C76.6855 187.137 77.1697 186.449 78.052 185.941L81.7485 183.805C82.6992 183.256 84.031 182.954 85.4981 182.954C87.2949 182.954 89.0994 183.402 90.4505 184.184L93.3016 185.828C94.5858 186.57 95.3229 187.528 95.3229 188.455C95.3229 189.194 94.8371 189.882 93.9549 190.39L90.2576 192.524C89.3077 193.073 87.9758 193.375 86.5064 193.375Z" fill="#8BA641"/>
<path d="M78.052 186.569L81.7485 184.433C82.6992 183.884 84.031 183.582 85.4981 183.582C87.2949 183.582 89.0994 184.031 90.4505 184.811L93.3016 186.456C94.4529 187.121 95.1323 187.959 95.2668 188.794C95.2906 188.683 95.3229 188.571 95.3229 188.456C95.3229 187.528 94.5858 186.571 93.3016 185.828L90.4505 184.184C89.0994 183.403 87.2949 182.954 85.4981 182.954C84.031 182.954 82.6992 183.256 81.7485 183.805L78.052 185.941C77.1697 186.449 76.6855 187.137 76.6855 187.874C76.6855 187.97 76.7263 188.067 76.7416 188.163C76.8677 187.557 77.308 186.998 78.052 186.569Z" fill="#C9BCA1"/>
<path d="M86.7906 190.083H83.0041L80.2344 188.484L83.0041 186.885H86.7906L89.5603 188.484L86.7906 190.083Z" fill="#5E6C2E"/>
<path d="M86.7891 189.451L87.9211 188.797V184.741L86.7891 185.395V189.451Z" fill="#7C412F"/>
<path d="M86.789 189.451L85.6562 188.797V184.741L86.789 185.395V189.451Z" fill="#5C3023"/>
<path d="M86.7891 188.174L89.5588 186.574L89.223 177.229L86.7891 178.635V188.174Z" fill="#94983A"/>
<path d="M86.7893 188.174L84.0195 186.574L84.3554 177.229L86.7893 178.635V188.174Z" fill="#868533"/>
<path d="M86.7894 178.635L84.3555 177.229L86.7894 175.824L89.2233 177.229L86.7894 178.635Z" fill="#A7AA5C"/>
<path d="M165.795 180.677H161.927V176.309H165.795L169.578 178.493L165.795 180.677Z" fill="#5E6C2E"/>
<path d="M160.626 179.813L159.08 178.92V173.383L160.626 174.275V179.813Z" fill="#7C412F"/>
<path d="M160.626 179.813L162.172 178.92V173.383L160.626 174.275V179.813Z" fill="#5C3023"/>
<path d="M160.626 178.069L156.844 175.886L157.303 163.125L160.626 165.044V178.069Z" fill="#94983A"/>
<path d="M160.626 178.069L164.408 175.886L163.949 163.125L160.626 165.044V178.069Z" fill="#868533"/>
<path d="M160.627 165.044L163.95 163.125L160.627 161.207L157.304 163.125L160.627 165.044Z" fill="#A7AA5C"/>
<path d="M178.868 188.224H173.699L169.916 186.04L173.699 183.857H178.868L182.65 186.04L178.868 188.224Z" fill="#3F4620"/>
<path d="M173.699 187.36L172.152 186.468V180.929L173.699 181.823V187.36Z" fill="#7C412F"/>
<path d="M173.698 187.36L175.245 186.468V180.929L173.698 181.823V187.36Z" fill="#5C3023"/>
<path d="M173.699 185.617L169.916 183.433L170.376 170.673L173.699 172.591V185.617Z" fill="#94983A"/>
<path d="M173.698 185.617L177.48 183.433L177.021 170.673L173.698 172.591V185.617Z" fill="#868533"/>
<path d="M173.699 172.591L177.022 170.673L173.699 168.754L170.376 170.673L173.699 172.591Z" fill="#A7AA5C"/>
<path d="M161.926 84.214L139.912 96.9237V196.887L161.926 184.176V84.214Z" fill="#826565"/>
<path d="M160.745 84.8964L141.096 96.2413V196.204L160.745 184.86V84.8964Z" fill="#7DB4E3"/>
<path d="M161.926 184.176L139.912 196.887V205.532L161.926 192.822V184.176Z" fill="#826565"/>
<path d="M160.745 184.86L141.096 196.204V204.849L160.745 193.505V184.86Z" fill="#AFC8F9"/>
<path d="M158.994 194.167L159.296 194.342L141.096 204.849V204.502L158.994 194.167Z" fill="#E8DCD5"/>
<path d="M160.745 184.86L141.096 196.204V197.76L160.745 186.415V184.86Z" fill="#826565"/>
<path d="M160.745 89.6182L141.096 100.962V98.616L160.745 87.2719V89.6182Z" fill="#AAD0FF"/>
<path d="M160.745 93.5284L141.096 104.872V102.527L160.745 91.1821V93.5284Z" fill="#AAD0FF"/>
<path d="M160.745 97.4386L141.096 108.783V106.437L160.745 95.0923V97.4386Z" fill="#AAD0FF"/>
<path d="M160.745 101.349L141.096 112.694V110.347L160.745 99.0026V101.349Z" fill="#AAD0FF"/>
<path d="M160.745 105.259L141.096 116.604V114.258L160.745 102.913V105.259Z" fill="#AAD0FF"/>
<path d="M160.745 109.169L141.096 120.514V118.168L160.745 106.823V109.169Z" fill="#AAD0FF"/>
<path d="M160.745 113.08L141.096 124.424V122.078L160.745 110.733V113.08Z" fill="#AAD0FF"/>
<path d="M160.745 116.99L141.096 128.335V125.988L160.745 114.643V116.99Z" fill="#AAD0FF"/>
<path d="M160.745 120.9L141.096 132.245V129.899L160.745 118.554V120.9Z" fill="#AAD0FF"/>
<path d="M160.745 124.81L141.096 136.155V133.809L160.745 122.464V124.81Z" fill="#AAD0FF"/>
<path d="M160.745 128.72L141.096 140.065V137.719L160.745 126.374V128.72Z" fill="#AAD0FF"/>
<path d="M160.745 132.631L141.096 143.975V141.629L160.745 130.284V132.631Z" fill="#AAD0FF"/>
<path d="M160.745 136.541L141.096 147.886V145.539L160.745 134.195V136.541Z" fill="#AAD0FF"/>
<path d="M160.745 140.451L141.096 151.796V149.45L160.745 138.105V140.451Z" fill="#AAD0FF"/>
<path d="M160.745 144.361L141.096 155.706V153.36L160.745 142.016V144.361Z" fill="#AAD0FF"/>
<path d="M160.745 148.272L141.096 159.616V157.27L160.745 145.926V148.272Z" fill="#AAD0FF"/>
<path d="M160.745 152.182L141.096 163.526V161.18L160.745 149.836V152.182Z" fill="#AAD0FF"/>
<path d="M160.745 156.093L141.096 167.437V165.091L160.745 153.746V156.093Z" fill="#AAD0FF"/>
<path d="M160.745 160.003L141.096 171.347V169.002L160.745 157.657V160.003Z" fill="#AAD0FF"/>
<path d="M160.745 163.913L141.096 175.258V172.912L160.745 161.567V163.913Z" fill="#AAD0FF"/>
<path d="M160.745 167.823L141.096 179.168V176.822L160.745 165.477V167.823Z" fill="#AAD0FF"/>
<path d="M160.745 171.733L141.096 183.078V180.732L160.745 169.387V171.733Z" fill="#AAD0FF"/>
<path d="M160.745 175.644L141.096 186.988V184.642L160.745 173.297V175.644Z" fill="#AAD0FF"/>
<path d="M160.745 179.554L141.096 190.899V188.552L160.745 177.208V179.554Z" fill="#AAD0FF"/>
<path d="M160.745 183.464L141.096 194.809V192.463L160.745 181.118V183.464Z" fill="#AAD0FF"/>
<path d="M157.049 71.0516L139.911 80.9462L139.912 96.9237L161.926 84.214L157.049 71.0516Z" fill="#A27E7E"/>
<path d="M161.926 85.3652L139.912 98.0757V96.9237L161.926 84.214V85.3652Z" fill="#826565"/>
<path d="M142.544 96.5563L142.182 96.7654V204.222L142.544 204.012V96.5563Z" fill="#826565"/>
<path d="M144.101 95.658L143.738 95.867V203.323L144.101 203.114V95.658Z" fill="#826565"/>
<path d="M145.656 94.7596L145.294 94.9686V202.425L145.656 202.216V94.7596Z" fill="#826565"/>
<path d="M147.212 93.8612L146.85 94.0702V201.527L147.212 201.317V93.8612Z" fill="#826565"/>
<path d="M148.767 92.9636L148.404 93.1726V200.629L148.767 200.419V92.9636Z" fill="#826565"/>
<path d="M150.323 92.0652L149.961 92.2742V199.73L150.323 199.522V92.0652Z" fill="#826565"/>
<path d="M151.879 91.1667L151.517 91.3758V198.832L151.879 198.623V91.1667Z" fill="#826565"/>
<path d="M153.434 90.2684L153.071 90.4774V197.934L153.434 197.725V90.2684Z" fill="#826565"/>
<path d="M154.991 89.3707L154.629 89.5798V197.036L154.991 196.826V89.3707Z" fill="#826565"/>
<path d="M156.546 88.4723L156.184 88.6814V196.138L156.546 195.929V88.4723Z" fill="#826565"/>
<path d="M158.101 87.574L157.738 87.783V195.239L158.101 195.03V87.574Z" fill="#826565"/>
<path d="M159.658 86.6756L159.296 86.8854V194.342L159.658 194.132V86.6756Z" fill="#826565"/>
<path d="M110.701 80.0586L139.912 96.9237V196.887L110.701 180.022V80.0586Z" fill="#ACD4F8"/>
<path d="M110.701 180.022L139.912 196.887V205.532L110.701 188.667V180.022Z" fill="#406984"/>
<path d="M138.745 203.911L128.098 197.765H132.318L138.652 201.363L138.745 203.911Z" fill="#7F9AAD"/>
<path d="M130.067 196.483H128.091V195.36L130.067 196.483ZM125.307 196.15L118.419 192.175L113.501 189.336V188.4L114.665 187.731L125.307 193.777V196.15Z" fill="#7F9AAD"/>
<path d="M138.747 204.858L139.914 205.532V196.887L138.747 196.213V204.858Z" fill="#E5DED0"/>
<path d="M110.701 188.667L111.868 189.34V180.695L110.701 180.022V188.667Z" fill="#E5DED0"/>
<path d="M125.307 197.099L126.458 197.764V189.119L125.307 188.454V197.099Z" fill="#E5DED0"/>
<path d="M115.578 66.8962L139.912 80.9462L139.912 96.9237L110.701 80.0586L115.578 66.8962Z" fill="#F2EBDC"/>
<path d="M147.417 75.8395L140.099 71.6203L140.393 64.3763L140.878 64.6591L151.45 70.7665L151.914 73.2257L150.026 74.324L148.426 75.2523L147.417 75.8395ZM115.579 66.8939L139.913 80.9493L157.051 71.0493L132.717 57L115.579 66.8939Z" fill="#F8F6E1"/>
<path d="M116.923 66.8993L124.055 71.0224L139.918 80.1754L145.524 76.9323L146.537 76.3513L147.417 75.8394L140.099 71.6203L140.393 64.3763L140.878 64.6591L151.449 70.7665L151.913 73.2257L150.025 74.3239L155.706 71.0439L132.711 57.7785L116.923 66.8993Z" fill="#6D5B59"/>
<path d="M124.062 71.0232L131.164 75.1232L138.459 79.3401L139.92 80.1808L143.581 78.0597L145.521 76.9346L146.543 76.3521L147.41 75.8349L131.552 66.6895L124.062 71.0232Z" fill="#827371"/>
<path d="M111.728 85.3729L138.885 101.052V98.7059L111.728 83.0266V85.3729Z" fill="#B8B8B8"/>
<path d="M111.728 89.2831L138.885 104.962V102.617L111.728 86.9368V89.2831Z" fill="#B8B8B8"/>
<path d="M111.728 93.1934L138.885 108.873V106.527L111.728 90.8471V93.1934Z" fill="#B8B8B8"/>
<path d="M111.728 97.1036L138.885 112.783V110.437L111.728 94.7573V97.1036Z" fill="#B8B8B8"/>
<path d="M111.728 101.014L138.885 116.693V114.348L111.728 98.6675V101.014Z" fill="#B8B8B8"/>
<path d="M111.728 104.924L138.885 120.604V118.258L111.728 102.578V104.924Z" fill="#B8B8B8"/>
<path d="M111.728 108.834L138.885 124.514V122.168L111.728 106.488V108.834Z" fill="#B8B8B8"/>
<path d="M111.728 112.744L138.885 128.424V126.078L111.728 110.399V112.744Z" fill="#B8B8B8"/>
<path d="M111.728 116.655L138.885 132.335V129.988L111.728 114.309V116.655Z" fill="#B8B8B8"/>
<path d="M111.728 120.565L138.885 136.245V133.899L111.728 118.219V120.565Z" fill="#B8B8B8"/>
<path d="M111.728 124.476L138.885 140.155V137.809L111.728 122.13V124.476Z" fill="#B8B8B8"/>
<path d="M111.728 128.386L138.885 144.065V141.719L111.728 126.04V128.386Z" fill="#B8B8B8"/>
<path d="M111.728 132.296L138.885 147.976V145.629L111.728 129.95V132.296Z" fill="#B8B8B8"/>
<path d="M111.728 136.206L138.885 151.886V149.539L111.728 133.86V136.206Z" fill="#B8B8B8"/>
<path d="M111.728 140.117L138.885 155.796V153.45L111.728 137.77V140.117Z" fill="#B8B8B8"/>
<path d="M111.728 144.027L138.885 159.706V157.36L111.728 141.681V144.027Z" fill="#B8B8B8"/>
<path d="M111.728 147.937L138.885 163.616V161.27L111.728 145.591V147.937Z" fill="#B8B8B8"/>
<path d="M111.728 151.847L138.885 167.527V165.181L111.728 149.501V151.847Z" fill="#B8B8B8"/>
<path d="M111.728 155.758L138.885 171.437V169.09L111.728 153.411V155.758Z" fill="#B8B8B8"/>
<path d="M111.728 159.668L138.885 175.348V173.001L111.728 157.321V159.668Z" fill="#B8B8B8"/>
<path d="M111.728 163.578L138.885 179.258V176.912L111.728 161.232V163.578Z" fill="#B8B8B8"/>
<path d="M111.728 167.488L138.885 183.168V180.822L111.728 165.142V167.488Z" fill="#B8B8B8"/>
<path d="M111.728 171.398L138.885 187.078V184.732L111.728 169.052V171.398Z" fill="#B8B8B8"/>
<path d="M111.728 175.308L138.885 190.989V188.642L111.728 172.962V175.308Z" fill="#B8B8B8"/>
<path d="M111.728 179.219L138.885 194.899V192.553L111.728 176.873V179.219Z" fill="#B8B8B8"/>
<path d="M110.701 81.2106L139.912 98.0757V96.9237L110.701 80.0586V81.2106Z" fill="#E5DED0"/>
<path d="M110.701 181.173L139.912 198.038V196.887L110.701 180.022V181.173Z" fill="#E5DED0"/>
<path d="M137.341 143.013L138.746 143.824V141.797L137.341 140.986V143.013Z" fill="#7DB4E3"/>
<path d="M135.842 142.148L137.247 142.959V140.933L135.842 140.121V142.148Z" fill="#7DB4E3"/>
<path d="M134.343 141.283L135.748 142.094V140.068L134.343 139.256V141.283Z" fill="#7DB4E3"/>
<path d="M132.846 140.418L134.251 141.229V139.202L132.846 138.391V140.418Z" fill="#7DB4E3"/>
<path d="M131.347 139.553L132.752 140.364V138.338L131.347 137.526V139.553Z" fill="#7DB4E3"/>
<path d="M129.848 138.688L131.253 139.499V137.472L129.848 136.661V138.688Z" fill="#7DB4E3"/>
<path d="M128.351 137.823L129.756 138.634L129.755 136.608L128.351 135.796V137.823Z" fill="#7DB4E3"/>
<path d="M126.852 136.958L128.257 137.769V135.742L126.852 134.931V136.958Z" fill="#7DB4E3"/>
<path d="M125.353 136.093L126.758 136.904V134.878L125.353 134.066V136.093Z" fill="#7DB4E3"/>
<path d="M123.854 135.227L125.26 136.039L125.259 134.012L123.854 133.201V135.227Z" fill="#7DB4E3"/>
<path d="M122.356 134.363L123.762 135.174V133.148L122.356 132.336V134.363Z" fill="#7DB4E3"/>
<path d="M120.857 133.497L122.263 134.309V132.282L120.857 131.471V133.497Z" fill="#7DB4E3"/>
<path d="M119.359 132.633L120.765 133.444L120.764 131.417L119.359 130.606V132.633Z" fill="#7DB4E3"/>
<path d="M117.861 131.767L119.267 132.579V130.552L117.861 129.741V131.767Z" fill="#7DB4E3"/>
<path d="M116.362 130.903L117.768 131.714V129.687L116.362 128.876V130.903Z" fill="#7DB4E3"/>
<path d="M114.865 130.038L116.271 130.849L116.27 128.823L114.865 128.011V130.038Z" fill="#7DB4E3"/>
<path d="M113.366 129.173L114.772 129.984V127.957L113.366 127.146V129.173Z" fill="#7DB4E3"/>
<path d="M111.868 128.308L113.274 129.119V127.093L111.868 126.281V128.308Z" fill="#7DB4E3"/>
<path d="M137.341 146.923L138.746 147.734V145.708L137.341 144.897V146.923Z" fill="#7DB4E3"/>
<path d="M135.842 146.058L137.247 146.87V144.843L135.842 144.031V146.058Z" fill="#7DB4E3"/>
<path d="M134.343 145.193L135.748 146.004V143.978L134.343 143.166V145.193Z" fill="#7DB4E3"/>
<path d="M132.846 144.328L134.251 145.14V143.112L132.846 142.302V144.328Z" fill="#7DB4E3"/>
<path d="M131.347 143.464L132.752 144.274V142.248L131.347 141.436V143.464Z" fill="#7DB4E3"/>
<path d="M129.848 142.598L131.253 143.41V141.382L129.848 140.572V142.598Z" fill="#7DB4E3"/>
<path d="M128.351 141.733L129.756 142.544L129.755 140.518L128.351 139.706V141.733Z" fill="#7DB4E3"/>
<path d="M126.852 140.868L128.257 141.68V139.652L126.852 138.842V140.868Z" fill="#7DB4E3"/>
<path d="M125.353 140.003L126.758 140.815V138.788L125.353 137.976V140.003Z" fill="#7DB4E3"/>
<path d="M123.854 139.138L125.26 139.949L125.259 137.923L123.854 137.112V139.138Z" fill="#7DB4E3"/>
<path d="M122.356 138.273L123.762 139.085V137.058L122.356 136.246V138.273Z" fill="#7DB4E3"/>
<path d="M120.857 137.408L122.263 138.219V136.193L120.857 135.381V137.408Z" fill="#7DB4E3"/>
<path d="M119.359 136.543L120.765 137.355L120.764 135.328L119.359 134.516V136.543Z" fill="#7DB4E3"/>
<path d="M117.861 135.678L119.267 136.489V134.463L117.861 133.651V135.678Z" fill="#7DB4E3"/>
<path d="M116.362 134.813L117.768 135.625V133.597L116.362 132.787V134.813Z" fill="#7DB4E3"/>
<path d="M114.865 133.948L116.271 134.759L116.27 132.733L114.865 131.921V133.948Z" fill="#7DB4E3"/>
<path d="M113.366 133.083L114.772 133.895V131.867L113.366 131.057V133.083Z" fill="#7DB4E3"/>
<path d="M111.868 132.218L113.274 133.029V131.003L111.868 130.191V132.218Z" fill="#7DB4E3"/>
<path d="M137.341 150.834L138.746 151.645L138.746 149.618L137.341 148.807V150.834Z" fill="#7DB4E3"/>
<path d="M135.842 149.968L137.247 150.78V148.753L135.842 147.942V149.968Z" fill="#7DB4E3"/>
<path d="M134.343 149.104L135.748 149.915V147.888L134.343 147.077V149.104Z" fill="#7DB4E3"/>
<path d="M132.846 148.238L134.251 149.05V147.023L132.846 146.212V148.238Z" fill="#7DB4E3"/>
<path d="M131.347 147.374L132.752 148.185V146.158L131.347 145.346V147.374Z" fill="#7DB4E3"/>
<path d="M129.848 146.508L131.253 147.32V145.293L129.848 144.482V146.508Z" fill="#7DB4E3"/>
<path d="M128.351 145.643L129.756 146.455L129.755 144.428L128.351 143.617V145.643Z" fill="#7DB4E3"/>
<path d="M126.852 144.779L128.257 145.59V143.564L126.852 142.752V144.779Z" fill="#7DB4E3"/>
<path d="M125.353 143.914L126.758 144.725V142.698L125.353 141.887V143.914Z" fill="#7DB4E3"/>
<path d="M123.854 143.049L125.26 143.86L125.259 141.834L123.854 141.022V143.049Z" fill="#7DB4E3"/>
<path d="M122.356 142.183L123.762 142.995V140.968L122.356 140.157V142.183Z" fill="#7DB4E3"/>
<path d="M120.857 141.319L122.263 142.13V140.103L120.857 139.292V141.319Z" fill="#7DB4E3"/>
<path d="M119.359 140.453L120.765 141.265L120.764 139.238L119.359 138.427V140.453Z" fill="#7DB4E3"/>
<path d="M117.861 139.589L119.267 140.399V138.373L117.861 137.562V139.589Z" fill="#7DB4E3"/>
<path d="M116.362 138.723L117.768 139.535V137.508L116.362 136.697V138.723Z" fill="#7DB4E3"/>
<path d="M114.865 137.859L116.271 138.67L116.27 136.643L114.865 135.831V137.859Z" fill="#7DB4E3"/>
<path d="M113.366 136.993L114.772 137.805V135.778L113.366 134.967V136.993Z" fill="#7DB4E3"/>
<path d="M111.868 136.128L113.274 136.94V134.913L111.868 134.101V136.128Z" fill="#7DB4E3"/>
<path d="M137.341 154.744L138.746 155.555L138.746 153.529L137.341 152.717V154.744Z" fill="#7DB4E3"/>
<path d="M135.842 153.879L137.247 154.69V152.663L135.842 151.852V153.879Z" fill="#7DB4E3"/>
<path d="M134.343 153.014L135.748 153.825V151.799L134.343 150.987V153.014Z" fill="#7DB4E3"/>
<path d="M132.846 152.149L134.251 152.96V150.934L132.846 150.122V152.149Z" fill="#7DB4E3"/>
<path d="M131.347 151.284L132.752 152.096V150.069L131.347 149.257V151.284Z" fill="#7DB4E3"/>
<path d="M129.848 150.419L131.253 151.23V149.204L129.848 148.392V150.419Z" fill="#7DB4E3"/>
<path d="M128.351 149.554L129.756 150.366L129.755 148.338L128.351 147.527V149.554Z" fill="#7DB4E3"/>
<path d="M126.852 148.689L128.257 149.5V147.474L126.852 146.662V148.689Z" fill="#7DB4E3"/>
<path d="M125.353 147.824L126.758 148.635V146.608L125.353 145.798V147.824Z" fill="#7DB4E3"/>
<path d="M123.854 146.959L125.26 147.77L125.259 145.744L123.854 144.932V146.959Z" fill="#7DB4E3"/>
<path d="M122.356 146.094L123.762 146.905V144.878L122.356 144.067V146.094Z" fill="#7DB4E3"/>
<path d="M120.857 145.229L122.263 146.04V144.014L120.857 143.202V145.229Z" fill="#7DB4E3"/>
<path d="M119.359 144.364L120.765 145.175L120.764 143.148L119.359 142.337V144.364Z" fill="#7DB4E3"/>
<path d="M117.861 143.499L119.267 144.31V142.284L117.861 141.472V143.499Z" fill="#7DB4E3"/>
<path d="M116.362 142.634L117.768 143.445V141.419L116.362 140.607V142.634Z" fill="#7DB4E3"/>
<path d="M114.865 141.769L116.271 142.581L116.27 140.553L114.865 139.742V141.769Z" fill="#7DB4E3"/>
<path d="M113.366 140.904L114.772 141.715V139.689L113.366 138.877V140.904Z" fill="#7DB4E3"/>
<path d="M111.868 140.039L113.274 140.85V138.823L111.868 138.012V140.039Z" fill="#7DB4E3"/>
<path d="M132.846 156.06L134.251 156.87V154.844L132.846 154.033V156.06Z" fill="#7DB4E3"/>
<path d="M131.347 155.194L132.752 156.006V153.979L131.347 153.168V155.194Z" fill="#7DB4E3"/>
<path d="M129.848 154.33L131.253 155.14V153.114L129.848 152.302V154.33Z" fill="#7DB4E3"/>
<path d="M128.351 153.464L129.755 154.276V152.249L128.351 151.438V153.464Z" fill="#7DB4E3"/>
<path d="M126.852 152.6L128.257 153.41V151.384L126.852 150.572V152.6Z" fill="#7DB4E3"/>
<path d="M125.353 151.734L126.758 152.546V150.519L125.353 149.708V151.734Z" fill="#7DB4E3"/>
<path d="M123.854 150.869L125.26 151.681L125.259 149.654L123.854 148.842V150.869Z" fill="#7DB4E3"/>
<path d="M122.356 150.004L123.762 150.816V148.789L122.356 147.978V150.004Z" fill="#7DB4E3"/>
<path d="M120.857 149.139L122.263 149.951V147.924L120.857 147.112V149.139Z" fill="#7DB4E3"/>
<path d="M119.359 148.274L120.764 149.085V147.059L119.359 146.248V148.274Z" fill="#7DB4E3"/>
<path d="M117.861 147.409L119.267 148.221V146.194L117.861 145.383V147.409Z" fill="#7DB4E3"/>
<path d="M116.362 146.545L117.768 147.355V145.329L116.362 144.518V146.545Z" fill="#7DB4E3"/>
<path d="M114.865 145.679L116.27 146.491V144.464L114.865 143.653V145.679Z" fill="#7DB4E3"/>
<path d="M113.366 144.815L114.772 145.625V143.599L113.366 142.787V144.815Z" fill="#7DB4E3"/>
<path d="M111.868 143.949L113.274 144.761V142.734L111.868 141.923V143.949Z" fill="#7DB4E3"/>
<path d="M126.852 156.51L128.257 157.321V155.294L126.852 154.483V156.51Z" fill="#7DB4E3"/>
<path d="M125.353 155.645L126.758 156.456V154.43L125.353 153.618V155.645Z" fill="#7DB4E3"/>
<path d="M123.854 154.78L125.259 155.591V153.564L123.854 152.753V154.78Z" fill="#7DB4E3"/>
<path d="M122.356 153.915L123.762 154.726V152.7L122.356 151.888V153.915Z" fill="#7DB4E3"/>
<path d="M120.857 153.05L122.263 153.861V151.834L120.857 151.023V153.05Z" fill="#7DB4E3"/>
<path d="M119.359 152.185L120.764 152.996V150.97L119.359 150.158V152.185Z" fill="#7DB4E3"/>
<path d="M117.861 151.319L119.267 152.131V150.104L117.861 149.293V151.319Z" fill="#7DB4E3"/>
<path d="M116.362 150.455L117.768 151.266V149.239L116.362 148.428V150.455Z" fill="#7DB4E3"/>
<path d="M114.865 149.589L116.27 150.401V148.374L114.865 147.563V149.589Z" fill="#7DB4E3"/>
<path d="M113.366 148.725L114.772 149.536V147.509L113.366 146.698V148.725Z" fill="#7DB4E3"/>
<path d="M111.868 147.86L113.274 148.671V146.645L111.868 145.833V147.86Z" fill="#7DB4E3"/>
<path d="M119.359 156.095L120.764 156.906V154.88L119.359 154.068V156.095Z" fill="#7DB4E3"/>
<path d="M117.861 155.23L119.267 156.041V154.014L117.861 153.204V155.23Z" fill="#7DB4E3"/>
<path d="M116.362 154.365L117.768 155.177V153.15L116.362 152.338V154.365Z" fill="#7DB4E3"/>
<path d="M114.865 153.5L116.27 154.311V152.285L114.865 151.473V153.5Z" fill="#7DB4E3"/>
<path d="M113.366 152.635L114.772 153.447V151.42L113.366 150.608V152.635Z" fill="#7DB4E3"/>
<path d="M111.868 151.77L113.274 152.581V150.555L111.868 149.743V151.77Z" fill="#7DB4E3"/>
<path d="M113.366 156.545L114.772 157.357V155.33L113.366 154.519V156.545Z" fill="#7DB4E3"/>
<path d="M111.868 155.681L113.274 156.492V154.465L111.868 153.653V155.681Z" fill="#7DB4E3"/>
<path d="M113.366 160.455L114.772 161.267V159.24L113.366 158.429V160.455Z" fill="#7DB4E3"/>
<path d="M111.868 159.591L113.274 160.403V158.376L111.868 157.564V159.591Z" fill="#7DB4E3"/>
<path d="M113.366 164.366L114.772 165.177V163.151L113.366 162.34V164.366Z" fill="#7DB4E3"/>
<path d="M111.868 163.501L113.274 164.313V162.286L111.868 161.475V163.501Z" fill="#7DB4E3"/>
<path d="M137.341 182.117L138.746 182.928L138.746 180.901L137.341 180.09V182.117Z" fill="#7DB4E3"/>
<path d="M135.842 181.252L137.247 182.063V180.037L135.842 179.225V181.252Z" fill="#7DB4E3"/>
<path d="M134.343 180.387L135.748 181.198V179.171L134.343 178.36V180.387Z" fill="#7DB4E3"/>
<path d="M113.366 168.277L114.772 169.088V167.062L113.366 166.25V168.277Z" fill="#7DB4E3"/>
<path d="M111.868 167.411L113.274 168.223V166.196L111.868 165.385V167.411Z" fill="#7DB4E3"/>
<path d="M137.341 186.027L138.746 186.839L138.746 184.812L137.341 184.001V186.027Z" fill="#7DB4E3"/>
<path d="M135.842 185.162L137.247 185.974V183.947L135.842 183.135V185.162Z" fill="#7DB4E3"/>
<path d="M134.343 184.297L135.748 185.109V183.081L134.343 182.27V184.297Z" fill="#7DB4E3"/>
<path d="M132.846 183.432L134.251 184.243V182.217L132.846 181.405V183.432Z" fill="#7DB4E3"/>
<path d="M131.347 182.567L132.752 183.379V181.352L131.347 180.541V182.567Z" fill="#7DB4E3"/>
<path d="M129.848 181.702L131.253 182.513V180.487L129.848 179.675V181.702Z" fill="#7DB4E3"/>
<path d="M128.351 180.837L129.755 181.648V179.621L128.351 178.811V180.837Z" fill="#7DB4E3"/>
<path d="M113.366 172.187L114.772 172.998V170.972L113.366 170.16V172.187Z" fill="#7DB4E3"/>
<path d="M111.868 171.322L113.274 172.133V170.107L111.868 169.295V171.322Z" fill="#7DB4E3"/>
<path d="M137.341 189.937L138.746 190.749L138.746 188.722L137.341 187.911V189.937Z" fill="#7DB4E3"/>
<path d="M135.842 189.073L137.247 189.884V187.857L135.842 187.046V189.073Z" fill="#7DB4E3"/>
<path d="M134.343 188.207L135.748 189.019V186.992L134.343 186.181V188.207Z" fill="#7DB4E3"/>
<path d="M132.846 187.343L134.251 188.154V186.127L132.846 185.315V187.343Z" fill="#7DB4E3"/>
<path d="M131.347 186.477L132.752 187.289V185.263L131.347 184.451V186.477Z" fill="#7DB4E3"/>
<path d="M129.848 185.613L131.253 186.424V184.397L129.848 183.586V185.613Z" fill="#7DB4E3"/>
<path d="M128.351 184.747L129.755 185.559V183.532L128.351 182.721V184.747Z" fill="#7DB4E3"/>
<path d="M126.852 183.882L128.257 184.694V182.667L126.852 181.856V183.882Z" fill="#7DB4E3"/>
<path d="M125.353 183.018L126.758 183.828V181.802L125.353 180.991V183.018Z" fill="#7DB4E3"/>
<path d="M123.854 182.152L125.259 182.964V180.937L123.854 180.126V182.152Z" fill="#7DB4E3"/>
<path d="M122.356 181.288L123.762 182.098V180.072L122.356 179.26V181.288Z" fill="#7DB4E3"/>
<path d="M120.857 180.422L122.263 181.234V179.207L120.857 178.396V180.422Z" fill="#7DB4E3"/>
<path d="M113.366 176.097L114.772 176.909V174.882L113.366 174.07V176.097Z" fill="#7DB4E3"/>
<path d="M111.868 175.232L113.274 176.044V174.018L111.868 173.206V175.232Z" fill="#7DB4E3"/>
<path d="M137.341 193.847L138.746 194.659L138.746 192.633L137.341 191.821V193.847Z" fill="#7DB4E3"/>
<path d="M135.842 192.983L137.247 193.795V191.768L135.842 190.956V192.983Z" fill="#7DB4E3"/>
<path d="M134.343 192.118L135.748 192.929V190.902L134.343 190.091V192.118Z" fill="#7DB4E3"/>
<path d="M132.846 191.253L134.251 192.065V190.038L132.846 189.226V191.253Z" fill="#7DB4E3"/>
<path d="M131.347 190.388L132.752 191.199V189.173L131.347 188.361V190.388Z" fill="#7DB4E3"/>
<path d="M129.848 189.523L131.253 190.334V188.307L129.848 187.497V189.523Z" fill="#7DB4E3"/>
<path d="M128.351 188.658L129.755 189.469V187.443L128.351 186.631V188.658Z" fill="#7DB4E3"/>
<path d="M126.852 187.793L128.257 188.604V186.577L126.852 185.767V187.793Z" fill="#7DB4E3"/>
<path d="M125.353 186.928L126.758 187.739V185.713L125.353 184.901V186.928Z" fill="#7DB4E3"/>
<path d="M123.854 186.063L125.259 186.874V184.847L123.854 184.036V186.063Z" fill="#7DB4E3"/>
<path d="M122.356 185.198L123.762 186.009V183.983L122.356 183.171V185.198Z" fill="#7DB4E3"/>
<path d="M120.857 184.333L122.263 185.144V183.118L120.857 182.306V184.333Z" fill="#7DB4E3"/>
<path d="M119.359 183.468L120.764 184.279V182.252L119.359 181.441V183.468Z" fill="#7DB4E3"/>
<path d="M117.861 182.602L119.267 183.414V181.388L117.861 180.576V182.602Z" fill="#7DB4E3"/>
<path d="M116.362 181.738L117.768 182.55V180.522L116.362 179.712V181.738Z" fill="#7DB4E3"/>
<path d="M114.865 180.873L116.27 181.684V179.657L114.865 178.846V180.873Z" fill="#7DB4E3"/>
<path d="M113.366 180.008L114.772 180.82V178.792L113.366 177.981V180.008Z" fill="#7DB4E3"/>
<path d="M111.868 179.143L113.274 179.954V177.928L111.868 177.116V179.143Z" fill="#7DB4E3"/>
<path d="M139.912 196.887L138.746 196.213L126.458 189.119L125.925 188.812L111.868 180.695L110.701 180.022V149.279L111.728 149.82V151.847L122.474 158.052V159.615L111.728 153.411V155.758L138.886 171.437V169.09L124.393 160.724V159.16L138.886 167.527V165.181L124.393 156.813V156.471L125.349 155.801L138.886 163.616V161.27L127.187 154.516L128.411 153.659L138.886 159.706V157.36L131.82 153.281V151.717L138.246 155.426V155.804L139.912 156.884V196.887ZM111.728 176.873V179.219L138.886 194.899V192.553L111.728 176.873ZM111.728 172.962V175.308L138.886 190.989V188.642L111.728 172.962ZM111.728 169.052V171.398L138.886 187.078V184.732L111.728 169.052ZM111.728 165.142V167.488L138.886 183.168V180.822L111.728 165.142ZM111.728 161.232V163.578L138.886 179.258V176.912L111.728 161.232ZM111.728 157.321V159.668L138.886 175.348V173.001L111.728 157.321ZM122.474 155.705L114.213 150.936V149.372L122.474 154.141V155.705ZM138.246 153.081L131.82 149.37V147.806L138.246 151.516V153.081ZM122.474 151.795L114.213 147.026V145.461L122.474 150.231V151.795ZM138.246 149.171L131.82 145.46V145.122L138.246 148.46V149.171ZM122.474 147.885L116.226 144.277L116.799 144.037L122.474 147.375V147.885Z" fill="#A6CCEF"/>
<path d="M139.914 196.887L138.747 196.213L139.914 196.887Z" fill="#A4A9A4"/>
<path d="M111.868 180.695L110.701 180.022L111.868 180.695Z" fill="#A4A9A4"/>
<path d="M126.458 189.119L125.925 188.812L126.458 189.119Z" fill="#A4A9A4"/>
<path d="M138.246 151.516L131.82 147.806V147.647L132.753 148.185V146.158L131.82 145.62V145.46L138.246 149.171V149.33L137.341 148.807V150.834L138.246 151.356V151.516ZM135.842 147.942V149.968L137.248 150.78V148.753L135.842 147.942ZM134.343 147.077V149.104L135.749 149.915V147.888L134.343 147.077ZM132.846 146.212V148.238L134.25 149.05V147.023L132.846 146.212Z" fill="#A8C4D6"/>
<path d="M138.246 155.426L131.82 151.717V151.558L132.753 152.096V150.069L131.82 149.531V149.37L138.246 153.081V153.24L137.341 152.717V154.744L138.246 155.266V155.426ZM135.842 151.852V153.879L137.248 154.69V152.664L135.842 151.852ZM134.343 150.987V153.014L135.749 153.826V151.799L134.343 150.987ZM132.846 150.122V152.149L134.25 152.96V150.934L132.846 150.122Z" fill="#A8C4D6"/>
<path d="M138.886 159.706L128.411 153.659L128.536 153.571L129.755 154.276V154.13L129.848 154.175V154.33L131.254 155.14V154.86L131.347 154.905V155.194L132.753 156.006V153.979L131.82 153.441V153.281L138.886 157.36V159.706ZM137.338 156.631V158.657L138.742 159.466V157.44L137.338 156.631ZM135.844 155.766V157.793L137.248 158.602V156.575L135.844 155.766ZM134.343 154.895V156.921L135.748 157.737V155.711L134.343 154.895ZM132.846 154.033V156.06L134.25 156.87V154.844L132.846 154.033ZM122.474 150.231L114.213 145.461V145.303L114.772 145.625V144.888L114.865 144.848V145.679L116.27 146.491V144.464L116.065 144.345L116.226 144.277L122.474 147.885V148.045L122.357 147.978V150.004L122.474 150.072V150.231ZM120.858 147.112V149.139L122.264 149.951V147.924L120.858 147.112ZM119.36 146.248V148.275L120.765 149.085V147.059L119.36 146.248ZM117.862 145.383V147.409L119.267 148.221V146.194L117.862 145.383ZM116.363 144.518V146.545L117.769 147.355V145.329L116.363 144.518Z" fill="#A8C4D6"/>
<path d="M138.886 163.616L125.349 155.801L125.474 155.714L126.759 156.456V154.815L126.852 154.75V156.51L128.258 157.321V155.294L127.061 154.604L127.187 154.516L138.886 161.27V163.616ZM137.338 160.539V162.565L138.742 163.374V161.348L137.338 160.539ZM135.844 159.674V161.701L137.248 162.51V160.483L135.844 159.674ZM134.343 158.809V160.836L135.748 161.645V159.618L134.343 158.809ZM132.843 157.945V159.971L134.253 160.78V158.754L132.843 157.945ZM131.349 157.08V159.107L132.753 159.916V157.889L131.349 157.08ZM129.848 156.216V158.242L131.252 159.051V157.025L129.848 156.216ZM128.354 155.351V157.378L129.758 158.187V156.16L128.354 155.351ZM122.474 154.141L114.213 149.372V149.213L114.772 149.536V147.509L114.213 147.186V147.026L122.474 151.795V151.956L122.357 151.888V153.915L122.474 153.982V154.141ZM120.858 151.023V153.05L122.264 153.861V151.834L120.858 151.023ZM119.36 150.158V152.185L120.765 152.996V150.97L119.36 150.158ZM117.862 149.293V151.319L119.267 152.131V150.104L117.862 149.293ZM116.363 148.428V150.455L117.769 151.266V149.239L116.363 148.428ZM114.865 147.563V149.589L116.27 150.401V148.374L114.865 147.563Z" fill="#A8C4D6"/>
<path d="M138.885 167.527L124.393 159.16V159.001L125.261 159.501V157.474L124.393 156.974V156.813L138.885 165.181V167.527ZM137.338 164.446V166.473L138.742 167.289V165.262L137.338 164.446ZM135.844 163.582V165.608L137.248 166.425V164.398L135.844 163.582ZM134.343 162.717V164.744L135.747 165.553V163.526L134.343 162.717ZM132.842 161.852V163.879L134.253 164.689V162.662L132.842 161.852ZM131.348 160.988V163.015L132.752 163.824V161.797L131.348 160.988ZM129.847 160.123V162.15L131.251 162.959V160.933L129.847 160.123ZM128.353 159.259V161.285L129.757 162.095V160.068L128.353 159.259ZM126.852 158.394V160.421L128.256 161.23V159.204L126.852 158.394ZM125.351 157.53V159.556L126.755 160.366V158.339L125.351 157.53ZM122.474 158.052L111.728 151.847V149.82L111.867 149.894V151.77L113.273 152.581V150.635L113.366 150.684V152.635L114.772 153.447V151.42L114.212 151.097V150.936L122.474 155.705V155.868L122.356 155.801V157.827L122.474 157.895V158.052ZM120.855 154.936V156.963L122.266 157.772V155.745L120.855 154.936ZM119.36 154.068V156.095L120.765 156.906V154.88L119.36 154.068ZM117.861 153.204V155.23L119.267 156.041V154.015L117.861 153.204ZM116.362 152.338V154.365L117.768 155.177V153.15L116.362 152.338ZM114.865 151.473V153.5L116.269 154.311V152.285L114.865 151.473Z" fill="#A8C4D6"/>
<path d="M138.885 171.437L111.728 155.758V153.411L122.474 159.615V159.776L122.356 159.709V161.735L123.76 162.544V161.287L123.857 161.342V162.6L125.261 163.409V161.382L124.393 160.882V160.724L138.885 169.09V171.437ZM137.338 168.361V170.388L138.742 171.197V169.171L137.338 168.361ZM135.844 167.497V169.523L137.248 170.332V168.306L135.844 167.497ZM134.343 166.632V168.659L135.747 169.468V167.441L134.343 166.632ZM132.842 165.761V167.787L134.253 168.603V166.577L132.842 165.761ZM131.348 164.896V166.923L132.752 167.739V165.712L131.348 164.896ZM129.847 164.031V166.058L131.251 166.874V164.848L129.847 164.031ZM128.353 163.167V165.193L129.757 166.009V163.983L128.353 163.167ZM126.852 162.302V164.329L128.256 165.145V163.118L126.852 162.302ZM125.351 161.438V163.464L126.755 164.273V162.247L125.351 161.438ZM120.855 158.844V160.871L122.266 161.68V159.653L120.855 158.844ZM119.361 157.979V160.006L120.765 160.815V158.789L119.361 157.979ZM117.86 157.115V159.141L119.264 159.95V157.924L117.86 157.115ZM116.359 156.25V158.277L117.77 159.086V157.059L116.359 156.25ZM114.865 155.386V157.412L116.269 158.221V156.195L114.865 155.386ZM113.366 154.519V156.545L114.772 157.357V155.33L113.366 154.519ZM111.867 153.653V155.681L113.273 156.492V154.465L111.867 153.653Z" fill="#A8C4D6"/>
<path d="M138.885 175.348L111.728 159.668V157.321L138.885 173.001V175.348ZM137.338 172.269V174.296L138.742 175.105V173.078L137.338 172.269ZM135.844 171.405V173.431L137.248 174.24V172.214L135.844 171.405ZM134.343 170.54V172.566L135.747 173.376V171.349L134.343 170.54ZM132.842 169.675V171.702L134.253 172.511V170.485L132.842 169.675ZM131.348 168.811V170.837L132.752 171.647V169.62L131.348 168.811ZM129.847 167.946V169.973L131.251 170.782V168.755L129.847 167.946ZM128.353 167.082V169.108L129.757 169.917V167.891L128.353 167.082ZM126.852 166.217V168.243L128.256 169.053V167.026L126.852 166.217ZM125.351 165.353V167.379L126.755 168.188V166.162L125.351 165.353ZM123.857 164.481V166.507L125.261 167.324V165.297L123.857 164.481ZM122.356 163.616V165.643L123.76 166.459V164.432L122.356 163.616ZM120.855 162.752V164.778L122.266 165.595V163.568L120.855 162.752ZM119.361 161.887V163.914L120.765 164.73V162.703L119.361 161.887ZM117.86 161.023V163.049L119.264 163.865V161.839L117.86 161.023ZM116.359 160.158V162.185L117.77 162.994V160.967L116.359 160.158ZM114.865 159.294V161.32L116.269 162.129V160.103L114.865 159.294ZM113.366 158.429V160.455L114.772 161.267V159.24L113.366 158.429ZM111.867 157.564V159.591L113.273 160.403V158.376L111.867 157.564Z" fill="#A8C4D6"/>
<path d="M138.885 179.258L111.728 163.578V161.232L138.885 176.912V179.258ZM137.338 176.177V178.204L138.742 179.02V176.993L137.338 176.177ZM135.844 175.312V177.339L137.248 178.155V176.129L135.844 175.312ZM134.343 174.448V176.474L135.747 177.291V175.264L134.343 174.448ZM132.842 173.583V175.61L134.253 176.426V174.393L132.842 173.583ZM131.348 172.719V174.745L132.752 175.555V173.528L131.348 172.719ZM129.847 171.854V173.881L131.251 174.69V172.663L129.847 171.854ZM128.353 170.989V173.016L129.757 173.825V171.799L128.353 170.989ZM126.852 170.125V172.152L128.256 172.961V170.934L126.852 170.125ZM125.351 169.26V171.287L126.755 172.096V170.07L125.351 169.26ZM123.857 168.396V170.422L125.261 171.232V169.205L123.857 168.396ZM122.356 167.531V169.558L123.76 170.367V168.34L122.356 167.531ZM120.855 166.667V168.693L122.266 169.503V167.476L120.855 166.667ZM119.361 165.802V167.829L120.765 168.638V166.611L119.361 165.802ZM117.86 164.937V166.964L119.264 167.773V165.747L117.86 164.937ZM116.359 164.073V166.099L117.77 166.909V164.882L116.359 164.073ZM114.865 163.201V165.228L116.269 166.044V164.018L114.865 163.201ZM113.366 162.34V164.366L114.772 165.177V163.151L113.366 162.34ZM111.867 161.475V163.501L113.273 164.313V162.286L111.867 161.475Z" fill="#A8C4D6"/>
<path d="M138.885 183.168L111.728 167.488V165.142L138.885 180.822V183.168ZM137.34 180.09V182.117L138.746 182.928L138.745 180.901L137.34 180.09ZM135.841 179.225V181.252L137.247 182.063V180.037L135.841 179.225ZM134.343 178.36V180.387L135.748 181.198V179.171L134.343 178.36ZM132.842 177.498V179.525L134.253 180.334V178.308L132.842 177.498ZM131.348 176.627V178.66L132.752 179.469V177.443L131.348 176.627ZM129.847 175.762V177.789L131.251 178.605V176.578L129.847 175.762ZM128.353 174.897V176.924L129.757 177.74V175.714L128.353 174.897ZM126.852 174.033V176.06L128.256 176.876V174.849L126.852 174.033ZM125.351 173.168V175.195L126.755 176.011V173.985L125.351 173.168ZM123.857 172.304V174.33L125.261 175.146V173.113L123.857 172.304ZM122.356 171.439V173.466L123.76 174.275V172.249L122.356 171.439ZM120.855 170.575V172.601L122.266 173.41V171.384L120.855 170.575ZM119.361 169.71V171.737L120.765 172.546V170.519L119.361 169.71ZM117.86 168.845V170.872L119.264 171.681V169.655L117.86 168.845ZM116.359 167.981V170.008L117.77 170.817V168.79L116.359 167.981ZM114.865 167.116V169.143L116.269 169.952V167.926L114.865 167.116ZM113.366 166.25V168.277L114.772 169.088V167.062L113.366 166.25ZM111.867 165.385V167.411L113.273 168.223V166.196L111.867 165.385Z" fill="#A8C4D6"/>
<path d="M138.885 187.078L111.728 171.398V169.052L138.885 184.732V187.078ZM137.34 184.001V186.027L138.746 186.839L138.745 184.812L137.34 184.001ZM135.841 183.135V185.162L137.247 185.973V183.947L135.841 183.135ZM134.343 182.27V184.297L135.748 185.109V183.081L134.343 182.27ZM132.845 181.405V183.432L134.25 184.243V182.217L132.845 181.405ZM131.346 180.541V182.567L132.752 183.379V181.352L131.346 180.541ZM129.848 179.675V181.702L131.253 182.513V180.487L129.848 179.675ZM128.35 178.811V180.837L129.755 181.648V179.621L128.35 178.811ZM126.852 177.948V179.974L128.256 180.784V178.757L126.852 177.948ZM125.351 177.083V179.11L126.755 179.919V177.892L125.351 177.083ZM123.857 176.218V178.245L125.261 179.054V177.028L123.857 176.218ZM122.356 175.347V177.374L123.76 178.19V176.163L122.356 175.347ZM120.855 174.482V176.509L122.266 177.325V175.299L120.855 174.482ZM119.361 173.618V175.644L120.765 176.461V174.434L119.361 173.618ZM117.86 172.753V174.78L119.264 175.596V173.569L117.86 172.753ZM116.359 171.889V173.915L117.77 174.731V172.705L116.359 171.889ZM114.865 171.024V173.051L116.269 173.86V171.833L114.865 171.024ZM113.366 170.16V172.187L114.772 172.998V170.972L113.366 170.16ZM111.867 169.295V171.322L113.273 172.133V170.107L111.867 169.295Z" fill="#A8C4D6"/>
<path d="M138.885 190.989L111.728 175.308V172.962L138.885 188.642V190.989ZM137.34 187.911V189.937L138.746 190.749L138.745 188.722L137.34 187.911ZM135.841 187.046V189.073L137.247 189.884V187.857L135.841 187.046ZM134.343 186.181V188.207L135.748 189.019V186.992L134.343 186.181ZM132.845 185.315V187.343L134.25 188.154V186.127L132.845 185.315ZM131.346 184.451V186.477L132.752 187.289V185.263L131.346 184.451ZM129.848 183.586V185.613L131.253 186.424V184.397L129.848 183.586ZM128.35 182.721V184.747L129.755 185.559V183.533L128.35 182.721ZM126.851 181.856V183.882L128.257 184.694V182.667L126.851 181.856ZM125.353 180.991V183.018L126.758 183.828V181.802L125.353 180.991ZM123.855 180.126V182.152L125.26 182.964V180.937L123.855 180.126ZM122.356 179.26V181.288L123.762 182.098V180.072L122.356 179.26ZM120.858 178.396V180.422L122.263 181.234V179.207L120.858 178.396ZM119.361 177.533V179.559L120.765 180.368V178.342L119.361 177.533ZM117.86 176.668V178.695L119.264 179.504V177.477L117.86 176.668ZM116.359 175.804V177.83L117.77 178.639V176.613L116.359 175.804ZM114.865 174.939V176.966L116.269 177.775V175.748L114.865 174.939ZM113.366 174.07V176.097L114.772 176.909V174.882L113.366 174.07ZM111.867 173.206V175.233L113.273 176.044V174.018L111.867 173.206Z" fill="#A8C4D6"/>
<path d="M138.885 194.899L111.728 179.219V176.873L138.885 192.553V194.899ZM137.34 191.821V193.847L138.746 194.659L138.745 192.633L137.34 191.821ZM135.841 190.956V192.983L137.247 193.795V191.768L135.841 190.956ZM134.343 190.091V192.118L135.748 192.929V190.902L134.343 190.091ZM132.845 189.226V191.253L134.25 192.065V190.038L132.845 189.226ZM131.346 188.361V190.388L132.752 191.199V189.173L131.346 188.361ZM129.848 187.497V189.523L131.253 190.334V188.307L129.848 187.497ZM128.35 186.631V188.658L129.755 189.469V187.443L128.35 186.631ZM126.851 185.767V187.793L128.257 188.604V186.577L126.851 185.767ZM125.353 184.901V186.928L126.758 187.739V185.713L125.353 184.901ZM123.855 184.036V186.063L125.26 186.874V184.847L123.855 184.036ZM122.356 183.171V185.198L123.762 186.009V183.983L122.356 183.171ZM120.858 182.306V184.333L122.263 185.144V183.118L120.858 182.306ZM119.36 181.441V183.468L120.765 184.279V182.252L119.36 181.441ZM117.861 180.576V182.602L119.267 183.414V181.388L117.861 180.576ZM116.362 179.712V181.738L117.768 182.55V180.522L116.362 179.712ZM114.865 178.846V180.873L116.269 181.684V179.658L114.865 178.846ZM113.366 177.981V180.008L114.772 180.82V178.792L113.366 177.981ZM111.867 177.116V179.143L113.273 179.954V177.928L111.867 177.116Z" fill="#A8C4D6"/>
<path d="M139.912 196.887L110.701 180.022L111.868 180.695L125.925 188.812L126.458 189.119L138.746 196.213L139.912 196.887Z" fill="#A4A9A4"/>
<path d="M138.246 151.356L137.341 150.834V148.807L138.246 149.33V151.356Z" fill="#97B7D5"/>
<path d="M137.247 150.78L135.842 149.968V147.942L137.247 148.753V150.78Z" fill="#97B7D5"/>
<path d="M135.748 149.915L134.343 149.104V147.077L135.748 147.888V149.915Z" fill="#97B7D5"/>
<path d="M134.251 149.05L132.846 148.238V146.212L134.251 147.023V149.05Z" fill="#97B7D5"/>
<path d="M132.753 148.185L131.82 147.647V145.62L132.753 146.158V148.185Z" fill="#97B7D5"/>
<path d="M138.246 155.266L137.341 154.744V152.717L138.246 153.24V155.266Z" fill="#97B7D5"/>
<path d="M137.247 154.69L135.842 153.879V151.852L137.247 152.663V154.69Z" fill="#97B7D5"/>
<path d="M135.748 153.825L134.343 153.014V150.987L135.748 151.799V153.825Z" fill="#97B7D5"/>
<path d="M134.251 152.96L132.846 152.149V150.122L134.251 150.934V152.96Z" fill="#97B7D5"/>
<path d="M132.753 152.096L131.82 151.558V149.531L132.753 150.069V152.096Z" fill="#97B7D5"/>
<path d="M134.251 156.87L132.846 156.06V154.033L134.251 154.844V156.87Z" fill="#97B7D5"/>
<path d="M132.752 156.006L131.347 155.194V154.905L131.82 155.136V153.441L132.752 153.979V156.006Z" fill="#97B7D5"/>
<path d="M131.253 155.14L129.848 154.33V154.175L131.253 154.86V155.14Z" fill="#97B7D5"/>
<path d="M129.755 154.276L128.535 153.571L128.566 153.55L129.755 154.13V154.276Z" fill="#97B7D5"/>
<path d="M122.474 150.072L122.356 150.004V147.978L122.474 148.046V150.072Z" fill="#97B7D5"/>
<path d="M122.263 149.951L120.857 149.139V147.112L122.263 147.924V149.951Z" fill="#97B7D5"/>
<path d="M120.764 149.085L119.359 148.274V146.248L120.764 147.059V149.085Z" fill="#97B7D5"/>
<path d="M119.267 148.221L117.861 147.409V145.383L119.267 146.194V148.221Z" fill="#97B7D5"/>
<path d="M117.768 147.355L116.362 146.545V144.518L117.768 145.329V147.355Z" fill="#97B7D5"/>
<path d="M116.27 146.491L114.865 145.679V144.848L116.065 144.345L116.27 144.464V146.491Z" fill="#97B7D5"/>
<path d="M114.772 145.625L114.213 145.303V145.122L114.772 144.888V145.625Z" fill="#97B7D5"/>
<path d="M128.257 157.321L126.852 156.51V154.75L127.061 154.604L128.257 155.294V157.321Z" fill="#97B7D5"/>
<path d="M126.759 156.456L125.474 155.714L126.759 154.815V156.456Z" fill="#97B7D5"/>
<path d="M122.474 153.982L122.356 153.915V151.888L122.474 151.956V153.982Z" fill="#97B7D5"/>
<path d="M122.263 153.861L120.857 153.05V151.023L122.263 151.834V153.861Z" fill="#97B7D5"/>
<path d="M120.764 152.996L119.359 152.185V150.158L120.764 150.97V152.996Z" fill="#97B7D5"/>
<path d="M119.267 152.131L117.861 151.319V149.293L119.267 150.104V152.131Z" fill="#97B7D5"/>
<path d="M117.768 151.266L116.362 150.455V148.428L117.768 149.239V151.266Z" fill="#97B7D5"/>
<path d="M116.27 150.401L114.865 149.589V147.563L116.27 148.374V150.401Z" fill="#97B7D5"/>
<path d="M114.772 149.536L114.213 149.213V147.186L114.772 147.509V149.536Z" fill="#97B7D5"/>
<path d="M120.764 156.906L119.359 156.095V154.068L120.764 154.88V156.906Z" fill="#97B7D5"/>
<path d="M119.267 156.041L117.861 155.23V153.204L119.267 154.014V156.041Z" fill="#97B7D5"/>
<path d="M117.768 155.177L116.362 154.365V152.338L117.768 153.15V155.177Z" fill="#97B7D5"/>
<path d="M116.27 154.311L114.865 153.5V151.473L116.27 152.285V154.311Z" fill="#97B7D5"/>
<path d="M114.772 153.447L113.366 152.635V150.684L114.212 151.13V151.097L114.772 151.42V153.447Z" fill="#97B7D5"/>
<path d="M113.274 152.581L111.868 151.77V149.894L113.274 150.635V152.581Z" fill="#97B7D5"/>
<path d="M114.772 157.357L113.366 156.545V154.519L114.772 155.33V157.357Z" fill="#97B7D5"/>
<path d="M113.274 156.492L111.868 155.681V153.653L113.274 154.465V156.492Z" fill="#97B7D5"/>
<path d="M114.772 161.267L113.366 160.455V158.429L114.772 159.24V161.267Z" fill="#97B7D5"/>
<path d="M113.274 160.403L111.868 159.591V157.564L113.274 158.376V160.403Z" fill="#97B7D5"/>
<path d="M114.772 165.177L113.366 164.366V162.34L114.772 163.151V165.177Z" fill="#97B7D5"/>
<path d="M113.274 164.313L111.868 163.501V161.475L113.274 162.286V164.313Z" fill="#97B7D5"/>
<path d="M138.746 182.928L137.341 182.117V180.09L138.746 180.901L138.746 182.928Z" fill="#97B7D5"/>
<path d="M137.247 182.063L135.842 181.252V179.225L137.247 180.037V182.063Z" fill="#97B7D5"/>
<path d="M135.748 181.198L134.343 180.387V178.36L135.748 179.171V181.198Z" fill="#97B7D5"/>
<path d="M114.772 169.088L113.366 168.277V166.25L114.772 167.062V169.088Z" fill="#97B7D5"/>
<path d="M113.274 168.223L111.868 167.411V165.385L113.274 166.196V168.223Z" fill="#97B7D5"/>
<path d="M138.746 186.839L137.341 186.027V184.001L138.746 184.812L138.746 186.839Z" fill="#97B7D5"/>
<path d="M137.247 185.974L135.842 185.162V183.135L137.247 183.947V185.974Z" fill="#97B7D5"/>
<path d="M135.748 185.109L134.343 184.297V182.27L135.748 183.081V185.109Z" fill="#97B7D5"/>
<path d="M134.251 184.243L132.846 183.432V181.405L134.251 182.217V184.243Z" fill="#97B7D5"/>
<path d="M132.752 183.379L131.347 182.567V180.541L132.752 181.352V183.379Z" fill="#97B7D5"/>
<path d="M131.253 182.513L129.848 181.702V179.675L131.253 180.487V182.513Z" fill="#97B7D5"/>
<path d="M129.755 181.648L128.351 180.837V178.811L129.755 179.621V181.648Z" fill="#97B7D5"/>
<path d="M114.772 172.998L113.366 172.187V170.16L114.772 170.972V172.998Z" fill="#97B7D5"/>
<path d="M113.274 172.133L111.868 171.322V169.295L113.274 170.107V172.133Z" fill="#97B7D5"/>
<path d="M138.746 190.749L137.341 189.937V187.911L138.746 188.722L138.746 190.749Z" fill="#97B7D5"/>
<path d="M137.247 189.884L135.842 189.073V187.046L137.247 187.857V189.884Z" fill="#97B7D5"/>
<path d="M135.748 189.019L134.343 188.207V186.181L135.748 186.992V189.019Z" fill="#97B7D5"/>
<path d="M134.251 188.154L132.846 187.343V185.315L134.251 186.127V188.154Z" fill="#97B7D5"/>
<path d="M132.752 187.289L131.347 186.477V184.451L132.752 185.263V187.289Z" fill="#97B7D5"/>
<path d="M131.253 186.424L129.848 185.613V183.586L131.253 184.397V186.424Z" fill="#97B7D5"/>
<path d="M129.755 185.559L128.351 184.747V182.721L129.755 183.532V185.559Z" fill="#97B7D5"/>
<path d="M128.257 184.694L126.852 183.882V181.856L128.257 182.667V184.694Z" fill="#97B7D5"/>
<path d="M126.758 183.828L125.353 183.018V180.991L126.758 181.802V183.828Z" fill="#97B7D5"/>
<path d="M125.259 182.964L123.854 182.152V180.126L125.259 180.937V182.964Z" fill="#97B7D5"/>
<path d="M123.762 182.098L122.356 181.288V179.26L123.762 180.072V182.098Z" fill="#97B7D5"/>
<path d="M122.263 181.234L120.857 180.422V178.396L122.263 179.207V181.234Z" fill="#97B7D5"/>
<path d="M114.772 176.909L113.366 176.097V174.07L114.772 174.882V176.909Z" fill="#97B7D5"/>
<path d="M113.274 176.044L111.868 175.232V173.206L113.274 174.018V176.044Z" fill="#97B7D5"/>
<path d="M138.746 194.659L137.341 193.847V191.821L138.746 192.633L138.746 194.659Z" fill="#97B7D5"/>
<path d="M137.247 193.795L135.842 192.983V190.956L137.247 191.768V193.795Z" fill="#97B7D5"/>
<path d="M135.748 192.929L134.343 192.118V190.091L135.748 190.902V192.929Z" fill="#97B7D5"/>
<path d="M134.251 192.065L132.846 191.253V189.226L134.251 190.038V192.065Z" fill="#97B7D5"/>
<path d="M132.752 191.199L131.347 190.388V188.361L132.752 189.173V191.199Z" fill="#97B7D5"/>
<path d="M131.253 190.334L129.848 189.523V187.497L131.253 188.307V190.334Z" fill="#97B7D5"/>
<path d="M129.755 189.469L128.351 188.658V186.631L129.755 187.443V189.469Z" fill="#97B7D5"/>
<path d="M128.257 188.604L126.852 187.793V185.767L128.257 186.577V188.604Z" fill="#97B7D5"/>
<path d="M126.758 187.739L125.353 186.928V184.901L126.758 185.713V187.739Z" fill="#97B7D5"/>
<path d="M125.259 186.874L123.854 186.063V184.036L125.259 184.847V186.874Z" fill="#97B7D5"/>
<path d="M123.762 186.009L122.356 185.198V183.171L123.762 183.983V186.009Z" fill="#97B7D5"/>
<path d="M122.263 185.144L120.857 184.333V182.306L122.263 183.118V185.144Z" fill="#97B7D5"/>
<path d="M120.764 184.279L119.359 183.468V181.441L120.764 182.252V184.279Z" fill="#97B7D5"/>
<path d="M119.267 183.414L117.861 182.602V180.576L119.267 181.388V183.414Z" fill="#97B7D5"/>
<path d="M117.768 182.55L116.362 181.738V179.712L117.768 180.522V182.55Z" fill="#97B7D5"/>
<path d="M116.27 181.684L114.865 180.873V178.846L116.27 179.657V181.684Z" fill="#97B7D5"/>
<path d="M114.772 180.82L113.366 180.008V177.981L114.772 178.792V180.82Z" fill="#97B7D5"/>
<path d="M113.274 179.954L111.868 179.143V177.116L113.274 177.928V179.954Z" fill="#97B7D5"/>
<path d="M137.341 139.102L138.746 139.914V137.887L137.341 137.076V139.102Z" fill="#7DB4E3"/>
<path d="M135.842 138.238L137.247 139.048V137.022L135.842 136.21V138.238Z" fill="#7DB4E3"/>
<path d="M134.343 137.372L135.748 138.184V136.157L134.343 135.346V137.372Z" fill="#7DB4E3"/>
<path d="M132.846 136.508L134.251 137.318V135.292L132.846 134.48V136.508Z" fill="#7DB4E3"/>
<path d="M131.347 135.642L132.752 136.454V134.427L131.347 133.616V135.642Z" fill="#7DB4E3"/>
<path d="M129.848 134.777L131.253 135.589V133.562L129.848 132.75V134.777Z" fill="#7DB4E3"/>
<path d="M128.351 133.912L129.756 134.724L129.755 132.697L128.351 131.886V133.912Z" fill="#7DB4E3"/>
<path d="M126.852 133.047L128.257 133.859V131.832L126.852 131.021V133.047Z" fill="#7DB4E3"/>
<path d="M125.353 132.183L126.758 132.994V130.967L125.353 130.156V132.183Z" fill="#7DB4E3"/>
<path d="M123.854 131.317L125.26 132.129L125.259 130.102L123.854 129.291V131.317Z" fill="#7DB4E3"/>
<path d="M122.356 130.453L123.762 131.263V129.237L122.356 128.426V130.453Z" fill="#7DB4E3"/>
<path d="M120.857 129.587L122.263 130.399V128.372L120.857 127.561V129.587Z" fill="#7DB4E3"/>
<path d="M119.359 128.723L120.765 129.533L120.764 127.507L119.359 126.695V128.723Z" fill="#7DB4E3"/>
<path d="M117.861 127.857L119.267 128.669V126.642L117.861 125.831V127.857Z" fill="#7DB4E3"/>
<path d="M116.362 126.992L117.768 127.803V125.777L116.362 124.965V126.992Z" fill="#7DB4E3"/>
<path d="M114.865 126.127L116.271 126.939L116.27 124.912L114.865 124.101V126.127Z" fill="#7DB4E3"/>
<path d="M113.366 125.262L114.772 126.074V124.047L113.366 123.235V125.262Z" fill="#7DB4E3"/>
<path d="M111.868 124.397L113.274 125.209V123.182L111.868 122.371V124.397Z" fill="#7DB4E3"/>
<path d="M137.341 135.192L138.746 136.004V133.976L137.341 133.165V135.192Z" fill="#7DB4E3"/>
<path d="M135.842 134.327L137.247 135.138V133.112L135.842 132.3V134.327Z" fill="#7DB4E3"/>
<path d="M134.343 133.462L135.748 134.274V132.246L134.343 131.435V133.462Z" fill="#7DB4E3"/>
<path d="M132.846 132.597L134.251 133.408V131.382L132.846 130.57V132.597Z" fill="#7DB4E3"/>
<path d="M131.347 131.732L132.752 132.544V130.516L131.347 129.706V131.732Z" fill="#7DB4E3"/>
<path d="M129.848 130.867L131.253 131.678V129.652L129.848 128.84V130.867Z" fill="#7DB4E3"/>
<path d="M128.351 130.002L129.756 130.813L129.755 128.786L128.351 127.975V130.002Z" fill="#7DB4E3"/>
<path d="M126.852 129.137L128.257 129.948V127.922L126.852 127.11V129.137Z" fill="#7DB4E3"/>
<path d="M125.353 128.272L126.758 129.083V127.056L125.353 126.245V128.272Z" fill="#7DB4E3"/>
<path d="M123.854 127.407L125.26 128.219L125.259 126.192L123.854 125.38V127.407Z" fill="#7DB4E3"/>
<path d="M122.356 126.542L123.762 127.353V125.327L122.356 124.515V126.542Z" fill="#7DB4E3"/>
<path d="M120.857 125.677L122.263 126.489V124.461L120.857 123.65V125.677Z" fill="#7DB4E3"/>
<path d="M119.359 124.812L120.765 125.623L120.764 123.597L119.359 122.785V124.812Z" fill="#7DB4E3"/>
<path d="M117.861 123.947L119.267 124.759V122.731L117.861 121.921V123.947Z" fill="#7DB4E3"/>
<path d="M116.362 123.082L117.768 123.893V121.867L116.362 121.055V123.082Z" fill="#7DB4E3"/>
<path d="M114.865 122.217L116.271 123.029L116.27 121.001L114.865 120.19V122.217Z" fill="#7DB4E3"/>
<path d="M113.366 121.352L114.772 122.163V120.137L113.366 119.325V121.352Z" fill="#7DB4E3"/>
<path d="M111.868 120.487L113.274 121.298V119.271L111.868 118.46V120.487Z" fill="#7DB4E3"/>
<path d="M137.341 131.282L138.746 132.093V130.066L137.341 129.255V131.282Z" fill="#7DB4E3"/>
<path d="M135.842 130.416L137.247 131.228V129.201L135.842 128.39V130.416Z" fill="#7DB4E3"/>
<path d="M134.343 129.552L135.748 130.363V128.336L134.343 127.525V129.552Z" fill="#7DB4E3"/>
<path d="M132.846 128.686L134.251 129.498V127.471L132.846 126.66V128.686Z" fill="#7DB4E3"/>
<path d="M131.347 127.822L132.752 128.633V126.606L131.347 125.795V127.822Z" fill="#7DB4E3"/>
<path d="M129.848 126.957L131.253 127.768V125.742L129.848 124.93V126.957Z" fill="#7DB4E3"/>
<path d="M128.351 126.091L129.756 126.903L129.755 124.876L128.351 124.065V126.091Z" fill="#7DB4E3"/>
<path d="M126.852 125.227L128.257 126.038V124.011L126.852 123.2V125.227Z" fill="#7DB4E3"/>
<path d="M125.353 124.361L126.758 125.173V123.146L125.353 122.335V124.361Z" fill="#7DB4E3"/>
<path d="M123.854 123.497L125.26 124.308L125.259 122.281L123.854 121.47V123.497Z" fill="#7DB4E3"/>
<path d="M122.356 122.631L123.762 123.443V121.416L122.356 120.605V122.631Z" fill="#7DB4E3"/>
<path d="M120.857 121.767L122.263 122.578V120.551L120.857 119.74V121.767Z" fill="#7DB4E3"/>
<path d="M119.359 120.901L120.765 121.713L120.764 119.686L119.359 118.875V120.901Z" fill="#7DB4E3"/>
<path d="M117.861 120.037L119.267 120.848V118.821L117.861 118.01V120.037Z" fill="#7DB4E3"/>
<path d="M116.362 119.172L117.768 119.983V117.957L116.362 117.145V119.172Z" fill="#7DB4E3"/>
<path d="M114.865 118.306L116.271 119.118L116.27 117.091L114.865 116.28V118.306Z" fill="#7DB4E3"/>
<path d="M113.366 117.442L114.772 118.253V116.227L113.366 115.415V117.442Z" fill="#7DB4E3"/>
<path d="M111.868 116.576L113.274 117.388V115.361L111.868 114.55V116.576Z" fill="#7DB4E3"/>
<path d="M137.341 127.372L138.746 128.182V126.156L137.341 125.344V127.372Z" fill="#7DB4E3"/>
<path d="M135.842 126.506L137.247 127.318V125.291L135.842 124.48V126.506Z" fill="#7DB4E3"/>
<path d="M134.343 125.641L135.748 126.452V124.426L134.343 123.614V125.641Z" fill="#7DB4E3"/>
<path d="M132.846 124.776L134.251 125.588V123.561L132.846 122.75V124.776Z" fill="#7DB4E3"/>
<path d="M131.347 123.911L132.752 124.723V122.696L131.347 121.884V123.911Z" fill="#7DB4E3"/>
<path d="M129.848 123.046L131.253 123.858V121.831L129.848 121.02V123.046Z" fill="#7DB4E3"/>
<path d="M128.351 122.181L129.756 122.993L129.755 120.966L128.351 120.154V122.181Z" fill="#7DB4E3"/>
<path d="M126.852 121.316L128.257 122.127V120.101L126.852 119.289V121.316Z" fill="#7DB4E3"/>
<path d="M125.353 120.451L126.758 121.263V119.236L125.353 118.425V120.451Z" fill="#7DB4E3"/>
<path d="M123.854 119.586L125.26 120.397L125.259 118.371L123.854 117.559V119.586Z" fill="#7DB4E3"/>
<path d="M122.356 118.721L123.762 119.533V117.506L122.356 116.695V118.721Z" fill="#7DB4E3"/>
<path d="M120.857 117.856L122.263 118.667V116.641L120.857 115.829V117.856Z" fill="#7DB4E3"/>
<path d="M119.359 116.991L120.765 117.803L120.764 115.776L119.359 114.965V116.991Z" fill="#7DB4E3"/>
<path d="M117.861 116.126L119.267 116.937V114.911L117.861 114.099V116.126Z" fill="#7DB4E3"/>
<path d="M116.362 115.261L117.768 116.073V114.045L116.362 113.235V115.261Z" fill="#7DB4E3"/>
<path d="M114.865 114.396L116.271 115.208L116.27 113.181L114.865 112.369V114.396Z" fill="#7DB4E3"/>
<path d="M113.366 113.531L114.772 114.343V112.316L113.366 111.504V113.531Z" fill="#7DB4E3"/>
<path d="M111.868 112.666L113.274 113.478V111.451L111.868 110.639V112.666Z" fill="#7DB4E3"/>
<path d="M137.341 123.461L138.746 124.272V122.246L137.341 121.434V123.461Z" fill="#7DB4E3"/>
<path d="M135.842 122.596L137.247 123.407V121.38L135.842 120.569V122.596Z" fill="#7DB4E3"/>
<path d="M134.343 121.731L135.748 122.542V120.516L134.343 119.704V121.731Z" fill="#7DB4E3"/>
<path d="M132.846 120.866L134.251 121.677V119.65L132.846 118.839V120.866Z" fill="#7DB4E3"/>
<path d="M131.347 120.001L132.752 120.812V118.786L131.347 117.974V120.001Z" fill="#7DB4E3"/>
<path d="M129.848 119.136L131.253 119.947V117.92L129.848 117.109V119.136Z" fill="#7DB4E3"/>
<path d="M128.351 118.271L129.756 119.082L129.755 117.056L128.351 116.244V118.271Z" fill="#7DB4E3"/>
<path d="M126.852 117.405L128.257 118.217V116.19L126.852 115.379V117.405Z" fill="#7DB4E3"/>
<path d="M125.353 116.541L126.758 117.352V115.325L125.353 114.514V116.541Z" fill="#7DB4E3"/>
<path d="M123.854 115.676L125.26 116.487L125.259 114.461L123.854 113.649V115.676Z" fill="#7DB4E3"/>
<path d="M122.356 114.811L123.762 115.622V113.595L122.356 112.784V114.811Z" fill="#7DB4E3"/>
<path d="M120.857 113.946L122.263 114.757V112.731L120.857 111.919V113.946Z" fill="#7DB4E3"/>
<path d="M119.359 113.081L120.765 113.892L120.764 111.865L119.359 111.054V113.081Z" fill="#7DB4E3"/>
<path d="M117.861 112.216L119.267 113.027V111.001L117.861 110.189V112.216Z" fill="#7DB4E3"/>
<path d="M116.362 111.35L117.768 112.162V110.135L116.362 109.324V111.35Z" fill="#7DB4E3"/>
<path d="M114.865 110.486L116.271 111.297L116.27 109.271L114.865 108.459V110.486Z" fill="#7DB4E3"/>
<path d="M113.366 109.62L114.772 110.432V108.405L113.366 107.594V109.62Z" fill="#7DB4E3"/>
<path d="M111.868 108.756L113.274 109.567V107.541L111.868 106.729V108.756Z" fill="#7DB4E3"/>
<path d="M137.341 119.55L138.746 120.362V118.335L137.341 117.524V119.55Z" fill="#7DB4E3"/>
<path d="M135.842 118.686L137.247 119.497V117.47L135.842 116.659V118.686Z" fill="#7DB4E3"/>
<path d="M134.343 117.82L135.748 118.632V116.605L134.343 115.794V117.82Z" fill="#7DB4E3"/>
<path d="M132.846 116.955L134.251 117.767V115.74L132.846 114.929V116.955Z" fill="#7DB4E3"/>
<path d="M131.347 116.091L132.752 116.902V114.875L131.347 114.064V116.091Z" fill="#7DB4E3"/>
<path d="M129.848 115.225L131.253 116.037V114.01L129.848 113.199V115.225Z" fill="#7DB4E3"/>
<path d="M128.351 114.361L129.756 115.171L129.755 113.145L128.351 112.334V114.361Z" fill="#7DB4E3"/>
<path d="M126.852 113.495L128.257 114.307V112.28L126.852 111.469V113.495Z" fill="#7DB4E3"/>
<path d="M125.353 112.631L126.758 113.441V111.415L125.353 110.603V112.631Z" fill="#7DB4E3"/>
<path d="M123.854 111.765L125.26 112.577L125.259 110.55L123.854 109.739V111.765Z" fill="#7DB4E3"/>
<path d="M122.356 110.901L123.762 111.712V109.685L122.356 108.873V110.901Z" fill="#7DB4E3"/>
<path d="M120.857 110.035L122.263 110.847V108.82L120.857 108.009V110.035Z" fill="#7DB4E3"/>
<path d="M119.359 109.17L120.765 109.982L120.764 107.955L119.359 107.143V109.17Z" fill="#7DB4E3"/>
<path d="M117.861 108.306L119.267 109.117V107.09L117.861 106.279V108.306Z" fill="#7DB4E3"/>
<path d="M116.362 107.44L117.768 108.252V106.225L116.362 105.414V107.44Z" fill="#7DB4E3"/>
<path d="M114.865 106.576L116.271 107.387L116.27 105.36L114.865 104.549V106.576Z" fill="#7DB4E3"/>
<path d="M113.366 105.71L114.772 106.522V104.495L113.366 103.684V105.71Z" fill="#7DB4E3"/>
<path d="M111.868 104.846L113.274 105.657V103.63L111.868 102.818V104.846Z" fill="#7DB4E3"/>
<path d="M137.341 115.64L138.746 116.451V114.424L137.341 113.614V115.64Z" fill="#7DB4E3"/>
<path d="M135.842 114.775L137.247 115.586V113.56L135.842 112.748V114.775Z" fill="#7DB4E3"/>
<path d="M134.343 113.91L135.748 114.721V112.694L134.343 111.883V113.91Z" fill="#7DB4E3"/>
<path d="M132.846 113.045L134.251 113.856V111.83L132.846 111.018V113.045Z" fill="#7DB4E3"/>
<path d="M131.347 112.18L132.752 112.991V110.965L131.347 110.153V112.18Z" fill="#7DB4E3"/>
<path d="M129.848 111.315L131.253 112.127V110.1L129.848 109.288V111.315Z" fill="#7DB4E3"/>
<path d="M128.351 110.45L129.756 111.261L129.755 109.235L128.351 108.423V110.45Z" fill="#7DB4E3"/>
<path d="M126.852 109.585L128.257 110.397V108.37L126.852 107.558V109.585Z" fill="#7DB4E3"/>
<path d="M125.353 108.72L126.758 109.531V107.505L125.353 106.693V108.72Z" fill="#7DB4E3"/>
<path d="M123.854 107.855L125.26 108.667L125.259 106.639L123.854 105.828V107.855Z" fill="#7DB4E3"/>
<path d="M122.356 106.99L123.762 107.801V105.775L122.356 104.963V106.99Z" fill="#7DB4E3"/>
<path d="M120.857 106.125L122.263 106.936V104.909L120.857 104.099V106.125Z" fill="#7DB4E3"/>
<path d="M119.359 105.26L120.765 106.071L120.764 104.045L119.359 103.233V105.26Z" fill="#7DB4E3"/>
<path d="M117.861 104.395L119.267 105.206V103.179L117.861 102.368V104.395Z" fill="#7DB4E3"/>
<path d="M116.362 103.53L117.768 104.341V102.315L116.362 101.503V103.53Z" fill="#7DB4E3"/>
<path d="M114.865 102.665L116.271 103.476L116.27 101.45L114.865 100.638V102.665Z" fill="#7DB4E3"/>
<path d="M113.366 101.8L114.772 102.612V100.585L113.366 99.7734V101.8Z" fill="#7DB4E3"/>
<path d="M111.868 100.935L113.274 101.746V99.7196L111.868 98.9081V100.935Z" fill="#7DB4E3"/>
<path d="M137.341 111.729L138.746 112.541V110.514L137.341 109.703V111.729Z" fill="#7DB4E3"/>
<path d="M135.842 110.865L137.247 111.676V109.65L135.842 108.838V110.865Z" fill="#7DB4E3"/>
<path d="M134.343 109.999L135.748 110.811V108.784L134.343 107.973V109.999Z" fill="#7DB4E3"/>
<path d="M132.846 109.135L134.251 109.946V107.92L132.846 107.108V109.135Z" fill="#7DB4E3"/>
<path d="M131.347 108.269L132.752 109.081V107.054L131.347 106.243V108.269Z" fill="#7DB4E3"/>
<path d="M129.848 107.405L131.253 108.216V106.189L129.848 105.378V107.405Z" fill="#7DB4E3"/>
<path d="M128.351 106.539L129.756 107.351L129.755 105.324L128.351 104.513V106.539Z" fill="#7DB4E3"/>
<path d="M126.852 105.675L128.257 106.486V104.459L126.852 103.648V105.675Z" fill="#7DB4E3"/>
<path d="M125.353 104.809L126.758 105.621V103.594L125.353 102.783V104.809Z" fill="#7DB4E3"/>
<path d="M123.854 103.945L125.26 104.756L125.259 102.729L123.854 101.918V103.945Z" fill="#7DB4E3"/>
<path d="M122.356 103.08L123.762 103.891V101.865L122.356 101.053V103.08Z" fill="#7DB4E3"/>
<path d="M120.857 102.214L122.263 103.026V100.999L120.857 100.188V102.214Z" fill="#7DB4E3"/>
<path d="M119.359 101.35L120.765 102.161L120.764 100.134L119.359 99.3231V101.35Z" fill="#7DB4E3"/>
<path d="M117.861 100.484L119.267 101.296V99.2693L117.861 98.4577V100.484Z" fill="#7DB4E3"/>
<path d="M116.362 99.6197L117.768 100.431V98.4039L116.362 97.5931V99.6197Z" fill="#7DB4E3"/>
<path d="M114.865 98.7544L116.271 99.5659L116.27 97.5393L114.865 96.7278V98.7544Z" fill="#7DB4E3"/>
<path d="M113.366 97.8897L114.772 98.7013V96.6739L113.366 95.8632V97.8897Z" fill="#7DB4E3"/>
<path d="M111.868 97.0244L113.274 97.8359V95.8094L111.868 94.9978V97.0244Z" fill="#7DB4E3"/>
<path d="M137.341 107.819L138.746 108.631V106.604L137.341 105.792V107.819Z" fill="#7DB4E3"/>
<path d="M135.842 106.954L137.247 107.766V105.739L135.842 104.928V106.954Z" fill="#7DB4E3"/>
<path d="M134.343 106.089L135.748 106.901V104.874L134.343 104.062V106.089Z" fill="#7DB4E3"/>
<path d="M132.846 105.224L134.251 106.035V104.009L132.846 103.197V105.224Z" fill="#7DB4E3"/>
<path d="M131.347 104.359L132.752 105.171V103.144L131.347 102.333V104.359Z" fill="#7DB4E3"/>
<path d="M129.848 103.495L131.253 104.305V102.279L129.848 101.467V103.495Z" fill="#7DB4E3"/>
<path d="M128.351 102.629L129.756 103.441L129.755 101.414L128.351 100.603V102.629Z" fill="#7DB4E3"/>
<path d="M126.852 101.765L128.257 102.575V100.549L126.852 99.7373V101.765Z" fill="#7DB4E3"/>
<path d="M125.353 100.899L126.758 101.711V99.6835L125.353 98.8727V100.899Z" fill="#7DB4E3"/>
<path d="M123.854 100.034L125.26 100.845L125.259 98.8189L123.854 98.0073V100.034Z" fill="#7DB4E3"/>
<path d="M122.356 99.1693L123.762 99.9809V97.9535L122.356 97.1428V99.1693Z" fill="#7DB4E3"/>
<path d="M120.857 98.304L122.263 99.1155V97.089L120.857 96.2774V98.304Z" fill="#7DB4E3"/>
<path d="M119.359 97.4394L120.765 98.2509L120.764 96.2236L119.359 95.412V97.4394Z" fill="#7DB4E3"/>
<path d="M117.861 96.5741L119.267 97.3856V95.359L117.861 94.5475V96.5741Z" fill="#7DB4E3"/>
<path d="M116.362 95.7095L117.768 96.5203V94.4937L116.362 93.6829V95.7095Z" fill="#7DB4E3"/>
<path d="M114.865 94.8441L116.271 95.6557L116.27 93.6291L114.865 92.8176V94.8441Z" fill="#7DB4E3"/>
<path d="M113.366 93.9796L114.772 94.7904V92.7638L113.366 91.9523V93.9796Z" fill="#7DB4E3"/>
<path d="M111.868 93.1142L113.274 93.9258V91.8992L111.868 91.0876V93.1142Z" fill="#7DB4E3"/>
<path d="M137.341 103.909L138.746 104.72V102.694L137.341 101.882V103.909Z" fill="#7DB4E3"/>
<path d="M135.842 103.044L137.247 103.855V101.828L135.842 101.017V103.044Z" fill="#7DB4E3"/>
<path d="M134.343 102.179L135.748 102.99V100.964L134.343 100.152V102.179Z" fill="#7DB4E3"/>
<path d="M132.846 101.314L134.251 102.125V100.098L132.846 99.2869V101.314Z" fill="#7DB4E3"/>
<path d="M131.347 100.449L132.752 101.26V99.2339L131.347 98.4224V100.449Z" fill="#7DB4E3"/>
<path d="M129.848 99.5836L131.253 100.395V98.3686L129.848 97.557V99.5836Z" fill="#7DB4E3"/>
<path d="M128.351 98.719L129.756 99.5306L129.755 97.5032L128.351 96.6924V98.719Z" fill="#7DB4E3"/>
<path d="M126.852 97.8537L128.257 98.6652V96.6386L126.852 95.8271V97.8537Z" fill="#7DB4E3"/>
<path d="M125.353 96.989L126.758 97.7998V95.7732L125.353 94.9624V96.989Z" fill="#7DB4E3"/>
<path d="M123.854 96.1237L125.26 96.9353L125.259 94.9087L123.854 94.0972V96.1237Z" fill="#7DB4E3"/>
<path d="M122.356 95.2591L123.762 96.0699V94.0433L122.356 93.2317V95.2591Z" fill="#7DB4E3"/>
<path d="M120.857 94.3938L122.263 95.2053V93.1787L120.857 92.3672V94.3938Z" fill="#7DB4E3"/>
<path d="M119.359 93.5284L120.765 94.34L120.764 92.3134L119.359 91.5018V93.5284Z" fill="#7DB4E3"/>
<path d="M117.861 92.6638L119.267 93.4754V91.4488L117.861 90.6373V92.6638Z" fill="#7DB4E3"/>
<path d="M116.362 91.7985L117.768 92.61V90.5835L116.362 89.7719V91.7985Z" fill="#7DB4E3"/>
<path d="M114.865 90.9339L116.271 91.7455L116.27 89.7181L114.865 88.9073V90.9339Z" fill="#7DB4E3"/>
<path d="M113.366 90.0686L114.772 90.8801V88.8535L113.366 88.042V90.0686Z" fill="#7DB4E3"/>
<path d="M111.868 89.204L113.274 90.0155V87.9882L111.868 87.1774V89.204Z" fill="#7DB4E3"/>
<path d="M137.341 99.9986L138.746 100.81V98.7828L137.341 97.972V99.9986Z" fill="#7DB4E3"/>
<path d="M135.842 99.1332L137.247 99.9448V97.9182L135.842 97.1066V99.1332Z" fill="#7DB4E3"/>
<path d="M134.343 98.2687L135.748 99.0802V97.0529L134.343 96.2421V98.2687Z" fill="#7DB4E3"/>
<path d="M132.846 97.4033L134.251 98.2148V96.1883L132.846 95.3767V97.4033Z" fill="#7DB4E3"/>
<path d="M131.347 96.5387L132.752 97.3495V95.3229L131.347 94.5121V96.5387Z" fill="#7DB4E3"/>
<path d="M129.848 95.6733L131.253 96.4849V94.4583L129.848 93.6467V95.6733Z" fill="#7DB4E3"/>
<path d="M128.351 94.8088L129.756 95.6196L129.755 93.593L128.351 92.7814V94.8088Z" fill="#7DB4E3"/>
<path d="M126.852 93.9434L128.257 94.7549V92.7284L126.852 91.9168V93.9434Z" fill="#7DB4E3"/>
<path d="M125.353 93.0781L126.758 93.8896V91.8631L125.353 91.0515V93.0781Z" fill="#7DB4E3"/>
<path d="M123.854 92.2135L125.26 93.025L125.259 90.9977L123.854 90.1869V92.2135Z" fill="#7DB4E3"/>
<path d="M122.356 91.3481L123.762 92.1597V90.1331L122.356 89.3215V91.3481Z" fill="#7DB4E3"/>
<path d="M120.857 90.4835L122.263 91.2951V89.2678L120.857 88.457V90.4835Z" fill="#7DB4E3"/>
<path d="M119.359 89.6183L120.765 90.4298L120.764 88.4032L119.359 87.5917V89.6183Z" fill="#7DB4E3"/>
<path d="M117.861 88.7536L119.267 89.5652V87.5378L117.861 86.727V88.7536Z" fill="#7DB4E3"/>
<path d="M116.362 87.8883L117.768 88.6998V86.6733L116.362 85.8617V87.8883Z" fill="#7DB4E3"/>
<path d="M114.865 87.0237L116.271 87.8345L116.27 85.8079L114.865 84.9963V87.0237Z" fill="#7DB4E3"/>
<path d="M113.366 86.1583L114.772 86.9698V84.9433L113.366 84.1317V86.1583Z" fill="#7DB4E3"/>
<path d="M111.868 85.2938L113.274 86.1046V84.078L111.868 83.2665V85.2938Z" fill="#7DB4E3"/>
<path d="M139.772 196.806L139.913 196.887V146.905V96.9237L139.772 96.843V196.806Z" fill="#E5DED0"/>
<path d="M138.745 196.213L138.886 196.294V96.3312L138.745 96.2505V196.213Z" fill="#E5DED0"/>
<path d="M137.244 195.346L137.385 195.428V95.4644L137.244 95.3837V195.346Z" fill="#E5DED0"/>
<path d="M135.743 194.48L135.884 194.561V94.5982L135.743 94.5175V194.48Z" fill="#E5DED0"/>
<path d="M134.242 193.613L134.383 193.695V93.7313L134.242 93.6506V193.613Z" fill="#E5DED0"/>
<path d="M132.741 192.747L132.881 192.828V92.8652L132.741 92.7838V192.747Z" fill="#E5DED0"/>
<path d="M131.24 191.88L131.38 191.961V91.9983L131.24 91.9176V191.88Z" fill="#E5DED0"/>
<path d="M129.74 191.013L129.88 191.095V91.1314L129.74 91.0507V191.013Z" fill="#E5DED0"/>
<path d="M128.238 190.147L128.378 190.228V90.2653L128.238 90.1838V190.147Z" fill="#E5DED0"/>
<path d="M126.738 189.28L126.878 189.361V89.3984L126.738 89.3177V189.28Z" fill="#E5DED0"/>
<path d="M125.237 188.414L125.377 188.495V88.5315L125.237 88.4508V188.414Z" fill="#E5DED0"/>
<path d="M123.735 187.547L123.876 187.628V87.6654L123.735 87.584V187.547Z" fill="#E5DED0"/>
<path d="M122.235 186.68L122.376 186.762V86.7986L122.235 86.7179V186.68Z" fill="#E5DED0"/>
<path d="M120.732 185.814L120.873 185.895V85.9324L120.732 85.8509V185.814Z" fill="#E5DED0"/>
<path d="M119.232 184.947L119.373 185.028V85.0655L119.232 84.9848V184.947Z" fill="#E5DED0"/>
<path d="M117.731 184.08L117.872 184.162V84.1986L117.731 84.1179V184.08Z" fill="#E5DED0"/>
<path d="M116.23 183.214L116.37 183.295V83.3324L116.23 83.251V183.214Z" fill="#E5DED0"/>
<path d="M114.729 182.347L114.869 182.429V82.4656L114.729 82.3849V182.347Z" fill="#E5DED0"/>
<path d="M113.229 181.481L113.368 181.562V81.5995L113.229 81.5181V181.481Z" fill="#E5DED0"/>
<path d="M111.728 180.615L111.867 180.695V80.7326L111.728 80.6512V180.615Z" fill="#E5DED0"/>
<path d="M110.701 180.022L110.841 180.103V80.1401L110.701 80.0586V180.022Z" fill="#E5DED0"/>
<path d="M118.668 82.225L131.59 89.6881L131.836 84.1909L131.953 81.6041L127.295 78.9135L120.893 75.2139L118.668 82.225Z" fill="#827371"/>
<path d="M120.895 75.22L121.378 75.499L120.197 81.6595L131.649 88.271L131.585 89.6874L118.665 82.2274L120.895 75.22Z" fill="#D7CFCF"/>
<path d="M121.378 75.499L120.197 81.6594L118.665 82.2274L120.895 75.22L121.378 75.499Z" fill="#826565"/>
<path d="M140.101 71.6188L147.416 75.8372L148.428 75.2515L141.308 71.1431L140.881 64.6568L140.393 64.3763L140.101 71.6188Z" fill="#D7CFCF"/>
<path d="M140.881 64.6607L141.313 71.1485L140.104 71.615L140.398 64.3817L140.881 64.6607Z" fill="#826565"/>
<path d="M132.711 57.7809L131.553 66.6926L124.055 71.0209L116.923 66.9001L132.711 57.7809Z" fill="#826565"/>
<path d="M138.46 79.3401L139.921 80.1808L143.582 78.0597V76.3782L138.46 79.3401Z" fill="#826565"/>
<path d="M127.296 78.9135V81.5649L131.836 84.1909L131.953 81.6041L127.296 78.9135Z" fill="#E5DED0"/>
<path d="M131.164 75.1232L138.46 79.3401L143.582 76.3782L136.286 72.1614L131.164 75.1232Z" fill="#F8F6E1"/>
<path d="M111.868 181.853V189.34L112.687 188.867V182.326L111.868 181.853Z" fill="#826565"/>
<path d="M111.868 189.34L125.307 197.099V196.152L112.687 188.867L111.868 189.34Z" fill="#E8DCD5"/>
<path d="M112.686 190.22H125.306V182.326H112.686V190.22Z" fill="#AED5FB"/>
<path d="M113.501 189.336L112.688 188.868L113.501 188.4V189.336Z" fill="#B5CEF3"/>
<path d="M113.501 189.34H111.868L112.687 188.867L112.689 188.868L113.501 189.336V189.34Z" fill="#9C8F96"/>
<path d="M126.458 190.276V197.764L127.276 197.29V190.75L126.458 190.276Z" fill="#826565"/>
<path d="M126.458 197.764L138.746 204.858V203.911L127.276 197.29L126.458 197.764Z" fill="#E8DCD5"/>
<path d="M138.747 197.978L128.091 191.855V195.36L127.277 194.897V190.75L138.747 197.37V197.978ZM128.091 197.76L127.277 197.29V196.483H128.091V197.76Z" fill="#AED5FB"/>
<path d="M128.091 196.483H127.277V194.897L128.091 195.36V196.483Z" fill="#B5CEF3"/>
<path d="M128.09 197.764H126.458L127.276 197.29L128.09 197.76V197.764Z" fill="#9C8F96"/>
<path d="M160.745 193.505L160.444 193.33V186.589L160.745 186.415V193.505Z" fill="#BDA195"/>
<path d="M160.444 193.33L160.745 193.505L159.657 194.132V193.784L160.444 193.33Z" fill="#E8DCD5"/>
<path d="M159.295 194.342L158.994 194.167V187.426L159.295 187.252V194.342Z" fill="#BDA195"/>
<path d="M157.739 195.239L157.438 195.066V188.324L157.739 188.151V195.239Z" fill="#BDA195"/>
<path d="M156.183 196.138L155.883 195.964V189.223L156.183 189.048V196.138Z" fill="#BDA195"/>
<path d="M154.629 197.036L154.328 196.862V190.121L154.629 189.947V197.036Z" fill="#BDA195"/>
<path d="M153.072 197.934L152.771 197.76V191.019L153.072 190.845V197.934Z" fill="#BDA195"/>
<path d="M151.516 198.832L151.216 198.658V191.917L151.516 191.742V198.832Z" fill="#BDA195"/>
<path d="M149.961 199.73L149.66 199.557V192.815L149.961 192.641V199.73Z" fill="#BDA195"/>
<path d="M148.405 200.629L148.104 200.455V193.713L148.405 193.539V200.629Z" fill="#BDA195"/>
<path d="M146.849 201.527L146.549 201.353V194.611L146.849 194.438V201.527Z" fill="#BDA195"/>
<path d="M145.294 202.425L144.993 202.251V195.51L145.294 195.335V202.425Z" fill="#BDA195"/>
<path d="M143.738 203.323L143.438 203.15V196.408L143.738 196.234V203.323Z" fill="#BDA195"/>
<path d="M142.182 204.222L141.882 204.047V197.306L142.182 197.132V204.222Z" fill="#BDA195"/>
</svg>
