<svg width="353" height="276" viewBox="0 0 353 276" fill="none" xmlns="http://www.w3.org/2000/svg">
<rect width="353" height="276" fill="#B7B7B7" fill-opacity="0.19"/>
<path d="M232.005 200.458H254.006V212.594C254.006 213.923 252.928 215 251.599 215H234.411C233.082 215 232.005 213.923 232.005 212.594V200.458Z" fill="#83B4D8"/>
<path d="M232.005 200.458V212.594C232.005 213.923 233.082 215 234.411 215H239.088V200.458H232.005Z" fill="#9FD1EA"/>
<path d="M100 200.458H122.001V212.594C122.001 213.923 120.923 215 119.594 215H102.406C101.077 215 100 213.923 100 212.594V200.458Z" fill="#83B4D8"/>
<path d="M100 200.458V212.594C100 213.923 101.077 215 102.406 215H107.083V200.458H100Z" fill="#9FD1EA"/>
<path d="M89 181.993V193.005L94.3122 196.546H259.282L265.006 193.005V181.993L259.045 178.452H94.3122L89 181.993Z" fill="#C48960"/>
<path d="M89 181.993V193.005L94.3122 196.546H99.6243V178.452H94.3122L89 181.993Z" fill="#C9997A"/>
<path d="M210.004 181.993H220.628V193.004H210.004V181.993Z" fill="#C9997A"/>
<path d="M89 192.989V201.593C89 202.922 90.0774 204 91.4063 204H144.002L154.626 200.458H200.494L210.004 204H262.6C263.929 204 265.006 202.922 265.006 201.593V192.989H89Z" fill="#E2AE83"/>
<path d="M166.003 145.462H188.004V163.545H166.003V145.462Z" fill="#9FD1EA"/>
<path d="M221.005 174.54H133.002V162.41C133.002 161.081 134.079 160.004 135.408 160.004H218.599C219.928 160.004 221.005 161.081 221.005 162.41V174.54Z" fill="#83B4D8"/>
<path d="M133.002 162.41V174.54H143.626V160.004H135.408C134.079 160.004 133.002 161.081 133.002 162.41Z" fill="#9FD1EA"/>
<path d="M89 173.399V182.004H265.006V173.399C265.006 172.07 263.929 170.993 262.6 170.993H210.004L200.966 174.534H154.626L144.002 170.993H91.4063C90.0774 170.993 89 172.07 89 173.399Z" fill="#E2AE83"/>
<path d="M89 192.989V201.593C89 202.922 90.0774 204 91.4063 204H99.6243V192.989H89Z" fill="#E3AF87"/>
<path d="M89 173.399V182.004H99.6243V170.993H91.4063C90.0774 170.993 89 172.07 89 173.399Z" fill="#E3AF87"/>
<path d="M144.002 170.993H210.004V204H144.002V170.993Z" fill="#C48960"/>
<path d="M144.002 170.998H154.626V204H144.002V170.998Z" fill="#C9997A"/>
<path d="M210.004 192.989H220.628V204H210.004V192.989Z" fill="#E3AF87"/>
<path d="M210.004 170.993H220.628V182.004H210.004V170.993Z" fill="#E3AF87"/>
<path d="M251.599 149.003H102.406C101.077 149.003 100 147.926 100 146.597V63.4063C100 62.0774 101.077 61 102.406 61H251.599C252.928 61 254.005 62.0774 254.005 63.4063V146.597C254.005 147.926 252.928 149.003 251.599 149.003Z" fill="#83B4D8"/>
<path d="M100 63.4063V146.597C100 147.926 101.077 149.003 102.406 149.003H111V61H102.406C101.077 61 100 62.0774 100 63.4063Z" fill="#83B4D8"/>
<path d="M240.599 138.003H113.407C112.078 138.003 111.001 136.925 111.001 135.596V74.4067C111.001 73.0777 112.078 72.0004 113.407 72.0004H240.599C241.928 72.0004 243.006 73.0777 243.006 74.4067V135.596C243.006 136.925 241.928 138.003 240.599 138.003Z" fill="#C5E3EA"/>
</svg>
