<svg width="353" height="276" viewBox="0 0 353 276" fill="none" xmlns="http://www.w3.org/2000/svg">
<rect width="353" height="276" fill="#DBA1D5" fill-opacity="0.19"/>
<path d="M181.77 72.8462H187.693V114.308H181.77V72.8462Z" fill="#878787"/>
<path d="M166.962 81.7308H172.885V90.6154H166.962V81.7308Z" fill="#F9DA55"/>
<path d="M175.846 75.8077H161.039C159.404 75.8077 158.077 74.4809 158.077 72.8461C158.077 71.2114 159.404 69.8846 161.039 69.8846H175.846C177.481 69.8846 178.808 71.2114 178.808 72.8461C178.808 74.4809 177.481 75.8077 175.846 75.8077Z" fill="#F9DA55"/>
<path d="M178.808 61H164C157.458 61 152.154 66.3041 152.154 72.8462H184.731H190.654C190.654 66.3041 185.35 61 178.808 61Z" fill="#CFCFCF"/>
<path d="M178.807 61H175.846C182.388 61 187.692 66.3041 187.692 72.8462H190.653C190.653 66.3041 185.349 61 178.807 61Z" fill="#B8B8B8"/>
<path d="M196.577 114.308H184.731H172.885V123.192H196.577V114.308Z" fill="#CFCFCF"/>
<path d="M172.885 120.231H196.577V123.192H172.885V120.231Z" fill="#B8B8B8"/>
<path d="M178.808 135.038H255.808V158.731H178.808V135.038Z" fill="#FFF9F0"/>
<path d="M178.808 158.731H255.808V215H178.808V158.731Z" fill="#FFF9F0"/>
<path d="M241 149.846C239.365 149.846 238.038 148.519 238.038 146.885C238.038 145.25 239.365 143.923 241 143.923C242.634 143.923 243.961 145.25 243.961 146.885C243.961 148.519 242.634 149.846 241 149.846Z" fill="#904C2A"/>
<path d="M241 173.538C239.365 173.538 238.038 172.212 238.038 170.577C238.038 168.942 239.365 167.615 241 167.615C242.634 167.615 243.961 168.942 243.961 170.577C243.961 172.212 242.634 173.538 241 173.538Z" fill="#904C2A"/>
<path d="M255.808 155.769H186.955C183.981 150.157 181.544 144.216 179.696 138H255.808V135.038H178.808V138V155.769V161.692V215H255.808L250.219 213.67C224.996 207.664 203.693 183.045 190.369 161.692H255.808V155.769Z" fill="#FFF2E2"/>
<path d="M87 123.192V135.038H92.9231V215H98.8462V135.038H264.692V123.192H87Z" fill="#904C2A"/>
<path d="M122.538 215C125.81 215 128.461 212.348 128.461 209.077C128.461 205.806 125.81 203.154 122.538 203.154C119.267 203.154 116.615 205.806 116.615 209.077C116.615 212.348 119.267 215 122.538 215Z" fill="#904C2A"/>
<path d="M122.538 215C125.81 215 128.461 212.348 128.461 209.077C128.461 205.806 125.81 203.154 122.538 203.154C119.267 203.154 116.615 205.806 116.615 209.077C116.615 212.348 119.267 215 122.538 215Z" fill="#878787"/>
<path d="M152.154 215C155.425 215 158.077 212.348 158.077 209.077C158.077 205.806 155.425 203.154 152.154 203.154C148.882 203.154 146.23 205.806 146.23 209.077C146.23 212.348 148.882 215 152.154 215Z" fill="#878787"/>
<path d="M255.807 111.346H220.269C216.996 111.346 214.346 113.997 214.346 117.269C214.346 120.542 216.996 123.192 220.269 123.192H255.807V111.346Z" fill="#59AAE2"/>
<path d="M152.154 96.5385H122.539C115.996 96.5385 110.692 101.843 110.692 108.385L112.543 123.192L114.024 135.038L116.615 155.769H158.077L160.668 135.038L162.149 123.192L164 108.385C164 101.843 158.696 96.5385 152.154 96.5385Z" fill="#59AAE2"/>
<path d="M255.807 99.5H241H220.269C216.996 99.5 214.346 102.151 214.346 105.423C214.346 108.696 216.996 111.346 220.269 111.346H255.807V99.5Z" fill="#539FD4"/>
<path d="M246.923 87.6538H226.193C222.92 87.6538 220.27 90.3044 220.27 93.5769C220.27 96.8494 222.92 99.5 226.193 99.5H246.923V87.6538Z" fill="#59AAE2"/>
<path d="M110.769 107.615C110.755 107.872 110.692 108.121 110.692 108.385L112.543 123.192L114.024 135.038L116.615 155.769H158.077L158.675 150.992C138.294 142.41 121.375 127.137 110.769 107.615Z" fill="#539FD4"/>
<path d="M152.154 194.269H140.308V167.615H134.385V177.631L132.747 176.814C132.338 176.607 131.882 176.5 131.423 176.5H125.5V182.423H130.724L134.385 184.253V194.269H122.539C120.904 194.269 119.577 195.596 119.577 197.231V206.115C119.577 207.75 120.904 209.077 122.539 209.077C124.173 209.077 125.5 207.75 125.5 206.115V200.192H149.193V206.115C149.193 207.75 150.519 209.077 152.154 209.077C153.789 209.077 155.116 207.75 155.116 206.115V197.231C155.116 195.596 153.789 194.269 152.154 194.269Z" fill="#CFCFCF"/>
<path d="M110.692 161.692C110.692 164.965 113.343 167.615 116.615 167.615H137.346H158.077C161.349 167.615 164 164.965 164 161.692C164 158.42 161.349 155.769 158.077 155.769H116.615C113.343 155.769 110.692 158.42 110.692 161.692Z" fill="#59AAE2"/>
<path d="M155.115 81.7308H161.038V90.6154H155.115V81.7308Z" fill="#F9DA55"/>
<path d="M134.385 167.615L140.308 182.423V167.615H134.385Z" fill="#B8B8B8"/>
</svg>
