<svg width="353" height="276" viewBox="0 0 353 276" fill="none" xmlns="http://www.w3.org/2000/svg">
<rect width="353" height="276" fill="#BAE6EF" fill-opacity="0.19"/>
<path d="M117.704 106.582V106.5H231.921V125.75H117.704V106.582Z" fill="#BAB8FD"/>
<path d="M263.334 164.239V183.47H238.608H230.366V164.239H238.608H263.334Z" fill="#CFCFE8"/>
<path d="M263.334 125.776V145.007H238.608H230.366V125.776H238.608H263.334Z" fill="#CFCFE8"/>
<path d="M230.366 145.007H238.608V164.238H230.366V145.007Z" fill="#DDE0FF"/>
<path d="M263.334 87.3137V106.545H238.608H230.366V87.3137H238.608H263.334Z" fill="#CFCFE8"/>
<path d="M238.608 87.3136V68.0824H205.668H205.613H178.167V87.3136H230.366H238.608Z" fill="#DDE0FF"/>
<path d="M230.366 183.47H238.608V202.673H230.366V183.47Z" fill="#DDE0FF"/>
<path d="M117.704 145.055V145H238.658V164.25H117.704V145.055Z" fill="#BAB8FD"/>
<path d="M117.726 183.47V202.673H93V183.47V183.442H117.726V183.47Z" fill="#DDE0FF"/>
<path d="M238.607 106.545H263.333V125.776H238.607V106.545Z" fill="#BAB8FD"/>
<path d="M117.726 145.007V164.211H93V145.007V144.952H117.726V145.007Z" fill="#DDE0FF"/>
<path d="M238.607 68.0824H263.333V87.3136H238.607V68.0824Z" fill="#BAB8FD"/>
<path d="M231.921 183.5V202.75H117.704V183.528V183.5H231.921Z" fill="#BAB8FD"/>
<path d="M117.726 106.545V125.721H93V106.545V106.462H117.726V106.545Z" fill="#DDE0FF"/>
<path d="M195.987 164.25H230.317V183.5H195.987H93V164.278V164.25H195.987Z" fill="#CFCFE8"/>
<path d="M238.607 183.47H263.333V202.673H238.607V183.47Z" fill="#BAB8FD"/>
<path d="M197.191 87.25H231.921V106.5H197.191H93V87.3325V87.25H197.191Z" fill="#CFCFE8"/>
<path d="M238.607 145.007H263.333V164.238H238.607V145.007Z" fill="#BAB8FD"/>
<path d="M205.612 221.905H150.721V213.69V213.635H205.667V213.69V221.905H205.612Z" fill="#BAB8FD"/>
<path d="M117.704 68.165V106.5H125.929H178.021V84.555V68.165H150.577V68H117.704V68.165Z" fill="#BAB8FD"/>
<path d="M230.366 106.545H238.608V125.776H230.366V106.545Z" fill="#DDE0FF"/>
<path d="M117.726 202.673H125.968V213.635H150.721V213.69V221.905H150.666H93V202.701V202.673H117.726Z" fill="#CFCFE8"/>
<path d="M238.608 202.673H263.334V202.701V221.905H205.668V213.69V213.635H230.366V202.673H238.608Z" fill="#CFCFE8"/>
<path d="M197.191 125.721H231.921V144.952H197.191H93V125.776V125.721H197.191Z" fill="#CFCFE8"/>
<path d="M117.726 68.0824V87.2312H93V68.0824V68H117.726V68.0824Z" fill="#DDE0FF"/>
<path d="M158.191 195.05H140.162V187.062V173.048V159.034V145V130.986V116.952V102.938V94.95H178.181H216.2V102.998V117.012V131.026V145.04V159.054V173.068V187.062V195.05H198.211H158.191Z" fill="#8C8C8C"/>
<path d="M190.35 161.051H185.662C184.366 161.051 183.317 160.002 183.317 158.706C183.317 157.411 184.366 156.362 185.662 156.362H190.35C191.646 156.362 192.694 157.411 192.694 158.706C192.694 160.002 191.646 161.051 190.35 161.051Z" fill="#4D5E80"/>
<path d="M256.3 156.362H251.611C250.316 156.362 249.267 157.411 249.267 158.706C249.267 160.002 250.316 161.051 251.611 161.051H256.3C257.593 161.051 258.644 162.101 258.644 163.395V173.321C258.644 174.5 257.76 175.5 256.591 175.647L227.141 179.31C225.646 179.496 224.369 180.216 223.325 181.175C221.915 182.469 220.98 184.255 220.98 186.288V191.525C220.98 192.821 222.029 193.869 223.325 193.869C224.62 193.869 225.669 192.821 225.669 191.525V186.287C225.669 185.108 226.552 184.108 227.722 183.961L257.172 180.299C260.684 179.861 263.332 176.86 263.332 173.321V163.395C263.332 159.517 260.178 156.362 256.3 156.362Z" fill="#4D5E80"/>
<path d="M225.669 191.525V186.287C225.669 185.108 226.553 184.108 227.723 183.961L257.173 180.299C260.684 179.861 263.333 176.86 263.333 173.321V163.395C263.333 159.517 260.178 156.362 256.3 156.362H251.612C250.316 156.362 249.268 157.411 249.268 158.706C249.268 160.002 250.316 161.051 251.612 161.051H256.3C257.594 161.051 258.645 162.101 258.645 163.395V173.321C258.645 174.5 257.761 175.5 256.591 175.647L227.141 179.31C225.647 179.496 224.37 180.216 223.325 181.175V193.869C224.621 193.869 225.669 192.821 225.669 191.525Z" fill="#3D4566"/>
<path d="M251.612 146.985H223.325H190.35C189.054 146.985 188.006 148.034 188.006 149.33V156.849L191.903 161.475L223.325 160.97L247.219 160.586L253.956 155.789V149.33C253.956 148.034 252.908 146.985 251.612 146.985Z" fill="#FFD9B3"/>
<path d="M253.956 155.789V149.33C253.956 148.034 252.908 146.985 251.612 146.985H223.325V160.97L247.219 160.586L253.956 155.789Z" fill="#FFBB99"/>
<path d="M228.013 189.181H218.636C217.323 189.181 216.292 190.212 216.292 191.525V214.967C216.292 218.859 219.433 222 223.325 222C227.216 222 230.357 218.859 230.357 214.967V191.525C230.357 190.212 229.326 189.181 228.013 189.181Z" fill="#FFC44D"/>
<path d="M230.358 191.525V214.967C230.358 218.859 227.217 222 223.325 222V189.181H228.014C229.327 189.181 230.358 190.212 230.358 191.525Z" fill="#FF9040"/>
<path d="M223.325 156.672L219.019 156.058C208.707 154.584 198.2 154.925 188.006 156.849V168.083C188.006 169.379 189.054 170.427 190.35 170.427H223.325H251.612C252.908 170.427 253.956 169.379 253.956 168.083V155.789C237.699 159.034 226.774 156.858 223.325 156.672Z" fill="#EFF0F1"/>
<path d="M253.956 168.083V155.789C237.699 159.034 226.774 156.858 223.325 156.672V170.427H251.612C252.908 170.427 253.956 169.379 253.956 168.083Z" fill="#E1E6F0"/>
</svg>
